<svg id="imp" xmlns="http://www.w3.org/2000/svg" xmlns:xlink="http://www.w3.org/1999/xlink" width="73.958" height="67.391" viewBox="0 0 73.958 67.391">
  <defs>
    <clipPath id="clip-path">
      <rect id="Rectangle_11003" data-name="Rectangle 11003" width="73.958" height="67.391" fill="none"/>
    </clipPath>
    <clipPath id="clip-path-2">
      <rect id="Rectangle_11002" data-name="Rectangle 11002" width="73.958" height="67.391" transform="translate(0 0)" fill="none"/>
    </clipPath>
    <clipPath id="clip-path-3">
      <rect id="Rectangle_10995" data-name="Rectangle 10995" width="25.355" height="18.285" transform="translate(43.573 18.413)" fill="none"/>
    </clipPath>
    <clipPath id="clip-path-4">
      <path id="Path_3633" data-name="Path 3633" d="M67.71,23.281l-20.07,13a2.642,2.642,0,0,1-2.88-4.43l20.07-13a2.642,2.642,0,0,1,2.911,4.41l-.031.02" fill="none"/>
    </clipPath>
    <linearGradient id="linear-gradient" x1="-1.657" y1="2.594" x2="-1.618" y2="2.594" gradientUnits="objectBoundingBox">
      <stop offset="0" stop-color="#179bd6"/>
      <stop offset="1" stop-color="#0e65bb"/>
    </linearGradient>
    <clipPath id="clip-path-5">
      <rect id="Rectangle_10996" data-name="Rectangle 10996" width="18.714" height="14.014" transform="translate(23.383 35.853)" fill="none"/>
    </clipPath>
    <clipPath id="clip-path-6">
      <rect id="Rectangle_10997" data-name="Rectangle 10997" width="25.355" height="18.285" transform="translate(42.522 28.293)" fill="none"/>
    </clipPath>
    <clipPath id="clip-path-7">
      <rect id="Rectangle_10998" data-name="Rectangle 10998" width="18.715" height="14.005" transform="translate(22.352 45.733)" fill="none"/>
    </clipPath>
    <clipPath id="clip-path-8">
      <rect id="Rectangle_10999" data-name="Rectangle 10999" width="5.405" height="5.365" transform="translate(68.553 24.343)" fill="none"/>
    </clipPath>
    <clipPath id="clip-path-9">
      <rect id="Rectangle_11001" data-name="Rectangle 11001" width="46.44" height="65.39" transform="translate(0 1)" fill="none"/>
    </clipPath>
  </defs>
  <g id="Group_3316" data-name="Group 3316" clip-path="url(#clip-path)">
    <g id="Group_3315" data-name="Group 3315">
      <g id="Group_3314" data-name="Group 3314" clip-path="url(#clip-path-2)">
        <g id="Group_3298" data-name="Group 3298" opacity="0.38" style="isolation: isolate">
          <g id="Group_3297" data-name="Group 3297">
            <g id="Group_3296" data-name="Group 3296" clip-path="url(#clip-path-3)">
              <g id="Group_3295" data-name="Group 3295">
                <g id="Group_3294" data-name="Group 3294" clip-path="url(#clip-path-4)">
                  <rect id="Rectangle_10994" data-name="Rectangle 10994" width="26.083" height="19.021" transform="translate(43.211 18.047)" fill="url(#linear-gradient)"/>
                </g>
              </g>
            </g>
          </g>
        </g>
        <g id="Group_3301" data-name="Group 3301" opacity="0.8" style="isolation: isolate">
          <g id="Group_3300" data-name="Group 3300">
            <g id="Group_3299" data-name="Group 3299" clip-path="url(#clip-path-5)">
              <path id="Path_3634" data-name="Path 3634" d="M40.89,40.72,27.47,49.44A2.646,2.646,0,1,1,24.59,45L38,36.29a2.642,2.642,0,0,1,2.911,4.41l-.031.02Z" fill="#ff9d23"/>
            </g>
          </g>
        </g>
        <path id="Path_3635" data-name="Path 3635" d="M58.29,20.22l-20.07,13a2.642,2.642,0,0,1-2.911-4.41l.031-.02,20.07-13a2.65,2.65,0,0,1,2.88,4.44Z" fill="#9f6ae5"/>
        <path id="Path_3636" data-name="Path 3636" d="M31.47,37.65,18.05,46.38A2.65,2.65,0,0,1,14.93,42.1a2.739,2.739,0,0,1,.24-.156l13.42-8.72a2.642,2.642,0,0,1,2.88,4.43" fill="#389bf3"/>
        <path id="Path_3637" data-name="Path 3637" d="M64.34,16.28l-.12.08a2.642,2.642,0,0,1-2.911-4.41l.031-.02.12-.08a2.642,2.642,0,0,1,2.911,4.41l-.031.02" fill="#9f6ae5"/>
        <g id="Group_3304" data-name="Group 3304" opacity="0.38" style="isolation: isolate">
          <g id="Group_3303" data-name="Group 3303">
            <g id="Group_3302" data-name="Group 3302" clip-path="url(#clip-path-6)">
              <path id="Path_3638" data-name="Path 3638" d="M66.69,33.14l-20.07,13a2.642,2.642,0,0,1-2.911-4.41l.031-.02,20.07-13a2.642,2.642,0,0,1,2.88,4.43" fill="#179bd6"/>
            </g>
          </g>
        </g>
        <g id="Group_3307" data-name="Group 3307" opacity="0.5" style="isolation: isolate">
          <g id="Group_3306" data-name="Group 3306">
            <g id="Group_3305" data-name="Group 3305" clip-path="url(#clip-path-7)">
              <path id="Path_3639" data-name="Path 3639" d="M39.87,50.58,26.45,59.3a2.642,2.642,0,0,1-2.911-4.41l.031-.02L37,46.15a2.642,2.642,0,0,1,2.88,4.43Z" fill="#aa7dff"/>
            </g>
          </g>
        </g>
        <g id="Group_3310" data-name="Group 3310" opacity="0.38" style="isolation: isolate">
          <g id="Group_3309" data-name="Group 3309">
            <g id="Group_3308" data-name="Group 3308" clip-path="url(#clip-path-8)">
              <path id="Path_3640" data-name="Path 3640" d="M72.74,29.21l-.12.08a2.642,2.642,0,0,1-2.88-4.43l.12-.08a2.642,2.642,0,0,1,2.911,4.41l-.031.02" fill="#179bd6"/>
            </g>
          </g>
        </g>
        <rect id="Rectangle_11000" data-name="Rectangle 11000" width="46.44" height="65.39" transform="translate(1.49 0.841)" fill="#fff"/>
        <path id="Path_3641" data-name="Path 3641" d="M44.44,67.391H4a4,4,0,0,1-4-4V4A4,4,0,0,1,4,0H35.821l.3.305c.678.7,1.369,1.385,2.062,2.073,1.034,1.026,2.1,2.087,3.125,3.194a.716.716,0,0,1,.134.108l.131.156a29.418,29.418,0,0,0,3.641,4.237c.9.894,1.853,1.836,2.87,2.681l.361.3V63.391a4,4,0,0,1-4,4M4,2A2,2,0,0,0,2,4V63.391a2,2,0,0,0,2,2H44.44a2,2,0,0,0,2-2v-49.4c-.951-.819-1.856-1.712-2.644-2.5A31.661,31.661,0,0,1,40,7.081a1.574,1.574,0,0,1-.167-.156c-.989-1.071-2.043-2.116-3.061-3.127-.6-.6-1.2-1.194-1.793-1.8Z" fill="#179bd6"/>
        <g id="Group_3313" data-name="Group 3313" opacity="0.15" style="isolation: isolate">
          <g id="Group_3312" data-name="Group 3312">
            <g id="Group_3311" data-name="Group 3311" clip-path="url(#clip-path-9)">
              <path id="Path_3642" data-name="Path 3642" d="M12,60.39a3,3,0,0,1-3-3V1H3A3,3,0,0,0,0,4V63.39a3,3,0,0,0,3,3H43.44a3,3,0,0,0,3-3v-3Z" fill="#179bd6"/>
            </g>
          </g>
        </g>
        <path id="Path_3643" data-name="Path 3643" d="M15.372,26.85l-4.091-4.832a1.155,1.155,0,0,1-.023-1.461L15.1,15.738a1.147,1.147,0,0,1,.9-.433,1.15,1.15,0,0,1,.9,1.866l-3.252,4.082,3.48,4.111A1.152,1.152,0,0,1,17,26.984a1.149,1.149,0,0,1-1.623-.134" fill="#9f6ae5"/>
        <path id="Path_3644" data-name="Path 3644" d="M30.825,26.984a1.153,1.153,0,0,1-.132-1.619l3.483-4.111-3.252-4.08a1.151,1.151,0,0,1,1.8-1.435l3.84,4.82a1.155,1.155,0,0,1-.022,1.46l-4.094,4.833a1.149,1.149,0,0,1-1.623.132" fill="#9f6ae5"/>
        <path id="Path_3645" data-name="Path 3645" d="M21.35,26.4a1.154,1.154,0,0,1-.408-1.573l5.377-9.136A1.15,1.15,0,1,1,28.3,16.859L22.927,26a1.161,1.161,0,0,1-.994.566,1.139,1.139,0,0,1-.583-.16" fill="#9f6ae5"/>
        <path id="Path_3646" data-name="Path 3646" d="M38.226,36.11H10.5a.84.84,0,1,1,0-1.679H38.226a.84.84,0,0,1,0,1.679" fill="#179bd6"/>
        <path id="Path_3647" data-name="Path 3647" d="M38.226,36.755H10.5a1.485,1.485,0,0,1,0-2.969H38.226a1.485,1.485,0,0,1,0,2.969M10.5,35.076a.194.194,0,0,0,0,.388H38.226a.194.194,0,0,0,0-.388Z" fill="#179bd6"/>
        <path id="Path_3648" data-name="Path 3648" d="M38.226,42.387H10.5a.84.84,0,1,1,0-1.679H38.226a.84.84,0,0,1,0,1.679" fill="#179bd6"/>
        <path id="Path_3649" data-name="Path 3649" d="M38.226,43.032H10.5a1.485,1.485,0,0,1,0-2.969H38.226a1.485,1.485,0,0,1,0,2.969M10.5,41.35a.194.194,0,0,0,0,.388H38.226a.194.194,0,0,0,0-.388Z" fill="#179bd6"/>
        <path id="Path_3650" data-name="Path 3650" d="M17.51,48.647H10.5a.84.84,0,1,1,0-1.679H17.51a.84.84,0,0,1,0,1.679" fill="#179bd6"/>
        <path id="Path_3651" data-name="Path 3651" d="M17.51,49.292H10.494a1.484,1.484,0,1,1,0-2.969H17.5a1.484,1.484,0,0,1,0,2.969ZM10.5,47.613a.194.194,0,0,0,0,.388H17.51a.194.194,0,1,0,0-.388Z" fill="#179bd6"/>
        <path id="Path_3652" data-name="Path 3652" d="M24.045,54.923H10.5a.84.84,0,1,1,0-1.679H24.045a.84.84,0,1,1,0,1.679" fill="#179bd6"/>
        <path id="Path_3653" data-name="Path 3653" d="M24.045,55.57H10.494a1.484,1.484,0,0,1,0-2.969H24.04a1.484,1.484,0,1,1,0,2.969ZM10.494,53.889a.194.194,0,1,0,0,.388H24.04a.194.194,0,0,0,0-.388Z" fill="#179bd6"/>
        <path id="Path_3654" data-name="Path 3654" d="M28.477,48.647H21.459a.84.84,0,1,1,0-1.679h7.018a.84.84,0,0,1,0,1.679" fill="#179bd6"/>
        <path id="Path_3655" data-name="Path 3655" d="M28.478,49.292H21.459a1.484,1.484,0,0,1,0-2.969h7.018a1.484,1.484,0,1,1,0,2.969ZM21.46,47.613a.194.194,0,0,0,0,.388h7.018a.194.194,0,0,0,0-.388Z" fill="#179bd6"/>
        <path id="Path_3656" data-name="Path 3656" d="M47.1,14.757H35.415A1.216,1.216,0,0,1,34.2,13.542V1.838A1.208,1.208,0,0,1,34.952.717a1.23,1.23,0,0,1,.464-.092,1.213,1.213,0,0,1,.856.353L47.859,12.555a1.215,1.215,0,0,1-.69,2.2H47.1Zm-10.476-2.43h7.563L36.628,4.769Z" fill="#179bd6"/>
      </g>
    </g>
  </g>
</svg>
