<svg id="search" xmlns="http://www.w3.org/2000/svg" xmlns:xlink="http://www.w3.org/1999/xlink" width="59.676" height="58.989" viewBox="0 0 59.676 58.989">
  <defs>
    <clipPath id="clip-path">
      <rect id="Rectangle_10978" data-name="Rectangle 10978" width="59.676" height="58.989" fill="none"/>
    </clipPath>
    <clipPath id="clip-path-2">
      <rect id="Rectangle_10977" data-name="Rectangle 10977" width="59.676" height="58.989" transform="translate(0 0)" fill="none"/>
    </clipPath>
    <clipPath id="clip-path-3">
      <rect id="Rectangle_10975" data-name="Rectangle 10975" width="50.411" height="58.989" transform="translate(6.097 0)" fill="none"/>
    </clipPath>
    <clipPath id="clip-path-4">
      <rect id="Rectangle_10969" data-name="Rectangle 10969" width="19.426" height="24.567" transform="translate(30.273 5.346)" fill="none"/>
    </clipPath>
    <clipPath id="clip-path-5">
      <path id="Path_3599" data-name="Path 3599" d="M49.179,9.561,35.038,28.844a2.642,2.642,0,0,1-4.267-3.118L44.913,6.444A2.642,2.642,0,1,1,49.2,9.532a.316.316,0,0,1-.022.029" fill="none"/>
    </clipPath>
    <linearGradient id="linear-gradient" x1="-0.939" y1="1.844" x2="-0.903" y2="1.844" gradientUnits="objectBoundingBox">
      <stop offset="0" stop-color="#179bd6"/>
      <stop offset="1" stop-color="#0e65bb"/>
    </linearGradient>
    <clipPath id="clip-path-6">
      <rect id="Rectangle_10971" data-name="Rectangle 10971" width="14.738" height="18.214" transform="translate(16.078 31.181)" fill="none"/>
    </clipPath>
    <clipPath id="clip-path-7">
      <path id="Path_3600" data-name="Path 3600" d="M30.305,35.393,20.859,48.312a2.646,2.646,0,0,1-4.269-3.127l9.44-12.907a2.642,2.642,0,0,1,4.288,3.089L30.3,35.4Z" fill="none"/>
    </clipPath>
    <linearGradient id="linear-gradient-2" x1="-0.608" y1="1.307" x2="-0.561" y2="1.307" xlink:href="#linear-gradient"/>
    <clipPath id="clip-path-8">
      <rect id="Rectangle_10972" data-name="Rectangle 10972" width="19.426" height="24.567" transform="translate(32.801 14.955)" fill="none"/>
    </clipPath>
    <clipPath id="clip-path-9">
      <rect id="Rectangle_10973" data-name="Rectangle 10973" width="14.74" height="18.207" transform="translate(18.623 40.782)" fill="none"/>
    </clipPath>
    <clipPath id="clip-path-10">
      <rect id="Rectangle_10974" data-name="Rectangle 10974" width="5.368" height="5.402" transform="translate(51.14 9.102)" fill="none"/>
    </clipPath>
    <clipPath id="clip-path-11">
      <rect id="Rectangle_10976" data-name="Rectangle 10976" width="20.479" height="17.365" transform="translate(38.75 35.542)" fill="none"/>
    </clipPath>
  </defs>
  <g id="Group_3263" data-name="Group 3263" clip-path="url(#clip-path)">
    <g id="Group_3262" data-name="Group 3262">
      <g id="Group_3261" data-name="Group 3261" clip-path="url(#clip-path-2)">
        <g id="Group_3257" data-name="Group 3257" opacity="0.38">
          <g id="Group_3256" data-name="Group 3256">
            <g id="Group_3255" data-name="Group 3255" clip-path="url(#clip-path-3)">
              <g id="Group_3240" data-name="Group 3240" opacity="0.8" style="isolation: isolate">
                <g id="Group_3239" data-name="Group 3239">
                  <g id="Group_3238" data-name="Group 3238" clip-path="url(#clip-path-4)">
                    <g id="Group_3237" data-name="Group 3237">
                      <g id="Group_3236" data-name="Group 3236" clip-path="url(#clip-path-5)">
                        <rect id="Rectangle_10968" data-name="Rectangle 10968" width="27.792" height="30.773" transform="translate(21.534 8.181) rotate(-20.812)" fill="url(#linear-gradient)"/>
                      </g>
                    </g>
                  </g>
                </g>
              </g>
              <g id="Group_3245" data-name="Group 3245" opacity="0.8" style="isolation: isolate">
                <g id="Group_3244" data-name="Group 3244">
                  <g id="Group_3243" data-name="Group 3243" clip-path="url(#clip-path-6)">
                    <g id="Group_3242" data-name="Group 3242">
                      <g id="Group_3241" data-name="Group 3241" clip-path="url(#clip-path-7)">
                        <rect id="Rectangle_10970" data-name="Rectangle 10970" width="21.159" height="23.174" transform="translate(9.442 33.215) rotate(-20.812)" fill="url(#linear-gradient-2)"/>
                      </g>
                    </g>
                  </g>
                </g>
              </g>
              <path id="Path_3601" data-name="Path 3601" d="M39.287,10.048,25.145,29.331a2.642,2.642,0,0,1-4.287-3.088l.021-.03L35.021,6.93a2.65,2.65,0,0,1,4.27,3.127Z" fill="#9f6ae5"/>
              <path id="Path_3602" data-name="Path 3602" d="M20.409,35.87,10.966,48.8a2.65,2.65,0,1,1-4.438-2.9,2.528,2.528,0,0,1,.169-.231l9.446-12.919a2.642,2.642,0,0,1,4.266,3.118" fill="#9f6ae5"/>
              <path id="Path_3603" data-name="Path 3603" d="M43.542,4.216l-.084.117a2.642,2.642,0,1,1-4.287-3.088l.021-.029.084-.118a2.642,2.642,0,1,1,4.288,3.088l-.022.03" fill="#9f6ae5"/>
              <g id="Group_3248" data-name="Group 3248" opacity="0.5" style="isolation: isolate">
                <g id="Group_3247" data-name="Group 3247">
                  <g id="Group_3246" data-name="Group 3246" clip-path="url(#clip-path-8)">
                    <path id="Path_3604" data-name="Path 3604" d="M51.729,19.141,37.587,38.424A2.642,2.642,0,0,1,33.3,35.336l.021-.03L47.463,16.023a2.642,2.642,0,0,1,4.266,3.118" fill="#179bd6"/>
                  </g>
                </g>
              </g>
              <g id="Group_3251" data-name="Group 3251" opacity="0.5" style="isolation: isolate">
                <g id="Group_3250" data-name="Group 3250">
                  <g id="Group_3249" data-name="Group 3249" clip-path="url(#clip-path-9)">
                    <path id="Path_3605" data-name="Path 3605" d="M32.855,44.972,23.409,57.891A2.642,2.642,0,1,1,19.121,54.8l.022-.03L28.6,41.851a2.642,2.642,0,0,1,4.266,3.117Z" fill="#179bd6"/>
                  </g>
                </g>
              </g>
              <g id="Group_3254" data-name="Group 3254" opacity="0.5" style="isolation: isolate">
                <g id="Group_3253" data-name="Group 3253">
                  <g id="Group_3252" data-name="Group 3252" clip-path="url(#clip-path-10)">
                    <path id="Path_3606" data-name="Path 3606" d="M55.988,13.318l-.084.117a2.642,2.642,0,0,1-4.266-3.117l.084-.118a2.642,2.642,0,1,1,4.288,3.088l-.022.03" fill="#179bd6"/>
                  </g>
                </g>
              </g>
            </g>
          </g>
        </g>
        <path id="Path_3607" data-name="Path 3607" d="M55.75,45.7,45.271,37.22,41.75,34.7l-2,1-.734-1.54-2.374-1.788A18.971,18.971,0,1,0,33.1,37.207l-.006.013L36.75,39.7v2.457l4,3.543,11,9h4l3-2v-4Z" fill="#fff"/>
        <path id="Path_3608" data-name="Path 3608" d="M41.146,36.486a.936.936,0,0,1,1.313-.161h0l14.076,11a3.9,3.9,0,0,1-4.8,6.143l-4.527-3.536a.822.822,0,0,0-1.013,1.3l4.524,3.535a5.544,5.544,0,1,0,6.828-8.735l-14.073-11A2.585,2.585,0,0,0,40.3,35.02l-2.945-2.3A19.8,19.8,0,1,0,.907,29.5.823.823,0,0,0,2.477,29a18.157,18.157,0,1,1,33.131,3.492c-.007.012-.015.021-.021.033a18.43,18.43,0,0,1-3.273,4.187c-.01.009-.018.019-.028.028a18.175,18.175,0,0,1-28.367-4.37.822.822,0,0,0-1.438.8,19.82,19.82,0,0,0,30.445,5.218l2.946,2.3a2.583,2.583,0,0,0,.774,3.072l6.526,5.1a.822.822,0,1,0,1.013-1.3l-6.526-5.1a.936.936,0,0,1-.162-1.313h0Zm-1.917-.219-2.407,3.08-2.7-2.111a20.239,20.239,0,0,0,2.407-3.08Z" fill="#179bd6"/>
        <path id="Path_3609" data-name="Path 3609" d="M31.156,32.437a14.414,14.414,0,1,0-20.232,2.48,14.414,14.414,0,0,0,20.232-2.48M7.133,25.115A12.768,12.768,0,1,1,21.366,36.226l-.015,0a12.728,12.728,0,0,1-14.21-11.05c0-.022-.006-.044-.008-.065Z" fill="#179bd6"/>
        <g id="Group_3260" data-name="Group 3260" opacity="0.15" style="isolation: isolate">
          <g id="Group_3259" data-name="Group 3259">
            <g id="Group_3258" data-name="Group 3258" clip-path="url(#clip-path-11)">
              <path id="Path_3610" data-name="Path 3610" d="M38.75,37.7a3.9,3.9,0,0,1,2-2c2.025-.746,3.859,1.268,9,5,5.836,4.236,8.04,4.955,9,8,.124.393,1.013,3.214,0,4-1.322,1.026-5.986-1.326-20-15" fill="#179bd6"/>
            </g>
          </g>
        </g>
        <path id="Path_3611" data-name="Path 3611" d="M31.75,23.7a12,12,0,1,1-12-12,12,12,0,0,1,12,12" fill="#9f6ae5"/>
      </g>
    </g>
  </g>
</svg>
