<svg xmlns="http://www.w3.org/2000/svg" width="70" height="69.994" viewBox="0 0 70 69.994">
  <g id="step-2" transform="translate(-0.667 -0.003)">
    <path id="Path_2825" data-name="Path 2825" d="M26.756,49.129a1.166,1.166,0,0,1,0,1.65L11.011,66.524A4.858,4.858,0,1,1,4.14,59.653L9.2,54.589a1.025,1.025,0,0,0-1.45-1.45L2.691,58.2a6.909,6.909,0,1,0,9.771,9.771L28.206,52.229a3.221,3.221,0,0,0,.492-3.919l3.295-3.294A24.677,24.677,0,1,0,41.505.41a1.025,1.025,0,1,0,.37,2.017,22.821,22.821,0,0,1,4.107-.374,22.629,22.629,0,1,1-13.449,40.83c-.013-.01-.024-.021-.037-.031a22.932,22.932,0,0,1-4.684-4.684c-.01-.013-.021-.025-.031-.038A22.65,22.65,0,0,1,37.488,3.7a1.025,1.025,0,0,0-.769-1.9A24.7,24.7,0,0,0,25.648,38.672l-3.295,3.295a3.221,3.221,0,0,0-3.918.492l-7.3,7.3a1.025,1.025,0,0,0,1.45,1.45l7.3-7.3a1.166,1.166,0,0,1,1.65,0Zm.562-2.338-3.445-3.445,3.021-3.021a25.18,25.18,0,0,0,3.445,3.445Z" fill="#179bd6"/>
    <path id="Path_2826" data-name="Path 2826" d="M33.28,37.384a17.964,17.964,0,1,0,0-25.405A17.973,17.973,0,0,0,33.28,37.384Zm12.7-28.609A15.914,15.914,0,1,1,30.077,24.681,15.865,15.865,0,0,1,45.983,8.775Z" fill="#9f6ae5"/>
  </g>
</svg>
