<svg xmlns="http://www.w3.org/2000/svg" xmlns:xlink="http://www.w3.org/1999/xlink" width="54.688" height="70" viewBox="0 0 54.688 70">
  <defs>
    <clipPath id="clip-path">
      <rect id="Rectangle_10807" data-name="Rectangle 10807" width="54.688" height="70" transform="translate(0.656)" fill="#fff"/>
    </clipPath>
  </defs>
  <g id="step-1" transform="translate(-0.656)" clip-path="url(#clip-path)">
    <path id="Path_2817" data-name="Path 2817" d="M12.577,29.938l6.392-7.69a1.025,1.025,0,0,0-1.577-1.311l-5.479,6.591-1.2-1.945a1.025,1.025,0,0,0-1.746,1.075l1.946,3.161A1.026,1.026,0,0,0,12.577,29.938Z" fill="#9f6ae5"/>
    <path id="Path_2818" data-name="Path 2818" d="M8.969,40.194l1.946,3.161a1.025,1.025,0,0,0,1.662.118l6.392-7.69a1.025,1.025,0,0,0-1.577-1.311l-5.479,6.591-1.2-1.945a1.025,1.025,0,1,0-1.746,1.075Z" fill="#9f6ae5"/>
    <path id="Path_2819" data-name="Path 2819" d="M8.969,53.82l1.946,3.161a1.025,1.025,0,0,0,1.662.118l6.392-7.69A1.025,1.025,0,1,0,17.392,48.1L11.913,54.69l-1.2-1.945A1.025,1.025,0,1,0,8.969,53.82Z" fill="#9f6ae5"/>
    <path id="Path_2820" data-name="Path 2820" d="M54.318,57.887a1.025,1.025,0,0,0-1.025,1.025v7.464a1.574,1.574,0,0,1-1.572,1.572H4.279a1.574,1.574,0,0,1-1.572-1.572V21.438a1.025,1.025,0,1,0-2.051,0V66.377A3.627,3.627,0,0,0,4.279,70H51.721a3.627,3.627,0,0,0,3.623-3.623V58.912A1.026,1.026,0,0,0,54.318,57.887Z" fill="#179bd6"/>
    <path id="Path_2821" data-name="Path 2821" d="M51.721,7.9H46.7V3.664a3.664,3.664,0,0,0-7.328,0V7.9H31.664V3.664a3.664,3.664,0,0,0-7.328,0V7.9H16.623V3.664a3.664,3.664,0,1,0-7.328,0V7.9H4.279A3.627,3.627,0,0,0,.656,11.524v5.129a1.025,1.025,0,1,0,2.051,0V11.524A1.574,1.574,0,0,1,4.279,9.952H9.3V11.58a3.664,3.664,0,0,0,7.328,0V9.952h7.713V11.58a3.664,3.664,0,0,0,7.328,0V9.952h7.713V11.58a3.664,3.664,0,0,0,7.328,0V9.952h5.016a1.574,1.574,0,0,1,1.572,1.572v42.6a1.025,1.025,0,0,0,2.051,0v-42.6A3.627,3.627,0,0,0,51.721,7.9ZM14.573,11.58a1.613,1.613,0,0,1-3.227,0V3.664a1.613,1.613,0,0,1,3.227,0Zm15.041,0a1.613,1.613,0,0,1-3.227,0V3.664a1.613,1.613,0,0,1,3.227,0Zm15.041,0a1.613,1.613,0,1,1-3.226,0V3.664a1.613,1.613,0,1,1,3.226,0Z" fill="#179bd6"/>
    <path id="Path_2822" data-name="Path 2822" d="M23.316,30.787h21.6a3.213,3.213,0,1,0,0-6.426h-21.6a3.213,3.213,0,0,0,0,6.426Zm0-4.375h21.6a1.162,1.162,0,1,1,0,2.324h-21.6a1.162,1.162,0,1,1,0-2.324Z" fill="#179bd6"/>
    <path id="Path_2823" data-name="Path 2823" d="M23.316,44.351h21.6a3.213,3.213,0,1,0,0-6.426h-21.6a3.213,3.213,0,1,0,0,6.426Zm0-4.375h21.6a1.162,1.162,0,1,1,0,2.324h-21.6a1.162,1.162,0,1,1,0-2.324Z" fill="#179bd6"/>
    <path id="Path_2824" data-name="Path 2824" d="M23.316,57.915h21.6a3.213,3.213,0,1,0,0-6.426h-21.6a3.213,3.213,0,1,0,0,6.426Zm0-4.375h21.6a1.162,1.162,0,0,1,0,2.324h-21.6a1.162,1.162,0,0,1,0-2.324Z" fill="#179bd6"/>
  </g>
</svg>
