<svg width="1031" height="595" viewBox="0 0 1031 595" fill="none" xmlns="http://www.w3.org/2000/svg">
<path opacity="0.2" d="M444.149 461.225L231.404 338.397C192.228 315.814 197.185 276.294 242.351 250.2L433.133 140.04C478.368 113.946 546.736 111.124 585.911 133.706L798.657 256.534C837.832 279.117 832.875 318.637 787.71 344.731L596.927 454.891C551.693 480.985 483.256 483.876 444.149 461.225Z" stroke="#8888BA" stroke-miterlimit="10"/>
<path opacity="0.2" d="M415.785 526.369L118.258 354.662C63.4977 323.058 70.3427 267.852 133.572 231.319L400.412 77.2989C463.642 40.8236 559.298 36.8223 614.059 68.4265L911.586 240.133C966.346 271.738 959.501 326.944 896.271 363.477L629.431 517.497C566.201 554.03 470.545 557.974 415.785 526.369Z" stroke="#8888BA" stroke-miterlimit="10"/>
<path opacity="0.5" d="M242.833 191.058L228.65 197.255L245.037 201.248L242.833 191.058Z" stroke="#C9C9DC" stroke-width="1.5" stroke-miterlimit="10"/>
<path opacity="0.5" d="M639.752 200.491L635.346 195.396L644.227 192.848L648.634 197.943L639.752 200.491Z" stroke="#C9C9DC" stroke-width="1.5" stroke-miterlimit="10"/>
<path opacity="0.5" d="M566.634 85.3738C564.156 83.928 564.156 81.5871 566.634 80.1413C569.113 78.6954 573.175 78.6954 575.722 80.1413" stroke="#C9C9DC" stroke-width="1.5" stroke-miterlimit="10"/>
<path d="M778.14 199.458C780.84 199.458 783.029 198.194 783.029 196.635C783.029 195.076 780.84 193.812 778.14 193.812C775.441 193.812 773.252 195.076 773.252 196.635C773.252 198.194 775.441 199.458 778.14 199.458Z" fill="#FFCD2D"/>
<path d="M403.322 129.024C407.352 129.024 410.62 127.144 410.62 124.825C410.62 122.505 407.352 120.625 403.322 120.625C399.291 120.625 396.023 122.505 396.023 124.825C396.023 127.144 399.291 129.024 403.322 129.024Z" fill="#73DF15"/>
<path d="M369.448 456.956C371.159 456.956 372.546 455.569 372.546 453.858C372.546 452.147 371.159 450.76 369.448 450.76C367.737 450.76 366.35 452.147 366.35 453.858C366.35 455.569 367.737 456.956 369.448 456.956Z" fill="#6A7AFF"/>
<path d="M511.485 418.538L458.746 388.106C454.89 385.834 455.372 381.979 459.848 379.362L510.383 350.17C514.859 347.554 521.675 347.278 525.53 349.55L578.269 379.982C582.125 382.254 581.643 386.11 577.168 388.726L526.632 417.918C522.157 420.534 515.409 420.81 511.485 418.538Z" fill="#E7E8EB"/>
<path d="M575.309 377.434V378.398C574.965 378.123 574.621 377.847 574.139 377.572L521.4 347.141C517.544 344.868 510.728 345.213 506.253 347.76L455.786 377.021C454.96 377.503 454.203 378.054 453.652 378.605V377.641H452.068V382.116C452.137 383.493 452.963 384.801 454.685 385.765L507.423 416.197C511.279 418.469 518.095 418.125 522.57 415.577L573.106 386.385C575.447 385.008 576.686 383.355 576.824 381.703C576.824 381.565 576.824 381.359 576.824 381.221V377.503H575.309V377.434Z" fill="#C9C9DC"/>
<path d="M507.424 412.135L454.685 381.703C450.83 379.431 451.312 375.576 455.787 372.959L506.323 343.767C510.798 341.151 517.614 340.875 521.469 343.147L574.208 373.579C578.064 375.851 577.582 379.707 573.107 382.323L522.571 411.515C518.027 414.063 511.28 414.338 507.424 412.135Z" fill="url(#paint0_linear_2115_17917)"/>
<path d="M507.424 409.45L458.058 380.946C454.203 378.674 454.685 374.818 459.16 372.202L506.322 344.937C510.797 342.321 517.613 342.046 521.469 344.318L570.834 372.821C574.69 375.094 574.208 378.949 569.733 381.565L522.571 408.83C518.026 411.377 511.279 411.653 507.424 409.45Z" fill="#211258"/>
<path d="M507.424 408.623L458.058 380.12C454.203 377.848 454.685 373.992 459.16 371.376L506.322 344.111C510.797 341.495 517.613 341.219 521.469 343.492L570.834 371.995C574.69 374.267 574.208 378.123 569.733 380.739L522.571 408.004C518.026 410.551 511.279 410.827 507.424 408.623Z" fill="#362295"/>
<path d="M507.424 407.797L458.058 379.293C454.203 377.021 454.685 373.166 459.16 370.55L506.322 343.285C510.797 340.669 517.613 340.393 521.469 342.665L570.834 371.169C574.69 373.441 574.208 377.297 569.733 379.913L522.571 407.178C518.026 409.725 511.279 410.069 507.424 407.797Z" fill="url(#paint1_linear_2115_17917)"/>
<path opacity="0.3" d="M540.333 372.34C538.818 372.34 537.303 371.996 536.271 371.307C535.995 371.101 515.34 359.258 515.065 359.052C514.996 358.983 514.858 358.983 514.721 358.983C513.344 358.983 511.967 359.052 510.59 359.052C510.314 359.052 510.039 358.983 509.832 358.914C509.488 358.708 509.488 358.432 509.832 358.226C510.452 357.881 511.003 357.537 511.622 357.193C511.76 357.124 511.76 357.055 511.622 356.986C510.383 355.747 510.452 354.577 511.554 353.337C511.76 353.131 512.035 352.924 512.311 352.718L513.137 352.236C513.412 352.098 513.757 351.96 514.101 351.891C515.96 351.272 517.957 351.134 519.953 351.685C520.504 351.823 521.055 352.029 521.468 352.305C522.638 352.993 544.12 365.386 545.29 366.075C546.942 367.038 547.424 368.14 546.942 369.448C546.254 371.101 543.5 372.34 540.333 372.34ZM517.475 366.763C519.678 366.488 521.674 366.763 523.258 367.727C524.428 368.415 539.644 377.228 540.815 377.848C541.297 378.123 541.641 378.399 541.916 378.743C542.811 379.913 542.605 381.015 541.572 382.117C541.365 382.323 541.159 382.53 540.952 382.667L540.126 383.149C539.782 383.287 539.369 383.425 539.025 383.562C536.89 384.182 534.825 384.251 532.759 383.562C532.622 383.494 532.553 383.494 532.415 383.562C531.795 383.907 531.245 384.251 530.625 384.595C530.281 384.802 529.73 384.802 529.386 384.595C529.179 384.457 529.11 384.32 529.11 384.182C529.179 383.356 529.179 382.598 529.179 381.772C529.179 381.703 529.11 381.635 529.041 381.566C528.766 381.359 514.376 373.097 514.101 372.96C512.999 372.34 512.38 371.514 512.311 370.619C512.311 368.76 514.445 367.176 517.475 366.763ZM509.144 383.149C507.629 383.149 506.114 382.805 505.082 382.117C504.806 381.91 490.417 373.648 490.141 373.51C490.072 373.441 489.935 373.441 489.797 373.441C488.42 373.441 487.043 373.51 485.666 373.51C485.391 373.51 485.115 373.441 484.909 373.373C484.564 373.166 484.564 372.891 484.909 372.684C485.528 372.34 486.079 371.996 486.699 371.651C486.836 371.582 486.836 371.514 486.699 371.445C485.459 370.206 485.528 369.035 486.63 367.796C486.836 367.589 487.112 367.383 487.387 367.176L488.213 366.694C488.489 366.556 488.833 366.419 489.177 366.35C491.036 365.73 493.033 365.593 495.03 366.143C495.58 366.281 496.131 366.488 496.544 366.763C497.715 367.452 512.931 376.264 514.101 376.884C515.753 377.848 516.235 378.949 515.753 380.258C514.996 381.91 512.242 383.149 509.144 383.149ZM497.852 384.251C500.056 383.975 502.052 384.251 503.636 385.215C504.806 385.903 514.652 391.618 515.891 392.237C516.373 392.513 516.717 392.788 516.993 393.132C517.888 394.303 517.681 395.405 516.648 396.506C516.442 396.713 516.235 396.919 516.029 397.057L515.203 397.539C514.858 397.677 514.445 397.814 514.101 397.952C511.967 398.572 509.901 398.64 507.836 397.952C507.698 397.883 507.629 397.883 507.491 397.952C506.872 398.296 506.321 398.64 505.701 398.985C505.357 399.191 504.806 399.191 504.462 398.985C504.255 398.847 504.187 398.709 504.187 398.572C504.255 397.745 504.255 396.988 504.255 396.162C504.255 396.093 504.187 396.024 504.118 395.955C503.842 395.749 494.823 390.585 494.548 390.447C493.446 389.828 492.826 389.002 492.757 388.106C492.689 386.316 494.823 384.733 497.852 384.251Z" fill="#0449C5"/>
<path d="M540.333 370.756C538.818 370.756 537.303 370.412 536.271 369.723C535.995 369.517 515.34 357.675 515.065 357.468C514.996 357.399 514.858 357.399 514.721 357.399C513.344 357.399 511.967 357.468 510.59 357.468C510.314 357.468 510.039 357.399 509.832 357.33C509.488 357.124 509.488 356.848 509.832 356.642C510.452 356.298 511.003 355.953 511.622 355.609C511.76 355.54 511.76 355.471 511.622 355.403C510.383 354.163 510.452 352.993 511.554 351.754C511.76 351.547 512.035 351.34 512.311 351.134L513.137 350.652C513.412 350.514 513.757 350.377 514.101 350.308C515.96 349.688 517.957 349.55 519.953 350.101C520.504 350.239 521.055 350.445 521.468 350.721C522.638 351.409 544.12 363.802 545.29 364.491C546.942 365.455 547.424 366.556 546.942 367.864C546.254 369.517 543.5 370.756 540.333 370.756ZM517.475 365.11C519.678 364.835 521.674 365.11 523.258 366.074C524.428 366.763 539.644 375.576 540.815 376.195C541.297 376.471 541.641 376.746 541.916 377.09C542.811 378.261 542.605 379.362 541.572 380.464C541.365 380.671 541.159 380.877 540.952 381.015L540.126 381.497C539.782 381.634 539.369 381.772 539.025 381.91C536.89 382.529 534.825 382.598 532.759 381.91C532.622 381.841 532.553 381.841 532.415 381.91C531.795 382.254 531.245 382.598 530.625 382.943C530.281 383.149 529.73 383.149 529.386 382.943C529.179 382.805 529.11 382.667 529.11 382.529C529.179 381.703 529.179 380.946 529.179 380.12C529.179 380.051 529.11 379.982 529.041 379.913C528.766 379.707 514.376 371.445 514.101 371.307C512.999 370.687 512.38 369.861 512.311 368.966C512.311 367.176 514.445 365.592 517.475 365.11ZM509.144 381.566C507.629 381.566 506.114 381.221 505.082 380.533C504.806 380.326 490.417 372.064 490.141 371.927C490.072 371.858 489.935 371.858 489.797 371.858C488.42 371.858 487.043 371.927 485.666 371.927C485.391 371.927 485.115 371.858 484.909 371.789C484.564 371.582 484.564 371.307 484.909 371.1C485.528 370.756 486.079 370.412 486.699 370.068C486.836 369.999 486.836 369.93 486.699 369.861C485.459 368.622 485.528 367.451 486.63 366.212C486.836 366.006 487.112 365.799 487.387 365.592L488.213 365.11C488.489 364.973 488.833 364.835 489.177 364.766C491.036 364.147 493.033 364.009 495.03 364.56C495.58 364.697 496.131 364.904 496.544 365.179C497.715 365.868 512.931 374.681 514.101 375.3C515.753 376.264 516.235 377.366 515.753 378.674C514.996 380.326 512.242 381.566 509.144 381.566ZM497.852 382.667C500.056 382.392 502.052 382.667 503.636 383.631C504.806 384.32 514.652 390.034 515.891 390.654C516.373 390.929 516.717 391.205 516.993 391.549C517.888 392.719 517.681 393.821 516.648 394.922C516.442 395.129 516.235 395.336 516.029 395.473L515.203 395.955C514.858 396.093 514.445 396.231 514.101 396.368C511.967 396.988 509.901 397.057 507.836 396.368C507.698 396.299 507.629 396.299 507.491 396.368C506.872 396.713 506.321 397.057 505.701 397.401C505.357 397.608 504.806 397.608 504.462 397.401C504.255 397.263 504.187 397.126 504.187 396.988C504.255 396.162 504.255 395.404 504.255 394.578C504.255 394.509 504.187 394.44 504.118 394.372C503.842 394.165 494.823 389.001 494.548 388.864C493.446 388.244 492.826 387.418 492.757 386.523C492.689 384.664 494.823 383.08 497.852 382.667Z" fill="white"/>
<path d="M436.92 374.956L384.182 344.525C380.326 342.252 380.808 338.397 385.283 335.781L435.819 306.588C440.294 303.972 447.11 303.697 450.966 305.969L503.705 336.4C507.56 338.672 507.079 342.528 502.603 345.144L452.067 374.337C447.592 376.953 440.845 377.228 436.92 374.956Z" fill="#E7E8EB"/>
<path d="M500.745 333.853V334.817C500.401 334.541 500.056 334.266 499.574 333.99L446.904 303.628C443.049 301.356 436.233 301.7 431.757 304.247L381.222 333.44C380.396 333.921 379.638 334.472 379.087 335.023V334.059H377.504V338.534C377.573 339.911 378.399 341.22 380.12 342.183L432.859 372.615C436.715 374.887 443.531 374.543 448.006 371.995L498.542 342.803C500.883 341.426 502.122 339.774 502.26 338.121C502.26 337.984 502.26 337.777 502.26 337.639V333.921H500.745V333.853Z" fill="#C9C9DC"/>
<path d="M432.86 368.553L380.121 338.121C376.265 335.849 376.747 331.994 381.223 329.377L431.758 300.185C436.233 297.569 443.05 297.293 446.905 299.566L499.644 329.997C503.5 332.269 503.018 336.125 498.542 338.741L448.007 367.933C443.532 370.481 436.715 370.756 432.86 368.553Z" fill="url(#paint2_linear_2115_17917)"/>
<path d="M432.859 365.868L383.494 337.364C379.638 335.092 380.12 331.236 384.596 328.62L431.758 301.356C436.233 298.739 443.049 298.464 446.905 300.736L496.27 329.24C500.126 331.512 499.644 335.367 495.168 337.984L448.006 365.248C443.531 367.796 436.715 368.071 432.859 365.868Z" fill="#211258"/>
<path d="M432.859 365.042L383.494 336.538C379.638 334.266 380.12 330.41 384.596 327.794L431.758 300.529C436.233 297.913 443.049 297.638 446.905 299.91L496.27 328.414C500.126 330.686 499.644 334.541 495.168 337.157L448.006 364.422C443.531 366.969 436.715 367.245 432.859 365.042Z" fill="#362295"/>
<path d="M432.859 364.215L383.494 335.712C379.638 333.44 380.12 329.584 384.596 326.968L431.758 299.703C436.233 297.087 443.049 296.812 446.905 299.084L496.27 327.587C500.126 329.859 499.644 333.715 495.168 336.331L448.006 363.596C443.531 366.143 436.715 366.488 432.859 364.215Z" fill="url(#paint3_linear_2115_17917)"/>
<path opacity="0.3" d="M443.323 348.862C459.142 348.862 471.965 341.464 471.965 332.338C471.965 323.212 459.142 315.814 443.323 315.814C427.505 315.814 414.682 323.212 414.682 332.338C414.682 341.464 427.505 348.862 443.323 348.862Z" fill="#0449C5"/>
<path d="M467.626 326.417H465.699C464.322 324.283 462.119 322.355 459.227 320.634C448.004 314.162 429.897 314.162 418.743 320.634C415.783 322.355 413.649 324.283 412.272 326.417H410.344V332.338C410.344 336.538 413.167 340.807 418.743 344.043C429.966 350.515 448.073 350.515 459.227 344.043C464.804 340.807 467.626 336.607 467.626 332.338V326.417Z" fill="#FFBA1E"/>
<path d="M438.985 342.941C454.803 342.941 467.626 335.543 467.626 326.417C467.626 317.291 454.803 309.893 438.985 309.893C423.167 309.893 410.344 317.291 410.344 326.417C410.344 335.543 423.167 342.941 438.985 342.941Z" fill="#FFD06C"/>
<path d="M438.986 339.636C451.648 339.636 461.912 333.718 461.912 326.417C461.912 319.116 451.648 313.198 438.986 313.198C426.323 313.198 416.059 319.116 416.059 326.417C416.059 333.718 426.323 339.636 438.986 339.636Z" stroke="white" stroke-width="2" stroke-miterlimit="10"/>
<path d="M430.725 333.44L430.036 333.853C429.072 334.404 427.489 334.404 426.525 333.853C425.561 333.302 425.561 332.407 426.525 331.856L427.214 331.512C426.318 330.686 425.63 329.722 425.355 328.758C425.079 328.001 425.974 327.243 427.282 327.037C427.42 327.037 427.489 327.037 427.627 327.037C428.866 326.968 429.968 327.519 430.174 328.207C430.449 329.102 431.138 329.928 432.24 330.617C433.892 331.581 436.233 331.787 437.334 331.099C438.298 330.548 437.954 329.171 436.508 327.45C433.341 323.594 434.856 321.529 436.715 320.496C439.262 318.981 443.462 318.912 446.904 320.083L447.593 319.67C448.557 319.119 450.14 319.119 451.104 319.67C452.068 320.22 452.068 321.116 451.104 321.666L450.416 322.011C451.311 322.837 451.999 323.801 452.275 324.765C452.55 325.522 451.655 326.279 450.347 326.486C449.039 326.624 447.731 326.142 447.455 325.384C447.18 324.489 446.491 323.663 445.39 322.974C443.737 322.011 441.397 321.804 440.295 322.493C439.331 323.043 439.675 324.42 441.121 326.142C444.288 329.997 442.774 332.063 440.915 333.095C438.298 334.541 434.098 334.61 430.725 333.44Z" fill="#F48F36"/>
<path d="M363.596 332.407L310.857 301.975C307.002 299.703 307.484 295.848 311.959 293.231L362.495 264.039C366.97 261.423 373.786 261.147 377.642 263.419L430.38 293.851C434.236 296.123 433.754 299.978 429.279 302.595L378.743 331.787C374.268 334.335 367.452 334.61 363.596 332.407Z" fill="#E7E8EB"/>
<path d="M427.419 291.303V292.267C427.075 291.992 426.731 291.716 426.249 291.441L373.51 261.009C369.654 258.737 362.838 259.082 358.363 261.629L307.827 290.821C307.001 291.303 306.244 291.854 305.693 292.405V291.441H304.109V295.916C304.178 297.293 305.004 298.601 306.726 299.565L359.465 329.997C363.32 332.269 370.136 331.925 374.612 329.377L425.147 300.185C427.488 298.808 428.728 297.156 428.865 295.503C428.865 295.366 428.865 295.159 428.865 295.021V291.303H427.419Z" fill="#C9C9DC"/>
<path d="M359.465 325.935L306.726 295.503C302.871 293.231 303.353 289.376 307.828 286.759L358.364 257.567C362.839 254.951 369.655 254.675 373.511 256.947L426.25 287.379C430.105 289.651 429.623 293.507 425.148 296.123L374.612 325.315C370.137 327.932 363.39 328.207 359.465 325.935Z" fill="url(#paint4_linear_2115_17917)"/>
<path d="M359.465 323.25L310.099 294.746C306.244 292.474 306.726 288.618 311.201 286.002L358.363 258.737C362.838 256.121 369.655 255.846 373.51 258.118L422.875 286.622C426.731 288.894 426.249 292.749 421.774 295.366L374.612 322.63C370.137 325.177 363.389 325.522 359.465 323.25Z" fill="#211258"/>
<path d="M359.465 322.423L310.099 293.92C306.244 291.648 306.726 287.792 311.201 285.176L358.363 257.911C362.838 255.295 369.655 255.02 373.51 257.292L422.875 285.795C426.731 288.067 426.249 291.923 421.774 294.539L374.612 321.804C370.137 324.42 363.389 324.695 359.465 322.423Z" fill="#362295"/>
<path d="M359.465 321.597L310.099 293.093C306.244 290.821 306.726 286.966 311.201 284.35L358.363 257.085C362.838 254.469 369.655 254.193 373.51 256.465L422.875 284.969C426.731 287.241 426.249 291.097 421.774 293.713L374.612 320.978C370.137 323.594 363.389 323.869 359.465 321.597Z" fill="url(#paint5_linear_2115_17917)"/>
<path opacity="0.3" d="M364.628 311.683L329.033 291.097C325.728 289.238 326.142 285.933 329.928 283.73L357.33 267.894C361.117 265.691 366.832 265.485 370.136 267.344L405.732 287.93C409.036 289.789 408.623 293.093 404.837 295.297L377.434 311.132C373.648 313.335 367.933 313.542 364.628 311.683Z" fill="#0449C5"/>
<path d="M364.628 308.103L329.033 287.517C325.728 285.658 326.142 282.353 329.928 280.15L357.33 264.314C361.117 262.111 366.832 261.905 370.136 263.764L405.732 284.35C409.036 286.209 408.623 289.513 404.837 291.717L377.434 307.552C373.648 309.755 367.933 309.962 364.628 308.103Z" fill="white"/>
<path d="M390.585 290.546L359.396 272.576C358.156 271.888 358.294 270.649 359.74 269.822C361.186 268.996 363.32 268.927 364.56 269.616L395.68 287.586C396.919 288.274 396.781 289.513 395.335 290.34C393.958 291.166 391.824 291.235 390.585 290.546ZM385.077 296.261C386.523 295.435 386.66 294.195 385.421 293.507L354.301 275.537C353.062 274.849 350.927 274.917 349.481 275.744C348.036 276.57 347.898 277.809 349.137 278.498L380.257 296.467C381.565 297.225 383.7 297.087 385.077 296.261ZM350.996 288.481C352.442 287.655 352.58 286.415 351.34 285.727L343.973 281.458C342.734 280.77 340.6 280.838 339.154 281.665C337.708 282.491 337.57 283.73 338.81 284.419L346.177 288.687C347.485 289.376 349.619 289.307 350.996 288.481Z" fill="url(#paint6_linear_2115_17917)"/>
<path d="M583.639 376.402L530.9 345.97C527.045 343.698 527.527 339.843 532.002 337.226L582.538 308.034C587.013 305.418 593.829 305.142 597.685 307.414L650.423 337.846C654.279 340.118 653.797 343.974 649.322 346.59L598.786 375.782C594.311 378.33 587.495 378.605 583.639 376.402Z" fill="#E7E8EB"/>
<path d="M647.462 335.299V336.263C647.118 335.987 646.774 335.712 646.292 335.436L593.553 305.005C589.697 302.733 582.881 303.077 578.406 305.624L527.87 334.817C527.044 335.299 526.287 335.849 525.736 336.4V335.436H524.152V339.912C524.221 341.289 525.047 342.597 526.769 343.561L579.508 373.992C583.363 376.264 590.179 375.92 594.654 373.373L645.19 344.18C647.531 342.803 648.77 341.151 648.908 339.499C648.908 339.361 648.908 339.154 648.908 339.017V335.299H647.462Z" fill="#C9C9DC"/>
<path d="M579.508 369.93L526.769 339.498C522.914 337.226 523.396 333.371 527.871 330.754L578.407 301.562C582.882 298.946 589.698 298.67 593.554 300.942L646.293 331.374C650.148 333.646 649.666 337.502 645.191 340.118L594.655 369.31C590.18 371.927 583.433 372.202 579.508 369.93Z" fill="url(#paint7_linear_2115_17917)"/>
<path d="M579.508 367.245L530.142 338.741C526.287 336.469 526.769 332.613 531.244 329.997L578.406 302.733C582.881 300.116 589.698 299.841 593.553 302.113L642.918 330.617C646.774 332.889 646.292 336.744 641.817 339.361L594.655 366.625C590.179 369.173 583.432 369.448 579.508 367.245Z" fill="#211258"/>
<path d="M579.508 366.419L530.142 337.915C526.287 335.643 526.769 331.787 531.244 329.171L578.406 301.906C582.881 299.29 589.698 299.015 593.553 301.287L642.918 329.791C646.774 332.063 646.292 335.918 641.817 338.534L594.655 365.799C590.179 368.415 583.432 368.691 579.508 366.419Z" fill="#362295"/>
<path d="M579.508 365.592L530.142 337.089C526.287 334.817 526.769 330.961 531.244 328.345L578.406 301.08C582.881 298.464 589.698 298.188 593.553 300.461L642.918 328.964C646.774 331.236 646.292 335.092 641.817 337.708L594.655 364.973C590.179 367.589 583.432 367.864 579.508 365.592Z" fill="url(#paint8_linear_2115_17917)"/>
<g opacity="0.3">
<path opacity="0.3" d="M589.079 312.234C593.004 314.093 599.682 316.709 608.426 317.811C610.285 318.017 611.731 318.844 612.075 319.945C614.003 325.04 618.685 328.964 621.852 331.168C623.642 332.407 623.298 334.404 621.026 335.712C611.593 341.357 586.945 354.026 561.884 348.449C560.507 348.174 559.474 347.485 558.992 346.659C551.488 333.095 564.225 323.112 580.817 312.785C583.158 311.408 586.807 311.132 589.079 312.234Z" fill="#0449C5"/>
</g>
<path d="M589.079 308.172C593.004 310.031 599.682 312.647 608.426 313.749C610.285 313.955 611.731 314.781 612.075 315.883C614.003 320.978 618.685 324.902 621.852 327.105C623.642 328.345 623.298 330.341 621.026 331.649C611.593 337.295 586.945 349.964 561.884 344.387C560.507 344.111 559.474 343.423 558.992 342.597C551.488 329.033 564.225 319.05 580.817 308.722C583.158 307.345 586.807 307.07 589.079 308.172Z" fill="white"/>
<path d="M602.642 329.403C602.16 329.128 601.472 328.99 600.783 328.99H582.056L581.023 323.758C580.885 322.932 579.646 322.312 578.2 322.381C576.754 322.45 575.722 323.207 575.79 324.033C575.79 324.102 575.79 324.102 575.79 324.171L577.099 330.712C577.236 331.469 578.338 332.02 579.715 332.02H600.783C602.229 332.02 603.399 331.4 603.468 330.505C603.468 330.092 603.193 329.679 602.642 329.403Z" fill="url(#paint9_linear_2115_17917)"/>
<path d="M509.075 332.82L456.336 302.388C452.48 300.116 452.962 296.261 457.437 293.645L507.973 264.452C512.448 261.836 519.265 261.561 523.12 263.833L575.859 294.264C579.715 296.536 579.233 300.392 574.757 303.008L524.222 332.2C519.747 334.748 512.999 335.023 509.075 332.82Z" fill="#E7E8EB"/>
<path d="M572.899 291.717V292.681C572.555 292.405 572.211 292.13 571.729 291.855L518.99 261.423C515.134 259.151 508.318 259.495 503.843 262.043L453.376 291.235C452.55 291.717 451.793 292.268 451.242 292.818V291.855H449.658V296.33C449.727 297.707 450.553 299.015 452.275 299.979L505.014 330.41C508.869 332.682 515.685 332.338 520.16 329.791L570.696 300.598C573.037 299.221 574.276 297.569 574.414 295.917C574.414 295.779 574.414 295.572 574.414 295.435V291.717H572.899Z" fill="#C9C9DC"/>
<path d="M504.944 326.348L452.205 295.917C448.349 293.645 448.831 289.789 453.307 287.173L503.842 257.98C508.318 255.364 515.134 255.089 518.989 257.361L571.728 287.792C575.584 290.064 575.102 293.92 570.627 296.536L520.091 325.729C515.616 328.345 508.868 328.62 504.944 326.348Z" fill="url(#paint10_linear_2115_17917)"/>
<path d="M504.943 323.663L455.578 295.159C451.722 292.887 452.204 289.032 456.68 286.415L503.842 259.151C508.317 256.534 515.133 256.259 518.989 258.531L568.354 287.035C572.21 289.307 571.728 293.163 567.253 295.779L520.09 323.043C515.615 325.591 508.868 325.866 504.943 323.663Z" fill="#211258"/>
<path d="M504.943 322.837L455.578 294.333C451.722 292.061 452.204 288.205 456.68 285.589L503.842 258.325C508.317 255.708 515.133 255.433 518.989 257.705L568.354 286.209C572.21 288.481 571.728 292.336 567.253 294.953L520.09 322.217C515.615 324.833 508.868 325.109 504.943 322.837Z" fill="#362295"/>
<path d="M504.943 322.011L455.578 293.507C451.722 291.235 452.204 287.379 456.68 284.763L503.842 257.498C508.317 254.882 515.133 254.607 518.989 256.879L568.354 285.383C572.21 287.655 571.728 291.51 567.253 294.126L520.09 321.391C515.615 324.007 508.868 324.283 504.943 322.011Z" fill="url(#paint11_linear_2115_17917)"/>
<g opacity="0.3">
<path opacity="0.3" d="M514.239 277.671L509.695 279.117L509.488 278.979L500.813 276.088L500.331 272.921L493.997 274.917V278.979L499.23 281.045L493.928 284.143L478.23 289.169V293.162L486.355 297.844L514.239 281.733V277.671Z" fill="#0449C5"/>
<path opacity="0.3" d="M529.249 289.858C521.744 285.52 513.964 286.346 508.663 289.376C508.318 289.582 507.974 289.789 507.63 289.995L504.394 290.684V294.471C504.394 294.539 504.394 294.677 504.394 294.746V294.815C504.463 296.398 505.702 297.982 508.318 299.497C511.21 301.149 514.102 301.7 514.102 301.7C510.59 303.077 507.561 303.283 503.637 301.011C500.951 299.428 499.919 297.913 499.919 297.913L498.266 298.602L498.404 297.225L492.965 296.88V300.942C492.965 300.942 494.135 302.87 498.129 305.142C507.905 310.788 517.888 309.067 527.114 303.696C533.035 300.185 538.681 295.297 529.249 289.858ZM519.954 298.464C519.954 298.464 517.889 298.257 516.305 297.293C514.584 296.261 514.653 295.228 516.787 293.989C519.128 292.612 521.331 292.612 523.052 293.576C525.531 295.021 523.396 296.467 519.954 298.464Z" fill="#0449C5"/>
</g>
<path d="M571.04 289.238C571.04 289.169 571.04 289.1 571.04 289.031V285.176H569.526V286.209C569.181 285.933 568.837 285.658 568.424 285.451L519.059 256.947C515.203 254.675 508.387 255.02 503.912 257.567L496.27 261.973L560.713 297.982L567.323 294.126C569.663 292.749 570.903 291.097 571.04 289.444V289.238Z" fill="#F16646"/>
<path d="M496.199 257.911L503.842 253.505C508.317 250.889 515.133 250.613 518.988 252.885L568.354 281.389C572.209 283.661 571.728 287.517 567.252 290.133L560.643 293.989L496.199 257.911Z" fill="#FF6F47"/>
<path d="M478.23 289.169L499.23 277.052L493.997 274.986L498.679 271.337L509.488 274.986L514.239 277.74L486.355 293.851L478.23 289.169Z" fill="white"/>
<path d="M499.781 293.851C499.781 293.851 500.813 295.366 503.498 296.949C507.492 299.221 510.452 298.946 513.964 297.638C513.964 297.638 511.141 297.156 508.18 295.435C502.397 292.061 503.498 288.274 508.524 285.383C513.826 282.284 521.606 281.458 529.111 285.865C538.543 291.304 532.966 296.261 526.907 299.703C517.613 305.074 507.698 306.795 497.922 301.149C493.997 298.877 492.758 296.949 492.758 296.949L499.781 293.851ZM523.121 289.582C521.399 288.619 519.196 288.619 516.855 289.996C514.721 291.235 514.652 292.336 516.373 293.3C517.957 294.195 520.022 294.471 520.022 294.471C523.396 292.474 525.53 290.959 523.121 289.582Z" fill="white"/>
<path d="M560.711 293.92V297.982L496.199 261.974V257.911L560.711 293.92Z" fill="#CE573C"/>
<path d="M435.751 290.202L383.012 259.77C379.156 257.498 379.638 253.643 384.113 251.026L434.649 221.834C439.124 219.218 445.94 218.942 449.796 221.214L502.535 251.646C506.39 253.918 505.908 257.774 501.433 260.39L450.897 289.582C446.422 292.199 439.606 292.474 435.751 290.202Z" fill="#E7E8EB"/>
<path d="M499.505 249.099V250.063C499.161 249.787 498.817 249.512 498.335 249.236L445.596 218.805C441.74 216.533 434.924 216.877 430.449 219.424L379.913 248.617C379.087 249.099 378.33 249.649 377.779 250.2V249.236H376.195V253.712C376.264 255.089 377.09 256.397 378.812 257.361L431.55 287.792C435.406 290.064 442.222 289.72 446.697 287.173L497.233 257.98C499.574 256.603 500.813 254.951 500.951 253.299C500.951 253.161 500.951 252.954 500.951 252.817V249.099H499.505Z" fill="#C9C9DC"/>
<path d="M431.62 283.799L378.881 253.367C375.025 251.095 375.507 247.24 379.982 244.623L430.518 215.431C434.993 212.815 441.809 212.539 445.665 214.811L498.404 245.243C502.259 247.515 501.777 251.371 497.302 253.987L446.767 283.179C442.291 285.727 435.475 286.002 431.62 283.799Z" fill="url(#paint12_linear_2115_17917)"/>
<path d="M431.619 281.045L382.254 252.541C378.398 250.269 378.88 246.413 383.355 243.797L430.517 216.533C434.993 213.916 441.809 213.641 445.664 215.913L495.03 244.417C498.885 246.689 498.403 250.544 493.928 253.161L446.766 280.425C442.291 283.042 435.475 283.317 431.619 281.045Z" fill="#211258"/>
<path d="M431.619 280.288L382.254 251.784C378.398 249.512 378.88 245.656 383.355 243.04L430.517 215.775C434.993 213.159 441.809 212.884 445.664 215.156L495.03 243.66C498.885 245.932 498.403 249.787 493.928 252.404L446.766 279.668C442.291 282.215 435.475 282.491 431.619 280.288Z" fill="#362295"/>
<path d="M431.619 279.461L382.254 250.957C378.398 248.685 378.88 244.83 383.355 242.214L430.517 214.949C434.993 212.333 441.809 212.057 445.664 214.329L495.03 242.833C498.885 245.105 498.403 248.961 493.928 251.577L446.766 278.842C442.291 281.389 435.475 281.664 431.619 279.461Z" fill="url(#paint13_linear_2115_17917)"/>
<mask id="mask0_2115_17917" style="mask-type:alpha" maskUnits="userSpaceOnUse" x="379" y="212" width="119" height="69">
<path d="M431.619 279.461L382.254 250.957C378.398 248.685 378.88 244.83 383.355 242.214L430.517 214.949C434.993 212.333 441.809 212.057 445.664 214.329L495.03 242.833C498.885 245.105 498.403 248.961 493.928 251.577L446.766 278.842C442.291 281.389 435.475 281.664 431.619 279.461Z" fill="white"/>
</mask>
<g mask="url(#mask0_2115_17917)">
<g opacity="0.3">
<g opacity="0.3">
<path opacity="0.3" d="M400.637 234.502L446.146 243.315L454.408 229.614L408.967 220.732L400.637 234.502Z" fill="white"/>
<path opacity="0.3" d="M471.757 232.988L457.368 230.165L449.037 243.935L463.495 246.689L471.757 232.988Z" fill="white"/>
<path opacity="0.3" d="M497.714 235.879L479.675 225.483L475.889 231.679L497.714 235.879Z" fill="white"/>
<path opacity="0.3" d="M472.929 231.06L477.198 224.037L465.286 217.152L458.539 228.237L472.929 231.06Z" fill="white"/>
<path opacity="0.3" d="M448.211 277.327L441.051 289.169L458.263 279.255L448.211 277.327Z" fill="white"/>
<path opacity="0.3" d="M363.32 247.515L382.666 258.669L396.574 235.742L383.355 233.125L363.802 244.417C362.218 245.312 362.012 246.62 363.32 247.515Z" fill="white"/>
<path opacity="0.3" d="M492.896 259.219L495.443 255.088L465.287 249.167L449.383 275.399L461.018 277.671L492.896 259.219Z" fill="white"/>
<path opacity="0.3" d="M504.6 239.873L503.292 239.115L474.719 233.538L466.457 247.308L496.544 253.161L504.6 239.873Z" fill="white"/>
<path opacity="0.3" d="M427.901 273.334L397.883 267.55L422.806 281.871L427.901 273.334Z" fill="white"/>
<path opacity="0.3" d="M462.325 248.617L447.936 245.794L432.031 272.025L446.421 274.848L462.325 248.617Z" fill="white"/>
<path opacity="0.3" d="M437.401 289.72L445.25 276.707L430.861 273.884L425.215 283.248L435.818 289.375C436.231 289.582 436.713 289.72 437.264 289.789L437.401 289.72Z" fill="white"/>
<path opacity="0.3" d="M411.101 217.221L410.068 218.874L455.578 227.686L462.807 215.706L460.122 214.192L423.288 210.13L411.101 217.221Z" fill="white"/>
<path opacity="0.3" d="M397.676 233.883L406.007 220.182H405.938L386.109 231.68L397.676 233.883Z" fill="white"/>
<path opacity="0.3" d="M399.466 236.361L385.076 260.114L392.305 264.314L429.071 271.475L444.975 245.243L399.466 236.361Z" fill="white"/>
</g>
</g>
<path d="M444.356 231.198C441.602 229.614 439.054 229.339 437.195 230.234C437.127 230.303 437.058 230.303 436.92 230.371L433.064 232.299L432.789 233.676L434.028 234.296C433.753 235.26 433.615 236.292 433.615 237.532C433.615 243.177 436.163 249.03 443.048 265.485L439.881 267.344L440.569 270.304L444.562 268.308L444.631 268.239C452.342 258.806 455.096 255.846 455.096 249.925C455.165 242.971 450.346 234.64 444.356 231.198ZM444.356 249.374C441.602 247.79 439.399 243.935 439.399 240.699C439.399 237.532 441.602 236.224 444.356 237.807C447.11 239.391 449.313 243.246 449.313 246.482C449.382 249.718 447.11 250.958 444.356 249.374Z" fill="#C9C9DC"/>
<path d="M440.362 233.125C434.441 229.683 429.553 232.506 429.553 239.322C429.553 245.243 432.376 251.439 440.018 269.753C440.156 270.167 440.431 270.304 440.569 270.098C448.28 260.665 451.034 257.705 451.034 251.784C451.172 244.899 446.352 236.568 440.362 233.125ZM440.362 251.371C437.608 249.787 435.405 245.931 435.405 242.695C435.405 239.528 437.608 238.22 440.362 239.804C443.116 241.387 445.319 245.243 445.319 248.479C445.388 251.646 443.116 252.954 440.362 251.371Z" fill="white"/>
</g>
<path d="M654.487 333.922L601.748 303.49C597.892 301.218 598.374 297.362 602.85 294.746L653.385 265.554C657.86 262.938 664.677 262.662 668.532 264.934L721.271 295.366C725.127 297.638 724.645 301.493 720.17 304.11L669.634 333.302C665.09 335.918 658.342 336.194 654.487 333.922Z" fill="#E7E8EB"/>
<path d="M718.241 292.818V293.782C717.897 293.507 717.553 293.231 717.071 292.956L664.401 262.593C660.545 260.321 653.729 260.665 649.254 263.213L598.718 292.405C597.892 292.887 597.134 293.438 596.584 293.989V293.025H595V297.5C595.069 298.877 595.895 300.185 597.616 301.149L650.355 331.581C654.211 333.853 661.027 333.508 665.502 330.961L716.038 301.769C718.379 300.392 719.618 298.739 719.756 297.087C719.756 296.949 719.756 296.743 719.756 296.605V292.887H718.241V292.818Z" fill="#C9C9DC"/>
<path d="M650.356 327.519L597.617 297.087C593.761 294.815 594.243 290.959 598.719 288.343L649.254 259.151C653.73 256.534 660.546 256.259 664.401 258.531L717.14 288.963C720.996 291.235 720.514 295.09 716.039 297.707L665.503 326.899C661.028 329.446 654.212 329.722 650.356 327.519Z" fill="url(#paint14_linear_2115_17917)"/>
<path d="M650.355 324.765L600.99 296.261C597.135 293.989 597.616 290.133 602.092 287.517L649.254 260.252C653.729 257.636 660.545 257.361 664.401 259.633L713.766 288.136C717.622 290.408 717.14 294.264 712.664 296.88L665.502 324.145C661.027 326.761 654.211 327.037 650.355 324.765Z" fill="#211258"/>
<path d="M650.355 324.007L600.99 295.503C597.135 293.231 597.616 289.376 602.092 286.759L649.254 259.495C653.729 256.879 660.545 256.603 664.401 258.875L713.766 287.379C717.622 289.651 717.14 293.507 712.664 296.123L665.502 323.387C661.027 325.935 654.211 326.21 650.355 324.007Z" fill="#362295"/>
<path d="M650.355 323.181L600.99 294.677C597.135 292.405 597.616 288.55 602.092 285.933L649.254 258.669C653.729 256.053 660.545 255.777 664.401 258.049L713.766 286.553C717.622 288.825 717.14 292.681 712.664 295.297L665.502 322.561C661.027 325.109 654.211 325.384 650.355 323.181Z" fill="url(#paint15_linear_2115_17917)"/>
<path d="M658.548 263.144L654.417 264.934H641.129V271.544L658.961 288.068L670.528 269.754V263.144H658.548Z" fill="#454FE4"/>
<path d="M658.961 287.104L670.528 268.79V262.18H658.961V287.104Z" fill="#FFBA1E"/>
<path d="M626.945 279.324V278.842H625.018V285.658C625.018 288.618 626.257 291.648 628.736 294.471V276.845C628.116 277.671 627.496 278.497 626.945 279.324Z" fill="#FFA01E"/>
<path d="M658.961 280.494L641.129 263.97C650.148 260.734 660.545 260.115 670.597 262.249L658.961 280.494Z" fill="#FFD06C"/>
<path d="M654.829 278.773L641.128 269.203C634.312 271.681 629.492 275.262 627.014 279.255V278.773H625.086V285.589C625.086 288.55 626.325 291.579 628.804 294.402L658.891 285.589V278.773H654.829Z" fill="#C9C9DC"/>
<path d="M628.805 287.586V294.471L658.961 285.658V278.773L628.805 287.586Z" fill="#D9D9EA"/>
<path d="M692.697 292.68C692.697 292.405 692.697 292.13 692.697 291.854V284.694H664.744L636.653 292.887H628.873V301.08C632.866 305.624 639.063 308.791 647.394 310.581C664.881 314.299 684.297 309.067 690.7 298.946C692.008 296.949 692.628 294.884 692.766 292.818V292.68H692.697Z" fill="#C9C9DC"/>
<path d="M658.96 284.143L670.596 265.829C688.084 269.547 697.103 280.701 690.7 290.822C684.297 300.942 664.881 306.106 647.394 302.457C639.063 300.667 632.935 297.569 628.873 292.956L658.96 284.143Z" fill="url(#paint16_linear_2115_17917)"/>
<path d="M658.961 278.773L628.874 287.586C620.818 278.429 626.051 267.619 641.129 262.249L658.961 278.773Z" fill="white"/>
<path d="M579.92 290.34L527.182 259.908C523.326 257.636 523.808 253.78 528.283 251.164L578.819 221.972C583.294 219.355 590.11 219.08 593.966 221.352L646.705 251.784C650.56 254.056 650.078 257.911 645.603 260.528L595.067 289.72C590.592 292.336 583.776 292.612 579.92 290.34Z" fill="#E7E8EB"/>
<path d="M643.676 249.236V250.2C643.332 249.925 642.988 249.649 642.506 249.374L589.767 218.942C585.911 216.67 579.095 217.014 574.62 219.562L524.084 248.754C523.258 249.236 522.501 249.787 521.95 250.338V249.374H520.504V253.849C520.573 255.226 521.399 256.534 523.12 257.498L575.859 287.93C579.715 290.202 586.531 289.858 591.006 287.31L641.542 258.118C643.883 256.741 645.122 255.088 645.26 253.436C645.26 253.298 645.26 253.092 645.26 252.954V249.236H643.676Z" fill="#C9C9DC"/>
<path d="M575.79 283.937L523.051 253.505C519.195 251.233 519.677 247.377 524.152 244.761L574.688 215.569C579.163 212.952 585.979 212.677 589.835 214.949L642.574 245.381C646.429 247.653 645.948 251.508 641.472 254.125L590.937 283.317C586.461 285.864 579.714 286.14 575.79 283.937Z" fill="url(#paint17_linear_2115_17917)"/>
<path d="M575.789 281.183L526.424 252.679C522.568 250.407 523.05 246.551 527.525 243.935L574.687 216.67C579.163 214.054 585.979 213.779 589.834 216.051L639.2 244.554C643.055 246.826 642.573 250.682 638.098 253.298L590.936 280.563C586.461 283.179 579.713 283.455 575.789 281.183Z" fill="#211258"/>
<path d="M575.789 280.425L526.424 251.921C522.568 249.649 523.05 245.794 527.525 243.177L574.687 215.913C579.163 213.297 585.979 213.021 589.834 215.293L639.2 243.797C643.055 246.069 642.573 249.925 638.098 252.541L590.936 279.806C586.461 282.353 579.713 282.628 575.789 280.425Z" fill="#362295"/>
<path d="M575.789 279.599L526.424 251.095C522.568 248.823 523.05 244.968 527.525 242.351L574.687 215.087C579.163 212.47 585.979 212.195 589.834 214.467L639.2 242.971C643.055 245.243 642.573 249.099 638.098 251.715L590.936 278.979C586.461 281.527 579.713 281.802 575.789 279.599Z" fill="url(#paint18_linear_2115_17917)"/>
<path opacity="0.3" d="M600.714 252.128H600.095L593.278 232.506C592.521 230.716 588.734 230.027 586.462 231.335L557.27 248.204C557.201 248.272 557.132 248.272 557.132 248.341V247.859H556.1V250.062C556.237 251.026 557.408 251.99 559.336 252.197L595.895 256.534C598.511 256.81 600.714 255.708 600.783 254.331V252.128H600.714Z" fill="#0449C5"/>
<path d="M559.266 249.718C556.099 249.374 554.928 247.102 557.201 245.794L586.393 228.926C588.665 227.618 592.452 228.306 593.209 230.096L600.576 251.233C601.196 252.885 598.717 254.331 595.825 253.987L559.266 249.718Z" fill="white"/>
<path d="M506.528 247.791L453.789 217.359C449.933 215.087 450.415 211.231 454.891 208.615L505.426 179.423C509.901 176.806 516.718 176.531 520.573 178.803L573.312 209.235C577.168 211.507 576.686 215.362 572.21 217.979L521.675 247.171C517.2 249.718 510.452 249.994 506.528 247.791Z" fill="#E7E8EB"/>
<path d="M570.351 206.687V207.651C570.007 207.376 569.662 207.1 569.181 206.825L516.442 176.393C512.586 174.121 505.77 174.465 501.295 177.013L450.759 206.205C449.933 206.687 449.175 207.238 448.625 207.789V206.825H447.041V211.3C447.11 212.677 447.936 213.985 449.657 214.949L502.396 245.381C506.252 247.653 513.068 247.308 517.543 244.761L568.079 215.569C570.42 214.192 571.659 212.539 571.797 210.887C571.797 210.749 571.797 210.543 571.797 210.405V206.687H570.351Z" fill="#C9C9DC"/>
<path d="M502.465 241.319L449.726 210.887C445.871 208.615 446.353 204.759 450.828 202.143L501.364 172.951C505.839 170.334 512.655 170.059 516.511 172.331L569.249 202.763C573.105 205.035 572.623 208.89 568.148 211.507L517.612 240.699C513.137 243.315 506.321 243.591 502.465 241.319Z" fill="url(#paint19_linear_2115_17917)"/>
<path d="M502.465 238.633L453.099 210.13C449.244 207.858 449.726 204.002 454.201 201.386L501.363 174.121C505.838 171.505 512.654 171.229 516.51 173.502L565.875 202.005C569.731 204.277 569.249 208.133 564.773 210.749L517.612 238.014C513.136 240.561 506.32 240.837 502.465 238.633Z" fill="#211258"/>
<path d="M502.465 237.807L453.099 209.303C449.244 207.031 449.726 203.176 454.201 200.56L501.363 173.295C505.838 170.679 512.654 170.403 516.51 172.675L565.875 201.179C569.731 203.451 569.249 207.307 564.773 209.923L517.612 237.188C513.136 239.804 506.32 240.079 502.465 237.807Z" fill="#362295"/>
<path d="M502.465 236.981L453.099 208.477C449.244 206.205 449.726 202.35 454.201 199.733L501.363 172.469C505.838 169.853 512.654 169.577 516.51 171.849L565.875 200.353C569.731 202.625 569.249 206.481 564.773 209.097L517.612 236.361C513.136 238.978 506.32 239.253 502.465 236.981Z" fill="url(#paint20_linear_2115_17917)"/>
<path opacity="0.6" d="M503.153 232.919L458.745 207.238C455.234 205.241 455.716 201.73 459.709 199.389L502.189 174.878C506.251 172.538 512.31 172.331 515.822 174.328L560.23 200.009C563.741 202.005 563.259 205.517 559.266 207.858L516.785 232.368C512.723 234.709 506.665 234.916 503.153 232.919Z" stroke="white"/>
<path opacity="0.4" d="M503.153 228.306L458.745 202.625C455.234 200.628 455.716 197.117 459.709 194.776L502.189 170.265C506.251 167.925 512.31 167.718 515.822 169.715L560.23 195.396C563.741 197.392 563.259 200.904 559.266 203.245L516.785 227.755C512.723 230.096 506.665 230.371 503.153 228.306Z" fill="#00D4CA"/>
<path opacity="0.4" d="M503.153 220.25L458.745 194.569C455.234 192.573 455.716 189.061 459.709 186.721L502.189 162.21C506.251 159.869 512.31 159.663 515.822 161.659L560.23 187.34C563.741 189.337 563.259 192.848 559.266 195.189L516.785 219.631C512.723 221.972 506.665 222.247 503.153 220.25Z" fill="#00D4CA"/>
<path d="M528.835 200.353L526.287 197.805C526.976 196.842 527.251 196.36 528.077 195.396L533.035 194.638C533.723 194.501 534.205 194.156 534.136 193.743V191.058C534.136 190.645 533.654 190.301 533.035 190.163L528.077 189.406C527.389 188.442 527.114 187.96 526.287 186.996L528.835 184.449C529.179 184.104 529.041 183.622 528.559 183.347L525.255 181.419C524.773 181.144 523.946 181.075 523.396 181.282L518.989 182.727C517.268 182.314 516.511 182.177 514.789 181.695L513.412 178.872C513.206 178.459 512.586 178.183 511.898 178.183H507.216C506.458 178.183 505.839 178.459 505.701 178.872L504.324 181.695C502.603 182.108 501.846 182.245 500.124 182.727L495.718 181.282C495.098 181.075 494.341 181.144 493.859 181.419L490.554 183.347C490.072 183.622 489.934 184.104 490.279 184.449L492.826 186.996C492.138 187.96 491.862 188.442 491.036 189.406L486.079 190.163C485.39 190.301 484.908 190.645 484.977 191.058V193.743C484.977 194.156 485.459 194.501 486.079 194.638L491.036 195.396C491.725 196.36 492 196.842 492.826 197.805L490.279 200.353C489.934 200.697 490.072 201.179 490.554 201.455L493.859 203.382C494.341 203.658 495.167 203.727 495.718 203.52L500.124 202.074C501.846 202.487 502.603 202.625 504.324 203.107L505.701 205.93C505.908 206.343 506.527 206.618 507.216 206.618H511.898C512.655 206.618 513.275 206.343 513.412 205.93L514.789 203.107C516.511 202.694 517.268 202.556 518.989 202.074L523.396 203.52C524.015 203.727 524.773 203.658 525.255 203.382L528.559 201.455C529.11 201.179 529.179 200.697 528.835 200.353ZM504.324 195.396C501.432 193.743 501.432 190.989 504.324 189.337C507.216 187.685 511.898 187.685 514.789 189.337C517.681 190.989 517.681 193.743 514.789 195.396C511.898 197.048 507.216 197.048 504.324 195.396Z" fill="white"/>
<defs>
<linearGradient id="paint0_linear_2115_17917" x1="452.063" y1="377.63" x2="576.775" y2="377.63" gradientUnits="userSpaceOnUse">
<stop offset="0.00155072" stop-color="#EAEAF1"/>
<stop offset="1" stop-color="#EEEFF4"/>
</linearGradient>
<linearGradient id="paint1_linear_2115_17917" x1="455.401" y1="375.236" x2="573.436" y2="375.236" gradientUnits="userSpaceOnUse">
<stop offset="0.00604585" stop-color="#4FB1FF"/>
<stop offset="1" stop-color="#427CFF"/>
</linearGradient>
<linearGradient id="paint2_linear_2115_17917" x1="377.513" y1="334.046" x2="502.225" y2="334.046" gradientUnits="userSpaceOnUse">
<stop offset="0.00155072" stop-color="#EAEAF1"/>
<stop offset="1" stop-color="#EEEFF4"/>
</linearGradient>
<linearGradient id="paint3_linear_2115_17917" x1="380.851" y1="331.652" x2="498.887" y2="331.652" gradientUnits="userSpaceOnUse">
<stop offset="0.00604585" stop-color="#4FB1FF"/>
<stop offset="1" stop-color="#427CFF"/>
</linearGradient>
<linearGradient id="paint4_linear_2115_17917" x1="304.158" y1="291.461" x2="428.871" y2="291.461" gradientUnits="userSpaceOnUse">
<stop offset="0.00155072" stop-color="#EAEAF1"/>
<stop offset="1" stop-color="#EEEFF4"/>
</linearGradient>
<linearGradient id="paint5_linear_2115_17917" x1="307.496" y1="289.066" x2="425.532" y2="289.066" gradientUnits="userSpaceOnUse">
<stop offset="0.00604585" stop-color="#4FB1FF"/>
<stop offset="1" stop-color="#427CFF"/>
</linearGradient>
<linearGradient id="paint6_linear_2115_17917" x1="338.044" y1="283.049" x2="396.549" y2="283.049" gradientUnits="userSpaceOnUse">
<stop offset="0.00604585" stop-color="#4FB1FF"/>
<stop offset="1" stop-color="#427CFF"/>
</linearGradient>
<linearGradient id="paint7_linear_2115_17917" x1="524.198" y1="335.451" x2="648.91" y2="335.451" gradientUnits="userSpaceOnUse">
<stop offset="0.00155072" stop-color="#EAEAF1"/>
<stop offset="1" stop-color="#EEEFF4"/>
</linearGradient>
<linearGradient id="paint8_linear_2115_17917" x1="527.536" y1="333.057" x2="645.572" y2="333.057" gradientUnits="userSpaceOnUse">
<stop offset="0.00604585" stop-color="#4FB1FF"/>
<stop offset="1" stop-color="#427CFF"/>
</linearGradient>
<linearGradient id="paint9_linear_2115_17917" x1="576.755" y1="322.827" x2="587.069" y2="340.691" gradientUnits="userSpaceOnUse">
<stop offset="0.00604585" stop-color="#4FB1FF"/>
<stop offset="1" stop-color="#427CFF"/>
</linearGradient>
<linearGradient id="paint10_linear_2115_17917" x1="449.648" y1="291.867" x2="574.36" y2="291.867" gradientUnits="userSpaceOnUse">
<stop offset="0.00155072" stop-color="#EAEAF1"/>
<stop offset="1" stop-color="#EEEFF4"/>
</linearGradient>
<linearGradient id="paint11_linear_2115_17917" x1="452.985" y1="289.472" x2="571.022" y2="289.472" gradientUnits="userSpaceOnUse">
<stop offset="0.00604585" stop-color="#4FB1FF"/>
<stop offset="1" stop-color="#427CFF"/>
</linearGradient>
<linearGradient id="paint12_linear_2115_17917" x1="376.295" y1="249.282" x2="501.007" y2="249.282" gradientUnits="userSpaceOnUse">
<stop offset="0.00155072" stop-color="#EAEAF1"/>
<stop offset="1" stop-color="#EEEFF4"/>
</linearGradient>
<linearGradient id="paint13_linear_2115_17917" x1="379.632" y1="246.887" x2="497.668" y2="246.887" gradientUnits="userSpaceOnUse">
<stop offset="0.00604585" stop-color="#4FB1FF"/>
<stop offset="1" stop-color="#427CFF"/>
</linearGradient>
<linearGradient id="paint14_linear_2115_17917" x1="595.026" y1="293.003" x2="719.738" y2="293.003" gradientUnits="userSpaceOnUse">
<stop offset="0.00155072" stop-color="#EAEAF1"/>
<stop offset="1" stop-color="#EEEFF4"/>
</linearGradient>
<linearGradient id="paint15_linear_2115_17917" x1="598.364" y1="290.608" x2="716.4" y2="290.608" gradientUnits="userSpaceOnUse">
<stop offset="0.00604585" stop-color="#4FB1FF"/>
<stop offset="1" stop-color="#427CFF"/>
</linearGradient>
<linearGradient id="paint16_linear_2115_17917" x1="628.824" y1="284.709" x2="692.707" y2="284.709" gradientUnits="userSpaceOnUse">
<stop offset="0.00155072" stop-color="#EFEFF6"/>
<stop offset="1" stop-color="#EEEFF4"/>
</linearGradient>
<linearGradient id="paint17_linear_2115_17917" x1="520.474" y1="249.418" x2="645.187" y2="249.418" gradientUnits="userSpaceOnUse">
<stop offset="0.00155072" stop-color="#EAEAF1"/>
<stop offset="1" stop-color="#EEEFF4"/>
</linearGradient>
<linearGradient id="paint18_linear_2115_17917" x1="523.812" y1="247.024" x2="641.848" y2="247.024" gradientUnits="userSpaceOnUse">
<stop offset="0.00604585" stop-color="#4FB1FF"/>
<stop offset="1" stop-color="#427CFF"/>
</linearGradient>
<linearGradient id="paint19_linear_2115_17917" x1="447.121" y1="206.833" x2="571.833" y2="206.833" gradientUnits="userSpaceOnUse">
<stop offset="0.00155072" stop-color="#EAEAF1"/>
<stop offset="1" stop-color="#EEEFF4"/>
</linearGradient>
<linearGradient id="paint20_linear_2115_17917" x1="450.459" y1="204.439" x2="568.494" y2="204.439" gradientUnits="userSpaceOnUse">
<stop offset="0.00604585" stop-color="#4FB1FF"/>
<stop offset="1" stop-color="#427CFF"/>
</linearGradient>
</defs>
</svg>
