<svg width="732" height="534" viewBox="0 0 732 534" fill="none" xmlns="http://www.w3.org/2000/svg">
<g clip-path="url(#clip0_1758_13454)">
<g opacity="0.2">
<path opacity="0.2" d="M318.805 322.923L363.392 297.166L424.321 306.582L440.662 341.754L396.074 367.511L335.068 358.095L318.805 322.923Z" stroke="#8888BA" stroke-miterlimit="10"/>
<path opacity="0.2" d="M278.576 316.698L352.578 273.9L453.814 289.541L480.893 347.979L406.814 390.699L305.656 375.059L278.576 316.698Z" stroke="#8888BA" stroke-miterlimit="10"/>
<path opacity="0.2" d="M211.811 306.349L334.757 235.382L502.681 261.372L547.657 358.328L424.711 429.295L256.787 403.305L211.811 306.349Z" stroke="#8888BA" stroke-miterlimit="10"/>
<path opacity="0.2" d="M100.926 289.229L305.033 171.341L583.764 214.528L658.465 375.448L454.436 493.259L175.628 450.15L100.926 289.229Z" stroke="#8888BA" stroke-miterlimit="10"/>
<path opacity="0.2" d="M-147.707 260.749L174.121 65.124L613.798 136.713L731.647 403.928L409.745 599.475L-29.9325 527.886L-147.707 260.749Z" stroke="#8888BA" stroke-miterlimit="10"/>
</g>
<path opacity="0.5" d="M532.638 396.847L545.945 402.605L530.615 406.418L532.638 396.847Z" stroke="#C9C9DC" stroke-width="1.5" stroke-miterlimit="10"/>
<path opacity="0.5" d="M373.82 22.8709L384.48 12.5994L380.901 2.4057L370.24 12.6772L373.82 22.8709Z" stroke="#C9C9DC" stroke-width="1.5" stroke-miterlimit="10"/>
<path opacity="0.5" d="M521.822 230.013C523.923 228.845 525.557 225.889 525.557 223.554C525.557 221.22 523.845 220.208 521.822 221.375" stroke="#C9C9DC" stroke-width="1.5" stroke-miterlimit="10"/>
<path opacity="0.5" d="M106.528 457.775C103.727 457.386 102.015 455.674 102.715 454.04C103.416 452.406 106.295 451.394 109.174 451.861C111.975 452.25 114.854 451.317 115.633 449.683C116.333 448.048 114.699 446.414 111.82 445.947" stroke="#C9C9DC" stroke-width="1.5" stroke-miterlimit="10"/>
<path d="M123.993 188.504C126.142 184.783 126.134 180.755 123.975 179.509C121.816 178.263 118.325 180.27 116.176 183.991C114.027 187.713 114.035 191.74 116.194 192.987C118.352 194.233 121.844 192.226 123.993 188.504Z" fill="#FFCD2D"/>
<path d="M481.827 294.287C485.265 294.287 488.052 292.685 488.052 290.708C488.052 288.731 485.265 287.128 481.827 287.128C478.389 287.128 475.602 288.731 475.602 290.708C475.602 292.685 478.389 294.287 481.827 294.287Z" fill="#73DF15"/>
<path d="M284.49 512.479C286.724 512.479 288.536 511.434 288.536 510.144C288.536 508.855 286.724 507.81 284.49 507.81C282.255 507.81 280.443 508.855 280.443 510.144C280.443 511.434 282.255 512.479 284.49 512.479Z" fill="#6A7AFF"/>
<path opacity="0.5" d="M553.596 33.09C555.788 29.2939 555.784 25.1888 553.589 23.921C551.393 22.6532 547.836 24.7028 545.644 28.499C543.453 32.2951 543.456 36.4002 545.652 37.668C547.847 38.9357 551.404 36.8861 553.596 33.09Z" stroke="#C9C9DC" stroke-width="1.5" stroke-miterlimit="10"/>
</g>
<g clip-path="url(#clip1_1758_13454)">
<path d="M171.346 186.048L463.928 17.1126C469.531 13.8444 474.044 16.4901 474.044 22.9487V203.556C474.044 210.014 469.531 217.874 463.928 221.142L171.346 390.077C165.744 393.345 161.23 390.699 161.23 384.241V203.556C161.23 197.097 165.744 189.238 171.346 186.048Z" fill="#C9C9DC"/>
<path d="M173.915 187.293L466.497 18.3577C472.099 15.0895 476.612 17.7352 476.612 24.1937V204.801C476.612 211.259 472.099 219.119 466.497 222.387L173.915 391.322C168.312 394.59 163.799 391.944 163.799 385.486V204.879C163.799 198.42 168.312 190.561 173.915 187.293Z" fill="#F5F5F7"/>
<path d="M279.198 398.481H282.622V398.559L445.487 304.481C446.188 304.092 447.433 304.092 448.289 304.559L506.961 338.408V337.396H508.439V339.809C508.439 340.12 508.284 340.353 507.972 340.587L342.228 436.298C341.527 436.688 340.282 436.688 339.426 436.221L279.899 401.905C279.354 401.593 279.12 401.204 279.198 400.815V398.481Z" fill="#B9BDC8"/>
<path d="M342.227 433.886L508.05 338.175C508.75 337.786 508.672 337.007 507.816 336.541L448.366 302.147C447.51 301.68 446.265 301.602 445.565 302.069L279.742 397.78C279.042 398.169 279.12 398.948 279.976 399.415L339.504 433.731C340.204 434.275 341.449 434.275 342.227 433.886Z" fill="#DCDFE1"/>
<path d="M288.847 400.037L448.989 307.594C449.456 307.36 449.378 306.815 448.833 306.504L446.655 305.259C446.11 304.948 445.332 304.948 444.865 305.181L284.801 397.625C284.334 397.858 284.412 398.403 284.956 398.714L287.135 399.959C287.602 400.27 288.38 400.27 288.847 400.037Z" fill="#C9C9DC"/>
<path d="M450.001 318.721C450.468 318.954 451.246 318.954 451.713 318.721L460.039 313.897C460.506 313.663 460.506 313.196 460.039 312.885L452.724 308.683C452.257 308.45 451.479 308.45 451.012 308.683L442.686 313.507C442.219 313.741 442.219 314.208 442.686 314.519L450.001 318.721Z" fill="#C9C9DC"/>
<path d="M438.717 325.18C439.184 325.413 439.962 325.413 440.429 325.18L448.755 320.355C449.222 320.122 449.222 319.655 448.755 319.344L441.441 315.142C440.974 314.908 440.196 314.908 439.729 315.142L431.403 319.966C430.936 320.199 430.936 320.666 431.403 320.978L438.717 325.18Z" fill="#C9C9DC"/>
<path d="M427.434 331.716C427.901 331.95 428.679 331.95 429.146 331.716L437.472 326.892C437.939 326.658 437.939 326.191 437.472 325.88L430.158 321.678C429.691 321.444 428.913 321.444 428.446 321.678L420.12 326.502C419.653 326.736 419.653 327.203 420.12 327.514L427.434 331.716Z" fill="#C9C9DC"/>
<path d="M416.229 338.175C416.696 338.408 417.474 338.408 417.941 338.175L426.267 333.35C426.734 333.117 426.734 332.65 426.267 332.339L418.953 328.137C418.486 327.903 417.708 327.903 417.241 328.137L408.915 332.961C408.448 333.194 408.448 333.661 408.915 333.973L416.229 338.175Z" fill="#C9C9DC"/>
<path d="M404.946 344.711C405.413 344.944 406.191 344.944 406.658 344.711L414.984 339.887C415.451 339.653 415.451 339.186 414.984 338.875L407.669 334.673C407.203 334.44 406.424 334.44 405.958 334.673L397.631 339.497C397.165 339.731 397.165 340.198 397.631 340.509L404.946 344.711Z" fill="#C9C9DC"/>
<path d="M393.663 351.17C394.13 351.403 394.908 351.403 395.375 351.17L403.701 346.345C404.168 346.112 404.168 345.645 403.701 345.334L396.386 341.132C395.919 340.898 395.141 340.898 394.674 341.132L386.348 345.956C385.881 346.189 385.881 346.656 386.348 346.968L393.663 351.17Z" fill="#C9C9DC"/>
<path d="M382.458 357.706C382.925 357.939 383.703 357.939 384.17 357.706L392.496 352.882C392.963 352.648 392.963 352.181 392.496 351.87L385.181 347.668C384.714 347.434 383.936 347.434 383.469 347.668L375.143 352.492C374.676 352.726 374.676 353.193 375.143 353.504L382.458 357.706Z" fill="#C9C9DC"/>
<path d="M371.174 364.165C371.641 364.398 372.42 364.398 372.886 364.165L381.213 359.34C381.679 359.107 381.679 358.64 381.213 358.329L373.898 354.127C373.431 353.893 372.653 353.893 372.186 354.127L363.86 358.951C363.393 359.185 363.393 359.651 363.86 359.963L371.174 364.165Z" fill="#C9C9DC"/>
<path d="M359.891 370.701C360.358 370.934 361.136 370.934 361.603 370.701L369.929 365.877C370.396 365.643 370.396 365.176 369.929 364.865L362.615 360.663C362.148 360.429 361.37 360.429 360.903 360.663L352.577 365.487C352.11 365.721 352.11 366.188 352.577 366.499L359.891 370.701Z" fill="#C9C9DC"/>
<path d="M348.686 377.16C349.153 377.393 349.931 377.393 350.398 377.16L358.724 372.335C359.191 372.102 359.191 371.635 358.724 371.323L351.41 367.122C350.943 366.888 350.165 366.888 349.698 367.122L341.372 371.946C340.905 372.179 340.905 372.646 341.372 372.958L348.686 377.16Z" fill="#C9C9DC"/>
<path d="M337.403 383.696C337.87 383.93 338.648 383.93 339.115 383.696L347.441 378.872C347.908 378.638 347.908 378.171 347.441 377.86L340.126 373.658C339.66 373.425 338.881 373.425 338.415 373.658L330.088 378.482C329.622 378.716 329.622 379.183 330.088 379.494L337.403 383.696Z" fill="#C9C9DC"/>
<path d="M326.12 390.232C326.587 390.466 327.365 390.466 327.832 390.232L336.158 385.408C336.625 385.174 336.625 384.708 336.158 384.396L328.843 380.194C328.376 379.961 327.598 379.961 327.131 380.194L318.805 385.019C318.338 385.252 318.338 385.719 318.805 386.03L326.12 390.232Z" fill="#C9C9DC"/>
<path d="M314.915 396.691C315.382 396.924 316.16 396.924 316.627 396.691L324.953 391.867C325.42 391.633 325.42 391.166 324.953 390.855L317.638 386.653C317.171 386.419 316.393 386.419 315.926 386.653L307.6 391.477C307.133 391.711 307.133 392.178 307.6 392.489L314.915 396.691Z" fill="#C9C9DC"/>
<path d="M298.184 406.34C298.651 406.573 299.429 406.573 299.896 406.34L313.358 398.559C313.825 398.325 313.825 397.858 313.358 397.547L306.043 393.345C305.577 393.112 304.798 393.112 304.332 393.345L290.87 401.126C290.403 401.36 290.403 401.827 290.87 402.138L298.184 406.34Z" fill="#C9C9DC"/>
<path d="M319.195 406.885C319.662 407.118 319.662 407.585 319.195 407.896L310.869 412.721C310.402 412.954 309.624 412.954 309.157 412.721L301.842 408.519C301.375 408.285 301.375 407.818 301.842 407.507L310.168 402.683C310.635 402.449 311.413 402.449 311.88 402.683L319.195 406.885Z" fill="#C9C9DC"/>
<path d="M330.478 400.348C330.945 400.582 330.945 401.049 330.478 401.36L322.152 406.184C321.685 406.418 320.907 406.418 320.44 406.184L313.126 401.982C312.659 401.749 312.659 401.282 313.126 400.971L321.452 396.146C321.919 395.913 322.697 395.913 323.164 396.146L330.478 400.348Z" fill="#C9C9DC"/>
<path d="M341.683 393.89C342.15 394.123 342.15 394.59 341.683 394.901L333.357 399.726C332.89 399.959 332.112 399.959 331.645 399.726L324.331 395.524C323.864 395.29 323.864 394.823 324.331 394.512L332.657 389.688C333.124 389.454 333.902 389.454 334.369 389.688L341.683 393.89Z" fill="#C9C9DC"/>
<path d="M352.966 387.353C353.433 387.587 353.433 388.054 352.966 388.365L344.64 393.189C344.173 393.423 343.395 393.423 342.928 393.189L335.614 388.987C335.147 388.754 335.147 388.287 335.614 387.976L343.94 383.151C344.407 382.918 345.185 382.918 345.652 383.151L352.966 387.353Z" fill="#C9C9DC"/>
<path d="M364.25 380.895C364.717 381.128 364.717 381.595 364.25 381.906L355.924 386.731C355.457 386.964 354.678 386.964 354.212 386.731L346.897 382.529C346.43 382.295 346.43 381.828 346.897 381.517L355.223 376.693C355.69 376.459 356.468 376.459 356.935 376.693L364.25 380.895Z" fill="#C9C9DC"/>
<path d="M375.455 374.358C375.922 374.592 375.922 375.059 375.455 375.37L367.129 380.194C366.662 380.428 365.884 380.428 365.417 380.194L358.102 375.992C357.635 375.759 357.635 375.292 358.102 374.981L366.428 370.156C366.895 369.923 367.673 369.923 368.14 370.156L375.455 374.358Z" fill="#C9C9DC"/>
<path d="M386.738 367.9C387.205 368.133 387.205 368.6 386.738 368.911L378.412 373.736C377.945 373.969 377.167 373.969 376.7 373.736L369.385 369.534C368.918 369.3 368.918 368.833 369.385 368.522L377.711 363.698C378.178 363.464 378.957 363.464 379.423 363.698L386.738 367.9Z" fill="#C9C9DC"/>
<path d="M398.021 361.363C398.488 361.597 398.488 362.064 398.021 362.375L389.695 367.199C389.228 367.433 388.45 367.433 387.983 367.199L380.669 362.997C380.202 362.764 380.202 362.297 380.669 361.986L388.995 357.161C389.462 356.928 390.24 356.928 390.707 357.161L398.021 361.363Z" fill="#C9C9DC"/>
<path d="M409.226 354.905C409.693 355.138 409.693 355.605 409.226 355.916L400.9 360.741C400.433 360.974 399.655 360.974 399.188 360.741L391.874 356.539C391.407 356.305 391.407 355.838 391.874 355.527L400.2 350.703C400.667 350.469 401.445 350.469 401.912 350.703L409.226 354.905Z" fill="#C9C9DC"/>
<path d="M420.509 348.368C420.976 348.602 420.976 349.069 420.509 349.38L412.183 354.204C411.716 354.438 410.938 354.438 410.471 354.204L403.157 350.002C402.69 349.769 402.69 349.302 403.157 348.991L411.483 344.166C411.95 343.933 412.728 343.933 413.195 344.166L420.509 348.368Z" fill="#C9C9DC"/>
<path d="M431.793 341.91C432.26 342.143 432.26 342.61 431.793 342.921L423.466 347.746C423 347.979 422.221 347.979 421.755 347.746L414.44 343.544C413.973 343.31 413.973 342.843 414.44 342.532L422.766 337.708C423.233 337.474 424.011 337.474 424.478 337.708L431.793 341.91Z" fill="#C9C9DC"/>
<path d="M442.998 335.373C443.465 335.607 443.465 336.074 442.998 336.385L434.672 341.209C434.205 341.443 433.427 341.443 432.96 341.209L425.645 337.007C425.178 336.774 425.178 336.307 425.645 335.996L433.971 331.171C434.438 330.938 435.216 330.938 435.683 331.171L442.998 335.373Z" fill="#C9C9DC"/>
<path d="M454.281 328.915C454.748 329.148 454.748 329.615 454.281 329.926L445.955 334.751C445.488 334.984 444.71 334.984 444.243 334.751L436.928 330.549C436.461 330.315 436.461 329.848 436.928 329.537L445.254 324.713C445.721 324.479 446.5 324.479 446.966 324.713L454.281 328.915Z" fill="#C9C9DC"/>
<path d="M471.01 319.266C471.477 319.499 471.477 319.966 471.01 320.277L457.548 328.059C457.082 328.292 456.303 328.292 455.837 328.059L448.522 323.857C448.055 323.623 448.055 323.156 448.522 322.845L461.984 315.064C462.451 314.83 463.229 314.83 463.696 315.064L471.01 319.266Z" fill="#C9C9DC"/>
<path d="M352.111 425.871C352.578 426.105 352.578 426.572 352.111 426.883L343.785 431.707C343.318 431.941 342.54 431.941 342.073 431.707L334.758 427.505C334.291 427.272 334.291 426.805 334.758 426.494L343.085 421.669C343.551 421.436 344.33 421.436 344.796 421.669L352.111 425.871Z" fill="#C9C9DC"/>
<path d="M363.548 419.335C364.015 419.568 364.015 420.035 363.548 420.347L355.222 425.171C354.755 425.404 353.977 425.404 353.51 425.171L351.098 423.77C350.631 423.537 350.631 423.07 351.098 422.759L359.424 417.934C359.891 417.701 360.669 417.701 361.136 417.934L363.548 419.335Z" fill="#C9C9DC"/>
<path d="M374.91 412.721C375.377 412.954 375.377 413.421 374.91 413.732L366.584 418.557C366.117 418.79 365.339 418.79 364.872 418.557L357.557 414.355C357.09 414.121 357.09 413.655 357.557 413.343L365.883 408.519C366.35 408.285 367.128 408.285 367.595 408.519L374.91 412.721Z" fill="#C9C9DC"/>
<path d="M386.349 406.184C386.816 406.418 386.816 406.885 386.349 407.196L378.023 412.02C377.556 412.254 376.778 412.254 376.311 412.02L368.997 407.818C368.53 407.585 368.53 407.118 368.997 406.807L377.323 401.982C377.79 401.749 378.568 401.749 379.035 401.982L386.349 406.184Z" fill="#C9C9DC"/>
<path d="M399.655 398.481C400.122 398.714 400.122 399.181 399.655 399.492L389.617 405.251C389.15 405.484 388.372 405.484 387.905 405.251L380.59 401.049C380.124 400.815 380.124 400.348 380.59 400.037L390.628 394.279C391.095 394.045 391.873 394.045 392.34 394.279L399.655 398.481Z" fill="#C9C9DC"/>
<path d="M503.926 338.252C504.392 338.486 504.392 338.953 503.926 339.264L495.599 344.088C495.132 344.322 494.354 344.322 493.887 344.088L486.573 339.887C486.106 339.653 486.106 339.186 486.573 338.875L494.899 334.05C495.366 333.817 496.144 333.817 496.611 334.05L503.926 338.252Z" fill="#C9C9DC"/>
<path d="M492.566 344.789C493.033 345.022 493.033 345.489 492.566 345.8L484.162 350.625C483.695 350.858 482.917 350.858 482.45 350.625L475.135 346.423C474.668 346.189 474.668 345.723 475.135 345.411L483.461 340.587C483.928 340.353 484.707 340.353 485.173 340.587L492.566 344.789Z" fill="#C9C9DC"/>
<path d="M481.127 351.403C481.593 351.636 481.593 352.103 481.127 352.415L472.8 357.239C472.334 357.473 471.555 357.473 471.089 357.239L463.774 353.037C463.307 352.804 463.307 352.337 463.774 352.026L472.1 347.201C472.567 346.968 473.345 346.968 473.812 347.201L481.127 351.403Z" fill="#C9C9DC"/>
<path d="M469.765 358.017C470.232 358.251 470.232 358.718 469.765 359.029L459.804 364.787C459.338 365.021 458.559 365.021 458.092 364.787L450.778 360.585C450.311 360.352 450.311 359.885 450.778 359.574L460.738 353.815C461.205 353.582 461.983 353.582 462.45 353.815L469.765 358.017Z" fill="#C9C9DC"/>
<path d="M456.304 365.799C456.771 366.032 456.771 366.499 456.304 366.81L403.39 397.391C402.923 397.625 402.145 397.625 401.678 397.391L394.364 393.189C393.897 392.956 393.897 392.489 394.364 392.178L447.278 361.597C447.744 361.363 448.523 361.363 448.99 361.597L456.304 365.799Z" fill="#C9C9DC"/>
<path d="M467.82 346.423C468.287 346.656 468.287 347.123 467.82 347.435L459.494 352.259C459.027 352.492 458.249 352.492 457.782 352.259L450.467 348.057C450 347.824 450 347.357 450.467 347.045L458.794 342.221C459.26 341.988 460.039 341.988 460.505 342.221L467.82 346.423Z" fill="#C9C9DC"/>
<path d="M456.615 352.882C457.082 353.115 457.082 353.582 456.615 353.893L448.289 358.718C447.822 358.951 447.044 358.951 446.577 358.718L439.262 354.516C438.795 354.282 438.795 353.815 439.262 353.504L447.588 348.68C448.055 348.446 448.833 348.446 449.3 348.68L456.615 352.882Z" fill="#C9C9DC"/>
<path d="M445.332 359.418C445.799 359.651 445.799 360.118 445.332 360.43L437.006 365.254C436.539 365.487 435.761 365.487 435.294 365.254L427.979 361.052C427.512 360.819 427.512 360.352 427.979 360.04L436.305 355.216C436.772 354.983 437.55 354.983 438.017 355.216L445.332 359.418Z" fill="#C9C9DC"/>
<path d="M434.048 365.877C434.515 366.11 434.515 366.577 434.048 366.888L425.722 371.713C425.255 371.946 424.477 371.946 424.01 371.713L416.696 367.511C416.229 367.277 416.229 366.81 416.696 366.499L425.022 361.675C425.489 361.441 426.267 361.441 426.734 361.675L434.048 365.877Z" fill="#C9C9DC"/>
<path d="M422.843 372.413C423.31 372.646 423.31 373.113 422.843 373.424L414.517 378.249C414.05 378.482 413.272 378.482 412.805 378.249L405.491 374.047C405.024 373.814 405.024 373.347 405.491 373.035L413.817 368.211C414.284 367.977 415.062 367.977 415.529 368.211L422.843 372.413Z" fill="#C9C9DC"/>
<path d="M411.56 378.872C412.027 379.105 412.027 379.572 411.56 379.883L403.234 384.708C402.767 384.941 401.989 384.941 401.522 384.708L394.208 380.506C393.741 380.272 393.741 379.805 394.208 379.494L402.534 374.67C403.001 374.436 403.779 374.436 404.246 374.67L411.56 378.872Z" fill="#C9C9DC"/>
<path d="M400.355 385.408C400.822 385.641 400.822 386.108 400.355 386.42L392.029 391.244C391.562 391.477 390.784 391.477 390.317 391.244L383.003 387.042C382.536 386.809 382.536 386.342 383.003 386.03L391.329 381.206C391.796 380.972 392.574 380.972 393.041 381.206L400.355 385.408Z" fill="#C9C9DC"/>
<path d="M389.072 391.866C389.539 392.1 389.539 392.567 389.072 392.878L380.746 397.703C380.279 397.936 379.501 397.936 379.034 397.703L371.719 393.501C371.252 393.267 371.252 392.8 371.719 392.489L380.045 387.664C380.512 387.431 381.29 387.431 381.757 387.664L389.072 391.866Z" fill="#C9C9DC"/>
<path d="M377.789 398.403C378.256 398.636 378.256 399.103 377.789 399.415L369.463 404.239C368.996 404.472 368.218 404.472 367.751 404.239L360.436 400.037C359.969 399.804 359.969 399.337 360.436 399.025L368.762 394.201C369.229 393.967 370.007 393.967 370.474 394.201L377.789 398.403Z" fill="#C9C9DC"/>
<path d="M366.584 404.862C367.05 405.095 367.05 405.562 366.584 405.873L358.257 410.698C357.791 410.931 357.012 410.931 356.546 410.698L349.231 406.496C348.764 406.262 348.764 405.795 349.231 405.484L357.557 400.66C358.024 400.426 358.802 400.426 359.269 400.66L366.584 404.862Z" fill="#C9C9DC"/>
<path d="M492.955 331.872C493.421 332.105 493.421 332.572 492.955 332.883L471.4 345.333C470.933 345.567 470.155 345.567 469.688 345.333L462.374 341.132C461.907 340.898 461.907 340.431 462.374 340.12L483.928 327.67C484.395 327.436 485.173 327.436 485.64 327.67L492.955 331.872Z" fill="#C9C9DC"/>
<path d="M462.295 336.93C462.761 337.163 462.761 337.63 462.295 337.941L453.968 342.766C453.502 342.999 452.723 342.999 452.257 342.766L444.942 338.564C444.475 338.33 444.475 337.863 444.942 337.552L453.268 332.728C453.735 332.494 454.513 332.494 454.98 332.728L462.295 336.93Z" fill="#C9C9DC"/>
<path d="M451.011 343.466C451.478 343.699 451.478 344.166 451.011 344.478L442.685 349.302C442.218 349.536 441.44 349.536 440.973 349.302L433.659 345.1C433.192 344.867 433.192 344.4 433.659 344.089L441.985 339.264C442.452 339.031 443.23 339.031 443.697 339.264L451.011 343.466Z" fill="#C9C9DC"/>
<path d="M439.806 349.925C440.273 350.158 440.273 350.625 439.806 350.936L431.48 355.761C431.013 355.994 430.235 355.994 429.768 355.761L422.454 351.559C421.987 351.325 421.987 350.858 422.454 350.547L430.78 345.723C431.247 345.489 432.025 345.489 432.492 345.723L439.806 349.925Z" fill="#C9C9DC"/>
<path d="M428.523 356.461C428.99 356.694 428.99 357.161 428.523 357.473L420.197 362.297C419.73 362.53 418.952 362.53 418.485 362.297L411.17 358.095C410.704 357.862 410.704 357.395 411.17 357.083L419.497 352.259C419.963 352.026 420.742 352.026 421.208 352.259L428.523 356.461Z" fill="#C9C9DC"/>
<path d="M417.24 362.92C417.707 363.153 417.707 363.62 417.24 363.931L408.914 368.756C408.447 368.989 407.669 368.989 407.202 368.756L399.887 364.554C399.42 364.32 399.42 363.853 399.887 363.542L408.213 358.718C408.68 358.484 409.458 358.484 409.925 358.718L417.24 362.92Z" fill="#C9C9DC"/>
<path d="M405.957 369.456C406.424 369.689 406.424 370.156 405.957 370.468L397.631 375.292C397.164 375.526 396.385 375.526 395.919 375.292L388.604 371.09C388.137 370.857 388.137 370.39 388.604 370.078L396.93 365.254C397.397 365.021 398.175 365.021 398.642 365.254L405.957 369.456Z" fill="#C9C9DC"/>
<path d="M394.675 375.992C395.142 376.226 395.142 376.693 394.675 377.004L386.349 381.828C385.882 382.062 385.104 382.062 384.637 381.828L377.323 377.626C376.856 377.393 376.856 376.926 377.323 376.615L385.649 371.79C386.116 371.557 386.894 371.557 387.361 371.79L394.675 375.992Z" fill="#C9C9DC"/>
<path d="M383.468 382.451C383.935 382.684 383.935 383.151 383.468 383.463L375.142 388.287C374.675 388.521 373.897 388.521 373.43 388.287L366.116 384.085C365.649 383.852 365.649 383.385 366.116 383.073L374.442 378.249C374.909 378.016 375.687 378.016 376.154 378.249L383.468 382.451Z" fill="#C9C9DC"/>
<path d="M372.187 388.987C372.654 389.221 372.654 389.688 372.187 389.999L363.861 394.823C363.394 395.057 362.616 395.057 362.149 394.823L354.835 390.622C354.368 390.388 354.368 389.921 354.835 389.61L363.161 384.785C363.628 384.552 364.406 384.552 364.873 384.785L372.187 388.987Z" fill="#C9C9DC"/>
<path d="M360.904 395.446C361.371 395.679 361.371 396.146 360.904 396.458L352.578 401.282C352.111 401.515 351.333 401.515 350.866 401.282L343.551 397.08C343.084 396.847 343.084 396.38 343.551 396.069L351.877 391.244C352.344 391.011 353.122 391.011 353.589 391.244L360.904 395.446Z" fill="#C9C9DC"/>
<path d="M349.621 401.982C350.088 402.216 350.088 402.683 349.621 402.994L341.295 407.819C340.828 408.052 340.05 408.052 339.583 407.819L332.268 403.616C331.801 403.383 331.801 402.916 332.268 402.605L340.594 397.78C341.061 397.547 341.839 397.547 342.306 397.78L349.621 401.982Z" fill="#C9C9DC"/>
<path d="M481.982 325.569C482.449 325.802 482.449 326.269 481.982 326.58L466.263 335.607C465.796 335.84 465.018 335.84 464.551 335.607L457.237 331.405C456.77 331.171 456.77 330.704 457.237 330.393L472.955 321.289C473.422 321.055 474.2 321.055 474.667 321.289L481.982 325.569Z" fill="#C9C9DC"/>
<path d="M337.558 408.986C338.025 409.219 338.025 409.686 337.558 409.997L321.84 419.102C321.373 419.335 320.595 419.335 320.128 419.102L312.813 414.9C312.346 414.666 312.346 414.199 312.813 413.888L328.532 404.784C328.998 404.55 329.777 404.55 330.243 404.784L337.558 408.986Z" fill="#C9C9DC"/>
<path d="M354.911 411.631C355.378 411.865 355.378 412.332 354.911 412.643L332.812 425.327C332.345 425.56 331.567 425.56 331.1 425.327L323.786 421.125C323.319 420.891 323.319 420.424 323.786 420.113L345.885 407.352C346.352 407.118 347.13 407.118 347.597 407.352L354.911 411.631Z" fill="#C9C9DC"/>
<path d="M358.646 416.456C359.113 416.689 359.113 417.156 358.646 417.467L350.32 422.292C349.853 422.525 349.075 422.525 348.608 422.292L346.196 420.891C345.729 420.658 345.729 420.191 346.196 419.88L354.522 415.055C354.989 414.822 355.767 414.822 356.234 415.055L358.646 416.456Z" fill="#C9C9DC"/>
<path d="M288.847 399.726L448.989 307.282C449.456 307.049 449.378 306.504 448.833 306.193L446.655 304.948C446.11 304.637 445.332 304.637 444.865 304.87L284.801 397.391C284.334 397.625 284.412 398.169 284.956 398.481L287.135 399.726C287.602 399.959 288.38 400.037 288.847 399.726Z" fill="#C7CBD3"/>
<path d="M450.001 318.41C450.468 318.643 451.246 318.643 451.713 318.41L460.039 313.585C460.506 313.352 460.506 312.885 460.039 312.574L452.724 308.372C452.257 308.138 451.479 308.138 451.012 308.372L442.686 313.196C442.219 313.43 442.219 313.897 442.686 314.208L450.001 318.41Z" fill="#C7CBD3"/>
<path d="M438.717 324.946C439.184 325.18 439.962 325.18 440.429 324.946L448.755 320.122C449.222 319.888 449.222 319.421 448.755 319.11L441.441 314.908C440.974 314.675 440.196 314.675 439.729 314.908L431.403 319.733C430.936 319.966 430.936 320.433 431.403 320.744L438.717 324.946Z" fill="#C7CBD3"/>
<path d="M427.434 331.405C427.901 331.638 428.679 331.638 429.146 331.405L437.472 326.58C437.939 326.347 437.939 325.88 437.472 325.569L430.158 321.367C429.691 321.133 428.913 321.133 428.446 321.367L420.12 326.191C419.653 326.425 419.653 326.892 420.12 327.203L427.434 331.405Z" fill="#C7CBD3"/>
<path d="M416.229 337.941C416.696 338.175 417.474 338.175 417.941 337.941L426.267 333.117C426.734 332.883 426.734 332.416 426.267 332.105L418.953 327.903C418.486 327.67 417.708 327.67 417.241 327.903L408.915 332.728C408.448 332.961 408.448 333.428 408.915 333.739L416.229 337.941Z" fill="#C7CBD3"/>
<path d="M404.946 344.4C405.413 344.633 406.191 344.633 406.658 344.4L414.984 339.575C415.451 339.342 415.451 338.875 414.984 338.564L407.669 334.362C407.203 334.128 406.424 334.128 405.958 334.362L397.631 339.186C397.165 339.42 397.165 339.887 397.631 340.198L404.946 344.4Z" fill="#C7CBD3"/>
<path d="M393.663 350.936C394.13 351.17 394.908 351.17 395.375 350.936L403.701 346.112C404.168 345.878 404.168 345.411 403.701 345.1L396.386 340.898C395.919 340.665 395.141 340.665 394.674 340.898L386.348 345.723C385.881 345.956 385.881 346.423 386.348 346.734L393.663 350.936Z" fill="#C7CBD3"/>
<path d="M382.458 357.395C382.925 357.628 383.703 357.628 384.17 357.395L392.496 352.57C392.963 352.337 392.963 351.87 392.496 351.559L385.181 347.357C384.714 347.123 383.936 347.123 383.469 347.357L375.143 352.181C374.676 352.415 374.676 352.881 375.143 353.193L382.458 357.395Z" fill="#C7CBD3"/>
<path d="M371.174 363.931C371.641 364.165 372.42 364.165 372.886 363.931L381.213 359.107C381.679 358.873 381.679 358.406 381.213 358.095L373.898 353.893C373.431 353.66 372.653 353.66 372.186 353.893L363.86 358.718C363.393 358.951 363.393 359.418 363.86 359.729L371.174 363.931Z" fill="#C7CBD3"/>
<path d="M359.891 370.39C360.358 370.623 361.136 370.623 361.603 370.39L369.929 365.565C370.396 365.332 370.396 364.865 369.929 364.554L362.615 360.352C362.148 360.118 361.37 360.118 360.903 360.352L352.577 365.176C352.11 365.41 352.11 365.877 352.577 366.188L359.891 370.39Z" fill="#C7CBD3"/>
<path d="M348.686 376.926C349.153 377.16 349.931 377.16 350.398 376.926L358.724 372.102C359.191 371.868 359.191 371.401 358.724 371.09L351.41 366.888C350.943 366.655 350.165 366.655 349.698 366.888L341.372 371.713C340.905 371.946 340.905 372.413 341.372 372.724L348.686 376.926Z" fill="#C7CBD3"/>
<path d="M337.403 383.385C337.87 383.618 338.648 383.618 339.115 383.385L347.441 378.56C347.908 378.327 347.908 377.86 347.441 377.549L340.126 373.347C339.66 373.113 338.881 373.113 338.415 373.347L330.088 378.171C329.622 378.405 329.622 378.872 330.088 379.183L337.403 383.385Z" fill="#C7CBD3"/>
<path d="M326.12 389.921C326.587 390.155 327.365 390.155 327.832 389.921L336.158 385.097C336.625 384.863 336.625 384.396 336.158 384.085L328.843 379.883C328.376 379.65 327.598 379.65 327.131 379.883L318.805 384.708C318.338 384.941 318.338 385.408 318.805 385.719L326.12 389.921Z" fill="#C7CBD3"/>
<path d="M314.915 396.458C315.382 396.691 316.16 396.691 316.627 396.458L324.953 391.633C325.42 391.4 325.42 390.933 324.953 390.621L317.638 386.419C317.171 386.186 316.393 386.186 315.926 386.419L307.6 391.244C307.133 391.477 307.133 391.944 307.6 392.256L314.915 396.458Z" fill="#C7CBD3"/>
<path d="M298.184 406.107C298.651 406.34 299.429 406.34 299.896 406.107L313.358 398.325C313.825 398.092 313.825 397.625 313.358 397.314L306.043 393.112C305.577 392.878 304.798 392.878 304.332 393.112L290.87 400.893C290.403 401.126 290.403 401.593 290.87 401.905L298.184 406.107Z" fill="#C7CBD3"/>
<path d="M319.195 406.651C319.662 406.885 319.662 407.352 319.195 407.663L310.869 412.487C310.402 412.721 309.624 412.721 309.157 412.487L301.842 408.285C301.375 408.052 301.375 407.585 301.842 407.274L310.168 402.449C310.635 402.216 311.413 402.216 311.88 402.449L319.195 406.651Z" fill="#C7CBD3"/>
<path d="M330.478 400.115C330.945 400.348 330.945 400.815 330.478 401.126L322.152 405.951C321.685 406.184 320.907 406.184 320.44 405.951L313.126 401.749C312.659 401.515 312.659 401.049 313.126 400.737L321.452 395.913C321.919 395.679 322.697 395.679 323.164 395.913L330.478 400.115Z" fill="#C7CBD3"/>
<path d="M341.683 393.578C342.15 393.812 342.15 394.279 341.683 394.59L333.357 399.415C332.89 399.648 332.112 399.648 331.645 399.415L324.331 395.213C323.864 394.979 323.864 394.512 324.331 394.201L332.657 389.376C333.124 389.143 333.902 389.143 334.369 389.376L341.683 393.578Z" fill="#C7CBD3"/>
<path d="M352.966 387.12C353.433 387.353 353.433 387.82 352.966 388.131L344.64 392.956C344.173 393.189 343.395 393.189 342.928 392.956L335.614 388.754C335.147 388.521 335.147 388.054 335.614 387.742L343.94 382.918C344.407 382.684 345.185 382.684 345.652 382.918L352.966 387.12Z" fill="#C7CBD3"/>
<path d="M364.25 380.583C364.717 380.817 364.717 381.284 364.25 381.595L355.924 386.419C355.457 386.653 354.678 386.653 354.212 386.419L346.897 382.218C346.43 381.984 346.43 381.517 346.897 381.206L355.223 376.381C355.69 376.148 356.468 376.148 356.935 376.381L364.25 380.583Z" fill="#C7CBD3"/>
<path d="M375.455 374.125C375.922 374.358 375.922 374.825 375.455 375.136L367.129 379.961C366.662 380.194 365.884 380.194 365.417 379.961L358.102 375.759C357.635 375.525 357.635 375.059 358.102 374.747L366.428 369.923C366.895 369.689 367.673 369.689 368.14 369.923L375.455 374.125Z" fill="#C7CBD3"/>
<path d="M386.738 367.588C387.205 367.822 387.205 368.289 386.738 368.6L378.412 373.425C377.945 373.658 377.167 373.658 376.7 373.425L369.385 369.223C368.918 368.989 368.918 368.522 369.385 368.211L377.711 363.386C378.178 363.153 378.957 363.153 379.423 363.386L386.738 367.588Z" fill="#C7CBD3"/>
<path d="M398.021 361.13C398.488 361.363 398.488 361.83 398.021 362.141L389.695 366.966C389.228 367.199 388.45 367.199 387.983 366.966L380.669 362.764C380.202 362.53 380.202 362.064 380.669 361.752L388.995 356.928C389.462 356.694 390.24 356.694 390.707 356.928L398.021 361.13Z" fill="#C7CBD3"/>
<path d="M409.226 354.593C409.693 354.827 409.693 355.294 409.226 355.605L400.9 360.43C400.433 360.663 399.655 360.663 399.188 360.43L391.874 356.228C391.407 355.994 391.407 355.527 391.874 355.216L400.2 350.391C400.667 350.158 401.445 350.158 401.912 350.391L409.226 354.593Z" fill="#C7CBD3"/>
<path d="M420.509 348.135C420.976 348.368 420.976 348.835 420.509 349.146L412.183 353.971C411.716 354.204 410.938 354.204 410.471 353.971L403.157 349.769C402.69 349.535 402.69 349.069 403.157 348.757L411.483 343.933C411.95 343.699 412.728 343.699 413.195 343.933L420.509 348.135Z" fill="#C7CBD3"/>
<path d="M431.793 341.598C432.26 341.832 432.26 342.299 431.793 342.61L423.466 347.435C423 347.668 422.221 347.668 421.755 347.435L414.44 343.233C413.973 342.999 413.973 342.532 414.44 342.221L422.766 337.396C423.233 337.163 424.011 337.163 424.478 337.396L431.793 341.598Z" fill="#C7CBD3"/>
<path d="M442.998 335.14C443.465 335.373 443.465 335.84 442.998 336.151L434.672 340.976C434.205 341.209 433.427 341.209 432.96 340.976L425.645 336.774C425.178 336.54 425.178 336.074 425.645 335.762L433.971 330.938C434.438 330.704 435.216 330.704 435.683 330.938L442.998 335.14Z" fill="#C7CBD3"/>
<path d="M454.281 328.603C454.748 328.837 454.748 329.304 454.281 329.615L445.955 334.44C445.488 334.673 444.71 334.673 444.243 334.44L436.928 330.238C436.461 330.004 436.461 329.537 436.928 329.226L445.254 324.401C445.721 324.168 446.5 324.168 446.966 324.401L454.281 328.603Z" fill="#C7CBD3"/>
<path d="M471.01 318.954C471.477 319.188 471.477 319.655 471.01 319.966L457.548 327.748C457.082 327.981 456.303 327.981 455.837 327.748L448.522 323.546C448.055 323.312 448.055 322.845 448.522 322.534L461.984 314.753C462.451 314.519 463.229 314.519 463.696 314.753L471.01 318.954Z" fill="#C7CBD3"/>
<path d="M352.111 425.638C352.578 425.871 352.578 426.338 352.111 426.65L343.785 431.474C343.318 431.707 342.54 431.707 342.073 431.474L334.758 427.272C334.291 427.039 334.291 426.572 334.758 426.26L343.085 421.436C343.551 421.203 344.33 421.203 344.796 421.436L352.111 425.638Z" fill="#C7CBD3"/>
<path d="M363.548 419.024C364.015 419.257 364.015 419.724 363.548 420.035L355.222 424.86C354.755 425.093 353.977 425.093 353.51 424.86L351.098 423.459C350.631 423.226 350.631 422.759 351.098 422.448L359.424 417.623C359.891 417.39 360.669 417.39 361.136 417.623L363.548 419.024Z" fill="#C7CBD3"/>
<path d="M374.91 412.487C375.377 412.721 375.377 413.188 374.91 413.499L366.584 418.323C366.117 418.557 365.339 418.557 364.872 418.323L357.557 414.121C357.09 413.888 357.09 413.421 357.557 413.11L365.883 408.285C366.35 408.052 367.128 408.052 367.595 408.285L374.91 412.487Z" fill="#C7CBD3"/>
<path d="M386.349 405.873C386.816 406.107 386.816 406.573 386.349 406.885L378.023 411.709C377.556 411.943 376.778 411.943 376.311 411.709L368.997 407.429C368.53 407.196 368.53 406.729 368.997 406.418L377.323 401.593C377.79 401.36 378.568 401.36 379.035 401.593L386.349 405.873Z" fill="#C7CBD3"/>
<path d="M399.655 398.169C400.122 398.403 400.122 398.87 399.655 399.181L389.617 404.939C389.15 405.173 388.372 405.173 387.905 404.939L380.59 400.737C380.124 400.504 380.124 400.037 380.59 399.726L390.628 393.968C391.095 393.734 391.873 393.734 392.34 393.968L399.655 398.169Z" fill="#C7CBD3"/>
<path d="M503.926 337.941C504.392 338.175 504.392 338.641 503.926 338.953L495.599 343.777C495.132 344.011 494.354 344.011 493.887 343.777L486.573 339.575C486.106 339.342 486.106 338.875 486.573 338.564L494.899 333.739C495.366 333.506 496.144 333.506 496.611 333.739L503.926 337.941Z" fill="#C7CBD3"/>
<path d="M492.566 344.555C493.033 344.789 493.033 345.256 492.566 345.567L484.24 350.391C483.773 350.625 482.995 350.625 482.528 350.391L475.213 346.189C474.747 345.956 474.747 345.489 475.213 345.178L483.54 340.353C484.007 340.12 484.785 340.12 485.252 340.353L492.566 344.555Z" fill="#C7CBD3"/>
<path d="M481.127 351.092C481.593 351.325 481.593 351.792 481.127 352.103L472.8 356.928C472.334 357.161 471.555 357.161 471.089 356.928L463.774 352.726C463.307 352.492 463.307 352.026 463.774 351.714L472.1 346.89C472.567 346.656 473.345 346.656 473.812 346.89L481.127 351.092Z" fill="#C7CBD3"/>
<path d="M469.765 357.706C470.232 357.939 470.232 358.406 469.765 358.718L459.804 364.476C459.338 364.709 458.559 364.709 458.092 364.476L450.778 360.274C450.311 360.04 450.311 359.574 450.778 359.262L460.738 353.504C461.205 353.271 461.983 353.271 462.45 353.504L469.765 357.706Z" fill="#C7CBD3"/>
<path d="M456.304 365.487C456.771 365.721 456.771 366.188 456.304 366.499L403.39 397.08C402.923 397.314 402.145 397.314 401.678 397.08L394.364 392.878C393.897 392.645 393.897 392.178 394.364 391.867L447.278 361.285C447.744 361.052 448.523 361.052 448.99 361.285L456.304 365.487Z" fill="#C7CBD3"/>
<path d="M467.82 346.112C468.287 346.345 468.287 346.812 467.82 347.123L459.494 351.948C459.027 352.181 458.249 352.181 457.782 351.948L450.467 347.746C450 347.512 450 347.045 450.467 346.734L458.794 341.91C459.26 341.676 460.039 341.676 460.505 341.91L467.82 346.112Z" fill="#C7CBD3"/>
<path d="M456.615 352.648C457.082 352.882 457.082 353.348 456.615 353.66L448.289 358.484C447.822 358.718 447.044 358.718 446.577 358.484L439.262 354.282C438.795 354.049 438.795 353.582 439.262 353.271L447.588 348.446C448.055 348.213 448.833 348.213 449.3 348.446L456.615 352.648Z" fill="#C7CBD3"/>
<path d="M445.332 359.107C445.799 359.34 445.799 359.807 445.332 360.118L437.006 364.943C436.539 365.176 435.761 365.176 435.294 364.943L427.979 360.741C427.512 360.507 427.512 360.04 427.979 359.729L436.305 354.905C436.772 354.671 437.55 354.671 438.017 354.905L445.332 359.107Z" fill="#C7CBD3"/>
<path d="M434.048 365.643C434.515 365.877 434.515 366.343 434.048 366.655L425.722 371.479C425.255 371.713 424.477 371.713 424.01 371.479L416.696 367.277C416.229 367.044 416.229 366.577 416.696 366.266L425.022 361.441C425.489 361.208 426.267 361.208 426.734 361.441L434.048 365.643Z" fill="#C7CBD3"/>
<path d="M422.843 372.102C423.31 372.335 423.31 372.802 422.843 373.113L414.517 377.938C414.05 378.171 413.272 378.171 412.805 377.938L405.491 373.736C405.024 373.502 405.024 373.035 405.491 372.724L413.817 367.9C414.284 367.666 415.062 367.666 415.529 367.9L422.843 372.102Z" fill="#C7CBD3"/>
<path d="M411.56 378.638C412.027 378.872 412.027 379.338 411.56 379.65L403.234 384.474C402.767 384.708 401.989 384.708 401.522 384.474L394.208 380.272C393.741 380.039 393.741 379.572 394.208 379.261L402.534 374.436C403.001 374.203 403.779 374.203 404.246 374.436L411.56 378.638Z" fill="#C7CBD3"/>
<path d="M400.355 385.097C400.822 385.33 400.822 385.797 400.355 386.108L392.029 390.933C391.562 391.166 390.784 391.166 390.317 390.933L383.003 386.731C382.536 386.497 382.536 386.03 383.003 385.719L391.329 380.895C391.796 380.661 392.574 380.661 393.041 380.895L400.355 385.097Z" fill="#C7CBD3"/>
<path d="M389.072 391.633C389.539 391.867 389.539 392.333 389.072 392.645L380.746 397.469C380.279 397.703 379.501 397.703 379.034 397.469L371.719 393.267C371.252 393.034 371.252 392.567 371.719 392.256L380.045 387.431C380.512 387.198 381.29 387.198 381.757 387.431L389.072 391.633Z" fill="#C7CBD3"/>
<path d="M377.789 398.092C378.256 398.325 378.256 398.792 377.789 399.103L369.463 403.928C368.996 404.161 368.218 404.161 367.751 403.928L360.436 399.726C359.969 399.492 359.969 399.025 360.436 398.714L368.762 393.89C369.229 393.656 370.007 393.656 370.474 393.89L377.789 398.092Z" fill="#C7CBD3"/>
<path d="M366.584 404.628C367.05 404.862 367.05 405.328 366.584 405.64L358.257 410.464C357.791 410.698 357.012 410.698 356.546 410.464L349.231 406.262C348.764 406.029 348.764 405.562 349.231 405.251L357.557 400.426C358.024 400.193 358.802 400.193 359.269 400.426L366.584 404.628Z" fill="#C7CBD3"/>
<path d="M492.955 331.638C493.421 331.872 493.421 332.339 492.955 332.65L471.4 345.1C470.933 345.334 470.155 345.334 469.688 345.1L462.374 340.898C461.907 340.665 461.907 340.198 462.374 339.887L483.928 327.436C484.395 327.203 485.173 327.203 485.64 327.436L492.955 331.638Z" fill="#C7CBD3"/>
<path d="M462.295 336.618C462.761 336.852 462.761 337.319 462.295 337.63L453.968 342.454C453.502 342.688 452.723 342.688 452.257 342.454L444.942 338.252C444.475 338.019 444.475 337.552 444.942 337.241L453.268 332.416C453.735 332.183 454.513 332.183 454.98 332.416L462.295 336.618Z" fill="#C7CBD3"/>
<path d="M451.011 343.155C451.478 343.388 451.478 343.855 451.011 344.166L442.685 348.991C442.218 349.224 441.44 349.224 440.973 348.991L433.659 344.789C433.192 344.555 433.192 344.089 433.659 343.777L441.985 338.953C442.452 338.719 443.23 338.719 443.697 338.953L451.011 343.155Z" fill="#C7CBD3"/>
<path d="M439.806 349.691C440.273 349.925 440.273 350.391 439.806 350.703L431.48 355.527C431.013 355.761 430.235 355.761 429.768 355.527L422.454 351.325C421.987 351.092 421.987 350.625 422.454 350.314L430.78 345.489C431.247 345.256 432.025 345.256 432.492 345.489L439.806 349.691Z" fill="#C7CBD3"/>
<path d="M428.523 356.15C428.99 356.383 428.99 356.85 428.523 357.161L420.197 361.986C419.73 362.219 418.952 362.219 418.485 361.986L411.17 357.784C410.704 357.55 410.704 357.083 411.17 356.772L419.497 351.948C419.963 351.714 420.742 351.714 421.208 351.948L428.523 356.15Z" fill="#C7CBD3"/>
<path d="M417.24 362.686C417.707 362.92 417.707 363.386 417.24 363.698L408.914 368.522C408.447 368.756 407.669 368.756 407.202 368.522L399.887 364.32C399.42 364.087 399.42 363.62 399.887 363.309L408.213 358.484C408.68 358.251 409.458 358.251 409.925 358.484L417.24 362.686Z" fill="#C7CBD3"/>
<path d="M405.957 369.222C406.424 369.456 406.424 369.923 405.957 370.234L397.631 375.059C397.164 375.292 396.385 375.292 395.919 375.059L388.604 370.857C388.137 370.623 388.137 370.156 388.604 369.845L396.93 365.02C397.397 364.787 398.175 364.787 398.642 365.02L405.957 369.222Z" fill="#C7CBD3"/>
<path d="M394.675 375.681C395.142 375.915 395.142 376.381 394.675 376.693L386.349 381.517C385.882 381.751 385.104 381.751 384.637 381.517L377.323 377.315C376.856 377.082 376.856 376.615 377.323 376.304L385.649 371.479C386.116 371.246 386.894 371.246 387.361 371.479L394.675 375.681Z" fill="#C7CBD3"/>
<path d="M383.468 382.218C383.935 382.451 383.935 382.918 383.468 383.229L375.142 388.054C374.675 388.287 373.897 388.287 373.43 388.054L366.116 383.852C365.649 383.618 365.649 383.151 366.116 382.84L374.442 378.016C374.909 377.782 375.687 377.782 376.154 378.016L383.468 382.218Z" fill="#C7CBD3"/>
<path d="M372.187 388.676C372.654 388.91 372.654 389.376 372.187 389.688L363.861 394.512C363.394 394.746 362.616 394.746 362.149 394.512L354.835 390.31C354.368 390.077 354.368 389.61 354.835 389.299L363.161 384.474C363.628 384.241 364.406 384.241 364.873 384.474L372.187 388.676Z" fill="#C7CBD3"/>
<path d="M360.904 395.213C361.371 395.446 361.371 395.913 360.904 396.224L352.578 401.049C352.111 401.282 351.333 401.282 350.866 401.049L343.551 396.847C343.084 396.613 343.084 396.146 343.551 395.835L351.877 391.011C352.344 390.777 353.122 390.777 353.589 391.011L360.904 395.213Z" fill="#C7CBD3"/>
<path d="M349.621 401.749C350.088 401.982 350.088 402.449 349.621 402.761L341.295 407.585C340.828 407.819 340.05 407.819 339.583 407.585L332.268 403.383C331.801 403.15 331.801 402.683 332.268 402.372L340.594 397.547C341.061 397.314 341.839 397.314 342.306 397.547L349.621 401.749Z" fill="#C7CBD3"/>
<path d="M481.982 325.335C482.449 325.569 482.449 326.036 481.982 326.347L466.263 335.373C465.796 335.607 465.018 335.607 464.551 335.373L457.237 331.171C456.77 330.938 456.77 330.471 457.237 330.16L472.955 321.055C473.422 320.822 474.2 320.822 474.667 321.055L481.982 325.335Z" fill="#C7CBD3"/>
<path d="M337.558 408.674C338.025 408.908 338.025 409.375 337.558 409.686L321.84 418.79C321.373 419.024 320.595 419.024 320.128 418.79L312.813 414.588C312.346 414.355 312.346 413.888 312.813 413.577L328.532 404.472C328.998 404.239 329.777 404.239 330.243 404.472L337.558 408.674Z" fill="#C7CBD3"/>
<path d="M354.911 411.32C355.378 411.554 355.378 412.02 354.911 412.332L332.812 425.093C332.345 425.327 331.567 425.327 331.1 425.093L323.786 420.891C323.319 420.658 323.319 420.191 323.786 419.88L345.885 407.118C346.352 406.885 347.13 406.885 347.597 407.118L354.911 411.32Z" fill="#C7CBD3"/>
<path d="M358.646 416.222C359.113 416.456 359.113 416.923 358.646 417.234L350.32 422.058C349.853 422.292 349.075 422.292 348.608 422.058L346.196 420.658C345.729 420.424 345.729 419.958 346.196 419.646L354.522 414.822C354.989 414.588 355.767 414.588 356.234 414.822L358.646 416.222Z" fill="#C7CBD3"/>
<path d="M287.057 399.648L284.878 398.403C284.334 398.092 284.256 397.625 284.723 397.313L444.864 304.87C445.331 304.637 446.109 304.637 446.654 304.948L448.833 306.193C449.378 306.504 449.455 306.971 448.989 307.282L288.847 399.726C288.38 400.037 287.602 399.959 287.057 399.648ZM450 317.709C450.467 317.943 451.245 317.943 451.712 317.709L460.038 312.885C460.505 312.652 460.505 312.185 460.038 311.873L452.724 307.671C452.257 307.438 451.479 307.438 451.012 307.671L442.686 312.496C442.219 312.729 442.219 313.196 442.686 313.507L450 317.709ZM438.717 324.246C439.184 324.479 439.962 324.479 440.429 324.246L448.755 319.421C449.222 319.188 449.222 318.721 448.755 318.41L441.441 314.208C440.974 313.974 440.196 313.974 439.729 314.208L431.403 319.032C430.936 319.266 430.936 319.733 431.403 320.044L438.717 324.246ZM427.434 330.782C427.901 331.016 428.679 331.016 429.146 330.782L437.472 325.958C437.939 325.724 437.939 325.257 437.472 324.946L430.158 320.744C429.691 320.511 428.913 320.511 428.446 320.744L420.12 325.569C419.653 325.802 419.653 326.269 420.12 326.58L427.434 330.782ZM416.229 337.241C416.696 337.474 417.474 337.474 417.941 337.241L426.267 332.416C426.734 332.183 426.734 331.716 426.267 331.405L418.952 327.203C418.485 326.969 417.707 326.969 417.24 327.203L408.914 332.027C408.447 332.261 408.447 332.728 408.914 333.039L416.229 337.241ZM404.946 343.777C405.413 344.011 406.191 344.011 406.658 343.777L414.984 338.953C415.451 338.719 415.451 338.252 414.984 337.941L407.669 333.739C407.202 333.506 406.424 333.506 405.957 333.739L397.631 338.564C397.164 338.797 397.164 339.264 397.631 339.575L404.946 343.777ZM393.663 350.236C394.13 350.469 394.908 350.469 395.375 350.236L403.701 345.411C404.168 345.178 404.168 344.711 403.701 344.4L396.386 340.198C395.919 339.964 395.141 339.964 394.674 340.198L386.348 345.022C385.881 345.256 385.881 345.723 386.348 346.034L393.663 350.236ZM382.457 356.772C382.924 357.006 383.702 357.006 384.169 356.772L392.495 351.948C392.962 351.714 392.962 351.247 392.495 350.936L385.181 346.734C384.714 346.501 383.936 346.501 383.469 346.734L375.143 351.559C374.676 351.792 374.676 352.259 375.143 352.57L382.457 356.772ZM371.174 363.231C371.641 363.464 372.419 363.464 372.886 363.231L381.212 358.406C381.679 358.173 381.679 357.706 381.212 357.395L373.898 353.193C373.431 352.959 372.653 352.959 372.186 353.193L363.86 358.017C363.393 358.251 363.393 358.718 363.86 359.029L371.174 363.231ZM359.891 369.767C360.358 370.001 361.136 370.001 361.603 369.767L369.929 364.943C370.396 364.709 370.396 364.242 369.929 363.931L362.615 359.729C362.148 359.496 361.37 359.496 360.903 359.729L352.577 364.554C352.11 364.787 352.11 365.254 352.577 365.565L359.891 369.767ZM348.686 376.226C349.153 376.459 349.931 376.459 350.398 376.226L358.724 371.401C359.191 371.168 359.191 370.701 358.724 370.39L351.409 366.188C350.943 365.954 350.164 365.954 349.698 366.188L341.371 371.012C340.905 371.246 340.905 371.713 341.371 372.024L348.686 376.226ZM337.403 382.762C337.87 382.996 338.648 382.996 339.115 382.762L347.441 377.938C347.908 377.704 347.908 377.237 347.441 376.926L340.126 372.724C339.66 372.491 338.881 372.491 338.414 372.724L330.088 377.549C329.621 377.782 329.621 378.249 330.088 378.56L337.403 382.762ZM326.12 389.221C326.587 389.454 327.365 389.454 327.832 389.221L336.158 384.396C336.625 384.163 336.625 383.696 336.158 383.385L328.843 379.183C328.376 378.949 327.598 378.949 327.131 379.183L318.805 384.007C318.338 384.241 318.338 384.708 318.805 385.019L326.12 389.221ZM314.915 395.757C315.381 395.991 316.16 395.991 316.626 395.757L324.953 390.933C325.419 390.699 325.419 390.232 324.953 389.921L317.638 385.719C317.171 385.486 316.393 385.486 315.926 385.719L307.6 390.544C307.133 390.777 307.133 391.244 307.6 391.555L314.915 395.757ZM298.184 405.406C298.651 405.64 299.429 405.64 299.896 405.406L313.358 397.625C313.825 397.391 313.825 396.924 313.358 396.613L306.044 392.411C305.577 392.178 304.799 392.178 304.332 392.411L290.87 400.193C290.403 400.426 290.403 400.893 290.87 401.204L298.184 405.406ZM311.88 401.749C311.413 401.515 310.635 401.515 310.168 401.749L301.842 406.573C301.375 406.807 301.375 407.274 301.842 407.585L309.156 411.787C309.623 412.02 310.401 412.02 310.868 411.787L319.194 406.962C319.661 406.729 319.661 406.262 319.194 405.951L311.88 401.749ZM323.163 395.212C322.696 394.979 321.918 394.979 321.451 395.212L313.125 400.037C312.658 400.27 312.658 400.737 313.125 401.049L320.439 405.251C320.906 405.484 321.684 405.484 322.151 405.251L330.477 400.426C330.944 400.193 330.944 399.726 330.477 399.414L323.163 395.212ZM334.446 388.754C333.979 388.52 333.201 388.52 332.734 388.754L324.408 393.578C323.941 393.812 323.941 394.279 324.408 394.59L331.722 398.792C332.189 399.025 332.967 399.025 333.434 398.792L341.76 393.967C342.227 393.734 342.227 393.267 341.76 392.956L334.446 388.754ZM345.651 382.217C345.184 381.984 344.406 381.984 343.939 382.217L335.613 387.042C335.146 387.275 335.146 387.742 335.613 388.054L342.928 392.256C343.395 392.489 344.173 392.489 344.64 392.256L352.966 387.431C353.433 387.198 353.433 386.731 352.966 386.419L345.651 382.217ZM356.934 375.759C356.467 375.525 355.689 375.525 355.222 375.759L346.896 380.583C346.429 380.817 346.429 381.284 346.896 381.595L354.211 385.797C354.678 386.03 355.456 386.03 355.923 385.797L364.249 380.972C364.716 380.739 364.716 380.272 364.249 379.961L356.934 375.759ZM368.217 369.223C367.75 368.989 366.972 368.989 366.505 369.223L358.179 374.047C357.712 374.28 357.712 374.747 358.179 375.059L365.494 379.261C365.961 379.494 366.739 379.494 367.206 379.261L375.532 374.436C375.999 374.203 375.999 373.736 375.532 373.424L368.217 369.223ZM379.423 362.764C378.956 362.53 378.178 362.53 377.711 362.764L369.385 367.588C368.918 367.822 368.918 368.289 369.385 368.6L376.699 372.802C377.166 373.035 377.944 373.035 378.411 372.802L386.737 367.977C387.204 367.744 387.204 367.277 386.737 366.966L379.423 362.764ZM390.706 356.228C390.239 355.994 389.461 355.994 388.994 356.228L380.668 361.052C380.201 361.285 380.201 361.752 380.668 362.064L387.982 366.266C388.449 366.499 389.227 366.499 389.694 366.266L398.02 361.441C398.487 361.208 398.487 360.741 398.02 360.43L390.706 356.228ZM401.989 349.691C401.522 349.458 400.744 349.458 400.277 349.691L391.951 354.516C391.484 354.749 391.484 355.216 391.951 355.527L399.265 359.729C399.732 359.963 400.51 359.963 400.977 359.729L409.303 354.905C409.77 354.671 409.77 354.204 409.303 353.893L401.989 349.691ZM413.194 343.233C412.727 342.999 411.949 342.999 411.482 343.233L403.156 348.057C402.689 348.29 402.689 348.757 403.156 349.069L410.471 353.271C410.937 353.504 411.716 353.504 412.182 353.271L420.509 348.446C420.975 348.213 420.975 347.746 420.509 347.435L413.194 343.233ZM424.477 336.696C424.01 336.463 423.232 336.463 422.765 336.696L414.439 341.521C413.972 341.754 413.972 342.221 414.439 342.532L421.754 346.734C422.22 346.968 422.999 346.968 423.466 346.734L431.792 341.91C432.259 341.676 432.259 341.209 431.792 340.898L424.477 336.696ZM435.76 330.238C435.293 330.004 434.515 330.004 434.048 330.238L425.722 335.062C425.255 335.295 425.255 335.762 425.722 336.074L433.037 340.276C433.504 340.509 434.282 340.509 434.749 340.276L443.075 335.451C443.542 335.218 443.542 334.751 443.075 334.44L435.76 330.238ZM446.965 323.701C446.499 323.468 445.72 323.468 445.254 323.701L436.927 328.526C436.46 328.759 436.46 329.226 436.927 329.537L444.242 333.739C444.709 333.973 445.487 333.973 445.954 333.739L454.28 328.915C454.747 328.681 454.747 328.214 454.28 327.903L446.965 323.701ZM463.696 314.052C463.229 313.819 462.451 313.819 461.984 314.052L448.522 321.834C448.055 322.067 448.055 322.534 448.522 322.845L455.836 327.047C456.303 327.281 457.081 327.281 457.548 327.047L471.01 319.266C471.477 319.032 471.477 318.565 471.01 318.254L463.696 314.052ZM344.795 420.736C344.328 420.502 343.55 420.502 343.083 420.736L334.757 425.56C334.29 425.794 334.29 426.26 334.757 426.572L342.072 430.774C342.539 431.007 343.317 431.007 343.784 430.774L352.11 425.949C352.577 425.716 352.577 425.249 352.11 424.938L344.795 420.736ZM361.136 417.001C360.669 416.767 359.891 416.767 359.424 417.001L351.098 421.825C350.631 422.058 350.631 422.525 351.098 422.837L353.51 424.237C353.977 424.471 354.755 424.471 355.222 424.237L363.548 419.413C364.015 419.179 364.015 418.712 363.548 418.401L361.136 417.001ZM367.673 407.585C367.206 407.352 366.428 407.352 365.961 407.585L357.635 412.409C357.168 412.643 357.168 413.11 357.635 413.421L364.949 417.623C365.416 417.856 366.194 417.856 366.661 417.623L374.987 412.799C375.454 412.565 375.454 412.098 374.987 411.787L367.673 407.585ZM379.034 400.971C378.567 400.737 377.789 400.737 377.322 400.971L368.995 405.795C368.529 406.029 368.529 406.496 368.995 406.807L376.31 411.009C376.777 411.242 377.555 411.242 378.022 411.009L386.348 406.184C386.815 405.951 386.815 405.484 386.348 405.173L379.034 400.971ZM392.34 393.345C391.873 393.112 391.095 393.112 390.628 393.345L380.59 399.103C380.123 399.337 380.123 399.804 380.59 400.115L387.904 404.317C388.371 404.55 389.149 404.55 389.616 404.317L399.654 398.558C400.121 398.325 400.121 397.858 399.654 397.547L392.34 393.345ZM496.611 333.117C496.144 332.883 495.366 332.883 494.899 333.117L486.573 337.941C486.106 338.175 486.106 338.641 486.573 338.953L493.887 343.155C494.354 343.388 495.133 343.388 495.599 343.155L503.926 338.33C504.392 338.097 504.392 337.63 503.926 337.319L496.611 333.117ZM485.25 339.653C484.783 339.42 484.005 339.42 483.538 339.653L475.212 344.478C474.745 344.711 474.745 345.178 475.212 345.489L482.527 349.691C482.993 349.925 483.772 349.925 484.238 349.691L492.565 344.867C493.032 344.633 493.032 344.166 492.565 343.855L485.25 339.653ZM473.889 346.267C473.422 346.034 472.644 346.034 472.177 346.267L463.851 351.092C463.384 351.325 463.384 351.792 463.851 352.103L471.166 356.305C471.633 356.539 472.411 356.539 472.878 356.305L481.204 351.481C481.671 351.247 481.671 350.781 481.204 350.469L473.889 346.267ZM462.45 352.804C461.984 352.57 461.205 352.57 460.739 352.804L450.778 358.562C450.311 358.795 450.311 359.262 450.778 359.574L458.093 363.776C458.56 364.009 459.338 364.009 459.805 363.776L469.765 358.017C470.232 357.784 470.232 357.317 469.765 357.006L462.45 352.804ZM448.989 360.585C448.522 360.352 447.744 360.352 447.277 360.585L394.363 391.166C393.896 391.4 393.896 391.867 394.363 392.178L401.678 396.38C402.144 396.613 402.923 396.613 403.389 396.38L456.303 365.799C456.77 365.565 456.77 365.098 456.303 364.787L448.989 360.585ZM460.583 341.287C460.116 341.054 459.338 341.054 458.871 341.287L450.545 346.112C450.078 346.345 450.078 346.812 450.545 347.123L457.859 351.325C458.326 351.559 459.104 351.559 459.571 351.325L467.897 346.501C468.364 346.267 468.364 345.8 467.897 345.489L460.583 341.287ZM449.3 347.746C448.833 347.512 448.055 347.512 447.588 347.746L439.262 352.57C438.795 352.804 438.795 353.271 439.262 353.582L446.576 357.784C447.043 358.017 447.821 358.017 448.288 357.784L456.614 352.959C457.081 352.726 457.081 352.259 456.614 351.948L449.3 347.746ZM438.017 354.282C437.55 354.049 436.772 354.049 436.305 354.282L427.979 359.107C427.512 359.34 427.512 359.807 427.979 360.118L435.293 364.32C435.76 364.554 436.538 364.554 437.005 364.32L445.331 359.496C445.798 359.262 445.798 358.795 445.331 358.484L438.017 354.282ZM426.812 360.741C426.345 360.507 425.566 360.507 425.1 360.741L416.773 365.565C416.307 365.799 416.307 366.266 416.773 366.577L424.088 370.779C424.555 371.012 425.333 371.012 425.8 370.779L434.126 365.954C434.593 365.721 434.593 365.254 434.126 364.943L426.812 360.741ZM415.528 367.277C415.062 367.044 414.283 367.044 413.817 367.277L405.49 372.102C405.024 372.335 405.024 372.802 405.49 373.113L412.805 377.315C413.272 377.549 414.05 377.549 414.517 377.315L422.843 372.491C423.31 372.257 423.31 371.79 422.843 371.479L415.528 367.277ZM404.323 373.736C403.856 373.502 403.078 373.502 402.611 373.736L394.285 378.56C393.818 378.794 393.818 379.261 394.285 379.572L401.6 383.774C402.067 384.007 402.845 384.007 403.312 383.774L411.638 378.949C412.105 378.716 412.105 378.249 411.638 377.938L404.323 373.736ZM393.04 380.272C392.573 380.039 391.795 380.039 391.328 380.272L383.002 385.097C382.535 385.33 382.535 385.797 383.002 386.108L390.317 390.31C390.784 390.544 391.562 390.544 392.029 390.31L400.355 385.486C400.822 385.252 400.822 384.785 400.355 384.474L393.04 380.272ZM381.757 386.731C381.29 386.497 380.512 386.497 380.045 386.731L371.719 391.555C371.252 391.789 371.252 392.256 371.719 392.567L379.034 396.769C379.5 397.002 380.279 397.002 380.745 396.769L389.072 391.944C389.538 391.711 389.538 391.244 389.072 390.933L381.757 386.731ZM370.552 393.189C370.085 392.956 369.307 392.956 368.84 393.189L360.514 398.014C360.047 398.247 360.047 398.714 360.514 399.025L367.828 403.227C368.295 403.461 369.073 403.461 369.54 403.227L377.866 398.403C378.333 398.169 378.333 397.703 377.866 397.391L370.552 393.189ZM359.269 399.726C358.802 399.492 358.024 399.492 357.557 399.726L349.231 404.55C348.764 404.784 348.764 405.251 349.231 405.562L356.545 409.764C357.012 409.997 357.79 409.997 358.257 409.764L366.583 404.939C367.05 404.706 367.05 404.239 366.583 403.928L359.269 399.726ZM485.639 326.736C485.172 326.502 484.394 326.502 483.927 326.736L462.373 339.186C461.906 339.42 461.906 339.887 462.373 340.198L469.687 344.4C470.154 344.633 470.932 344.633 471.399 344.4L492.954 331.949C493.421 331.716 493.421 331.249 492.954 330.938L485.639 326.736ZM454.98 331.794C454.513 331.56 453.735 331.56 453.268 331.794L444.942 336.618C444.475 336.852 444.475 337.319 444.942 337.63L452.257 341.832C452.724 342.065 453.502 342.065 453.969 341.832L462.295 337.007C462.762 336.774 462.762 336.307 462.295 335.996L454.98 331.794ZM443.775 338.252C443.308 338.019 442.53 338.019 442.063 338.252L433.737 343.077C433.27 343.31 433.27 343.777 433.737 344.088L441.052 348.29C441.518 348.524 442.297 348.524 442.763 348.29L451.09 343.466C451.556 343.233 451.556 342.766 451.09 342.454L443.775 338.252ZM432.492 344.789C432.025 344.555 431.247 344.555 430.78 344.789L422.454 349.613C421.987 349.847 421.987 350.314 422.454 350.625L429.768 354.827C430.235 355.06 431.014 355.06 431.48 354.827L439.807 350.002C440.273 349.769 440.273 349.302 439.807 348.991L432.492 344.789ZM421.209 351.325C420.742 351.092 419.964 351.092 419.497 351.325L411.171 356.15C410.704 356.383 410.704 356.85 411.171 357.161L418.485 361.363C418.952 361.597 419.73 361.597 420.197 361.363L428.523 356.539C428.99 356.305 428.99 355.838 428.523 355.527L421.209 351.325ZM409.926 357.784C409.459 357.55 408.681 357.55 408.214 357.784L399.888 362.608C399.421 362.842 399.421 363.309 399.888 363.62L407.202 367.822C407.669 368.055 408.447 368.055 408.914 367.822L417.24 362.997C417.707 362.764 417.707 362.297 417.24 361.986L409.926 357.784ZM398.643 364.32C398.176 364.087 397.398 364.087 396.931 364.32L388.605 369.145C388.138 369.378 388.138 369.845 388.605 370.156L395.919 374.358C396.386 374.592 397.164 374.592 397.631 374.358L405.957 369.534C406.424 369.3 406.424 368.833 405.957 368.522L398.643 364.32ZM387.437 370.779C386.971 370.545 386.192 370.545 385.726 370.779L377.399 375.603C376.933 375.837 376.933 376.304 377.399 376.615L384.714 380.817C385.181 381.05 385.959 381.05 386.426 380.817L394.752 375.992C395.219 375.759 395.219 375.292 394.752 374.981L387.437 370.779ZM376.154 377.315C375.688 377.082 374.909 377.082 374.442 377.315L366.116 382.14C365.649 382.373 365.649 382.84 366.116 383.151L373.431 387.353C373.898 387.587 374.676 387.587 375.143 387.353L383.469 382.529C383.936 382.295 383.936 381.828 383.469 381.517L376.154 377.315ZM364.871 383.852C364.404 383.618 363.626 383.618 363.159 383.852L354.833 388.676C354.366 388.91 354.366 389.376 354.833 389.688L362.148 393.89C362.615 394.123 363.393 394.123 363.86 393.89L372.186 389.065C372.653 388.832 372.653 388.365 372.186 388.054L364.871 383.852ZM353.588 390.31C353.121 390.077 352.343 390.077 351.876 390.31L343.55 395.135C343.083 395.368 343.083 395.835 343.55 396.146L350.865 400.348C351.332 400.582 352.11 400.582 352.577 400.348L360.903 395.524C361.37 395.29 361.37 394.823 360.903 394.512L353.588 390.31ZM342.305 396.847C341.838 396.613 341.06 396.613 340.593 396.847L332.267 401.671C331.8 401.905 331.8 402.371 332.267 402.683L339.582 406.885C340.049 407.118 340.827 407.118 341.294 406.885L349.62 402.06C350.087 401.827 350.087 401.36 349.62 401.049L342.305 396.847ZM474.667 320.433C474.2 320.2 473.422 320.2 472.955 320.433L457.237 329.537C456.77 329.771 456.77 330.238 457.237 330.549L464.551 334.751C465.018 334.984 465.797 334.984 466.263 334.751L481.982 325.646C482.449 325.413 482.449 324.946 481.982 324.635L474.667 320.433ZM330.244 403.85C329.777 403.616 328.999 403.616 328.532 403.85L312.814 412.876C312.347 413.11 312.347 413.577 312.814 413.888L320.128 418.09C320.595 418.323 321.373 418.323 321.84 418.09L337.558 408.986C338.025 408.752 338.025 408.285 337.558 407.974L330.244 403.85ZM347.597 406.496C347.13 406.262 346.352 406.262 345.885 406.496L323.785 419.257C323.319 419.491 323.319 419.957 323.785 420.269L331.1 424.471C331.567 424.704 332.345 424.704 332.812 424.471L354.911 411.709C355.378 411.476 355.378 411.009 354.911 410.698L347.597 406.496ZM356.234 414.121C355.767 413.888 354.989 413.888 354.522 414.121L346.196 418.946C345.729 419.179 345.729 419.646 346.196 419.957L348.608 421.358C349.075 421.592 349.853 421.592 350.32 421.358L358.646 416.534C359.113 416.3 359.113 415.833 358.646 415.522L356.234 414.121Z" fill="white"/>
</g>
<g clip-path="url(#clip2_1758_13454)">
<path opacity="0.3" d="M181.773 193.206L474.355 24.2716C479.958 21.0034 484.471 23.649 484.471 30.1076V210.715C484.471 217.173 479.958 225.033 474.355 228.301L181.773 397.236C176.17 400.504 171.657 397.858 171.657 391.4V210.715C171.579 204.256 176.17 196.397 181.773 193.206Z" fill="#00D4CA"/>
<path opacity="0.6" d="M181.773 193.206L474.355 24.2716C479.958 21.0034 484.471 23.649 484.471 30.1076V210.715C484.471 217.173 479.958 225.033 474.355 228.301L181.773 397.236C176.17 400.504 171.657 397.858 171.657 391.4V210.715C171.579 204.256 176.17 196.397 181.773 193.206Z" stroke="white"/>
<path opacity="0.6" d="M181.773 193.206L474.355 24.2716C479.958 21.0034 484.471 23.649 484.471 30.1076V210.715C484.471 217.173 479.958 225.033 474.355 228.301L181.773 397.236C176.17 400.504 171.657 397.858 171.657 391.4V210.715C171.579 204.256 176.17 196.397 181.773 193.206Z" stroke="white"/>
</g>
<g clip-path="url(#clip3_1758_13454)">
<path d="M192.124 198.342L484.706 29.4072C490.308 26.139 494.822 28.7847 494.822 35.2433V215.85C494.822 222.309 490.308 230.168 484.706 233.436L192.124 402.371C186.521 405.64 182.008 402.994 182.008 396.535V215.928C182.008 209.47 186.521 201.61 192.124 198.342Z" fill="url(#paint0_linear_1758_13454)"/>
<path opacity="0.25" d="M194.77 199.665L259.278 162.47L408.526 280.358L194.77 403.694C189.168 406.962 184.654 404.317 184.654 397.858V217.251C184.654 210.792 189.168 202.933 194.77 199.665Z" fill="url(#paint1_linear_1758_13454)"/>
<path d="M192.124 198.342L484.706 29.4072C490.308 26.139 494.822 28.7847 494.822 35.2433V215.85C494.822 222.309 490.308 230.168 484.706 233.436L192.124 402.371C186.521 405.64 182.008 402.994 182.008 396.535V215.928C182.008 209.47 186.521 201.61 192.124 198.342Z" fill="url(#paint2_linear_1758_13454)"/>
<path opacity="0.25" d="M194.77 199.665L259.278 162.47L408.526 280.358L194.77 403.694C189.168 406.962 184.654 404.317 184.654 397.858V217.251C184.654 210.792 189.168 202.933 194.77 199.665Z" fill="url(#paint3_linear_1758_13454)"/>
<path d="M192.124 198.342L484.706 29.4072C490.308 26.139 494.822 28.7847 494.822 35.2433V215.85C494.822 222.309 490.308 230.168 484.706 233.436L192.124 402.371C186.521 405.64 182.008 402.994 182.008 396.535V215.928C182.008 209.47 186.521 201.61 192.124 198.342Z" fill="url(#paint4_linear_1758_13454)"/>
<path d="M194.768 199.665L487.272 30.8079C492.875 27.5397 497.388 30.1854 497.388 36.644V217.251C497.388 223.71 492.875 231.569 487.272 234.837L194.69 403.772C189.087 407.04 184.574 404.395 184.574 397.936V217.251C184.652 210.793 189.165 202.933 194.768 199.665Z" fill="url(#paint5_linear_1758_13454)"/>
<path opacity="0.25" d="M194.77 199.665L259.278 162.47L408.526 280.359L194.77 403.694C189.168 406.962 184.654 404.317 184.654 397.858V217.251C184.654 210.792 189.168 202.933 194.77 199.665Z" fill="url(#paint6_linear_1758_13454)"/>
<path opacity="0.5" d="M341.061 319.266L194.77 403.694C189.168 406.962 184.654 404.317 184.654 397.858V217.251C184.654 210.793 189.168 202.933 194.77 199.665L341.061 115.237V319.266Z" fill="#212762"/>
<g opacity="0.7">
<g opacity="0.7">
<g opacity="0.7">
<path opacity="0.7" d="M487.273 30.8079L253.83 166.049L195.469 199.665C193.057 200.988 191.034 202.933 189.322 205.19C187.688 207.446 186.365 209.937 185.665 212.582C185.276 213.905 185.042 215.306 184.964 216.629C184.886 218.029 184.964 219.43 184.964 220.831V229.234L184.886 262.928L184.653 397.78L184.42 262.928L184.342 229.234V220.831C184.342 219.43 184.342 218.029 184.342 216.629C184.42 215.228 184.653 213.749 185.042 212.427C185.82 209.703 187.143 207.135 188.777 204.801C189.633 203.634 190.567 202.622 191.579 201.61C192.59 200.599 193.835 199.821 195.002 199.12L253.363 165.349L487.273 30.8079Z" fill="white"/>
</g>
</g>
</g>
</g>
<g clip-path="url(#clip4_1758_13454)">
<path d="M315.692 160.914L200.371 227.523C199.593 227.989 198.893 227.523 198.893 226.433C198.893 225.344 199.515 224.099 200.371 223.632L315.692 157.023C316.47 156.556 317.17 157.023 317.17 158.112C317.17 159.202 316.47 160.447 315.692 160.914Z" fill="#277CFF"/>
<path d="M293.126 188.615L211.576 235.693C210.798 236.16 210.098 235.693 210.098 234.604C210.098 233.514 210.72 232.269 211.576 231.802L293.126 184.725C293.904 184.258 294.604 184.725 294.604 185.814C294.604 186.904 293.981 188.149 293.126 188.615Z" fill="#B47FD5"/>
<path d="M259.354 222.854L211.576 250.4C210.798 250.867 210.098 250.4 210.098 249.311C210.098 248.221 210.72 246.976 211.576 246.509L259.354 218.963C260.132 218.496 260.833 218.963 260.833 220.052C260.833 221.142 260.132 222.387 259.354 222.854Z" fill="#86B36F"/>
</g>
<g clip-path="url(#clip5_1758_13454)">
<path d="M276.24 227.756L211.576 265.107C210.798 265.574 210.098 265.107 210.098 264.018C210.098 262.928 210.72 261.683 211.576 261.216L276.24 223.865C277.018 223.398 277.718 223.865 277.718 224.955C277.718 226.044 277.096 227.289 276.24 227.756Z" fill="#B47FD5"/>
<path d="M326.897 213.205L222.859 273.277C222.081 273.744 221.381 273.277 221.381 272.188C221.381 271.099 222.003 269.854 222.859 269.387L326.897 209.314C327.675 208.847 328.376 209.314 328.376 210.403C328.376 211.493 327.753 212.738 326.897 213.205Z" fill="#277CFF"/>
<path d="M276.241 271.877L239.746 292.964C238.968 293.431 238.268 292.964 238.268 291.875C238.268 290.786 238.89 289.541 239.746 289.074L276.241 267.986C277.019 267.519 277.719 267.986 277.719 269.076C277.719 270.165 277.097 271.41 276.241 271.877Z" fill="#B47FD5"/>
</g>
<g clip-path="url(#clip6_1758_13454)">
<path d="M293.126 276.779L200.371 330.393C199.593 330.86 198.893 330.393 198.893 329.304C198.893 328.214 199.515 326.969 200.371 326.502L293.204 272.888C293.982 272.421 294.682 272.888 294.682 273.978C294.604 275.067 293.982 276.312 293.126 276.779Z" fill="#277CFF"/>
<path d="M315.692 278.491L211.654 338.564C210.876 339.031 210.176 338.564 210.176 337.474C210.176 336.385 210.798 335.14 211.654 334.673L315.692 274.6C316.47 274.133 317.171 274.6 317.171 275.69C317.171 276.779 316.47 278.024 315.692 278.491Z" fill="#86B36F"/>
<path d="M315.692 293.198L211.654 353.271C210.876 353.737 210.176 353.271 210.176 352.181C210.176 351.092 210.798 349.847 211.654 349.38L315.692 289.307C316.47 288.84 317.171 289.307 317.171 290.397C317.171 291.486 316.47 292.731 315.692 293.198Z" fill="#93A2BF"/>
<path d="M326.897 301.368L312.891 309.461C312.112 309.928 311.412 309.461 311.412 308.372C311.412 307.282 312.035 306.037 312.891 305.57L326.897 297.478C327.675 297.011 328.376 297.478 328.376 298.567C328.376 299.656 327.753 300.902 326.897 301.368Z" fill="#5CA6E7"/>
</g>
<g clip-path="url(#clip7_1758_13454)">
<path opacity="0.3" d="M438.64 161.147L477.391 138.814C480.504 137.024 482.994 132.2 482.994 128.076V58.3542C482.994 54.23 480.504 52.2847 477.391 54.0744L438.64 76.4071C435.527 78.1968 433.037 83.0213 433.037 87.1455V156.867C432.959 160.991 435.527 162.937 438.64 161.147Z" fill="#0449C5"/>
<path d="M361.214 283.393L412.571 253.746C413.816 253.046 414.828 251.1 414.828 249.466V243.241C414.828 241.607 413.816 240.829 412.571 241.529L361.214 271.176C359.969 271.877 358.957 273.822 358.957 275.456V281.681C358.957 283.393 359.969 284.094 361.214 283.393Z" fill="#F5F5F7"/>
<path opacity="0.3" d="M359.812 227.211L414.438 195.696C415.216 195.23 415.917 193.985 415.917 192.895C415.917 191.806 415.294 191.339 414.438 191.806L359.812 223.321C359.034 223.787 358.334 225.032 358.334 226.122C358.334 227.211 359.034 227.678 359.812 227.211Z" fill="#0449C5"/>
<path opacity="0.3" d="M359.812 235.693L414.438 204.178C415.216 203.711 415.917 202.466 415.917 201.377C415.917 200.288 415.294 199.821 414.438 200.288L359.812 231.802C359.034 232.269 358.334 233.514 358.334 234.604C358.334 235.615 359.034 236.16 359.812 235.693Z" fill="#0449C5"/>
<path opacity="0.3" d="M359.812 244.097L414.438 212.582C415.216 212.115 415.917 210.87 415.917 209.781C415.917 208.692 415.294 208.225 414.438 208.692L359.812 240.206C359.034 240.673 358.334 241.918 358.334 243.008C358.334 244.097 359.034 244.564 359.812 244.097Z" fill="#0449C5"/>
<path opacity="0.3" d="M359.812 252.579L414.438 221.064C415.216 220.597 415.917 219.352 415.917 218.263C415.917 217.173 415.294 216.706 414.438 217.173L359.812 248.688C359.034 249.155 358.334 250.4 358.334 251.489C358.334 252.579 359.034 253.046 359.812 252.579Z" fill="#0449C5"/>
<path opacity="0.3" d="M359.812 261.061L414.438 229.546C415.216 229.079 415.917 227.834 415.917 226.744C415.917 225.655 415.294 225.188 414.438 225.655L359.812 257.17C359.034 257.637 358.334 258.882 358.334 259.971C358.334 260.983 359.034 261.527 359.812 261.061Z" fill="#0449C5"/>
<path opacity="0.3" d="M438.484 219.508L477.235 197.175C480.348 195.385 482.838 190.561 482.838 186.437V149.241C482.838 145.117 480.348 143.172 477.235 144.962L438.484 167.294C435.371 169.084 432.881 173.909 432.881 178.033V215.228C432.881 219.352 435.371 221.297 438.484 219.508Z" fill="#0449C5"/>
<g opacity="0.3">
<path opacity="0.3" d="M374.754 195.307V192.351C380.823 188.849 383.858 184.102 383.858 178.11V133.212C383.858 131.033 382.457 130.722 379.656 132.356C371.408 137.102 366.894 144.884 366.194 155.7L363.938 156.634V136.324C365.26 135.779 366.505 135.235 367.75 134.612C368.995 133.99 370.163 133.367 371.408 132.745L403.856 113.991C404.946 113.369 406.035 112.669 407.202 111.89C408.37 111.112 409.615 110.256 410.86 109.323L413.116 128.776L410.471 131.033C409.381 126.13 407.669 122.94 405.335 121.462C403 120.061 400.043 120.372 396.308 122.551C393.585 124.107 392.184 126.13 392.184 128.543V173.442C392.184 179.433 395.219 180.678 401.211 177.177V180.134L374.754 195.307Z" fill="#0449C5"/>
</g>
<path opacity="0.5" d="M356.312 297.166L417.785 261.683C420.898 259.893 423.388 255.069 423.388 250.945V95.5495C423.388 91.4253 420.898 89.48 417.785 91.2697L356.312 126.753C353.199 128.543 350.709 133.367 350.709 137.491V292.809C350.709 297.011 353.199 298.956 356.312 297.166Z" stroke="white" stroke-miterlimit="10" stroke-dasharray="4 4"/>
<path opacity="0.5" d="M438.64 250.867L477.391 228.534C480.504 226.744 482.994 221.92 482.994 217.796V209.236C482.994 205.112 480.504 203.167 477.391 204.956L438.64 227.289C435.527 229.079 433.037 233.903 433.037 238.028V246.587C432.959 250.711 435.527 252.657 438.64 250.867Z" stroke="white" stroke-miterlimit="10" stroke-dasharray="4 4"/>
</g>
<g clip-path="url(#clip8_1758_13454)">
<path d="M441.753 219.508L480.505 197.175C483.617 195.385 486.107 190.561 486.107 186.437V149.241C486.107 145.117 483.617 143.172 480.505 144.962L441.753 167.294C438.64 169.084 436.15 173.909 436.15 178.033V215.228C436.15 219.352 438.64 221.297 441.753 219.508Z" fill="#C9C9DC"/>
<path d="M443.698 220.13L482.45 197.798C485.562 196.008 488.052 191.183 488.052 187.059V149.864C488.052 145.74 485.562 143.794 482.45 145.584L443.698 167.917C440.586 169.707 438.096 174.531 438.096 178.655V215.85C438.096 220.052 440.586 221.92 443.698 220.13Z" fill="white"/>
<path d="M449.844 194.529L466.185 180.678L459.804 200.288L461.749 201.299L460.349 204.567L454.513 201.377C452.178 200.132 450.622 197.875 449.844 194.529Z" fill="#FDB960"/>
<path d="M472.021 183.791L455.68 197.642C456.847 202.933 460.193 205.657 464.94 205.501L472.021 183.791Z" fill="#FFDE9A"/>
<path d="M472.021 183.791L466.185 180.678L449.844 194.529L455.68 197.642L472.021 183.791Z" fill="#FFD575"/>
<path d="M463.54 179.2L464.162 166.905L458.326 163.793C449.922 171.807 445.176 184.258 447.199 193.051L453.035 196.163L463.54 179.2Z" fill="#CE573C"/>
<path d="M469.376 182.312L464.162 166.905C455.758 174.92 451.012 187.37 453.035 196.163L469.376 182.312Z" fill="#FF6F47"/>
<path d="M458.093 174.142L496.844 151.809C499.957 150.02 502.447 145.195 502.447 141.071V71.2714C502.447 67.1473 499.957 65.2019 496.844 66.9916L458.093 89.3243C454.98 91.1141 452.49 95.9386 452.49 100.063V169.784C452.49 173.986 454.98 175.932 458.093 174.142Z" fill="#C9C9DC"/>
<path d="M460.038 174.764L498.79 152.432C501.902 150.642 504.392 145.818 504.392 141.693V71.9717C504.392 67.8476 501.902 65.9022 498.79 67.6919L460.038 90.1025C456.926 91.8922 454.436 96.7167 454.436 100.841V170.563C454.436 174.687 456.926 176.554 460.038 174.764Z" fill="#F5F5F7"/>
<path d="M469.064 113.032C469.064 119.646 473.733 122.292 479.414 119.024C485.094 115.755 489.763 107.663 489.763 101.048C489.763 94.4341 485.094 91.7885 479.414 95.0567C473.733 98.4027 469.064 106.418 469.064 113.032ZM483.149 101.515C483.149 103.85 481.515 106.729 479.414 107.896C477.391 109.063 475.679 108.129 475.679 105.795C475.679 103.461 477.313 100.581 479.414 99.4143C481.515 98.1693 483.149 99.1808 483.149 101.515ZM486.106 109.997C484.472 113.032 482.137 115.755 479.414 117.312C476.768 118.868 474.356 118.868 472.722 117.701C472.722 115.366 474.434 112.487 476.457 111.32L482.371 107.896C484.394 106.729 486.106 107.663 486.106 109.997Z" fill="white"/>
<path d="M469.843 144.028L465.563 146.518C464.551 147.14 463.695 146.518 463.695 145.117V140.993C463.695 139.592 464.551 137.958 465.563 137.336L469.843 134.846C470.854 134.223 471.71 134.846 471.71 136.246V140.371C471.71 141.771 470.854 143.405 469.843 144.028Z" fill="#BBD3E5"/>
<path d="M494.976 123.796L475.834 134.846C475.523 135.001 475.289 134.846 475.289 134.379V133.601C475.289 133.212 475.523 132.667 475.834 132.511L494.976 121.462C495.287 121.306 495.521 121.462 495.521 121.929V122.707C495.521 123.096 495.287 123.563 494.976 123.796Z" fill="#BBD3E5"/>
<path d="M484.782 134.223L475.756 139.437C475.444 139.592 475.211 139.437 475.211 138.97V138.192C475.211 137.803 475.444 137.258 475.756 137.102L484.782 131.889C485.093 131.733 485.327 131.889 485.327 132.356V133.134C485.405 133.523 485.093 133.99 484.782 134.223Z" fill="#BBD3E5"/>
<path d="M469.843 157.412L465.563 159.902C464.551 160.524 463.695 159.902 463.695 158.501V154.377C463.695 152.977 464.551 151.342 465.563 150.72L469.843 148.23C470.854 147.607 471.71 148.23 471.71 149.63V153.755C471.71 155.155 470.854 156.789 469.843 157.412Z" fill="#BBD3E5"/>
<path d="M494.976 137.18L475.834 148.23C475.523 148.385 475.289 148.23 475.289 147.763V146.985C475.289 146.596 475.523 146.051 475.834 145.895L494.976 134.846C495.287 134.69 495.521 134.846 495.521 135.313V136.091C495.521 136.48 495.287 136.947 494.976 137.18Z" fill="#BBD3E5"/>
<path d="M484.782 147.607L475.756 152.821C475.444 152.976 475.211 152.821 475.211 152.354V151.576C475.211 151.187 475.444 150.642 475.756 150.486L484.782 145.273C485.093 145.117 485.327 145.273 485.327 145.74V146.518C485.405 146.907 485.093 147.374 484.782 147.607Z" fill="#BBD3E5"/>
<path d="M483.15 101.463C483.15 103.798 481.516 106.677 479.415 107.844C477.392 109.011 475.68 108.078 475.68 105.743C475.68 103.409 477.314 100.53 479.415 99.3624C481.516 98.1951 483.15 99.1289 483.15 101.463ZM486.107 110.023C484.473 113.058 482.138 115.781 479.415 117.337C476.769 118.894 474.357 118.894 472.723 117.727C472.723 115.392 474.435 112.513 476.458 111.346L482.372 107.922C484.395 106.755 486.107 107.688 486.107 110.023Z" fill="#BBD3E5"/>
<path d="M392.495 147.607C393.74 146.985 394.907 146.362 396.152 145.74L428.6 126.986C429.69 126.364 430.779 125.664 431.946 124.885C433.114 124.107 434.359 123.251 435.604 122.318L437.549 123.64L435.993 125.664L437.86 141.693L437.705 141.849L438.327 142.16L437.238 145.351L435.292 144.028C434.203 139.126 432.491 135.935 430.157 134.457C427.822 133.056 424.865 133.367 421.13 135.546C418.407 137.102 417.006 139.126 417.006 141.538V186.437C417.006 191.884 419.574 193.44 424.554 190.95L425.955 190.172L427.9 191.495L425.955 193.129L401.443 207.291V209.703L399.498 208.38V205.423C405.567 201.922 408.602 197.175 408.602 191.183V146.284C408.602 144.106 407.201 143.794 404.4 145.428C396.152 150.175 391.639 157.957 390.938 168.773L390.627 168.928V171.029L388.682 169.707V165.971V149.397C390.004 148.774 391.25 148.23 392.495 147.607Z" fill="#C9C9DC"/>
<path d="M401.443 209.625V206.668C407.513 203.167 410.547 198.42 410.547 192.428V147.529C410.547 145.351 409.147 145.039 406.345 146.673C398.097 151.42 393.584 159.202 392.884 170.018L390.627 170.952V150.642C391.95 150.097 393.195 149.553 394.44 148.93C395.685 148.308 396.852 147.685 398.097 147.063L430.546 128.309C431.635 127.687 432.725 126.986 433.892 126.208C435.059 125.43 436.304 124.574 437.549 123.64L439.806 143.094L437.16 145.351C436.071 140.448 434.359 137.258 432.024 135.779C429.69 134.379 426.733 134.69 422.998 136.869C420.274 138.425 418.874 140.448 418.874 142.861V187.759C418.874 193.751 421.908 194.996 427.9 191.495V194.451L401.443 209.625Z" fill="white"/>
</g>
<g clip-path="url(#clip9_1758_13454)">
<path d="M435.604 122.318L410.859 109.245" stroke="white" stroke-width="0.5" stroke-miterlimit="10" stroke-dasharray="2 2"/>
<path d="M425.956 190.094L401.289 177.099" stroke="white" stroke-width="0.5" stroke-miterlimit="10" stroke-dasharray="2 2"/>
<path d="M388.683 149.319L387.982 149.008" stroke="white" stroke-width="0.5" stroke-miterlimit="10"/>
<path d="M386.659 148.23L365.338 137.025" stroke="white" stroke-width="0.5" stroke-miterlimit="10" stroke-dasharray="1.99 1.99"/>
<path d="M364.716 136.713L364.016 136.324" stroke="white" stroke-width="0.5" stroke-miterlimit="10"/>
<path d="M399.499 205.423L374.754 192.428" stroke="white" stroke-width="0.5" stroke-miterlimit="10" stroke-dasharray="2 2"/>
<path d="M388.683 169.707L364.016 156.712" stroke="white" stroke-width="0.5" stroke-miterlimit="10" stroke-dasharray="2 2"/>
<path d="M435.605 123.329C436.164 123.329 436.617 122.876 436.617 122.318C436.617 121.759 436.164 121.306 435.605 121.306C435.047 121.306 434.594 121.759 434.594 122.318C434.594 122.876 435.047 123.329 435.605 123.329Z" fill="white"/>
<path d="M410.859 110.256C411.418 110.256 411.871 109.803 411.871 109.245C411.871 108.686 411.418 108.233 410.859 108.233C410.301 108.233 409.848 108.686 409.848 109.245C409.848 109.803 410.301 110.256 410.859 110.256Z" fill="white"/>
<path d="M364.015 137.336C364.574 137.336 365.027 136.883 365.027 136.324C365.027 135.766 364.574 135.313 364.015 135.313C363.457 135.313 363.004 135.766 363.004 136.324C363.004 136.883 363.457 137.336 364.015 137.336Z" fill="white"/>
<path d="M388.683 150.409C389.242 150.409 389.695 149.956 389.695 149.397C389.695 148.838 389.242 148.385 388.683 148.385C388.125 148.385 387.672 148.838 387.672 149.397C387.672 149.956 388.125 150.409 388.683 150.409Z" fill="white"/>
<path d="M388.683 170.718C389.242 170.718 389.695 170.265 389.695 169.707C389.695 169.148 389.242 168.695 388.683 168.695C388.125 168.695 387.672 169.148 387.672 169.707C387.672 170.265 388.125 170.718 388.683 170.718Z" fill="white"/>
<path d="M364.015 157.723C364.574 157.723 365.027 157.27 365.027 156.712C365.027 156.153 364.574 155.7 364.015 155.7C363.457 155.7 363.004 156.153 363.004 156.712C363.004 157.27 363.457 157.723 364.015 157.723Z" fill="white"/>
<path d="M401.289 178.111C401.848 178.111 402.301 177.658 402.301 177.099C402.301 176.54 401.848 176.087 401.289 176.087C400.73 176.087 400.277 176.54 400.277 177.099C400.277 177.658 400.73 178.111 401.289 178.111Z" fill="white"/>
<path d="M425.955 191.105C426.514 191.105 426.966 190.653 426.966 190.094C426.966 189.535 426.514 189.082 425.955 189.082C425.396 189.082 424.943 189.535 424.943 190.094C424.943 190.653 425.396 191.105 425.955 191.105Z" fill="white"/>
<path d="M374.754 193.44C375.313 193.44 375.765 192.987 375.765 192.428C375.765 191.87 375.313 191.417 374.754 191.417C374.195 191.417 373.742 191.87 373.742 192.428C373.742 192.987 374.195 193.44 374.754 193.44Z" fill="white"/>
<path d="M399.498 206.435C400.057 206.435 400.51 205.982 400.51 205.423C400.51 204.865 400.057 204.412 399.498 204.412C398.939 204.412 398.486 204.865 398.486 205.423C398.486 205.982 398.939 206.435 399.498 206.435Z" fill="white"/>
</g>
<defs>
<linearGradient id="paint0_linear_1758_13454" x1="192.196" y1="381.916" x2="495.266" y2="37.9366" gradientUnits="userSpaceOnUse">
<stop offset="0.00463254" stop-color="#4BFDF1"/>
<stop offset="1" stop-color="#18069A"/>
</linearGradient>
<linearGradient id="paint1_linear_1758_13454" x1="296.649" y1="140.912" x2="385.001" y2="293.939" gradientUnits="userSpaceOnUse">
<stop stop-color="white"/>
<stop offset="1" stop-color="white" stop-opacity="0"/>
</linearGradient>
<linearGradient id="paint2_linear_1758_13454" x1="192.196" y1="381.916" x2="495.266" y2="37.9366" gradientUnits="userSpaceOnUse">
<stop offset="0.00463254" stop-color="#4BFDF1"/>
<stop offset="1" stop-color="#18069A"/>
</linearGradient>
<linearGradient id="paint3_linear_1758_13454" x1="296.649" y1="140.912" x2="385.001" y2="293.939" gradientUnits="userSpaceOnUse">
<stop stop-color="white"/>
<stop offset="1" stop-color="white" stop-opacity="0"/>
</linearGradient>
<linearGradient id="paint4_linear_1758_13454" x1="192.196" y1="381.916" x2="495.266" y2="37.9366" gradientUnits="userSpaceOnUse">
<stop offset="0.00123665" stop-color="#51C2F4"/>
<stop offset="1" stop-color="#18069A"/>
</linearGradient>
<linearGradient id="paint5_linear_1758_13454" x1="497.54" y1="126.942" x2="184.726" y2="126.942" gradientUnits="userSpaceOnUse">
<stop offset="0.00604585" stop-color="#4FB1FF"/>
<stop offset="1" stop-color="#427CFF"/>
</linearGradient>
<linearGradient id="paint6_linear_1758_13454" x1="296.649" y1="140.912" x2="385.001" y2="293.939" gradientUnits="userSpaceOnUse">
<stop stop-color="white"/>
<stop offset="1" stop-color="white" stop-opacity="0"/>
</linearGradient>
<clipPath id="clip0_1758_13454">
<rect width="825.65" height="534" fill="white" transform="translate(-94)"/>
</clipPath>
<clipPath id="clip1_1758_13454">
<rect width="825.65" height="534" fill="white" transform="translate(-94)"/>
</clipPath>
<clipPath id="clip2_1758_13454">
<rect width="825.65" height="534" fill="white" transform="translate(-94)"/>
</clipPath>
<clipPath id="clip3_1758_13454">
<rect width="825.65" height="534" fill="white" transform="translate(-94)"/>
</clipPath>
<clipPath id="clip4_1758_13454">
<rect width="825.65" height="534" fill="white" transform="translate(-94)"/>
</clipPath>
<clipPath id="clip5_1758_13454">
<rect width="825.65" height="534" fill="white" transform="translate(-94)"/>
</clipPath>
<clipPath id="clip6_1758_13454">
<rect width="825.65" height="534" fill="white" transform="translate(-94)"/>
</clipPath>
<clipPath id="clip7_1758_13454">
<rect width="825.65" height="534" fill="white" transform="translate(-94)"/>
</clipPath>
<clipPath id="clip8_1758_13454">
<rect width="825.65" height="534" fill="white" transform="translate(-94)"/>
</clipPath>
<clipPath id="clip9_1758_13454">
<rect width="782.252" height="534" fill="white" transform="translate(-94)"/>
</clipPath>
</defs>
</svg>
