<svg width="120" height="120" viewBox="0 0 120 120" fill="none" xmlns="http://www.w3.org/2000/svg">
<path d="M115.661 86.4516V88.8043C115.66 88.8403 115.65 88.8755 115.632 88.9068C115.615 88.9382 115.59 88.9649 115.559 88.9847L114.319 89.8817C114.409 89.9547 114.518 90.0003 114.633 90.0132L118.247 90.2273C118.338 90.2339 118.423 90.2745 118.486 90.3409C118.548 90.4073 118.584 90.4948 118.585 90.5861L118.593 92.6014C118.593 92.6014 118.593 92.6075 118.593 92.6106V94.9551C118.592 95.0465 118.557 95.1342 118.495 95.201C118.433 95.2678 118.348 95.3089 118.257 95.316L114.646 95.5586C114.534 95.572 114.428 95.6165 114.34 95.6871L115.59 96.58C115.621 96.599 115.647 96.6252 115.666 96.6565C115.685 96.6877 115.696 96.723 115.698 96.7594V99.1162C115.694 99.1545 115.68 99.1912 115.658 99.2228C115.636 99.2543 115.606 99.2798 115.572 99.2966L112.873 100.871C112.781 100.918 112.68 100.944 112.577 100.95C112.474 100.955 112.37 100.938 112.274 100.9L109.522 99.6371C109.321 99.559 109.101 99.5469 108.893 99.6025C108.195 99.8217 107.483 99.994 106.762 100.118C106.666 100.138 106.578 100.186 106.508 100.254C106.438 100.322 106.389 100.409 106.367 100.505L106.029 102.317C106.009 102.409 105.959 102.492 105.887 102.552C105.814 102.613 105.724 102.647 105.63 102.65L101.644 102.667C101.55 102.664 101.459 102.63 101.386 102.57C101.313 102.51 101.262 102.427 101.241 102.335L100.891 100.526C100.867 100.431 100.817 100.344 100.747 100.276C100.676 100.208 100.588 100.162 100.492 100.142C99.7681 100.024 99.0529 99.8574 98.3514 99.6432C98.1432 99.5889 97.9231 99.6028 97.7234 99.683L94.9803 100.966C94.8844 101.005 94.7813 101.023 94.678 101.019C94.5746 101.015 94.4733 100.988 94.3809 100.942L91.6683 99.3843C91.6328 99.3677 91.6023 99.342 91.5799 99.3097C91.5575 99.2775 91.5441 99.2399 91.5409 99.2008V96.8481C91.5429 96.8116 91.5536 96.7762 91.5723 96.7448C91.5909 96.7133 91.6169 96.6869 91.648 96.6677L92.8845 95.7706C92.7945 95.6977 92.6856 95.6521 92.5705 95.6391L88.9568 95.4241C88.8659 95.4175 88.7808 95.3771 88.7181 95.3109C88.6555 95.2446 88.6199 95.1574 88.6184 95.0663L88.6133 92.2396V90.7044C88.614 90.613 88.649 90.5253 88.7113 90.4585C88.7735 90.3917 88.8586 90.3507 88.9497 90.3435L92.5603 90.1009C92.6724 90.0876 92.7785 90.0427 92.8661 89.9715L91.6164 89.0795C91.5849 89.0601 91.5585 89.0334 91.5395 89.0016C91.5205 88.9698 91.5095 88.934 91.5073 88.897V86.5525C91.5099 86.5133 91.5228 86.4756 91.5449 86.4432C91.5669 86.4107 91.5972 86.3848 91.6327 86.368L94.3289 84.7849C94.4212 84.7377 94.5224 84.7106 94.6259 84.7055C94.7295 84.7004 94.8329 84.7174 94.9293 84.7553L97.6817 86.0173C97.8821 86.0962 98.1025 86.1087 98.3106 86.053C99.0083 85.8332 99.7201 85.6609 100.441 85.5372C100.537 85.5169 100.625 85.4697 100.695 85.4011C100.765 85.3325 100.814 85.2453 100.837 85.1498L101.174 83.3384C101.194 83.2462 101.244 83.1634 101.317 83.1028C101.389 83.0423 101.479 83.0076 101.574 83.0041L105.559 82.9888C105.655 82.9905 105.746 83.024 105.82 83.0841C105.894 83.1441 105.946 83.2272 105.967 83.3201L106.318 85.1294C106.341 85.2246 106.391 85.3112 106.462 85.3792C106.532 85.4472 106.62 85.4939 106.716 85.5137C107.44 85.6315 108.156 85.7981 108.857 86.0122C109.065 86.0666 109.285 86.0526 109.485 85.9725L112.228 84.6891C112.324 84.6503 112.427 84.6325 112.53 84.6367C112.634 84.6409 112.735 84.6671 112.828 84.7135L115.545 86.2681C115.579 86.2861 115.607 86.3124 115.627 86.3446C115.648 86.3767 115.659 86.4136 115.661 86.4516ZM99.0282 94.3129C101.563 95.7635 105.664 95.7472 108.187 94.2773C109.174 93.7023 109.771 92.9908 109.985 92.2497C109.709 91.6473 109.102 91.0601 108.172 90.529C105.638 89.0785 101.537 89.0938 99.014 90.5637C98.0262 91.1386 97.4492 91.7768 97.2576 92.4261C97.5073 93.1233 98.0965 93.7778 99.0282 94.3129Z" fill="#C0C0CC"/>
<g opacity="0.1">
<path opacity="0.1" d="M93.8292 94.6728C93.8594 94.7024 93.8827 94.7383 93.8974 94.7779C93.9121 94.8175 93.9178 94.8598 93.9142 94.9019C93.9106 94.944 93.8977 94.9848 93.8765 95.0213C93.8553 95.0578 93.8263 95.0892 93.7915 95.1132L92.8863 95.7738C92.7952 95.7004 92.6847 95.6551 92.5683 95.6433L88.9547 95.4302C88.8637 95.4227 88.7787 95.3818 88.716 95.3154C88.6533 95.2489 88.6174 95.1617 88.6152 95.0704V92.2447V92.7217C88.6165 92.8129 88.6518 92.9003 88.7143 92.9667C88.7767 93.0331 88.8617 93.0737 88.9526 93.0806L92.5652 93.2936C92.6662 93.3066 92.7628 93.3425 92.8478 93.3985C92.9327 93.4545 93.0038 93.5291 93.0555 93.6168C93.2702 93.9985 93.5299 94.3531 93.8292 94.6728ZM91.5 86.5698C91.5163 86.6336 91.555 86.6893 91.6091 86.7268L93.764 88.264C93.799 88.2877 93.8284 88.3188 93.85 88.3552C93.8716 88.3915 93.8849 88.4322 93.8889 88.4743C93.8928 88.5164 93.8875 88.5589 93.8731 88.5987C93.8588 88.6385 93.8358 88.6746 93.8058 88.7044C93.5098 89.0288 93.2532 89.3871 93.0413 89.7717C92.9981 89.852 92.9375 89.9217 92.8639 89.9756L91.6132 89.0826C91.5818 89.0634 91.5555 89.0369 91.5367 89.0052C91.5178 88.9736 91.507 88.9379 91.5051 88.9011L91.5 86.5698Z" fill="black"/>
</g>
<g opacity="0.1">
<path opacity="0.1" d="M108.168 88.9906C105.634 87.54 101.534 87.5542 99.0107 89.0242C97.4153 89.9529 96.8312 91.2404 97.2584 92.429C97.4459 91.7797 98.0259 91.1395 99.0158 90.5625C101.54 89.0925 105.642 89.0783 108.174 90.5289C109.101 91.06 109.711 91.6502 109.988 92.2476C110.32 91.0956 109.71 89.8734 108.168 88.9906Z" fill="black"/>
</g>
<g opacity="0.1">
<path opacity="0.1" d="M118.602 94.9521C118.6 95.0432 118.565 95.1306 118.503 95.197C118.44 95.2634 118.355 95.304 118.264 95.3109L114.653 95.5545C114.591 95.5612 114.531 95.5788 114.475 95.6065V93.2538C114.532 93.2256 114.594 93.2087 114.657 93.2038L118.267 92.9622C118.35 92.9547 118.428 92.9197 118.488 92.8628C118.549 92.8059 118.588 92.7304 118.601 92.6483L118.602 94.9521ZM115.67 88.8063C115.668 88.8423 115.658 88.8774 115.64 88.9089C115.623 88.9404 115.598 88.9673 115.568 88.9877L114.32 89.8827C114.252 89.8296 114.194 89.7643 114.149 89.6901C113.945 89.3249 113.7 88.9849 113.417 88.6768C113.405 88.6599 113.392 88.6439 113.377 88.6289C113.344 88.5933 113.32 88.5508 113.305 88.5045C113.3 88.4894 113.297 88.4741 113.294 88.4586C113.289 88.4286 113.289 88.398 113.294 88.3679C113.304 88.3184 113.327 88.2725 113.361 88.2354C113.375 88.2166 113.392 88.2004 113.412 88.1875L115.553 86.634C115.57 86.6217 115.587 86.6077 115.602 86.5922C115.622 86.5733 115.637 86.5489 115.644 86.5218C115.655 86.4994 115.66 86.4744 115.659 86.4495L115.67 88.8063ZM115.709 99.1131C115.705 99.1515 115.691 99.1883 115.669 99.2197C115.646 99.2512 115.616 99.2763 115.581 99.2926L112.875 100.871C112.746 100.937 112.6 100.963 112.456 100.944V98.5994C112.6 98.6177 112.747 98.5913 112.876 98.5239L115.582 96.95C115.615 96.9334 115.643 96.9098 115.665 96.8809C115.686 96.8519 115.701 96.8184 115.709 96.7829V99.1131ZM98.0021 99.6157C97.9095 99.622 97.8186 99.6434 97.733 99.6789L94.9908 100.962C94.9124 100.994 94.8288 101.011 94.7441 101.012V98.6677C94.8286 98.6684 94.9122 98.6503 94.9888 98.6147L97.7309 97.3313C97.817 97.2953 97.9081 97.2729 98.001 97.265L98.0021 99.6157ZM105.98 102.446C105.943 102.507 105.892 102.557 105.832 102.592C105.771 102.628 105.702 102.648 105.632 102.65L101.647 102.666C101.56 102.664 101.475 102.634 101.406 102.58L101.4 100.228C101.469 100.283 101.555 100.314 101.644 100.316L105.631 100.3C105.697 100.298 105.761 100.281 105.819 100.249C105.877 100.218 105.927 100.173 105.964 100.119L105.98 102.446Z" fill="black"/>
</g>
<path d="M118.602 94.952C118.6 95.0431 118.565 95.1305 118.503 95.1969C118.44 95.2633 118.355 95.3039 118.264 95.3108L114.653 95.5544C114.591 95.5611 114.531 95.5787 114.475 95.6064V93.2537C114.532 93.2256 114.594 93.2086 114.657 93.2037L118.267 92.9622C118.35 92.9547 118.428 92.9196 118.488 92.8627C118.549 92.8058 118.588 92.7303 118.601 92.6482L118.602 94.952ZM115.709 99.1131C115.705 99.1515 115.691 99.1882 115.669 99.2196C115.646 99.2511 115.616 99.2762 115.581 99.2925L112.875 100.87C112.746 100.937 112.6 100.963 112.456 100.944V98.5993C112.6 98.6176 112.747 98.5913 112.876 98.5239L115.582 96.9499C115.615 96.9334 115.643 96.9097 115.665 96.8808C115.686 96.8518 115.701 96.8183 115.709 96.7828V99.1131ZM98.0021 99.6156C97.9095 99.6219 97.8186 99.6433 97.733 99.6788L94.9908 100.962C94.9124 100.994 94.8288 101.011 94.7441 101.012V98.6676C94.8286 98.6683 94.9122 98.6502 94.9888 98.6146L97.7309 97.3312C97.817 97.2952 97.9081 97.2728 98.001 97.2649L98.0021 99.6156ZM105.98 102.446C105.943 102.506 105.892 102.556 105.832 102.592C105.771 102.628 105.702 102.648 105.632 102.65L101.647 102.666C101.56 102.664 101.475 102.634 101.406 102.58L101.4 100.228C101.469 100.283 101.555 100.314 101.644 100.316L105.631 100.3C105.697 100.298 105.761 100.281 105.819 100.249C105.877 100.218 105.927 100.173 105.964 100.119L105.98 102.446Z" fill="#E7E7F1"/>
<path d="M112.819 84.7135L115.536 86.2681C115.572 86.2829 115.602 86.3073 115.624 86.3387C115.647 86.3701 115.659 86.4071 115.661 86.4455C115.663 86.4838 115.655 86.5219 115.636 86.5555C115.617 86.589 115.589 86.6166 115.556 86.635L113.415 88.1885C113.38 88.2126 113.351 88.2441 113.33 88.2807C113.309 88.3174 113.296 88.3582 113.292 88.4004C113.289 88.4425 113.294 88.485 113.309 88.5246C113.324 88.5643 113.347 88.6003 113.377 88.6299C113.677 88.9508 113.935 89.3072 114.148 89.6911C114.2 89.7784 114.271 89.8529 114.355 89.9087C114.44 89.9645 114.537 90.0002 114.637 90.0132L118.251 90.2273C118.342 90.2339 118.427 90.2744 118.49 90.3408C118.553 90.4073 118.588 90.4948 118.589 90.5861L118.598 92.6014C118.597 92.6927 118.562 92.7804 118.5 92.8472C118.437 92.9141 118.352 92.9551 118.261 92.9622L114.65 93.2048C114.549 93.2184 114.453 93.2549 114.368 93.3114C114.284 93.368 114.214 93.4431 114.163 93.531C113.953 93.9161 113.697 94.2742 113.4 94.5973C113.37 94.6272 113.347 94.6634 113.332 94.7033C113.318 94.7431 113.313 94.7856 113.317 94.8278C113.321 94.87 113.334 94.9108 113.356 94.9472C113.377 94.9837 113.406 95.0149 113.442 95.0387L115.595 96.5759C115.629 96.5941 115.657 96.6215 115.675 96.6547C115.694 96.688 115.703 96.7258 115.702 96.7639C115.7 96.8021 115.687 96.839 115.666 96.8704C115.644 96.9019 115.614 96.9266 115.579 96.9418L112.874 98.5178C112.782 98.5648 112.681 98.5917 112.577 98.5968C112.474 98.6019 112.371 98.585 112.274 98.5473L109.522 97.2843C109.321 97.2062 109.101 97.1941 108.893 97.2497C108.195 97.4673 107.483 97.6376 106.762 97.7593C106.666 97.7803 106.578 97.8278 106.508 97.8963C106.438 97.9648 106.389 98.0515 106.366 98.1467L106.03 99.9591C106.009 100.051 105.959 100.134 105.887 100.195C105.814 100.255 105.723 100.29 105.629 100.293L101.643 100.308C101.548 100.306 101.456 100.273 101.382 100.213C101.308 100.153 101.257 100.07 101.236 99.9775L100.885 98.1681C100.862 98.073 100.812 97.9864 100.741 97.9184C100.671 97.8503 100.582 97.8037 100.486 97.7838C99.7643 97.6659 99.0511 97.4991 98.3518 97.2843C98.1432 97.2303 97.9227 97.2446 97.7228 97.3251L94.9807 98.6085C94.8846 98.647 94.7814 98.6647 94.6779 98.6605C94.5744 98.6563 94.473 98.6302 94.3803 98.584L91.6637 97.0295C91.6282 97.0147 91.5977 96.9902 91.5756 96.9588C91.5535 96.9274 91.5406 96.8904 91.5386 96.8521C91.5366 96.8137 91.5454 96.7756 91.5641 96.7421C91.5828 96.7085 91.6106 96.6809 91.6443 96.6625L93.785 95.109C93.82 95.0851 93.8493 95.0537 93.8707 95.0172C93.8921 94.9806 93.9051 94.9397 93.9088 94.8975C93.9125 94.8553 93.9068 94.8127 93.8921 94.773C93.8774 94.7332 93.854 94.6973 93.8237 94.6676C93.5246 94.3463 93.2655 93.99 93.0521 93.6065C93.0005 93.519 92.9296 93.4445 92.8448 93.3887C92.7599 93.3328 92.6635 93.2972 92.5628 93.2843L88.9501 93.0693C88.8591 93.0627 88.7738 93.0223 88.7111 92.9561C88.6483 92.8899 88.6124 92.8027 88.6107 92.7115L88.6035 90.6962C88.6043 90.6048 88.6392 90.5171 88.7015 90.4503C88.7638 90.3835 88.8489 90.3425 88.9399 90.3353L92.5505 90.0927C92.6512 90.0789 92.7474 90.0424 92.8318 89.9859C92.9163 89.9293 92.9867 89.8543 93.0378 89.7665C93.248 89.3813 93.5041 89.023 93.8003 88.6992C93.8305 88.6696 93.8537 88.6335 93.8682 88.5938C93.8828 88.554 93.8883 88.5115 93.8844 88.4694C93.8805 88.4272 93.8673 88.3865 93.8457 88.3501C93.8241 88.3137 93.7946 88.2825 93.7595 88.2589L91.6086 86.7268C91.5749 86.7085 91.547 86.6811 91.5281 86.6477C91.5092 86.6142 91.5002 86.5762 91.502 86.5378C91.5038 86.4995 91.5164 86.4625 91.5383 86.431C91.5603 86.3995 91.5906 86.3748 91.626 86.3598L94.3304 84.7849C94.4226 84.7377 94.5239 84.7106 94.6274 84.7055C94.7309 84.7004 94.8343 84.7174 94.9308 84.7553L97.6831 86.0173C97.8835 86.0962 98.104 86.1087 98.312 86.053C99.0097 85.8332 99.7215 85.6608 100.443 85.5372C100.538 85.5169 100.627 85.4697 100.697 85.4011C100.767 85.3324 100.816 85.2453 100.838 85.1498L101.175 83.3384C101.196 83.2462 101.246 83.1634 101.318 83.1028C101.39 83.0423 101.481 83.0076 101.575 83.0041L105.561 82.9888C105.656 82.9905 105.748 83.024 105.822 83.0841C105.896 83.1441 105.947 83.2272 105.969 83.3201L106.319 85.1294C106.343 85.2246 106.392 85.3112 106.463 85.3792C106.533 85.4472 106.622 85.4938 106.718 85.5137C107.442 85.6315 108.157 85.7981 108.858 86.0122C109.067 86.0666 109.287 86.0526 109.486 85.9724L112.23 84.6891C112.324 84.6518 112.425 84.6347 112.527 84.639C112.628 84.6432 112.728 84.6686 112.819 84.7135ZM99.0123 89.0244C96.4884 90.4943 96.4975 92.8623 99.0317 94.3129C101.566 95.7634 105.668 95.7471 108.191 94.2772C110.714 92.8073 110.706 90.4403 108.17 88.9898C105.635 87.5392 101.535 87.5555 99.0123 89.0244Z" fill="#BA68C8"/>
<path d="M112.819 84.7135L115.536 86.2681C115.572 86.2829 115.602 86.3073 115.624 86.3387C115.647 86.3701 115.659 86.4071 115.661 86.4455C115.663 86.4838 115.655 86.5219 115.636 86.5555C115.617 86.589 115.589 86.6166 115.556 86.635L113.415 88.1885C113.38 88.2126 113.351 88.2441 113.33 88.2807C113.309 88.3174 113.296 88.3582 113.292 88.4004C113.289 88.4425 113.294 88.485 113.309 88.5246C113.324 88.5643 113.347 88.6003 113.377 88.6299C113.677 88.9508 113.935 89.3072 114.148 89.6911C114.2 89.7784 114.271 89.8529 114.355 89.9087C114.44 89.9645 114.537 90.0002 114.637 90.0132L118.251 90.2273C118.342 90.2339 118.427 90.2744 118.49 90.3408C118.553 90.4073 118.588 90.4948 118.589 90.5861L118.598 92.6014C118.597 92.6927 118.562 92.7804 118.5 92.8472C118.437 92.9141 118.352 92.9551 118.261 92.9622L114.65 93.2048C114.549 93.2184 114.453 93.2549 114.368 93.3114C114.284 93.368 114.214 93.4431 114.163 93.531C113.953 93.9161 113.697 94.2742 113.4 94.5973C113.37 94.6272 113.347 94.6634 113.332 94.7033C113.318 94.7431 113.313 94.7856 113.317 94.8278C113.321 94.87 113.334 94.9108 113.356 94.9472C113.377 94.9837 113.406 95.0149 113.442 95.0387L115.595 96.5759C115.629 96.5941 115.657 96.6215 115.675 96.6547C115.694 96.688 115.703 96.7258 115.702 96.7639C115.7 96.8021 115.687 96.839 115.666 96.8704C115.644 96.9019 115.614 96.9266 115.579 96.9418L112.874 98.5178C112.782 98.5648 112.681 98.5917 112.577 98.5968C112.474 98.6019 112.371 98.585 112.274 98.5473L109.522 97.2843C109.321 97.2062 109.101 97.1941 108.893 97.2497C108.195 97.4673 107.483 97.6376 106.762 97.7593C106.666 97.7803 106.578 97.8278 106.508 97.8963C106.438 97.9648 106.389 98.0515 106.366 98.1467L106.03 99.9591C106.009 100.051 105.959 100.134 105.887 100.195C105.814 100.255 105.723 100.29 105.629 100.293L101.643 100.308C101.548 100.306 101.456 100.273 101.382 100.213C101.308 100.153 101.257 100.07 101.236 99.9775L100.885 98.1681C100.862 98.073 100.812 97.9864 100.741 97.9184C100.671 97.8503 100.582 97.8037 100.486 97.7838C99.7643 97.6659 99.0511 97.4991 98.3518 97.2843C98.1432 97.2303 97.9227 97.2446 97.7228 97.3251L94.9807 98.6085C94.8846 98.647 94.7814 98.6647 94.6779 98.6605C94.5744 98.6563 94.473 98.6302 94.3803 98.584L91.6637 97.0295C91.6282 97.0147 91.5977 96.9902 91.5756 96.9588C91.5535 96.9274 91.5406 96.8904 91.5386 96.8521C91.5366 96.8137 91.5454 96.7756 91.5641 96.7421C91.5828 96.7085 91.6106 96.6809 91.6443 96.6625L93.785 95.109C93.82 95.0851 93.8493 95.0537 93.8707 95.0172C93.8921 94.9806 93.9051 94.9397 93.9088 94.8975C93.9125 94.8553 93.9068 94.8127 93.8921 94.773C93.8774 94.7332 93.854 94.6973 93.8237 94.6676C93.5246 94.3463 93.2655 93.99 93.0521 93.6065C93.0005 93.519 92.9296 93.4445 92.8448 93.3887C92.7599 93.3328 92.6635 93.2972 92.5628 93.2843L88.9501 93.0693C88.8591 93.0627 88.7738 93.0223 88.7111 92.9561C88.6483 92.8899 88.6124 92.8027 88.6107 92.7115L88.6035 90.6962C88.6043 90.6048 88.6392 90.5171 88.7015 90.4503C88.7638 90.3835 88.8489 90.3425 88.9399 90.3353L92.5505 90.0927C92.6512 90.0789 92.7474 90.0424 92.8318 89.9859C92.9163 89.9293 92.9867 89.8543 93.0378 89.7665C93.248 89.3813 93.5041 89.023 93.8003 88.6992C93.8305 88.6696 93.8537 88.6335 93.8682 88.5938C93.8828 88.554 93.8883 88.5115 93.8844 88.4694C93.8805 88.4272 93.8673 88.3865 93.8457 88.3501C93.8241 88.3137 93.7946 88.2825 93.7595 88.2589L91.6086 86.7268C91.5749 86.7085 91.547 86.6811 91.5281 86.6477C91.5092 86.6142 91.5002 86.5762 91.502 86.5378C91.5038 86.4995 91.5164 86.4625 91.5383 86.431C91.5603 86.3995 91.5906 86.3748 91.626 86.3598L94.3304 84.7849C94.4226 84.7377 94.5239 84.7106 94.6274 84.7055C94.7309 84.7004 94.8343 84.7174 94.9308 84.7553L97.6831 86.0173C97.8835 86.0962 98.104 86.1087 98.312 86.053C99.0097 85.8332 99.7215 85.6608 100.443 85.5372C100.538 85.5169 100.627 85.4697 100.697 85.4011C100.767 85.3324 100.816 85.2453 100.838 85.1498L101.175 83.3384C101.196 83.2462 101.246 83.1634 101.318 83.1028C101.39 83.0423 101.481 83.0076 101.575 83.0041L105.561 82.9888C105.656 82.9905 105.748 83.024 105.822 83.0841C105.896 83.1441 105.947 83.2272 105.969 83.3201L106.319 85.1294C106.343 85.2246 106.392 85.3112 106.463 85.3792C106.533 85.4472 106.622 85.4938 106.718 85.5137C107.442 85.6315 108.157 85.7981 108.858 86.0122C109.067 86.0666 109.287 86.0526 109.486 85.9724L112.23 84.6891C112.324 84.6518 112.425 84.6347 112.527 84.639C112.628 84.6432 112.728 84.6686 112.819 84.7135ZM99.0123 89.0244C96.4884 90.4943 96.4975 92.8623 99.0317 94.3129C101.566 95.7634 105.668 95.7471 108.191 94.2772C110.714 92.8073 110.706 90.4403 108.17 88.9898C105.635 87.5392 101.535 87.5555 99.0123 89.0244Z" fill="#E7E7F1"/>
<path d="M98.754 108.422C99.0034 108.518 99.2764 108.536 99.5359 108.471L101.371 107.888C101.494 107.856 101.623 107.852 101.748 107.876C101.874 107.9 101.992 107.952 102.095 108.028L103.303 109.027C103.339 109.052 103.368 109.086 103.389 109.125C103.41 109.164 103.421 109.207 103.423 109.251L103.43 111.188C103.428 111.24 103.412 111.291 103.382 111.333C103.352 111.376 103.31 111.41 103.262 111.429L102.611 111.759L104.284 112.038C104.371 112.049 104.45 112.092 104.507 112.158C104.564 112.225 104.593 112.31 104.59 112.398H104.598L104.605 114.334C104.606 114.375 104.6 114.415 104.589 114.454L104.266 115.498C104.226 115.61 104.153 115.708 104.055 115.777C103.958 115.846 103.842 115.884 103.722 115.884L101.563 115.805C101.379 115.811 101.199 115.867 101.045 115.969L101.155 116.085C101.211 116.138 101.244 116.211 101.248 116.289L101.256 118.234C101.253 118.29 101.234 118.345 101.199 118.39C101.164 118.435 101.116 118.469 101.062 118.485L99.176 119.249C99.0547 119.291 98.9257 119.306 98.798 119.293C98.6702 119.281 98.5467 119.24 98.436 119.175L97.1627 118.338C96.9318 118.205 96.6633 118.152 96.3992 118.188C95.9976 118.259 95.5837 118.311 95.176 118.344C95.0501 118.359 94.9295 118.404 94.8234 118.473C94.7174 118.543 94.6288 118.636 94.5644 118.745L94.0985 119.663C94.0377 119.77 93.9482 119.857 93.8401 119.916C93.732 119.975 93.6097 120.002 93.4869 119.995L91.126 119.758C91.0256 119.748 90.9321 119.702 90.8638 119.628C90.7955 119.554 90.757 119.457 90.756 119.356V118.04C90.6936 117.961 90.6092 117.902 90.5133 117.871C90.1784 117.769 89.8493 117.649 89.5276 117.512C89.2782 117.415 89.005 117.399 88.7457 117.464L86.9109 118.047C86.7873 118.079 86.6583 118.082 86.5331 118.058C86.408 118.034 86.2898 117.982 86.1871 117.906L84.9771 116.907C84.943 116.882 84.9147 116.85 84.8943 116.813C84.8739 116.776 84.8618 116.735 84.8589 116.692L84.8517 114.74C84.8544 114.689 84.8718 114.639 84.9018 114.597C84.9318 114.555 84.9731 114.523 85.0209 114.504L85.6713 114.174L83.9985 113.894C83.9159 113.883 83.8399 113.842 83.784 113.781C83.7281 113.719 83.6957 113.639 83.6927 113.556L83.6855 111.607H83.6917C83.6887 111.563 83.6929 111.52 83.7039 111.478L84.027 110.433C84.0668 110.321 84.1403 110.223 84.2375 110.154C84.3348 110.085 84.451 110.048 84.5704 110.047L86.7284 110.126C86.9134 110.121 87.0933 110.065 87.2483 109.963L87.1382 109.847C87.0807 109.791 87.0471 109.715 87.0444 109.634L87.0383 107.705V107.681C87.0428 107.626 87.0637 107.573 87.0981 107.53C87.1326 107.487 87.1792 107.455 87.232 107.438L89.1178 106.675C89.2392 106.633 89.3681 106.619 89.4958 106.631C89.6235 106.644 89.7469 106.684 89.8579 106.748L91.1311 107.587C91.3618 107.72 91.63 107.772 91.8936 107.736C92.3013 107.665 92.7091 107.613 93.1168 107.58C93.2427 107.565 93.3633 107.521 93.4693 107.451C93.5754 107.382 93.6641 107.289 93.7285 107.179L94.1953 106.262C94.2564 106.155 94.346 106.068 94.454 106.009C94.562 105.95 94.6842 105.923 94.807 105.93L97.1678 106.167C97.2225 106.173 97.2755 106.189 97.3237 106.215C97.372 106.241 97.4145 106.277 97.4489 106.32C97.4832 106.362 97.5087 106.412 97.5238 106.464C97.5389 106.517 97.5434 106.572 97.5369 106.627L97.4349 107.524C97.4247 107.64 97.4543 107.755 97.5188 107.852C97.5833 107.949 97.6789 108.02 97.7897 108.055C98.1173 108.16 98.4392 108.283 98.754 108.422ZM90.4328 113.495C91.8599 114.671 94.6683 114.954 96.7122 114.127C97.4665 113.821 98.0078 113.407 98.3238 112.948C98.1853 112.758 98.0229 112.587 97.8406 112.438C96.4135 111.262 93.6051 110.98 91.5613 111.806C90.81 112.112 90.2697 112.52 89.9537 112.98C90.089 113.172 90.2502 113.346 90.4328 113.495Z" fill="#C0C0CC"/>
<g opacity="0.1">
<path opacity="0.1" d="M86.6952 113.185C86.7212 113.232 86.7375 113.285 86.743 113.339C86.7485 113.393 86.7432 113.447 86.7274 113.499C86.7115 113.551 86.6854 113.599 86.6507 113.641C86.6159 113.683 86.5732 113.717 86.5249 113.742L85.6615 114.18L83.9877 113.899C83.9052 113.888 83.8292 113.848 83.7733 113.786C83.7173 113.725 83.685 113.645 83.6819 113.562L83.6758 111.637C83.6831 111.717 83.7174 111.792 83.7729 111.85C83.8285 111.908 83.902 111.946 83.9816 111.956L86.0377 112.299C86.1552 112.329 86.263 112.389 86.351 112.473C86.4389 112.556 86.504 112.661 86.5402 112.777C86.5808 112.917 86.6326 113.053 86.6952 113.185ZM87.0254 107.701C87.0289 107.779 87.0621 107.852 87.1182 107.905L87.9796 108.814C88.0164 108.851 88.0446 108.897 88.0623 108.946C88.08 108.996 88.0867 109.049 88.0819 109.102C88.0772 109.154 88.0611 109.205 88.0348 109.251C88.0085 109.297 87.9727 109.336 87.9296 109.367C87.746 109.507 87.5736 109.662 87.4138 109.829C87.3612 109.883 87.3016 109.929 87.2365 109.966L87.1243 109.849C87.0683 109.793 87.0355 109.717 87.0326 109.637L87.0254 107.701Z" fill="black"/>
</g>
<g opacity="0.1">
<path opacity="0.1" d="M91.5554 109.866C89.7919 110.58 89.1741 111.887 89.957 112.985C90.27 112.525 90.8123 112.116 91.5615 111.81C93.6064 110.983 96.4168 111.264 97.8429 112.441C98.0243 112.59 98.1853 112.761 98.322 112.951C98.8664 112.167 98.7359 111.245 97.8368 110.505C96.4107 109.32 93.6003 109.04 91.5554 109.866Z" fill="black"/>
</g>
<g opacity="0.1">
<path opacity="0.1" d="M94.7614 118.523C94.6779 118.582 94.6084 118.659 94.5575 118.747L94.0896 119.665C94.0135 119.801 93.8903 119.905 93.743 119.957L93.7369 118.013C93.8835 117.96 94.0063 117.856 94.0835 117.721L94.5514 116.803C94.5989 116.714 94.6653 116.637 94.7461 116.576L94.7614 118.523ZM101.249 118.237C101.247 118.293 101.227 118.348 101.192 118.393C101.157 118.438 101.109 118.471 101.055 118.487L99.1682 119.253C99.0084 119.307 98.8366 119.314 98.6728 119.274L98.6666 117.33C98.8303 117.372 99.0026 117.364 99.1621 117.309L101.045 116.545C101.1 116.529 101.148 116.496 101.183 116.45C101.218 116.405 101.238 116.349 101.24 116.292L101.249 118.237ZM88.7165 117.472L86.903 118.048C86.7524 118.088 86.5938 118.084 86.4453 118.037V116.1C86.5938 116.145 86.7523 116.148 86.902 116.106L88.7124 115.529L88.7165 117.472ZM104.597 114.332C104.599 114.373 104.593 114.414 104.579 114.452L104.258 115.497C104.218 115.609 104.144 115.706 104.047 115.775C103.95 115.843 103.834 115.881 103.715 115.882L101.557 115.803C101.441 115.804 101.326 115.828 101.22 115.874L101.214 113.93C101.32 113.884 101.435 113.86 101.55 113.859L103.708 113.938C103.828 113.938 103.944 113.901 104.042 113.832C104.139 113.763 104.212 113.665 104.252 113.553L104.573 112.508C104.584 112.471 104.59 112.432 104.592 112.394L104.597 114.332ZM103.432 111.189C103.43 111.241 103.413 111.291 103.383 111.334C103.353 111.377 103.312 111.41 103.264 111.43L102.613 111.757L102.232 111.696C102.114 111.667 102.005 111.606 101.917 111.522C101.829 111.437 101.764 111.331 101.729 111.214C101.687 111.074 101.635 110.938 101.573 110.806C101.559 110.773 101.547 110.739 101.537 110.704C101.533 110.679 101.53 110.654 101.528 110.628C101.525 110.576 101.533 110.525 101.549 110.476C101.569 110.415 101.604 110.361 101.651 110.318C101.677 110.29 101.708 110.267 101.742 110.252L103.254 109.485C103.288 109.467 103.321 109.444 103.35 109.418C103.381 109.391 103.403 109.356 103.414 109.316C103.423 109.295 103.428 109.272 103.429 109.249L103.432 111.189Z" fill="black"/>
</g>
<path d="M94.7614 118.523C94.6779 118.582 94.6084 118.659 94.5575 118.747L94.0896 119.665C94.0135 119.801 93.8903 119.905 93.743 119.957L93.7369 118.013C93.8835 117.96 94.0063 117.856 94.0835 117.721L94.5514 116.803C94.5989 116.714 94.6653 116.637 94.7461 116.576L94.7614 118.523ZM101.249 118.237C101.247 118.293 101.227 118.348 101.192 118.393C101.157 118.438 101.109 118.471 101.055 118.487L99.1682 119.253C99.0084 119.307 98.8366 119.314 98.6728 119.274L98.6666 117.33C98.8303 117.372 99.0026 117.364 99.1621 117.309L101.045 116.545C101.1 116.529 101.148 116.496 101.183 116.45C101.218 116.405 101.238 116.349 101.24 116.292L101.249 118.237ZM88.7165 117.472L86.903 118.048C86.7524 118.088 86.5938 118.084 86.4453 118.037V116.1C86.5938 116.145 86.7523 116.148 86.902 116.106L88.7124 115.529L88.7165 117.472ZM104.597 114.332C104.599 114.373 104.593 114.414 104.579 114.452L104.258 115.497C104.218 115.609 104.144 115.706 104.047 115.775C103.95 115.843 103.834 115.881 103.715 115.882L101.557 115.803C101.441 115.804 101.326 115.828 101.22 115.874L101.214 113.93C101.32 113.884 101.435 113.86 101.55 113.859L103.708 113.938C103.828 113.938 103.944 113.901 104.042 113.832C104.139 113.763 104.212 113.665 104.252 113.553L104.573 112.508C104.584 112.47 104.59 112.432 104.592 112.394L104.597 114.332Z" fill="#E7E7F1"/>
<path d="M102.094 108.028L103.303 109.027C103.483 109.174 103.46 109.379 103.253 109.484L101.741 110.25C101.692 110.275 101.649 110.309 101.615 110.351C101.58 110.392 101.553 110.441 101.538 110.493C101.522 110.545 101.516 110.599 101.522 110.653C101.527 110.707 101.543 110.76 101.569 110.808C101.632 110.939 101.685 111.075 101.726 111.215C101.761 111.332 101.826 111.437 101.914 111.521C102.002 111.605 102.111 111.665 102.229 111.694L104.283 112.038C104.335 112.045 104.386 112.064 104.43 112.092C104.474 112.121 104.512 112.16 104.54 112.205C104.567 112.25 104.585 112.3 104.591 112.353C104.596 112.406 104.591 112.459 104.573 112.509L104.25 113.554C104.21 113.666 104.137 113.764 104.04 113.833C103.942 113.902 103.826 113.939 103.707 113.939L101.549 113.861C101.287 113.87 101.039 113.977 100.852 114.16C100.692 114.326 100.522 114.48 100.342 114.623C100.299 114.653 100.263 114.693 100.236 114.738C100.21 114.784 100.193 114.835 100.189 114.887C100.184 114.94 100.19 114.993 100.208 115.043C100.226 115.093 100.254 115.138 100.291 115.176L101.151 116.084C101.189 116.115 101.217 116.156 101.233 116.202C101.249 116.248 101.252 116.298 101.241 116.346C101.231 116.393 101.207 116.437 101.173 116.473C101.139 116.508 101.097 116.533 101.049 116.546L99.1636 117.31C99.0421 117.352 98.9132 117.366 98.7856 117.354C98.6579 117.341 98.5344 117.301 98.4235 117.237L97.1503 116.398C96.9193 116.265 96.6509 116.212 96.3868 116.248C95.9852 116.319 95.5764 116.371 95.1636 116.404C95.0376 116.419 94.9169 116.463 94.8108 116.533C94.7047 116.603 94.6161 116.696 94.552 116.806L94.0851 117.723C94.0243 117.83 93.9348 117.918 93.8267 117.976C93.7186 118.035 93.5963 118.062 93.4735 118.055L91.1126 117.818C91.0578 117.813 91.0045 117.797 90.956 117.771C90.9075 117.745 90.8647 117.71 90.8302 117.667C90.7958 117.624 90.7703 117.575 90.7554 117.522C90.7405 117.469 90.7365 117.414 90.7436 117.359L90.8455 116.462C90.8551 116.346 90.8252 116.231 90.7608 116.134C90.6964 116.038 90.6013 115.966 90.4908 115.93C90.1559 115.828 89.8268 115.709 89.5051 115.571C89.2557 115.474 88.9825 115.458 88.7232 115.523L86.8883 116.106C86.7648 116.138 86.6358 116.142 86.5106 116.118C86.3854 116.093 86.2672 116.041 86.1646 115.966L84.9546 114.967C84.7762 114.819 84.7986 114.615 85.0056 114.51L86.5183 113.743C86.5664 113.718 86.609 113.684 86.6437 113.642C86.6784 113.601 86.7044 113.553 86.7202 113.501C86.7361 113.449 86.7414 113.394 86.736 113.341C86.7306 113.287 86.7144 113.234 86.6885 113.187C86.6267 113.055 86.5745 112.919 86.5326 112.779C86.4975 112.662 86.4327 112.557 86.3446 112.473C86.2565 112.389 86.1481 112.329 86.03 112.3L83.976 111.956C83.9236 111.949 83.8734 111.931 83.829 111.902C83.7846 111.873 83.7471 111.835 83.7193 111.79C83.6915 111.745 83.6741 111.695 83.6682 111.642C83.6624 111.59 83.6683 111.536 83.6855 111.486L84.0086 110.442C84.0483 110.329 84.1218 110.231 84.2191 110.162C84.3164 110.093 84.4326 110.056 84.5519 110.055L86.7099 110.135C86.9717 110.125 87.2204 110.018 87.4072 109.834C87.5667 109.669 87.737 109.515 87.9169 109.372C87.9601 109.342 87.9962 109.303 88.0227 109.257C88.0491 109.211 88.0654 109.16 88.0702 109.108C88.0751 109.055 88.0684 109.002 88.0507 108.952C88.0331 108.903 88.0048 108.857 87.9678 108.82L87.1075 107.911C87.07 107.88 87.0418 107.839 87.0261 107.793C87.0103 107.747 87.0075 107.697 87.018 107.649C87.0285 107.601 87.0519 107.557 87.0857 107.522C87.1194 107.487 87.1622 107.461 87.2094 107.449L89.0953 106.685C89.2167 106.644 89.3456 106.629 89.4733 106.642C89.6009 106.654 89.7244 106.694 89.8353 106.759L91.1085 107.597C91.3393 107.73 91.6074 107.782 91.871 107.746C92.2788 107.675 92.6865 107.623 93.0942 107.59C93.2201 107.575 93.3407 107.531 93.4468 107.461C93.5528 107.392 93.6415 107.299 93.7059 107.19L94.1727 106.272C94.2338 106.166 94.3234 106.078 94.4314 106.019C94.5394 105.961 94.6616 105.933 94.7844 105.94L97.1452 106.178C97.1998 106.183 97.2528 106.199 97.3011 106.225C97.3493 106.252 97.3919 106.287 97.4263 106.33C97.4606 106.373 97.4861 106.422 97.5012 106.475C97.5163 106.527 97.5207 106.583 97.5142 106.637L97.4123 107.534C97.4021 107.65 97.4317 107.766 97.4962 107.862C97.5607 107.959 97.6562 108.031 97.767 108.065C98.1018 108.167 98.4308 108.287 98.7528 108.424C99.0021 108.521 99.2752 108.538 99.5346 108.473L101.369 107.89C101.493 107.858 101.622 107.853 101.747 107.877C101.873 107.901 101.991 107.952 102.094 108.028ZM91.554 109.863C89.5152 110.689 89.0056 112.309 90.4327 113.491C91.8598 114.672 94.6692 114.95 96.713 114.123C98.7568 113.295 99.2614 111.67 97.8343 110.494C96.4072 109.317 93.5978 109.039 91.554 109.867V109.863Z" fill="#BA68C8"/>
<path d="M102.094 108.028L103.303 109.027C103.483 109.174 103.46 109.379 103.253 109.484L101.741 110.25C101.692 110.275 101.649 110.309 101.615 110.351C101.58 110.392 101.553 110.441 101.538 110.493C101.522 110.545 101.516 110.599 101.522 110.653C101.527 110.707 101.543 110.76 101.569 110.808C101.632 110.939 101.685 111.075 101.726 111.215C101.761 111.332 101.826 111.437 101.914 111.521C102.002 111.605 102.111 111.665 102.229 111.694L104.283 112.038C104.335 112.045 104.386 112.064 104.43 112.092C104.474 112.121 104.512 112.16 104.54 112.205C104.567 112.25 104.585 112.3 104.591 112.353C104.596 112.406 104.591 112.459 104.573 112.509L104.25 113.554C104.21 113.666 104.137 113.764 104.04 113.833C103.942 113.902 103.826 113.939 103.707 113.939L101.549 113.861C101.287 113.87 101.039 113.977 100.852 114.16C100.692 114.326 100.522 114.48 100.342 114.623C100.299 114.653 100.263 114.693 100.236 114.738C100.21 114.784 100.193 114.835 100.189 114.887C100.184 114.94 100.19 114.993 100.208 115.043C100.226 115.093 100.254 115.138 100.291 115.176L101.151 116.084C101.189 116.115 101.217 116.156 101.233 116.202C101.249 116.248 101.252 116.298 101.241 116.346C101.231 116.393 101.207 116.437 101.173 116.473C101.139 116.508 101.097 116.533 101.049 116.546L99.1636 117.31C99.0421 117.352 98.9132 117.366 98.7856 117.354C98.6579 117.341 98.5344 117.301 98.4235 117.237L97.1503 116.398C96.9193 116.265 96.6509 116.212 96.3868 116.248C95.9852 116.319 95.5764 116.371 95.1636 116.404C95.0376 116.419 94.9169 116.463 94.8108 116.533C94.7047 116.603 94.6161 116.696 94.552 116.806L94.0851 117.723C94.0243 117.83 93.9348 117.918 93.8267 117.976C93.7186 118.035 93.5963 118.062 93.4735 118.055L91.1126 117.818C91.0578 117.813 91.0045 117.797 90.956 117.771C90.9075 117.745 90.8647 117.71 90.8302 117.667C90.7958 117.624 90.7703 117.575 90.7554 117.522C90.7405 117.469 90.7365 117.414 90.7436 117.359L90.8455 116.462C90.8551 116.346 90.8252 116.231 90.7608 116.134C90.6964 116.038 90.6013 115.966 90.4908 115.93C90.1559 115.828 89.8268 115.709 89.5051 115.571C89.2557 115.474 88.9825 115.458 88.7232 115.523L86.8883 116.106C86.7648 116.138 86.6358 116.142 86.5106 116.118C86.3854 116.093 86.2672 116.041 86.1646 115.966L84.9546 114.967C84.7762 114.819 84.7986 114.615 85.0056 114.51L86.5183 113.743C86.5664 113.718 86.609 113.684 86.6437 113.642C86.6784 113.601 86.7044 113.553 86.7202 113.501C86.7361 113.449 86.7414 113.394 86.736 113.341C86.7306 113.287 86.7144 113.234 86.6885 113.187C86.6267 113.055 86.5745 112.919 86.5326 112.779C86.4975 112.662 86.4327 112.557 86.3446 112.473C86.2565 112.389 86.1481 112.329 86.03 112.3L83.976 111.956C83.9236 111.949 83.8734 111.931 83.829 111.902C83.7846 111.873 83.7471 111.835 83.7193 111.79C83.6915 111.745 83.6741 111.695 83.6682 111.642C83.6624 111.59 83.6683 111.536 83.6855 111.486L84.0086 110.442C84.0483 110.329 84.1218 110.231 84.2191 110.162C84.3164 110.093 84.4326 110.056 84.5519 110.055L86.7099 110.135C86.9717 110.125 87.2204 110.018 87.4072 109.834C87.5667 109.669 87.737 109.515 87.9169 109.372C87.9601 109.342 87.9962 109.303 88.0227 109.257C88.0491 109.211 88.0654 109.16 88.0702 109.108C88.0751 109.055 88.0684 109.002 88.0507 108.952C88.0331 108.903 88.0048 108.857 87.9678 108.82L87.1075 107.911C87.07 107.88 87.0418 107.839 87.0261 107.793C87.0103 107.747 87.0075 107.697 87.018 107.649C87.0285 107.601 87.0519 107.557 87.0857 107.522C87.1194 107.487 87.1622 107.461 87.2094 107.449L89.0953 106.685C89.2167 106.644 89.3456 106.629 89.4733 106.642C89.6009 106.654 89.7244 106.694 89.8353 106.759L91.1085 107.597C91.3393 107.73 91.6074 107.782 91.871 107.746C92.2788 107.675 92.6865 107.623 93.0942 107.59C93.2201 107.575 93.3407 107.531 93.4468 107.461C93.5528 107.392 93.6415 107.299 93.7059 107.19L94.1727 106.272C94.2338 106.166 94.3234 106.078 94.4314 106.019C94.5394 105.961 94.6616 105.933 94.7844 105.94L97.1452 106.178C97.1998 106.183 97.2528 106.199 97.3011 106.225C97.3493 106.252 97.3919 106.287 97.4263 106.33C97.4606 106.373 97.4861 106.422 97.5012 106.475C97.5163 106.527 97.5207 106.583 97.5142 106.637L97.4123 107.534C97.4021 107.65 97.4317 107.766 97.4962 107.862C97.5607 107.959 97.6562 108.031 97.767 108.065C98.1018 108.167 98.4308 108.287 98.7528 108.424C99.0021 108.521 99.2752 108.538 99.5346 108.473L101.369 107.89C101.493 107.858 101.622 107.853 101.747 107.877C101.873 107.901 101.991 107.952 102.094 108.028ZM91.554 109.863C89.5152 110.689 89.0056 112.309 90.4327 113.491C91.8598 114.672 94.6692 114.95 96.713 114.123C98.7568 113.295 99.2614 111.67 97.8343 110.494C96.4072 109.317 93.5978 109.039 91.554 109.867V109.863Z" fill="#E7E7F1"/>
<path d="M81.7581 3.48048C81.755 3.43278 81.7464 3.38559 81.7326 3.3398C81.7377 3.32961 81.7326 3.32044 81.7326 3.31024C81.7275 3.26365 81.7159 3.218 81.698 3.17467C81.6784 3.10548 81.6482 3.03979 81.6083 2.97997C81.5962 2.95054 81.5793 2.92333 81.5583 2.89944C81.5456 2.87908 81.5302 2.86056 81.5125 2.84439C81.484 2.80531 81.4496 2.77091 81.4105 2.74245L81.4003 2.73226C81.3599 2.70264 81.3165 2.67736 81.2709 2.65682C80.9956 2.52736 80.6399 2.56202 80.2444 2.7873L3.47633 46.9578C2.63535 47.443 1.94727 48.6295 1.94727 50.3278V107.756C1.94727 107.032 1.94727 107.037 1.94727 107.043V107.376C1.94651 107.564 1.99729 107.75 2.09413 107.911C2.19098 108.073 2.33019 108.205 2.49672 108.293L2.56196 108.337C2.58642 108.352 2.61191 108.367 2.64147 108.382C2.68313 108.402 2.7269 108.417 2.77195 108.427C2.83603 108.443 2.9017 108.451 2.96767 108.451C3.14763 108.451 3.32396 108.401 3.47735 108.307L3.51711 108.283L4.97176 107.443L80.2413 64.1118C81.0823 63.6265 81.7704 62.4451 81.7704 61.4685V3.67008C81.7683 3.60586 81.7632 3.54062 81.7581 3.48048Z" fill="#E7E7F1"/>
<path d="M81.2686 2.65896C80.9933 2.5295 80.6376 2.56415 80.242 2.78944L3.47708 46.9579C2.6361 47.4431 1.94802 48.6297 1.94802 49.6011V52.5573L0 51.4176V48.4941C0 47.5236 0.68298 46.3422 1.52906 45.8559L78.295 1.68545C78.7303 1.42959 79.1207 1.42449 79.4011 1.59473C79.6814 1.76497 80.9434 2.48974 81.2686 2.65896Z" fill="#BA68C8"/>
<path d="M81.7653 3.65992C81.7602 2.69661 81.0802 2.30721 80.2423 2.79141L3.47633 46.9588C2.6333 47.4451 1.94727 48.6276 1.94727 49.6V52.5562L81.7642 6.63343L81.7653 3.65992Z" fill="#377DF7"/>
<path d="M80.2409 2.79152L3.48202 46.959C3.03331 47.2382 2.66291 47.6268 2.40556 48.0884L0.46875 46.9671C0.721729 46.5122 1.08663 46.1294 1.5289 45.855L78.2928 1.6855C78.7291 1.43066 79.1185 1.42658 79.4009 1.59478C79.6833 1.76297 80.9412 2.48163 81.2623 2.65492C80.9942 2.5275 80.6323 2.56522 80.2409 2.79152Z" fill="#5996FF"/>
<path d="M0 51.4249V48.4932C0 47.9998 0.181449 47.4524 0.463815 46.9641L2.40063 48.0854C2.11993 48.5414 1.96353 49.063 1.947 49.5982V52.5544L0 51.4249Z" fill="#256BE8"/>
<path d="M4.44916 48.0375C4.12908 48.223 3.86914 48.7714 3.86914 49.2607C3.86914 49.75 4.12908 50.0028 4.44916 49.8183C4.76925 49.6338 5.02817 49.0844 5.02817 48.5951C5.02817 48.1058 4.76925 47.853 4.44916 48.0375Z" fill="#F75252"/>
<path d="M6.53706 46.8304C6.21697 47.016 5.95703 47.5654 5.95703 48.0537C5.95703 48.542 6.21697 48.7958 6.53706 48.6113C6.85714 48.4268 7.11606 47.8773 7.11606 47.388C7.11606 46.8987 6.85714 46.6459 6.53706 46.8304Z" fill="#F7CF52"/>
<path d="M8.62299 45.6205C8.30291 45.806 8.04297 46.3554 8.04297 46.8437C8.04297 47.332 8.30291 47.5858 8.62299 47.4013C8.94307 47.2168 9.20199 46.6674 9.20199 46.1781C9.20199 45.6888 8.94307 45.439 8.62299 45.6205Z" fill="#80BA27"/>
<path d="M2.49831 108.298L2.4188 108.253L0.815328 107.323C0.60113 107.2 0.418003 107.029 0.279997 106.824C0.141992 106.619 0.0527767 106.385 0.0191969 106.141C0.00903336 106.067 0.00392465 105.992 0.00390625 105.917V51.4187L1.95295 52.5614V107.372C1.9506 107.545 1.99312 107.716 2.07637 107.868C2.15961 108.02 2.28074 108.147 2.42798 108.239C2.44364 108.251 2.46035 108.263 2.47793 108.273C2.48302 108.278 2.48302 108.282 2.4871 108.282L2.49831 108.298Z" fill="#D5D5DE"/>
<path d="M4.63019 95.0071L79.0006 52.7887C79.1221 52.7186 79.26 52.6816 79.4002 52.6816C79.5405 52.6816 79.6784 52.7186 79.7998 52.7887C79.9213 52.8589 80.0222 52.9598 80.0924 53.0813C80.1625 53.2028 80.1994 53.3406 80.1994 53.4809V59.2475C80.1997 59.5987 80.1074 59.9438 79.9318 60.2481C79.7563 60.5523 79.5037 60.8049 79.1994 60.9804L4.82285 103.235C4.7012 103.305 4.56325 103.342 4.42284 103.341C4.28244 103.341 4.14452 103.304 4.02295 103.234C3.90137 103.164 3.80042 103.063 3.73023 102.941C3.66003 102.82 3.62307 102.682 3.62305 102.541L3.62916 96.737C3.62965 96.3862 3.7224 96.0417 3.8981 95.7381C4.0738 95.4344 4.32628 95.1824 4.63019 95.0071Z" fill="#377DF7"/>
<g opacity="0.5">
<path opacity="0.5" d="M79.4665 18.0668L79.4533 12.2747C79.4529 12.1347 79.4157 11.9972 79.3456 11.876C79.2754 11.7549 79.1747 11.6542 79.0535 11.5842C78.9322 11.5141 78.7947 11.4771 78.6547 11.4768C78.5147 11.4765 78.377 11.513 78.2555 11.5826L33.1584 37.4655C32.8532 37.6402 32.5996 37.8926 32.4232 38.1969C32.2469 38.5012 32.1541 38.8467 32.1543 39.1984V45.1597C32.1543 45.3 32.1912 45.4378 32.2614 45.5593C32.3315 45.6808 32.4324 45.7817 32.5539 45.8519C32.6754 45.922 32.8132 45.9589 32.9535 45.9589C33.0938 45.9589 33.2316 45.922 33.3531 45.8519L78.4665 19.8028C78.771 19.6268 79.0237 19.3736 79.1993 19.0689C79.3748 18.7641 79.467 18.4185 79.4665 18.0668Z" fill="#377DF7"/>
<path opacity="0.5" d="M71.4956 18.7966C71.4699 18.7965 71.445 18.7879 71.4247 18.7723C71.4043 18.7567 71.3897 18.7348 71.383 18.71C71.3763 18.6852 71.3779 18.659 71.3875 18.6352C71.3972 18.6114 71.4144 18.5915 71.4365 18.5784L73.4028 17.4439C73.4298 17.4285 73.4619 17.4244 73.4919 17.4326C73.5219 17.4409 73.5474 17.4607 73.5629 17.4877C73.5783 17.5147 73.5823 17.5468 73.5741 17.5768C73.5659 17.6068 73.5461 17.6323 73.519 17.6477L71.5537 18.7833C71.5358 18.7925 71.5158 18.7971 71.4956 18.7966Z" fill="white"/>
<path opacity="0.5" d="M71.4956 19.6601C71.47 19.66 71.445 19.6515 71.4247 19.6358C71.4043 19.6202 71.3897 19.5983 71.383 19.5735C71.3763 19.5488 71.3779 19.5225 71.3875 19.4987C71.3972 19.475 71.4144 19.455 71.4365 19.442L73.4029 18.3074C73.4163 18.2998 73.431 18.2948 73.4463 18.2929C73.4616 18.291 73.4771 18.2921 73.492 18.2962C73.5068 18.3002 73.5208 18.3072 73.5329 18.3166C73.5451 18.3261 73.5553 18.3378 73.5629 18.3512C73.5706 18.3646 73.5755 18.3794 73.5774 18.3947C73.5793 18.4099 73.5782 18.4255 73.5742 18.4403C73.5701 18.4552 73.5631 18.4691 73.5537 18.4813C73.5442 18.4934 73.5325 18.5036 73.5191 18.5113L71.5537 19.6468C71.5358 19.6561 71.5158 19.6606 71.4956 19.6601Z" fill="white"/>
<path opacity="0.5" d="M71.4956 20.5234C71.4699 20.5233 71.445 20.5147 71.4247 20.4991C71.4043 20.4835 71.3897 20.4616 71.383 20.4368C71.3763 20.4121 71.3779 20.3858 71.3875 20.362C71.3972 20.3382 71.4144 20.3183 71.4365 20.3052L73.4028 19.1707C73.4298 19.1553 73.4619 19.1512 73.4919 19.1594C73.5219 19.1677 73.5474 19.1875 73.5629 19.2145C73.5783 19.2415 73.5823 19.2736 73.5741 19.3036C73.5659 19.3336 73.5461 19.3591 73.519 19.3745L71.5537 20.5101C71.5358 20.5194 71.5158 20.5239 71.4956 20.5234Z" fill="white"/>
<path opacity="0.5" d="M76.6118 17.5714C76.5757 17.5717 76.5409 17.5578 76.5149 17.5327L75.411 16.4664C75.3839 16.4407 75.3682 16.4054 75.3672 16.3681C75.3663 16.3308 75.3802 16.2947 75.4059 16.2676C75.4315 16.2406 75.4669 16.2249 75.5042 16.2239C75.5415 16.223 75.5776 16.2369 75.6046 16.2625L76.7086 17.3258C76.7288 17.3454 76.7425 17.3707 76.748 17.3983C76.7536 17.4259 76.7506 17.4545 76.7396 17.4804C76.7286 17.5063 76.71 17.5283 76.6863 17.5434C76.6625 17.5586 76.6348 17.5662 76.6067 17.5653L76.6118 17.5714Z" fill="white"/>
<path opacity="0.5" d="M75.5073 18.2096C75.4837 18.2099 75.4605 18.2041 75.4397 18.1929C75.419 18.1816 75.4015 18.1653 75.3888 18.1454C75.3762 18.1255 75.3688 18.1027 75.3674 18.0791C75.366 18.0556 75.3707 18.0321 75.3809 18.0108L76.4859 15.6724C76.5032 15.6416 76.5316 15.6186 76.5653 15.6079C76.5989 15.5972 76.6354 15.5996 76.6673 15.6148C76.6992 15.6299 76.7243 15.6565 76.7373 15.6894C76.7504 15.7222 76.7505 15.7587 76.7377 15.7917L75.6368 18.1301C75.6253 18.1545 75.6069 18.175 75.5839 18.1892C75.5609 18.2033 75.5343 18.2104 75.5073 18.2096Z" fill="white"/>
<g opacity="0.6">
<path opacity="0.6" d="M68.441 21.398C68.441 22.3532 67.7274 23.5387 66.8456 24.0484L37.1217 41.1351C36.24 41.6448 35.5254 41.2829 35.5254 40.3278C35.5254 39.3726 36.239 38.1871 37.1217 37.6774L66.8446 20.5907C67.7264 20.082 68.441 20.4418 68.441 21.398Z" fill="#FAFAFA"/>
</g>
<path opacity="0.5" d="M36.3715 41.5481C36.193 41.5512 36.017 41.5061 35.8619 41.4177C35.5234 41.223 35.3379 40.8346 35.3379 40.3249C35.3379 39.3127 36.0953 38.0517 37.026 37.5145L66.7519 20.4318C67.2616 20.1403 67.7366 20.0954 68.0995 20.3054C68.438 20.5001 68.6245 20.8885 68.6245 21.3982C68.6245 22.4277 67.8834 23.6612 66.9364 24.2086L37.2125 41.2923C36.9593 41.4494 36.6694 41.5376 36.3715 41.5481ZM67.5939 20.5439C67.3608 20.5539 67.1343 20.6241 66.9364 20.7478L37.2125 37.8346C36.3838 38.3127 35.7089 39.4299 35.7089 40.3249C35.7089 40.697 35.8292 40.9722 36.0494 41.0986C36.291 41.2383 36.6478 41.1924 37.029 40.9722L66.7519 23.8885C67.5817 23.4104 68.2555 22.2932 68.2555 21.3982C68.2555 21.0261 68.1352 20.7509 67.9161 20.6245C67.8177 20.5697 67.7065 20.5419 67.5939 20.5439Z" fill="#FAFAFA"/>
<path opacity="0.5" d="M67.2134 22.8762L66.8587 22.7662C66.8958 22.6167 66.9149 22.4634 66.9157 22.3095C66.9157 21.9476 66.7985 21.6714 66.5926 21.5531C66.5125 21.51 66.4221 21.4895 66.3312 21.494C66.2403 21.4985 66.1523 21.5278 66.0768 21.5786C65.6793 21.8079 65.3633 22.4542 65.3633 23.0516C65.3633 23.4134 65.4815 23.6897 65.6864 23.8079C65.7546 23.8473 65.8319 23.8681 65.9107 23.8681C66.0139 23.8657 66.1147 23.8366 66.2032 23.7835C66.4417 23.6448 66.6477 23.3553 66.7751 23.0169L67.1298 23.128C67.1427 23.132 67.1561 23.1341 67.1696 23.1341C67.2015 23.1348 67.2325 23.1238 67.2569 23.1032C67.2814 23.0826 67.2974 23.0538 67.3022 23.0222C67.3069 22.9906 67.3 22.9584 67.2827 22.9315C67.2655 22.9047 67.239 22.885 67.2083 22.8762H67.2134ZM66.0768 23.5551C66.041 23.5823 65.9983 23.5991 65.9535 23.6036C65.9087 23.6081 65.8636 23.6001 65.823 23.5806C65.7048 23.5123 65.6314 23.3095 65.6314 23.0516C65.6314 22.5572 65.8954 21.9863 66.2083 21.8059C66.2559 21.7753 66.3108 21.7581 66.3673 21.756C66.4002 21.7557 66.4326 21.7642 66.4611 21.7804C66.5794 21.8487 66.6528 22.0516 66.6528 22.3095C66.6528 22.8049 66.3887 23.3747 66.0768 23.5551Z" fill="#FAFAFA"/>
</g>
<g opacity="0.7">
<path opacity="0.7" d="M59.0062 61.3188L78.728 49.9324C79.2143 49.6518 79.6181 49.2481 79.8989 48.7619C80.1796 48.2757 80.3274 47.7242 80.3274 47.1628V23.7621C80.3275 23.5516 80.2722 23.3448 80.167 23.1625C80.0619 22.9802 79.9106 22.8288 79.7283 22.7235C79.546 22.6182 79.3393 22.5628 79.1288 22.5627C78.9183 22.5627 78.7115 22.6181 78.5293 22.7234L58.8064 34.1097C58.3202 34.3904 57.9165 34.7941 57.6357 35.2803C57.355 35.7665 57.2071 36.318 57.207 36.8794V60.2801C57.2071 60.4906 57.2626 60.6973 57.3679 60.8796C57.4732 61.0619 57.6246 61.2133 57.8069 61.3185C57.9892 61.4238 58.196 61.4792 58.4065 61.4792C58.6171 61.4793 58.8239 61.424 59.0062 61.3188Z" fill="#377DF7"/>
<path opacity="0.7" d="M59.2266 46.6115C59.2266 46.8154 59.3785 46.8908 59.565 46.7827L61.2327 45.8245C61.3296 45.7638 61.4108 45.6811 61.4698 45.5832C61.5287 45.4853 61.5638 45.3748 61.5721 45.2608C61.5721 45.0569 61.4203 44.9815 61.2337 45.0895L59.565 46.0528C59.4689 46.113 59.3882 46.1949 59.3294 46.2919C59.2706 46.389 59.2354 46.4984 59.2266 46.6115Z" fill="white"/>
<path opacity="0.7" d="M62.0391 44.9864C62.0391 45.1903 62.191 45.2658 62.3785 45.1577L64.0472 44.1934C64.1439 44.1327 64.225 44.0502 64.284 43.9524C64.3429 43.8547 64.3781 43.7445 64.3867 43.6306C64.3867 43.4268 64.2348 43.3513 64.0472 43.4594L62.3785 44.4227C62.2815 44.4833 62.2002 44.5659 62.1412 44.6639C62.0822 44.7619 62.0472 44.8724 62.0391 44.9864Z" fill="white"/>
<path opacity="0.7" d="M64.8555 43.3606C64.8555 43.5645 65.0074 43.6399 65.1939 43.5319L66.8637 42.5696C66.9602 42.5088 67.041 42.4263 67.0998 42.3285C67.1586 42.2308 67.1936 42.1206 67.2021 42.0069C67.2021 41.803 67.0502 41.7266 66.8637 41.8346L65.1949 42.7979C65.0981 42.8584 65.0169 42.9409 64.9579 43.0387C64.8989 43.1364 64.8638 43.2468 64.8555 43.3606Z" fill="white"/>
<path opacity="0.7" d="M67.6699 41.7356C67.6699 41.9395 67.8218 42.0149 68.0094 41.9069L69.6781 40.9436C69.775 40.8831 69.8562 40.8006 69.9152 40.7029C69.9741 40.6051 70.0092 40.4948 70.0175 40.3809C70.0175 40.177 69.8657 40.1016 69.6781 40.2096L68.0094 41.1729C67.9125 41.2334 67.8313 41.3159 67.7723 41.4137C67.7133 41.5114 67.6783 41.6218 67.6699 41.7356Z" fill="white"/>
<path opacity="0.7" d="M70.4863 40.1097C70.4863 40.3135 70.6382 40.389 70.8248 40.2809L72.4945 39.3186C72.591 39.2579 72.6719 39.1753 72.7307 39.0776C72.7894 38.9798 72.8245 38.8697 72.8329 38.7559C72.8329 38.5521 72.681 38.4756 72.4945 38.5837L70.8258 39.547C70.7289 39.6075 70.6477 39.6899 70.5887 39.7877C70.5297 39.8855 70.4947 39.9958 70.4863 40.1097Z" fill="white"/>
<path opacity="0.7" d="M73.2988 38.4849C73.2988 38.6888 73.4507 38.7642 73.6383 38.6562L75.307 37.6929C75.4038 37.6324 75.4851 37.5499 75.544 37.4521C75.603 37.3543 75.6381 37.244 75.6464 37.1302C75.6464 36.9263 75.4946 36.8508 75.307 36.9589L73.6383 37.9222C73.5414 37.9827 73.4602 38.0652 73.4012 38.1629C73.3422 38.2607 73.3072 38.371 73.2988 38.4849Z" fill="white"/>
<path opacity="0.7" d="M76.1152 36.859C76.1152 37.0628 76.2671 37.1383 76.4537 37.0302L78.1234 36.0679C78.2199 36.0071 78.3008 35.9246 78.3596 35.8268C78.4184 35.7291 78.4534 35.6189 78.4618 35.5052C78.4618 35.3013 78.31 35.2249 78.1234 35.3329L76.4537 36.2963C76.357 36.3569 76.276 36.4394 76.2172 36.5371C76.1584 36.6349 76.1235 36.7452 76.1152 36.859Z" fill="white"/>
<g opacity="0.5">
<path opacity="0.5" d="M59.5098 48.5409L61.5588 47.3625V49.2076L59.5098 50.4156V48.5409Z" fill="white"/>
</g>
<g opacity="0.5">
<path opacity="0.5" d="M59.5098 51.1323L61.5588 49.9539V51.7989L59.5098 53.0069V51.1323Z" fill="white"/>
</g>
<g opacity="0.5">
<path opacity="0.5" d="M59.5098 53.7245L61.5588 52.5461V54.3912L59.5098 55.5992V53.7245Z" fill="white"/>
</g>
<path opacity="0.7" d="M59.5098 53.7245L61.5588 52.5461V54.3912L59.5098 55.5992V53.7245Z" fill="white"/>
<g opacity="0.5">
<path opacity="0.5" d="M59.5098 56.3158L61.5588 55.1375V56.9825L59.5098 58.1915V56.3158Z" fill="white"/>
</g>
<path opacity="0.7" d="M62.3281 46.914L64.376 45.7356V47.5807L62.3281 48.7886V46.914Z" fill="white"/>
<g opacity="0.5">
<path opacity="0.5" d="M62.3281 49.5063L64.376 48.3279V50.173L62.3281 51.3809V49.5063Z" fill="white"/>
</g>
<g opacity="0.5">
<path opacity="0.5" d="M62.3281 52.0976L64.376 50.9192V52.7642L62.3281 53.9722V52.0976Z" fill="white"/>
</g>
<path opacity="0.7" d="M62.3281 52.0976L64.376 50.9192V52.7642L62.3281 53.9722V52.0976Z" fill="white"/>
<g opacity="0.5">
<path opacity="0.5" d="M62.3281 54.6898L64.376 53.5115V55.3565L62.3281 56.5644V54.6898Z" fill="white"/>
</g>
<path opacity="0.7" d="M65.1465 45.2883L67.1944 44.1099V45.9549L65.1465 47.1629V45.2883Z" fill="white"/>
<g opacity="0.5">
<path opacity="0.5" d="M65.1465 47.8795L67.1944 46.7012V48.5462L65.1465 49.7541V47.8795Z" fill="white"/>
</g>
<g opacity="0.5">
<path opacity="0.5" d="M65.1465 50.4719L67.1944 49.2935V51.1385L65.1465 52.3465V50.4719Z" fill="white"/>
</g>
<path opacity="0.7" d="M65.1465 50.4719L67.1944 49.2935V51.1385L65.1465 52.3465V50.4719Z" fill="white"/>
<g opacity="0.5">
<path opacity="0.5" d="M65.1465 53.0629L67.1944 51.8845V53.7296L65.1465 54.9375V53.0629Z" fill="white"/>
</g>
<g opacity="0.5">
<path opacity="0.5" d="M67.9629 43.6613L70.0108 42.4829V44.328L67.9629 45.5359V43.6613Z" fill="white"/>
</g>
<g opacity="0.5">
<path opacity="0.5" d="M67.9629 46.2536L70.0108 45.0752V46.9203L67.9629 48.1282V46.2536Z" fill="white"/>
</g>
<g opacity="0.5">
<path opacity="0.5" d="M67.9629 48.8449L70.0108 47.6665V49.5116L67.9629 50.7195V48.8449Z" fill="white"/>
</g>
<g opacity="0.5">
<path opacity="0.5" d="M67.9629 51.4372L70.0108 50.2588V52.1039L67.9629 53.3118V51.4372Z" fill="white"/>
</g>
<g opacity="0.5">
<path opacity="0.5" d="M70.7793 42.0343L72.8272 40.8569V42.702L70.7793 43.91V42.0343Z" fill="white"/>
</g>
<g opacity="0.8">
<path opacity="0.8" d="M70.7793 44.6266L72.8272 43.4482V45.2933L70.7793 46.5013V44.6266Z" fill="white"/>
</g>
<g opacity="0.5">
<path opacity="0.5" d="M70.7793 47.2189L72.8272 46.0405V47.8856L70.7793 49.0935V47.2189Z" fill="white"/>
</g>
<path opacity="0.7" d="M70.7793 49.8102L72.8272 48.6318V50.4769L70.7793 51.6849V49.8102Z" fill="white"/>
<g opacity="0.5">
<path opacity="0.5" d="M73.5957 40.4084L75.6447 39.23V41.075L73.5957 42.283V40.4084Z" fill="white"/>
</g>
<g opacity="0.5">
<path opacity="0.5" d="M73.5957 43.0007L75.6447 41.8223V43.6673L73.5957 44.8753V43.0007Z" fill="white"/>
</g>
<g opacity="0.8">
<path opacity="0.8" d="M73.5957 43.0007L75.6447 41.8223V43.6673L73.5957 44.8753V43.0007Z" fill="white"/>
</g>
<g opacity="0.5">
<path opacity="0.5" d="M73.5957 45.592L75.6447 44.4136V46.2586L73.5957 47.4666V45.592Z" fill="white"/>
</g>
<g opacity="0.5">
<path opacity="0.5" d="M73.5957 48.1832L75.6447 47.0059V48.8509L73.5957 50.0589V48.1832Z" fill="white"/>
</g>
<g opacity="0.5">
<path opacity="0.5" d="M76.4141 38.7814L78.462 37.604V39.4481L76.4141 40.6571V38.7814Z" fill="white"/>
</g>
<g opacity="0.5">
<path opacity="0.5" d="M76.4141 41.374L78.462 40.1956V42.0406L76.4141 43.2486V41.374Z" fill="white"/>
</g>
<g opacity="0.8">
<path opacity="0.8" d="M76.4141 41.374L78.462 40.1956V42.0406L76.4141 43.2486V41.374Z" fill="white"/>
</g>
<g opacity="0.5">
<path opacity="0.5" d="M76.4141 43.965L78.462 42.7876V44.6326L76.4141 45.8406V43.965Z" fill="white"/>
</g>
<g opacity="0.5">
<path opacity="0.5" d="M76.4141 46.5573L78.462 45.3789V47.2239L76.4141 48.4319V46.5573Z" fill="white"/>
</g>
<path opacity="0.7" d="M67.9713 34.6725C67.9757 34.6695 67.9808 34.668 67.9861 34.668C67.9913 34.668 67.9965 34.6695 68.0009 34.6725C68.0051 34.6765 68.0084 34.6814 68.0105 34.6869C68.0126 34.6924 68.0135 34.6982 68.0131 34.7041V34.8498C68.0127 34.8669 68.0085 34.8836 68.0009 34.8988C67.9937 34.9161 67.9866 34.9324 67.9795 34.9457L67.7542 35.3911C67.7939 35.3742 67.8364 35.3649 67.8796 35.3636C67.9158 35.3623 67.9515 35.3727 67.9815 35.3932C68.0102 35.4161 68.0314 35.4469 68.0427 35.4818C68.0582 35.5295 68.0654 35.5795 68.0641 35.6296C68.0635 35.6988 68.0528 35.7674 68.0325 35.8335C68.0115 35.9008 67.982 35.9652 67.9448 36.0252C67.907 36.0847 67.8626 36.1398 67.8123 36.1893C67.7628 36.2383 67.7073 36.2808 67.6471 36.3157C67.5898 36.3512 67.5266 36.3763 67.4606 36.3901C67.4162 36.3984 67.3704 36.3946 67.328 36.3789C67.2932 36.3644 67.2647 36.338 67.2475 36.3045C67.2288 36.2691 67.2176 36.2302 67.2149 36.1903C67.2144 36.1745 67.2179 36.1589 67.2253 36.145C67.2326 36.1311 67.2434 36.1193 67.2567 36.1108L67.378 36.0404C67.3818 36.038 67.3862 36.0367 67.3907 36.0367C67.3953 36.0367 67.3997 36.038 67.4035 36.0404C67.4117 36.0481 67.4186 36.0571 67.4239 36.0669C67.4299 36.079 67.4382 36.0897 67.4483 36.0985C67.46 36.108 67.4742 36.1137 67.4891 36.1149C67.511 36.1159 67.5329 36.1124 67.5533 36.1047C67.6522 36.0714 67.7381 36.0079 67.799 35.9232C67.836 35.8722 67.8563 35.8109 67.8571 35.7479C67.8571 35.6857 67.8367 35.6531 67.799 35.646C67.7448 35.6455 67.6917 35.6619 67.6471 35.6928L67.5197 35.7662C67.5154 35.7695 67.5103 35.7712 67.5049 35.7712C67.4996 35.7712 67.4944 35.7695 67.4901 35.7662C67.4857 35.7623 67.4823 35.7574 67.4802 35.7519C67.478 35.7464 67.4773 35.7405 67.4779 35.7346V35.5889C67.4784 35.572 67.4822 35.5554 67.4891 35.5399L67.5115 35.4931L67.7266 35.067L67.3026 35.3126C67.2982 35.3156 67.2931 35.3171 67.2878 35.3171C67.2825 35.3171 67.2774 35.3156 67.273 35.3126C67.2686 35.3085 67.2652 35.3034 67.2631 35.2977C67.261 35.2921 67.2602 35.286 67.2608 35.28V35.1342C67.2612 35.1182 67.2654 35.1025 67.273 35.0884C67.2795 35.0749 67.2898 35.0635 67.3026 35.0557L67.9713 34.6725Z" fill="white"/>
<path opacity="0.7" d="M69.0426 34.5888C69.0426 34.6143 69.0426 34.6428 69.0426 34.6744V34.8671C69.0426 34.8977 69.0426 34.9272 69.0426 34.9537C69.0396 35.0332 69.0304 35.1122 69.0151 35.1902C69.0004 35.2652 68.9768 35.3381 68.9447 35.4074C68.9122 35.4765 68.8696 35.5404 68.8183 35.597C68.7634 35.6571 68.6994 35.7084 68.6287 35.7489C68.5715 35.7863 68.5061 35.8094 68.4381 35.8161C68.4153 35.818 68.3923 35.8151 68.3707 35.8076C68.3491 35.8 68.3294 35.788 68.3127 35.7723C68.2768 35.7346 68.2521 35.6876 68.2413 35.6367C68.2259 35.5698 68.217 35.5015 68.2148 35.4328C68.2148 35.3819 68.2148 35.3238 68.2148 35.2565C68.2148 35.1892 68.2148 35.1311 68.2148 35.0781C68.2179 34.9981 68.2268 34.9183 68.2413 34.8396C68.256 34.7635 68.28 34.6896 68.3127 34.6194C68.3448 34.5493 68.387 34.4844 68.4381 34.4267C68.4924 34.3649 68.5569 34.3129 68.6287 34.2728C68.6856 34.2354 68.7506 34.2123 68.8183 34.2055C68.8413 34.2034 68.8645 34.2062 68.8863 34.2138C68.908 34.2213 68.928 34.2335 68.9447 34.2493C68.9804 34.287 69.0048 34.334 69.0151 34.3849C69.0315 34.4517 69.0407 34.5201 69.0426 34.5888ZM68.4228 35.3024C68.4201 35.3721 68.4386 35.4411 68.4758 35.5001C68.5054 35.5368 68.5563 35.5348 68.6287 35.493C68.6971 35.4552 68.7509 35.3956 68.7816 35.3238C68.8144 35.2409 68.8324 35.1529 68.8346 35.0638C68.8346 35.0108 68.8346 34.9527 68.8346 34.8895C68.8346 34.8273 68.8346 34.7703 68.8346 34.7193C68.8372 34.6495 68.8187 34.5807 68.7816 34.5215C68.751 34.4848 68.7001 34.4879 68.6287 34.5287C68.5601 34.5661 68.5062 34.6258 68.4758 34.6979C68.4431 34.7808 68.4251 34.8687 68.4228 34.9578C68.4228 35.0108 68.4228 35.0689 68.4228 35.1321C68.4228 35.1953 68.4197 35.2504 68.4228 35.3013V35.3024Z" fill="white"/>
<path opacity="0.7" d="M69.4199 33.8234C69.4504 33.8033 69.4855 33.7914 69.5219 33.7887C69.5462 33.787 69.5705 33.793 69.5912 33.806C69.611 33.8204 69.6263 33.8402 69.635 33.8631C69.6447 33.89 69.6505 33.9182 69.6523 33.9467C69.6523 33.9814 69.6523 34.0181 69.6523 34.0588C69.6523 34.0996 69.6523 34.1373 69.6523 34.174C69.6496 34.2084 69.6438 34.2426 69.635 34.276C69.6242 34.3114 69.6095 34.3456 69.5912 34.3779C69.5725 34.4147 69.5492 34.4489 69.5219 34.4798C69.4919 34.5108 69.4575 34.5373 69.4199 34.5583C69.389 34.5777 69.3542 34.5899 69.318 34.594C69.2936 34.5957 69.2694 34.5896 69.2487 34.5767C69.2288 34.5625 69.2138 34.5426 69.2059 34.5196C69.1954 34.4929 69.1892 34.4647 69.1875 34.436C69.1875 34.4013 69.1875 34.3646 69.1875 34.3239C69.1875 34.2831 69.1875 34.2454 69.1875 34.2087C69.1901 34.1742 69.1963 34.14 69.2059 34.1067C69.2155 34.0694 69.2299 34.0334 69.2487 33.9997C69.2677 33.9631 69.291 33.9289 69.318 33.8978C69.348 33.8679 69.3823 33.8428 69.4199 33.8234ZM70.0366 33.5175C70.043 33.5031 70.0505 33.4891 70.0591 33.4758C70.0681 33.4639 70.0795 33.4542 70.0927 33.4472L70.1844 33.3942C70.1883 33.3911 70.1928 33.3891 70.1976 33.3882C70.2024 33.3873 70.2073 33.3876 70.212 33.3891C70.2154 33.3921 70.218 33.3959 70.2196 33.4002C70.2212 33.4045 70.2218 33.4091 70.2211 33.4136C70.2216 33.417 70.2216 33.4204 70.2211 33.4238C70.2211 33.4289 70.2211 33.434 70.2211 33.4391L69.4607 35.2117C69.4543 35.2259 69.4468 35.2395 69.4383 35.2525C69.4298 35.2651 69.4182 35.2753 69.4046 35.2821L69.3129 35.3361C69.3088 35.3382 69.3042 35.3392 69.2996 35.3392C69.295 35.3392 69.2905 35.3382 69.2864 35.3361C69.2792 35.3361 69.2762 35.3249 69.2762 35.3116C69.2758 35.3079 69.2758 35.3041 69.2762 35.3004C69.2762 35.3004 69.2762 35.2912 69.2762 35.2861L70.0366 33.5175ZM69.5015 34.2413C69.5022 34.2281 69.5022 34.2148 69.5015 34.2015V34.0904C69.5023 34.0779 69.5023 34.0653 69.5015 34.0527C69.5013 34.0316 69.4941 34.0112 69.4811 33.9946C69.4709 33.9814 69.4495 33.9834 69.4199 34.0007C69.3929 34.0151 69.3714 34.0381 69.3588 34.066C69.3473 34.0914 69.3404 34.1187 69.3384 34.1465C69.3376 34.1601 69.3376 34.1737 69.3384 34.1873C69.3384 34.2046 69.3384 34.224 69.3384 34.2423C69.3384 34.2607 69.3384 34.28 69.3384 34.2974C69.3376 34.3099 69.3376 34.3225 69.3384 34.3351C69.3386 34.3562 69.3458 34.3766 69.3588 34.3932C69.3696 34.4068 69.39 34.4047 69.4199 34.3871C69.4469 34.3731 69.4684 34.3505 69.4811 34.3228C69.494 34.2966 69.5023 34.2683 69.5055 34.2393L69.5015 34.2413ZM70.0856 34.1608C70.116 34.1405 70.1511 34.1286 70.1875 34.1261C70.2123 34.1244 70.237 34.1308 70.2578 34.1445C70.2773 34.1585 70.2923 34.178 70.3007 34.2005C70.3108 34.2273 70.3167 34.2555 70.318 34.2841C70.318 34.3188 70.318 34.3555 70.318 34.3962C70.318 34.437 70.318 34.4747 70.318 34.5114C70.3157 34.5459 70.3099 34.5801 70.3007 34.6134C70.2903 34.6505 70.2759 34.6864 70.2578 34.7204C70.2384 34.757 70.2148 34.7912 70.1875 34.8223C70.158 34.8538 70.1236 34.8803 70.0856 34.9008C70.0547 34.9201 70.0198 34.9323 69.9836 34.9365C69.9589 34.9386 69.9342 34.9325 69.9133 34.9192C69.894 34.9045 69.8792 34.8847 69.8705 34.8621C69.8603 34.8353 69.8545 34.8071 69.8532 34.7785C69.8532 34.7438 69.8532 34.7071 69.8532 34.6664C69.8532 34.6256 69.8532 34.5879 69.8532 34.5512C69.8554 34.5167 69.8612 34.4825 69.8705 34.4492C69.8812 34.4122 69.8955 34.3764 69.9133 34.3422C69.9328 34.3057 69.9564 34.2715 69.9836 34.2403C70.014 34.2072 70.0499 34.1796 70.0896 34.1587L70.0856 34.1608ZM70.1681 34.5767C70.1681 34.5675 70.1681 34.5542 70.1681 34.5369V34.4258C70.1681 34.4085 70.1681 34.3952 70.1681 34.3881C70.1679 34.367 70.1608 34.3466 70.1478 34.33C70.1365 34.3177 70.1162 34.3198 70.0856 34.3371C70.0589 34.351 70.0375 34.3732 70.0244 34.4003C70.0133 34.4262 70.0068 34.4538 70.005 34.4819C70.0042 34.4954 70.0042 34.5091 70.005 34.5226V34.6327C70.004 34.6453 70.004 34.6579 70.005 34.6704C70.005 34.6914 70.0118 34.7118 70.0244 34.7286C70.0356 34.7418 70.057 34.7387 70.0856 34.7224C70.1128 34.7085 70.1347 34.6859 70.1478 34.6582C70.1607 34.632 70.169 34.6037 70.1722 34.5746L70.1681 34.5767Z" fill="white"/>
<path opacity="0.4" d="M67.3336 32.9802L66.8239 32.3411C66.2541 33.2267 65.8475 34.2072 65.623 35.2361L66.4436 35.1178C66.6104 34.3579 66.9118 33.634 67.3336 32.9802Z" fill="white"/>
<g opacity="0.4">
<path opacity="0.4" d="M68.7668 31.5288V30.3789C68.041 30.7979 67.3703 31.5002 66.8301 32.3412L67.3397 32.9803C67.7363 32.3565 68.2306 31.8376 68.7668 31.5288Z" fill="white"/>
</g>
<path opacity="0.7" d="M71.909 31.6083C71.6909 30.8407 71.2658 30.3188 70.7082 30.0996C70.1507 29.8805 69.4922 29.959 68.7715 30.379V31.5288C69.3077 31.223 69.802 31.1669 70.2057 31.3249C70.6094 31.4829 70.9325 31.8703 71.0925 32.4381C71.1756 32.743 71.2161 33.0579 71.2128 33.3739C71.2105 33.7356 71.1702 34.0961 71.0925 34.4493L71.9141 34.3301C72.0164 33.853 72.0687 33.3665 72.0701 32.8785C72.0749 32.4497 72.0207 32.0223 71.909 31.6083Z" fill="white"/>
<g opacity="0.4">
<path opacity="0.4" d="M71.9097 34.3298L71.0881 34.4491C70.9228 35.2099 70.6224 35.935 70.2012 36.5898L70.7109 37.2279C71.2802 36.3411 71.6862 35.3596 71.9097 34.3298Z" fill="white"/>
</g>
<g opacity="0.4">
<path opacity="0.4" d="M66.3266 36.1922C66.3293 35.8319 66.3693 35.4729 66.4459 35.1208L65.6253 35.2391C65.5203 35.7169 65.466 36.2045 65.4632 36.6937C65.4584 37.1219 65.513 37.5486 65.6253 37.9618L66.4459 37.1321C66.3633 36.8257 66.3232 36.5095 66.3266 36.1922Z" fill="white"/>
</g>
<g opacity="0.4">
<path opacity="0.4" d="M67.3339 38.2412L66.8242 39.4644C67.3686 39.6785 68.0393 39.6041 68.761 39.1851V38.0383C68.231 38.3482 67.7366 38.4002 67.3339 38.2412Z" fill="white"/>
</g>
<g opacity="0.4">
<path opacity="0.4" d="M68.7676 38.0385V39.1884C69.4934 38.7694 70.1641 38.067 70.7044 37.225L70.1947 36.5869C69.7982 37.2098 69.3038 37.7286 68.7676 38.0385Z" fill="white"/>
</g>
<g opacity="0.4">
<path opacity="0.4" d="M66.4456 37.1292L65.625 37.9589C65.8421 38.7265 66.2682 39.2484 66.8258 39.4676L67.3355 38.2443C66.9216 38.0772 66.6067 37.6959 66.4456 37.1292Z" fill="white"/>
</g>
</g>
<g opacity="0.2">
<path opacity="0.2" d="M33.9525 75.6104L53.6743 64.224C54.1607 63.9435 54.5645 63.5398 54.8453 63.0536C55.1261 62.5674 55.2738 62.0158 55.2737 61.4544V38.0536C55.2734 37.8432 55.2178 37.6366 55.1124 37.4544C55.0071 37.2723 54.8556 37.1211 54.6734 37.016C54.4911 36.9108 54.2844 36.8555 54.0739 36.8555C53.8635 36.8555 53.6568 36.9108 53.4745 37.0159L33.7527 48.4013C33.2667 48.6822 32.8633 49.086 32.5827 49.5721C32.3021 50.0583 32.1544 50.6097 32.1543 51.1709V74.5707C32.154 74.7812 32.2092 74.9881 32.3143 75.1706C32.4194 75.3531 32.5707 75.5046 32.753 75.61C32.9353 75.7154 33.1421 75.771 33.3527 75.771C33.5633 75.7711 33.7701 75.7157 33.9525 75.6104Z" fill="#9797A1"/>
</g>
<path d="M38.4436 68.9039L56.6333 56.4318C57.1195 56.1511 57.5232 55.7474 57.804 55.2613C58.0847 54.7751 58.2326 54.2236 58.2327 53.6622L60.0278 31.0892C60.0278 30.5948 59.1715 30.0627 58.3591 29.553C57.3621 28.9261 56.8045 29.0087 56.4335 29.2228L36.7117 40.6091C36.2257 40.8898 35.8222 41.2934 35.5417 41.7794C35.2611 42.2654 35.1134 42.8166 35.1133 43.3778V66.7795C35.1133 67.1791 35.2325 67.6154 36.1979 68.1781C37.0562 68.6796 37.99 69.1679 38.4436 68.9039Z" fill="#2168E6"/>
<path d="M38.7211 68.855L58.4429 57.4686C58.929 57.1878 59.3326 56.7841 59.6132 56.2979C59.8938 55.8117 60.0414 55.2602 60.0413 54.6989V31.2992C60.0414 31.0887 59.9861 30.8819 59.8809 30.6996C59.7757 30.5173 59.6244 30.3659 59.4422 30.2606C59.2599 30.1553 59.0531 30.0999 58.8427 30.0999C58.6322 30.0998 58.4254 30.1552 58.2431 30.2605L38.5213 41.6448C38.0349 41.9254 37.6311 42.329 37.3503 42.8152C37.0695 43.3014 36.9218 43.853 36.9219 44.4145V67.8162C36.922 68.0267 36.9775 68.2335 37.0828 68.4158C37.1881 68.5981 37.3395 68.7494 37.5218 68.8547C37.7041 68.9599 37.9109 69.0154 38.1214 69.0154C38.3319 69.0155 38.5387 68.9601 38.7211 68.855Z" fill="#377DF7"/>
<path d="M39.3709 58.8408C39.3509 58.8408 39.3312 58.8355 39.3138 58.8255C39.2958 58.8153 39.2808 58.8005 39.2704 58.7826C39.26 58.7647 39.2546 58.7443 39.2547 58.7236L39.1895 44.1465C39.1892 44.1258 39.1946 44.1054 39.205 44.0874C39.2154 44.0695 39.2305 44.0547 39.2486 44.0446L58.0897 33.3259C58.1075 33.3159 58.1276 33.3108 58.148 33.311C58.1684 33.3113 58.1883 33.3168 58.206 33.3271C58.2236 33.3374 58.2382 33.3521 58.2483 33.3697C58.2585 33.3874 58.2639 33.4074 58.264 33.4278L58.2304 47.8468C58.2307 47.8674 58.2256 47.8876 58.2156 47.9055C58.2055 47.9234 58.1909 47.9383 58.1733 47.9488L39.429 58.8245C39.4114 58.8349 39.3914 58.8406 39.3709 58.8408ZM39.4219 44.2097L39.4861 58.5228L58.002 47.7786L58.0336 33.6266L39.4219 44.2097Z" fill="white"/>
<path d="M48.3226 44.6775C48.3202 44.6187 48.3309 44.5602 48.3539 44.506C48.3769 44.4519 48.4117 44.4036 48.4557 44.3645C48.4997 44.3255 48.5518 44.2967 48.6083 44.2803C48.6648 44.264 48.7243 44.2603 48.7823 44.2698L50.3695 45.0557C50.7191 45.1862 50.6672 45.5603 50.501 45.755L49.0178 47.8631C48.6396 48.3065 48.3287 48.3972 48.3277 47.8141L48.3226 44.6775Z" fill="white"/>
<path d="M46.1783 44.9476C46.5595 43.8568 47.2181 42.8609 48.0631 42.2218C48.897 41.5897 49.7961 41.394 50.58 41.6703C51.3639 41.9465 51.9429 42.656 52.1988 43.6672C52.7176 45.7182 51.7737 48.4206 50.0937 49.6907C49.265 50.3176 48.374 50.5113 47.5861 50.2361C46.7981 49.9609 46.2191 49.2544 45.955 48.2452C45.691 47.2361 45.795 46.0383 46.1783 44.9476ZM48.2171 42.3869C46.586 43.6244 45.6686 46.2401 46.1783 48.2157C46.4189 49.1474 46.9408 49.7957 47.6462 50.0414C48.3516 50.2871 49.16 50.1036 49.9245 49.5256C51.5504 48.2962 52.4648 45.6815 51.9633 43.6958C51.7268 42.762 51.2089 42.1117 50.5045 41.8609C49.8001 41.6101 48.9867 41.7997 48.2171 42.3828V42.3869Z" fill="white"/>
<path d="M54.0034 55.7856C54.2246 55.6582 54.4111 55.7571 54.4111 56.0058C54.4025 56.1432 54.3616 56.2766 54.2919 56.3953C54.2221 56.5139 54.1253 56.6145 54.0095 56.6888L39.4019 65.0955C39.1807 65.2229 38.9992 65.124 38.9941 64.8753C39.0025 64.738 39.0431 64.6046 39.1127 64.4859C39.1823 64.3672 39.279 64.2666 39.3948 64.1923L54.0034 55.7856Z" fill="white"/>
<path d="M58.0231 51.8438C58.2443 51.7163 58.4309 51.8152 58.4309 52.0629C58.4225 52.2 58.3818 52.3331 58.3122 52.4514C58.2425 52.5697 58.146 52.6699 58.0303 52.7439L39.3941 63.4249C39.1719 63.5523 38.9863 63.4535 38.9863 63.2058C38.995 63.0687 39.0359 62.9356 39.1057 62.8172C39.1755 62.6989 39.2722 62.5987 39.388 62.5248L58.0231 51.8438Z" fill="white"/>
<path d="M46.28 56.6593C46.5012 56.5309 46.6827 56.6298 46.6878 56.8785C46.6793 57.016 46.6387 57.1495 46.5691 57.2683C46.4995 57.3871 46.4029 57.4879 46.2872 57.5625L39.3921 61.5524C39.1709 61.6798 38.9895 61.5809 38.9844 61.3332C38.9926 61.1957 39.0331 61.0621 39.1027 60.9432C39.1724 60.8243 39.2691 60.7236 39.385 60.6492L46.28 56.6593Z" fill="white"/>
<g opacity="0.8">
<path opacity="0.8" d="M28.8922 39.9119L4.62092 53.8386C4.25394 54.049 3.94917 54.3528 3.73755 54.7191C3.52594 55.0854 3.41501 55.5012 3.41602 55.9242L3.49451 90.7787C3.49461 90.9185 3.53143 91.0558 3.60129 91.1769C3.67114 91.298 3.77159 91.3987 3.89256 91.4688C4.01354 91.5388 4.1508 91.5759 4.29062 91.5763C4.43043 91.5766 4.56788 91.5403 4.68922 91.4708L28.8892 77.5176C29.2542 77.3074 29.5574 77.0046 29.7682 76.6399C29.979 76.2752 30.09 75.8614 30.09 75.4401V40.6041C30.0899 40.4639 30.0529 40.3263 29.9829 40.2049C29.9128 40.0836 29.812 39.9828 29.6907 39.9126C29.5693 39.8425 29.4317 39.8056 29.2915 39.8054C29.1514 39.8053 29.0137 39.842 28.8922 39.9119Z" fill="#377DF7"/>
</g>
<path d="M23.5467 56.7316C24.0829 56.4258 24.5223 56.4442 24.5233 56.7785C24.5243 57.1129 24.086 57.6389 23.5498 57.9478L12.4355 64.4045C11.8994 64.7103 11.46 64.6919 11.459 64.3576C11.458 64.0232 11.8963 63.4962 12.4325 63.1884L23.5467 56.7316Z" fill="white"/>
<path d="M23.5467 61.06C24.0829 60.7542 24.5223 60.7725 24.5233 61.1069C24.5243 61.4413 24.086 61.9673 23.5498 62.2761L12.4355 68.7339C11.8994 69.0397 11.46 69.0213 11.459 68.687C11.458 68.3526 11.8963 67.8266 12.4325 67.5177L23.5467 61.06Z" fill="white"/>
<path d="M23.5467 65.3902C24.0829 65.0844 24.5223 65.1017 24.5233 65.4371C24.5243 65.7725 24.086 66.2975 23.5498 66.6063L12.4355 73.0631C11.8994 73.3689 11.46 73.3505 11.459 73.0162C11.458 72.6818 11.8963 72.1558 12.4325 71.8469L23.5467 65.3902Z" fill="white"/>
<path d="M23.5467 69.7194C24.0829 69.4136 24.5223 69.432 24.5233 69.7663C24.5243 70.1007 24.086 70.6267 23.5498 70.9356L12.4355 77.3933C11.8994 77.6991 11.46 77.6807 11.459 77.3464C11.458 77.012 11.8963 76.485 12.4325 76.1772L23.5467 69.7194Z" fill="white"/>
<path d="M23.5467 76.591C24.0829 76.2852 24.5223 76.3036 24.5233 76.6379C24.5243 76.9723 24.086 77.4983 23.5498 77.8071L12.4355 84.2649C11.8994 84.5707 11.46 84.5524 11.459 84.218C11.458 83.8837 11.8963 83.3577 12.4325 83.0488L23.5467 76.591Z" fill="white"/>
<path d="M75.9241 56.6296C76.4603 56.3238 76.8996 56.3421 76.9006 56.6765C76.9017 57.0108 76.4633 57.5368 75.9271 57.8457L8.09086 96.5044C7.55365 96.8102 7.1143 96.7919 7.11328 96.4575C7.11226 96.1232 7.55059 95.5961 8.08678 95.2873L75.9241 56.6296Z" fill="white"/>
<path d="M16.9595 49.5766C18.7526 48.5409 20.2052 49.3798 20.2052 51.4502C20.2052 53.5205 18.7526 56.0374 16.9605 57.071C15.1685 58.1047 13.7148 57.2667 13.7148 55.1974C13.7148 53.1281 15.1675 50.6153 16.9595 49.5766Z" fill="#FAFAFA"/>
<path d="M16.8035 50.7224C17.3387 50.4166 17.7739 50.6632 17.7739 51.282C17.7739 51.9008 17.3387 52.6541 16.8035 52.9599C16.2683 53.2657 15.832 53.019 15.832 52.4003C15.832 51.7815 16.2673 51.0312 16.8035 50.7224Z" fill="#377DF7"/>
<path d="M18.7166 54.2658C18.7166 53.2464 18.0031 52.7979 17.1223 53.3066L16.5719 53.6236C15.6911 54.1333 14.9766 55.3688 14.9766 56.3862V56.6593C14.9766 56.6593 15.3527 57.4331 16.8471 56.5493C18.3415 55.6655 18.7166 54.5013 18.7166 54.5013V54.2658Z" fill="#377DF7"/>
<path d="M9.51137 64.7337V64.2842L9.3289 64.3892V64.6216L9.04348 64.4432L8.31055 65.748L8.57762 65.5941V66.5737L8.89771 66.3892V65.7888L9.19027 65.6206V66.22L9.51035 66.0355V65.0548L9.77844 64.9009L9.51137 64.7337Z" fill="#FAFAFA"/>
<path d="M9.00559 70.0141L8.31445 69.645L9.77624 68.801L9.08408 69.9692C9.06064 70.009 9.02903 70.0263 9.00559 70.0141Z" fill="#FAFAFA"/>
<path d="M9.0902 70.2068L9.77624 68.8511V70.2507L8.31445 71.0947V69.6951L9.00049 70.2588C9.02598 70.2792 9.06471 70.2568 9.0902 70.2068Z" fill="#FAFAFA"/>
<path d="M9.0473 73.0416C8.63955 73.275 8.31641 73.8999 8.31641 74.4392C8.31641 74.9784 8.64362 75.2251 9.0473 74.9917C9.45097 74.7582 9.77921 74.1333 9.77921 73.5941C9.77921 73.0548 9.45097 72.8071 9.0473 73.0416ZM9.17472 74.5707C9.17437 74.5856 9.17053 74.6003 9.16351 74.6135C9.15736 74.6263 9.14785 74.6372 9.13598 74.6451L8.95351 74.747C8.94958 74.7501 8.94474 74.7517 8.93975 74.7517C8.93477 74.7517 8.92993 74.7501 8.92599 74.747C8.92177 74.7434 8.91853 74.7388 8.91656 74.7337C8.9146 74.7285 8.91399 74.7229 8.91478 74.7174V74.5227C8.91465 74.5077 8.91852 74.493 8.92599 74.4799C8.93213 74.4671 8.94165 74.4562 8.95351 74.4483L9.13598 74.3464C9.13998 74.3435 9.1448 74.3419 9.14974 74.3419C9.15469 74.3419 9.1595 74.3435 9.16351 74.3464C9.1674 74.3502 9.17042 74.3548 9.17236 74.3599C9.1743 74.365 9.1751 74.3705 9.17472 74.376V74.5707ZM9.42243 73.6288C9.41135 73.672 9.39669 73.7143 9.37859 73.7552C9.36094 73.7929 9.3412 73.8297 9.31947 73.8652C9.29806 73.8999 9.27768 73.9335 9.25831 73.9672C9.23894 74.0008 9.22059 74.0334 9.20428 74.0691C9.18924 74.1016 9.17828 74.1359 9.17166 74.1711C9.16908 74.1865 9.16463 74.2016 9.15841 74.2159C9.15337 74.2285 9.14444 74.2393 9.13292 74.2465L8.95657 74.3484C8.95264 74.3515 8.9478 74.3531 8.94281 74.3531C8.93783 74.3531 8.93298 74.3515 8.92905 74.3484C8.9249 74.3448 8.92171 74.3402 8.91975 74.335C8.9178 74.3299 8.91714 74.3243 8.91784 74.3189C8.91771 74.2763 8.92425 74.234 8.9372 74.1935C8.95017 74.1526 8.96618 74.1127 8.98512 74.0742C9.00448 74.0345 9.02589 73.9978 9.04832 73.9611C9.07074 73.9244 9.09215 73.8907 9.11152 73.8591C9.12927 73.8292 9.14526 73.7982 9.15943 73.7664C9.17187 73.7406 9.17849 73.7124 9.1788 73.6838C9.1788 73.6471 9.1686 73.6237 9.1472 73.6145C9.12937 73.6112 9.11104 73.6117 9.09345 73.6161C9.07586 73.6205 9.05943 73.6287 9.04526 73.64C9.00824 73.6588 8.97613 73.686 8.95148 73.7195C8.93449 73.7445 8.92079 73.7715 8.9107 73.8C8.90153 73.8255 8.89439 73.8489 8.88827 73.8703C8.88572 73.8804 8.88103 73.8898 8.87452 73.8979C8.86801 73.906 8.85984 73.9126 8.85056 73.9172L8.67421 74.0192C8.67088 74.0214 8.66698 74.0225 8.66299 74.0225C8.65901 74.0225 8.65511 74.0214 8.65178 74.0192C8.64833 74.016 8.6457 74.012 8.6441 74.0075C8.64251 74.0031 8.64199 73.9984 8.64261 73.9937C8.64528 73.9396 8.65522 73.8861 8.67217 73.8347C8.69174 73.7712 8.71805 73.71 8.75066 73.6522C8.78572 73.5892 8.82778 73.5304 8.87604 73.4769C8.92478 73.422 8.98189 73.3752 9.04526 73.3382C9.09222 73.3104 9.14358 73.2907 9.19714 73.2801C9.23885 73.2726 9.28183 73.2764 9.32151 73.2913C9.35745 73.3068 9.38696 73.3342 9.4051 73.3688C9.42714 73.4127 9.43766 73.4614 9.43568 73.5105C9.43739 73.5508 9.43431 73.5912 9.4265 73.6308L9.42243 73.6288Z" fill="#FAFAFA"/>
<path d="M9.74989 78.1732L9.59903 78.165C9.58883 78.165 9.58068 78.1497 9.5817 78.1324C9.58281 78.0905 9.58077 78.0486 9.57558 78.007C9.5736 77.9892 9.57678 77.9711 9.58475 77.955L9.73358 77.744C9.73742 77.7368 9.73943 77.7287 9.73943 77.7206C9.73943 77.7124 9.73742 77.7043 9.73358 77.6971L9.65917 77.5371C9.65203 77.5228 9.6398 77.5177 9.63165 77.5269L9.46549 77.7022C9.46112 77.7065 9.45527 77.7088 9.44918 77.7088C9.44309 77.7088 9.43724 77.7065 9.43287 77.7022C9.41086 77.6841 9.38607 77.6697 9.35947 77.6594C9.35367 77.6552 9.34923 77.6494 9.34669 77.6427C9.34416 77.636 9.34364 77.6287 9.3452 77.6217L9.3819 77.3842C9.3819 77.3679 9.3819 77.3546 9.36763 77.3567L9.1923 77.377C9.18108 77.377 9.16987 77.3913 9.16477 77.4066L9.0924 77.6553C9.08793 77.6699 9.07857 77.6825 9.06589 77.691C9.02665 77.7124 8.98946 77.7373 8.95478 77.7654C8.95213 77.767 8.94919 77.768 8.94612 77.7684C8.94306 77.7688 8.93995 77.7686 8.93698 77.7677C8.93401 77.7669 8.93125 77.7654 8.92888 77.7634C8.92651 77.7615 8.92457 77.759 8.92318 77.7562L8.84163 77.6309C8.83348 77.6176 8.82023 77.6156 8.81207 77.6309L8.63776 77.8439C8.63435 77.8514 8.63259 77.8596 8.63259 77.8679C8.63259 77.8761 8.63435 77.8843 8.63776 77.8918L8.68975 78.0539C8.696 78.0707 8.696 78.0891 8.68975 78.1059C8.66169 78.1556 8.63683 78.207 8.61533 78.2598C8.6129 78.2666 8.60911 78.2728 8.6042 78.278C8.5993 78.2833 8.59337 78.2875 8.58679 78.2904L8.41961 78.3363C8.4131 78.3397 8.40749 78.3447 8.40324 78.3507C8.39898 78.3567 8.39621 78.3636 8.39515 78.3709L8.33398 78.64C8.33398 78.6564 8.33398 78.6696 8.34724 78.6696L8.49708 78.6778C8.5083 78.6778 8.51543 78.693 8.51543 78.7104C8.51429 78.7523 8.51634 78.7942 8.52155 78.8358C8.52365 78.8536 8.52046 78.8717 8.51237 78.8877L8.35947 79.0937C8.35595 79.101 8.35412 79.109 8.35412 79.1171C8.35412 79.1252 8.35595 79.1332 8.35947 79.1406L8.43388 79.3006C8.44102 79.3159 8.45325 79.32 8.46141 79.3108L8.62756 79.1365C8.63194 79.1322 8.63779 79.1299 8.64387 79.1299C8.64996 79.1299 8.65581 79.1322 8.66018 79.1365C8.68217 79.1549 8.70694 79.1697 8.73358 79.1803C8.7394 79.1843 8.74388 79.1899 8.74643 79.1964C8.74898 79.203 8.74948 79.2102 8.74785 79.217L8.71115 79.4545C8.71115 79.4718 8.71115 79.4841 8.72542 79.4831L8.90076 79.4617C8.91095 79.4617 8.92318 79.4474 8.92828 79.4321L9.00065 79.1844C9.00513 79.1695 9.01447 79.1566 9.02716 79.1477C9.06662 79.1267 9.10385 79.1018 9.13827 79.0733C9.14098 79.0717 9.14399 79.0707 9.1471 79.0704C9.15021 79.0701 9.15335 79.0704 9.15633 79.0714C9.1593 79.0723 9.16204 79.0739 9.16438 79.076C9.16671 79.0781 9.16858 79.0806 9.16987 79.0835L9.25142 79.2089C9.25958 79.2211 9.27283 79.2231 9.28098 79.2089L9.45529 78.9958C9.45952 78.9886 9.46216 78.9807 9.46304 78.9724C9.46392 78.9641 9.46302 78.9558 9.46039 78.9479L9.4084 78.7858C9.40222 78.7694 9.40222 78.7513 9.4084 78.7348C9.43606 78.6846 9.4609 78.6329 9.48282 78.5799C9.48525 78.5731 9.48904 78.5669 9.49395 78.5617C9.49885 78.5564 9.50478 78.5522 9.51136 78.5493L9.67752 78.5034C9.68433 78.5003 9.69023 78.4954 9.69469 78.4894C9.69914 78.4833 9.702 78.4762 9.703 78.4688L9.76315 78.1997C9.7662 78.1874 9.76009 78.1732 9.74989 78.1732ZM9.33603 78.3842C9.28098 78.6298 9.10565 78.8449 8.94561 78.8643C8.78557 78.8837 8.69994 78.6992 8.75499 78.4566C8.81003 78.2139 8.98536 77.9958 9.14541 77.9774C9.30545 77.9591 9.39107 78.1385 9.33603 78.3842Z" fill="#FAFAFA"/>
<path d="M9.74637 84.1529C9.72692 84.1409 9.7045 84.1345 9.68165 84.1345C9.65879 84.1345 9.63637 84.1409 9.61692 84.1529L8.73313 84.6626C8.71367 84.6738 8.69756 84.69 8.68645 84.7095C8.67534 84.7291 8.66964 84.7512 8.66993 84.7737V85.2925L8.79429 85.2212V84.7737L9.68317 84.264V85.8746L8.79429 86.3843V85.9673L8.66993 86.0387V86.3843C8.66964 86.4067 8.67534 86.4289 8.68645 86.4484C8.69756 86.4679 8.71367 86.4841 8.73313 86.4954C8.75281 86.5067 8.77514 86.5127 8.79786 86.5127C8.82059 86.5127 8.84291 86.5067 8.86259 86.4954L9.74637 85.9857C9.76583 85.9745 9.78195 85.9582 9.79305 85.9387C9.80416 85.9192 9.80987 85.897 9.80957 85.8746V84.2619C9.80982 84.2398 9.80408 84.2179 9.79296 84.1987C9.78184 84.1795 9.76574 84.1637 9.74637 84.1529Z" fill="#FAFAFA"/>
<path d="M8.88457 85.3301L8.52371 85.534C8.5023 85.5462 8.48599 85.534 8.48599 85.5115V85.274C8.48599 85.2496 8.47478 85.2465 8.46153 85.2669L7.96407 86.0375C7.96071 86.042 7.95846 86.0471 7.95753 86.0526C7.95659 86.0581 7.95699 86.0637 7.95869 86.069C7.96039 86.0743 7.96334 86.0792 7.96729 86.0831C7.97124 86.087 7.97608 86.0899 7.9814 86.0916L8.4442 86.2842C8.44872 86.2866 8.4538 86.2877 8.45891 86.2875C8.46402 86.2872 8.46897 86.2856 8.47324 86.2828C8.47751 86.28 8.48095 86.2761 8.48319 86.2715C8.48544 86.2669 8.4864 86.2618 8.48599 86.2567V86.0182C8.4865 86.0048 8.49018 85.9917 8.49674 85.98C8.5033 85.9683 8.51254 85.9583 8.52371 85.9509L8.88457 85.747C8.8958 85.7398 8.90516 85.73 8.91189 85.7185C8.91862 85.707 8.92253 85.6941 8.92331 85.6807V85.3525C8.92331 85.327 8.90598 85.3179 8.88457 85.3301Z" fill="#FAFAFA"/>
<path d="M75.9241 59.5432C76.4603 59.2374 76.8996 59.2557 76.9006 59.5901C76.9017 59.9244 76.4633 60.4504 75.9271 60.7593L8.09086 99.4211C7.55365 99.7269 7.1143 99.7086 7.11328 99.3742C7.11226 99.0399 7.55059 98.5139 8.08678 98.205L75.9241 59.5432Z" fill="white"/>
<path d="M58.0984 57.6338C57.5765 57.9529 57.3696 58.0833 56.8589 58.3841C56.8405 58.6471 56.3594 65.7878 56.3594 65.7878L58.6407 65.8744C58.6407 65.8744 57.812 59.9508 58.0984 57.6338Z" fill="#FFC4BA"/>
<path d="M56.1798 106.477C56.3338 107.112 56.4958 108.063 56.3164 108.546C56.1248 108.729 55.4805 108.835 54.9199 108.905C54.4028 108.964 53.9002 109.114 53.4347 109.347C52.345 109.781 50.4296 109.936 49.663 108.947C48.9025 107.629 52.8669 107.963 53.3541 106.44C53.5356 105.889 55.4602 106.627 56.1798 106.477Z" fill="black"/>
<path d="M66.5707 103.304C66.9089 103.751 67.2042 104.228 67.4525 104.731C67.5574 104.95 67.589 105.197 67.5425 105.436C67.4961 105.675 67.3741 105.892 67.1946 106.056C66.978 106.246 66.7322 106.4 66.4667 106.513C65.9795 106.726 65.1099 106.668 63.7022 106.717C60.6369 106.818 61.3505 105.225 62.5972 105.158C64.4565 105.056 64.534 103.636 65.2098 103.852C65.7644 104.024 65.9723 103.731 66.5707 103.304Z" fill="black"/>
<path d="M52.9941 78.2405C52.9941 78.2405 56.8678 89.3282 57.4712 91.2885C58.0747 92.6952 63.4519 105.007 63.4519 105.007C65.8138 105.356 66.8709 103.396 66.8709 103.396C66.8709 103.396 62.9493 93.1438 61.7434 90.2294C61.2796 87.7411 60.9391 83.3679 60.8423 82.0275C60.8226 81.7743 60.7885 81.5224 60.7404 81.2731C60.4814 79.8786 60.2949 78.3964 58.2337 76.0366L58.4559 75.9041L52.9941 78.2405Z" fill="#414042"/>
<g style="mix-blend-mode:soft-light" opacity="0.2">
<g style="mix-blend-mode:soft-light" opacity="0.2">
<path d="M52.9863 78.2546C52.9863 78.2546 56.8599 89.3434 57.4644 91.3026C58.0669 92.7104 63.4441 105.022 63.4441 105.022C65.806 105.374 66.861 103.414 66.861 103.414C66.861 103.414 62.9415 93.162 61.7356 90.2476C61.2698 87.7481 60.9283 83.3464 60.8335 82.0274C60.816 81.7919 60.7867 81.5575 60.7458 81.325C60.5042 79.9662 60.4767 78.7868 58.4012 76.4116L58.4532 75.9233L52.9863 78.2546Z" fill="#110E1E"/>
</g>
</g>
<path d="M58.4607 75.9041L50.8867 76.7777C50.8867 76.7777 50.955 82.8277 51.324 87.7095C51.7318 93.105 52.6492 106.914 52.6492 106.914C54.6084 107.265 56.4056 106.624 56.4056 106.624C56.4056 106.624 56.3709 93.6698 56.3709 92.5403C56.3709 90.8074 56.6278 87.7869 56.9367 84.5341C59.792 80.7206 58.6982 77.5514 58.4607 75.9041Z" fill="#414042"/>
<path d="M36.8154 66.3065C36.4433 65.8845 36.4015 65.7724 35.8439 65.5094C35.2863 65.2464 35.114 65.2036 34.8459 64.8774C34.5779 64.5512 34.4881 63.7561 34.4759 63.5369C34.3923 62.0079 34.9061 61.755 35.0875 61.5593L35.0998 62.5267C35.6625 63.3208 36.5972 63.2403 36.6961 63.1292C36.795 63.0181 36.7766 62.4452 36.9591 62.119C37.1416 61.7928 37.5238 61.6735 37.4922 61.9946C37.4759 62.1791 37.32 62.8835 37.3291 63.174C37.3383 63.4645 37.4056 64.175 37.6278 64.5614C37.9204 65.0772 39.164 65.7133 39.164 65.7133" fill="#FFC4BA"/>
<path d="M57.4082 58.071C57.5305 57.9501 57.6196 57.7998 57.6669 57.6344C57.7143 57.4691 57.7182 57.2944 57.6783 57.1271C57.5927 56.6765 57.6569 56.3839 57.9026 56.3391C58.084 56.3054 58.1065 56.6306 58.1646 56.8906C58.2227 57.1505 58.4378 57.8406 58.3766 58.2953C58.3305 58.6986 58.2135 59.0907 58.031 59.4533C58.031 59.4533 58.0117 59.2117 57.7079 58.8254C57.5303 58.6122 57.4253 58.348 57.4082 58.071Z" fill="#FFC4BA"/>
<path d="M55.3574 66.2058C55.5093 66.1671 55.9772 66.5279 56.0037 65.0019C56.021 64.007 56.0037 59.64 56.0037 59.64C56.7481 59.4956 57.51 59.4647 58.2637 59.5483C58.2637 59.5483 58.6113 63.9754 58.7489 65.6299C58.9528 68.1416 58.7489 69.5035 58.3758 70.2782L55.3574 66.2058Z" fill="#7C7C85"/>
<path d="M52.4746 64.9438L52.6061 67.8123L56.0047 67.954L55.5643 64.2874L52.4746 64.9438Z" fill="#FFC4BA"/>
<path d="M50.2925 59.6288C49.4301 58.5075 51.0346 57.5961 51.3812 57.4381C53.2456 56.5941 54.8124 56.9631 55.107 57.0508C57.5973 57.7857 57.8827 60.5166 57.107 62.4596C56.4291 64.1528 54.0132 63.7532 54.0366 64.8276L54.0193 64.8062C53.6319 64.342 53.2453 63.8779 52.8593 63.4137L51.9765 62.3546C51.7013 62.0243 51.6513 60.8673 51.6299 60.4178C51.6248 60.3056 50.8185 60.2873 50.2925 59.6288Z" fill="#263238"/>
<path d="M52.6074 58.5767C51.9957 58.8601 50.9866 58.8203 50.6226 61.014C50.2495 63.2658 51.1405 64.749 51.5197 64.9478C51.851 65.1211 52.1782 65.1445 52.743 64.9947C53.4565 64.8081 55.0631 64.2597 55.8276 63.1231C56.7267 61.7846 56.9805 59.963 56.0447 59.1995C54.7318 58.1281 53.1252 58.3371 52.6074 58.5767Z" fill="#FFC4BA"/>
<path d="M52.332 58.4432C52.2087 58.4942 51.9396 58.4708 51.8397 58.5594C51.5889 58.7796 51.0242 58.7042 50.8438 60.1007C52.118 60.3525 51.8825 62.8235 52.381 62.0376C52.381 62.0376 52.7826 61.2475 53.4646 61.5095C54.1465 61.7715 54.0466 62.7001 53.4778 63.1517C52.909 63.6033 52.594 63.2343 52.594 63.2343C52.594 63.2343 52.5339 64.3556 53.3861 64.8266C53.3861 64.8266 54.5258 65.0885 55.643 64.6482C56.115 64.3179 56.539 63.8184 56.9815 62.9805C58.1925 60.6828 57.3484 57.9784 55.066 57.0498C54.3657 56.7653 55.0222 57.8938 54.2689 57.9784C53.9888 58.0108 53.7126 58.0705 53.4442 58.1568C53.3331 58.1925 53.224 58.2332 53.116 58.2791C52.99 58.3206 52.8582 58.3416 52.7255 58.3413C52.5901 58.3558 52.4575 58.3902 52.332 58.4432Z" fill="#263238"/>
<path d="M58.5014 70.907C58.7919 73.9284 61.3403 82.2893 61.3403 82.2893C61.3403 82.2893 59.8357 83.5197 57.0692 84.2486C54.9193 84.8153 50.8378 84.5544 50.8378 84.5544C50.8378 84.5544 49.9784 71.6481 49.957 71.5502C52.6869 70.3269 52.0977 66.7204 52.0977 66.7204C52.3984 66.6419 53.1609 66.4758 53.2445 66.4615C54.8561 66.1862 55.3536 66.1251 55.9876 66.1873C57.2802 66.3137 58.1752 67.5145 58.5014 70.907Z" fill="#9797A1"/>
<path d="M52.0987 66.7215C51.3943 66.7531 51.1935 66.7419 50.3005 66.9886C49.4076 67.2353 46.8285 68.327 46.8285 68.327L43.4259 69.5503L38.6766 64.801C38.6766 64.801 37.91 64.8887 37.169 65.6298C36.7673 66.0375 36.541 66.7857 36.541 66.7857L41.8336 73.0263C42.0511 73.2827 42.3402 73.4682 42.6639 73.559C42.9876 73.6499 43.331 73.6418 43.6501 73.536C45.3168 72.9845 48.7052 72.1823 50.1823 71.7756C50.1823 71.7756 51.0763 71.3535 51.746 70.0834C52.4157 68.8133 52.3342 67.1904 52.0987 66.7215Z" fill="#7C7C85"/>
<path d="M106.654 47.4461L98.5342 52.1251C98.4394 52.1863 98.3605 52.2692 98.304 52.3668C98.2475 52.4644 98.2149 52.5741 98.209 52.6867V63.7979C98.2156 63.9103 98.2487 64.0194 98.3056 64.1165C98.3625 64.2136 98.4415 64.2958 98.5362 64.3566L99.8257 65.0905C99.9268 65.141 100.038 65.1673 100.151 65.1673C100.264 65.1673 100.376 65.141 100.477 65.0905L108.597 60.4116C108.692 60.3502 108.771 60.2673 108.827 60.1697C108.883 60.0721 108.916 59.9625 108.922 59.8499V48.7357C108.915 48.6233 108.883 48.514 108.826 48.4169C108.769 48.3197 108.69 48.2375 108.595 48.177L107.305 47.4431C107.204 47.3933 107.092 47.3676 106.979 47.3682C106.866 47.3687 106.755 47.3954 106.654 47.4461Z" fill="#5E99FF"/>
<path d="M100.477 65.0824C100.376 65.1317 100.264 65.1573 100.151 65.1573C100.039 65.1573 99.9272 65.1317 99.8257 65.0824L98.5362 64.3474C98.441 64.2874 98.3617 64.2055 98.3047 64.1084C98.2478 64.0114 98.215 63.9022 98.209 63.7898V52.6868C98.2132 52.5693 98.2484 52.455 98.3109 52.3555L100.248 53.4696C100.189 53.5659 100.156 53.6759 100.152 53.7887V64.8938C100.152 65.0834 100.285 65.1925 100.477 65.0824Z" fill="#276CE3"/>
<path d="M108.598 48.5482L100.478 53.2271C100.383 53.2884 100.304 53.3712 100.247 53.4689C100.191 53.5665 100.158 53.6761 100.152 53.7888V64.9C100.152 65.1039 100.298 65.1905 100.478 65.0876L108.598 60.4086C108.692 60.3473 108.771 60.2644 108.827 60.1667C108.884 60.0691 108.916 59.9595 108.922 59.847V48.7358C108.922 48.5288 108.777 48.4452 108.598 48.5482Z" fill="#377DF7"/>
<path d="M107.677 56.1362L107.022 56.1026C106.976 56.1026 106.941 56.0363 106.943 55.9599C106.948 55.7774 106.94 55.5948 106.919 55.4135C106.908 55.3356 106.923 55.2564 106.96 55.1872L107.608 54.2697C107.625 54.2387 107.635 54.204 107.636 54.1685C107.637 54.1331 107.629 54.0979 107.614 54.0659L107.291 53.3686C107.261 53.3044 107.207 53.284 107.17 53.3227L106.448 54.0862C106.438 54.0958 106.427 54.1034 106.415 54.1086C106.402 54.1137 106.389 54.1164 106.376 54.1164C106.362 54.1164 106.349 54.1137 106.336 54.1086C106.324 54.1034 106.313 54.0958 106.303 54.0862C106.208 54.0069 106.101 53.9433 105.986 53.8977C105.96 53.8807 105.94 53.8558 105.929 53.8267C105.918 53.7976 105.916 53.7657 105.924 53.7356L106.083 52.7009C106.094 52.6275 106.067 52.5725 106.021 52.5786L105.255 52.6693C105.226 52.6792 105.2 52.6964 105.179 52.7192C105.159 52.7421 105.144 52.7698 105.137 52.7998L104.82 53.8773C104.802 53.9421 104.762 53.9987 104.707 54.0373C104.535 54.1284 104.372 54.2359 104.221 54.3584C104.181 54.391 104.119 54.3737 104.083 54.3176L103.728 53.7723C103.692 53.7162 103.633 53.707 103.599 53.7509L102.841 54.6795C102.824 54.7101 102.813 54.744 102.809 54.7791C102.805 54.8142 102.808 54.8497 102.819 54.8834L103.044 55.5898C103.066 55.6645 103.062 55.7446 103.031 55.8161C102.91 56.0334 102.801 56.2578 102.707 56.4879C102.696 56.5173 102.679 56.5443 102.657 56.5672C102.636 56.5901 102.61 56.6085 102.581 56.6214L101.856 56.8253C101.827 56.8398 101.802 56.8608 101.783 56.8867C101.764 56.9125 101.752 56.9425 101.747 56.9741L101.484 58.1464C101.467 58.2168 101.492 58.2759 101.539 58.2779L102.194 58.3116C102.24 58.3116 102.274 58.3778 102.273 58.4553C102.268 58.6378 102.276 58.8204 102.297 59.0017C102.307 59.0792 102.293 59.158 102.256 59.227L101.608 60.1444C101.591 60.1755 101.582 60.2101 101.58 60.2455C101.579 60.2809 101.586 60.316 101.601 60.3483L101.924 61.0445C101.955 61.1087 102.009 61.1291 102.046 61.0904L102.768 60.3279C102.777 60.3183 102.789 60.3107 102.801 60.3056C102.814 60.3004 102.827 60.2977 102.84 60.2977C102.854 60.2977 102.867 60.3004 102.88 60.3056C102.892 60.3107 102.903 60.3183 102.913 60.3279C103.008 60.4072 103.115 60.4708 103.23 60.5165C103.256 60.5336 103.276 60.5584 103.287 60.5875C103.298 60.6166 103.3 60.6484 103.292 60.6786L103.133 61.7132C103.122 61.7866 103.149 61.8417 103.195 61.8366L103.961 61.7458C103.99 61.7356 104.016 61.7183 104.036 61.6955C104.057 61.6728 104.072 61.6452 104.079 61.6154L104.396 60.5348C104.414 60.4701 104.454 60.4136 104.509 60.3748C104.681 60.2841 104.844 60.1765 104.995 60.0537C105.007 60.0465 105.02 60.0418 105.033 60.04C105.046 60.0382 105.06 60.0393 105.073 60.0431C105.086 60.047 105.098 60.0536 105.108 60.0624C105.118 60.0713 105.126 60.0822 105.132 60.0945L105.488 60.6398C105.524 60.6959 105.583 60.7051 105.617 60.6612L106.374 59.7326C106.392 59.7022 106.403 59.6683 106.407 59.6332C106.411 59.598 106.408 59.5624 106.397 59.5287L106.172 58.8223C106.149 58.748 106.154 58.6682 106.185 58.597C106.306 58.3793 106.414 58.1547 106.509 57.9242C106.52 57.8948 106.537 57.8678 106.558 57.8449C106.58 57.822 106.606 57.8036 106.635 57.7907L107.359 57.5868C107.388 57.5721 107.413 57.551 107.432 57.5252C107.451 57.4994 107.464 57.4696 107.469 57.438L107.732 56.2647C107.749 56.1974 107.724 56.1393 107.677 56.1362ZM105.873 57.0588C105.632 58.1291 104.871 59.0639 104.173 59.1464C103.474 59.229 103.102 58.4278 103.343 57.3574C103.584 56.2871 104.345 55.3523 105.043 55.2697C105.742 55.1872 106.118 55.9884 105.873 57.0588Z" fill="#FAFAFA"/>
<path d="M106.654 26.8496L98.5342 31.5285C98.4394 31.5898 98.3605 31.6726 98.304 31.7702C98.2475 31.8679 98.2149 31.9775 98.209 32.0902V43.2014C98.2156 43.3137 98.2487 43.4228 98.3056 43.5199C98.3625 43.617 98.4415 43.6993 98.5362 43.76L99.8257 44.4929C99.9268 44.5437 100.038 44.5701 100.151 44.5701C100.264 44.5701 100.376 44.5437 100.477 44.4929L108.597 39.8099C108.692 39.7485 108.771 39.6656 108.827 39.568C108.883 39.4704 108.916 39.3608 108.922 39.2482V28.1391C108.916 28.0267 108.883 27.9174 108.826 27.8202C108.769 27.723 108.69 27.6408 108.595 27.5805L107.305 26.8465C107.204 26.7965 107.092 26.7707 106.979 26.7712C106.866 26.7718 106.755 26.7986 106.654 26.8496Z" fill="#5E99FF"/>
<path d="M100.477 44.4848C100.376 44.5343 100.264 44.5601 100.151 44.5601C100.039 44.5601 99.9272 44.5343 99.8257 44.4848L98.5362 43.7498C98.441 43.6898 98.3617 43.6079 98.3047 43.5108C98.2478 43.4138 98.215 43.3046 98.209 43.1922V32.0811C98.2132 31.9636 98.2484 31.8493 98.3109 31.7498L100.248 32.8639C100.189 32.9602 100.156 33.0701 100.152 33.183V44.2952C100.152 44.4868 100.285 44.601 100.477 44.4848Z" fill="#276CE3"/>
<path d="M108.598 27.9515L100.478 32.6305C100.383 32.6917 100.304 32.7745 100.247 32.8722C100.191 32.9698 100.158 33.0795 100.152 33.1921V44.2952C100.152 44.499 100.298 44.5857 100.478 44.4817L108.598 39.8099C108.692 39.7485 108.771 39.6657 108.827 39.568C108.884 39.4704 108.916 39.3608 108.922 39.2482V28.1391C108.922 27.9322 108.777 27.8486 108.598 27.9515Z" fill="#377DF7"/>
<path d="M101.77 37.7905C101.77 37.6671 101.813 37.5475 101.891 37.4521L101.961 37.3665C102.046 37.2597 102.105 37.1348 102.133 37.0015C102.167 36.863 102.185 36.7211 102.185 36.5785C102.183 36.2712 102.226 35.9653 102.312 35.6702C102.39 35.4035 102.5 35.1469 102.638 34.9057C102.762 34.691 102.912 34.4927 103.086 34.3155C103.231 34.1642 103.397 34.0333 103.578 33.9261C103.587 33.9183 103.598 33.9141 103.61 33.9141C103.622 33.9141 103.633 33.9183 103.642 33.9261C103.652 33.9376 103.659 33.9509 103.664 33.9652C103.668 33.9796 103.67 33.9947 103.669 34.0097V34.8863C103.669 34.9244 103.66 34.9619 103.644 34.9964C103.631 35.0252 103.613 35.0512 103.59 35.0729C103.514 35.1293 103.444 35.1931 103.38 35.2635C103.315 35.3357 103.258 35.415 103.21 35.5C103.159 35.5903 103.121 35.6874 103.098 35.7885C103.07 35.904 103.057 36.0224 103.058 36.1412C103.058 36.2775 103.05 36.4137 103.034 36.5489C103.019 36.6703 102.995 36.7905 102.964 36.9088C102.938 37.0069 102.904 37.1027 102.862 37.1952C102.835 37.2639 102.797 37.3279 102.75 37.3848C102.773 37.3863 102.795 37.393 102.814 37.4045C102.834 37.416 102.85 37.432 102.862 37.4511C102.906 37.5074 102.941 37.5704 102.964 37.6376C102.997 37.7299 103.02 37.8252 103.034 37.922C103.051 38.0409 103.059 38.1608 103.059 38.2809C103.056 38.3843 103.069 38.4875 103.099 38.5867C103.116 38.6514 103.156 38.7078 103.211 38.7457C103.262 38.7761 103.322 38.7899 103.381 38.7855C103.453 38.78 103.524 38.7628 103.591 38.7345C103.6 38.7311 103.611 38.7305 103.62 38.7329C103.63 38.7353 103.638 38.7404 103.645 38.7477C103.664 38.7707 103.672 38.8 103.67 38.8293V39.708C103.669 39.7478 103.66 39.7871 103.643 39.8232C103.63 39.855 103.607 39.8823 103.579 39.9017C103.428 39.9917 103.26 40.0523 103.087 40.0801C102.933 40.1072 102.775 40.081 102.639 40.0057C102.492 39.9144 102.378 39.7788 102.313 39.6183C102.218 39.376 102.175 39.1167 102.186 38.8568C102.188 38.7335 102.171 38.6107 102.134 38.4929C102.1 38.391 102.043 38.3318 101.962 38.3267H101.892C101.811 38.3176 101.771 38.2513 101.771 38.1229L101.77 37.7905Z" fill="white"/>
<path d="M107.303 34.9281C107.303 35.0514 107.261 35.171 107.183 35.2665L107.112 35.3511C107.028 35.4583 106.969 35.5835 106.94 35.7171C106.906 35.8556 106.889 35.9976 106.888 36.1401C106.89 36.4475 106.847 36.7535 106.761 37.0484C106.683 37.315 106.573 37.5713 106.434 37.8119C106.312 38.0272 106.162 38.2256 105.988 38.4021C105.842 38.5534 105.676 38.6847 105.496 38.7925C105.487 38.8003 105.475 38.8045 105.464 38.8045C105.452 38.8045 105.44 38.8003 105.431 38.7925C105.421 38.7814 105.414 38.7683 105.409 38.754C105.405 38.7398 105.403 38.7248 105.405 38.71V37.8333C105.405 37.7952 105.413 37.7576 105.429 37.7232C105.441 37.6939 105.46 37.6677 105.483 37.6468C105.56 37.59 105.63 37.5258 105.693 37.4551C105.759 37.3834 105.816 37.3044 105.864 37.2196C105.914 37.1288 105.952 37.0314 105.976 36.9301C106.003 36.815 106.017 36.6969 106.015 36.5785C106.015 36.3261 106.047 36.0747 106.109 35.8302C106.136 35.7284 106.17 35.6286 106.211 35.5316C106.238 35.4605 106.276 35.3941 106.323 35.3348C106.301 35.334 106.28 35.3282 106.26 35.3177C106.241 35.3073 106.224 35.2926 106.211 35.2747C106.167 35.2233 106.133 35.1647 106.109 35.1014C106.076 35.0107 106.053 34.9167 106.04 34.8211C106.023 34.6954 106.015 34.5687 106.015 34.4419C106.019 34.3384 106.005 34.2352 105.976 34.136C105.961 34.0741 105.925 34.0196 105.872 33.9831C105.82 33.9466 105.757 33.9306 105.693 33.9383C105.621 33.9434 105.55 33.9603 105.483 33.9882C105.474 33.9919 105.464 33.9926 105.454 33.9903C105.445 33.9879 105.436 33.9825 105.429 33.975C105.42 33.9637 105.413 33.9506 105.409 33.9366C105.405 33.9227 105.403 33.908 105.405 33.8934V33.0168C105.405 32.9772 105.414 32.9381 105.431 32.9026C105.445 32.8708 105.467 32.8435 105.496 32.8241C105.647 32.7336 105.814 32.6727 105.988 32.6447C106.141 32.6178 106.299 32.6445 106.434 32.7201C106.582 32.8108 106.696 32.9466 106.761 33.1075C106.856 33.3496 106.899 33.609 106.888 33.869C106.886 33.9919 106.904 34.1144 106.94 34.2319C106.975 34.3338 107.032 34.3929 107.112 34.398H107.183C107.263 34.4072 107.303 34.4735 107.303 34.5968V34.9281Z" fill="white"/>
<path d="M106.654 6.25326L98.5342 10.9312C98.4394 10.9924 98.3605 11.0753 98.304 11.1729C98.2475 11.2705 98.2149 11.3802 98.209 11.4928V22.604C98.2158 22.7162 98.249 22.8251 98.3058 22.922C98.3627 23.0189 98.4416 23.101 98.5362 23.1616L99.8257 23.8956C99.9268 23.9461 100.038 23.9724 100.151 23.9724C100.264 23.9724 100.376 23.9461 100.477 23.8956L108.597 19.2166C108.692 19.1553 108.771 19.0724 108.827 18.9748C108.883 18.8771 108.916 18.7675 108.922 18.655V7.54175C108.915 7.42941 108.883 7.32013 108.826 7.22298C108.769 7.12582 108.69 7.0436 108.595 6.98314L107.305 6.2502C107.204 6.19994 107.092 6.17404 106.979 6.17457C106.866 6.1751 106.755 6.20205 106.654 6.25326Z" fill="#5E99FF"/>
<path d="M100.477 23.8883C100.376 23.9377 100.264 23.9633 100.151 23.9633C100.039 23.9633 99.9272 23.9377 99.8257 23.8883L98.5362 23.1534C98.4412 23.0932 98.362 23.0112 98.3051 22.9142C98.2482 22.8172 98.2152 22.7081 98.209 22.5958V11.4846C98.2132 11.3671 98.2484 11.2529 98.3109 11.1533L100.248 12.2675C100.189 12.3638 100.156 12.4737 100.152 12.5866V23.7038C100.152 23.8894 100.285 23.9984 100.477 23.8883Z" fill="#276CE3"/>
<path d="M108.598 7.35525L100.478 12.0332C100.383 12.0944 100.304 12.1772 100.247 12.2749C100.191 12.3725 100.158 12.4822 100.152 12.5948V23.704C100.152 23.9078 100.298 23.9945 100.478 23.8915L108.598 19.2126C108.692 19.1512 108.771 19.0684 108.827 18.9707C108.884 18.8731 108.916 18.7635 108.922 18.6509V7.5418C108.922 7.33486 108.777 7.25128 108.598 7.35525Z" fill="#377DF7"/>
<path d="M101.198 17.5263C101.197 17.4668 101.207 17.4075 101.229 17.352C101.255 17.2951 101.285 17.2403 101.319 17.1879L102.98 14.5008C102.989 14.4898 102.998 14.4792 103.008 14.4692L103.026 14.456C103.035 14.4488 103.046 14.4448 103.057 14.4448C103.069 14.4448 103.08 14.4488 103.089 14.456C103.098 14.4672 103.105 14.4801 103.11 14.4941C103.114 14.5082 103.115 14.5229 103.114 14.5375V15.5742C103.116 15.6491 103.1 15.7234 103.066 15.7903C103.041 15.8393 103.012 15.8866 102.98 15.932L102.254 17.0533L102.98 17.3367C103.011 17.3464 103.039 17.3602 103.066 17.3775C103.098 17.3979 103.114 17.4509 103.114 17.5355V18.5722C103.114 18.6104 103.105 18.6481 103.089 18.6823C103.076 18.7132 103.055 18.7393 103.026 18.7567C103.021 18.7603 103.015 18.7627 103.008 18.7639C102.999 18.7659 102.99 18.7659 102.98 18.7639L101.319 17.9952C101.285 17.982 101.254 17.9614 101.229 17.9351C101.204 17.8934 101.193 17.8448 101.198 17.7965V17.5263Z" fill="white"/>
<path d="M104.821 12.9718C104.836 12.9142 104.857 12.8582 104.883 12.8047C104.909 12.7502 104.951 12.7048 105.003 12.6742L105.561 12.3531C105.57 12.3453 105.581 12.3411 105.593 12.3411C105.605 12.3411 105.616 12.3453 105.625 12.3531C105.635 12.3646 105.642 12.3779 105.647 12.3922C105.651 12.4066 105.653 12.4217 105.652 12.4367C105.651 12.4576 105.648 12.4784 105.644 12.4988L104.239 18.4856C104.226 18.5413 104.206 18.5954 104.181 18.6467C104.155 18.7039 104.111 18.7513 104.056 18.7823L103.512 19.0973C103.503 19.105 103.492 19.1093 103.48 19.1093C103.468 19.1093 103.457 19.105 103.448 19.0973C103.438 19.086 103.43 19.0727 103.425 19.0583C103.421 19.0439 103.419 19.0287 103.42 19.0137C103.421 18.9927 103.424 18.9718 103.43 18.9515L104.821 12.9718Z" fill="white"/>
<path d="M107.875 13.9401C107.877 13.9998 107.866 14.0592 107.843 14.1145C107.818 14.1715 107.789 14.2264 107.755 14.2786L106.092 16.9646C106.084 16.976 106.075 16.9866 106.066 16.9962C106.06 17.0017 106.053 17.0065 106.046 17.0105C106.038 17.0181 106.027 17.0223 106.015 17.0223C106.004 17.0223 105.993 17.0181 105.984 17.0105C105.965 16.9875 105.957 16.9583 105.959 16.9289V15.8902C105.957 15.8162 105.973 15.7428 106.007 15.6772C106.039 15.6211 106.068 15.5752 106.092 15.5385L106.819 14.4172L106.092 14.1399C106.062 14.1301 106.033 14.1152 106.007 14.0961C105.975 14.0737 105.959 14.0207 105.959 13.9351V12.8983C105.96 12.8603 105.968 12.8227 105.984 12.7883C105.997 12.7578 106.018 12.7319 106.046 12.7138L106.066 12.7057C106.074 12.7042 106.083 12.7042 106.092 12.7057L107.755 13.4733C107.789 13.4859 107.819 13.5066 107.843 13.5334C107.869 13.5748 107.88 13.6236 107.875 13.6721V13.9401Z" fill="white"/>
</svg>
