<svg id="teams" xmlns="http://www.w3.org/2000/svg" xmlns:xlink="http://www.w3.org/1999/xlink" width="1113.725" height="1084.906" viewBox="0 0 1113.725 1084.906">
  <defs>
    <clipPath id="clip-path">
      <rect id="Rectangle_11258" data-name="Rectangle 11258" width="1113.725" height="1084.906" fill="none"/>
    </clipPath>
    <clipPath id="clip-path-3">
      <path id="Path_3921" data-name="Path 3921" d="M175.2,586.15v640.233c0,17.763,15.819,31.291,35.171,30.16l913.462-53.369c14.8-.865,26.791-14.123,26.791-29.557v-556.3c0-15.434-11.991-28.427-26.791-28.964L210.375,555.211c-.471-.017-.937-.025-1.4-.025-18.706,0-33.767,13.634-33.767,30.964" transform="translate(-175.204 -555.186)" fill="none"/>
    </clipPath>
    <linearGradient id="linear-gradient" x1="-0.033" y1="1.148" x2="-0.032" y2="1.148" gradientUnits="objectBoundingBox">
      <stop offset="0" stop-color="#26264f"/>
      <stop offset="0.004" stop-color="#26264f"/>
      <stop offset="1" stop-color="#444b8c"/>
    </linearGradient>
    <clipPath id="clip-path-4">
      <path id="Path_3922" data-name="Path 3922" d="M1169.071,2182.266,1146.7,2297.222c-3.133,16.1,9.409,32.252,23.854,38.181l76.053,31.22a94.647,94.647,0,0,0,44.463,6.763L1451.8,2358.96a10.211,10.211,0,0,0,9.014-9.268c.547-4.971,3.839-10.553-.641-12.113l-59.477-17.68c-14.6-5.081-25.513-18.082-28.59-34.061l-21.25-110.346Z" transform="translate(-1146.215 -2175.494)" fill="none"/>
    </clipPath>
    <linearGradient id="linear-gradient-2" x1="-1.234" y1="0.877" x2="-1.233" y2="0.877" gradientUnits="objectBoundingBox">
      <stop offset="0" stop-color="#444b8c"/>
      <stop offset="0.996" stop-color="#26264f"/>
      <stop offset="1" stop-color="#26264f"/>
    </linearGradient>
    <clipPath id="clip-path-5">
      <path id="Path_3923" data-name="Path 3923" d="M1185.04,2169.553l-22.349,113.511c-3.13,15.9,5.151,31.839,19.582,37.694l75.977,30.828a95.565,95.565,0,0,0,44.418,6.678l160.566-14.245a10.14,10.14,0,0,0,9.005-9.151,10.422,10.422,0,0,0-6.754-11.082l-53.3-18.336c-14.585-5.017-25.487-17.854-28.561-33.633l-21.229-108.958Z" transform="translate(-1162.032 -2162.859)" fill="none"/>
    </clipPath>
    <clipPath id="clip-path-6">
      <path id="Path_3924" data-name="Path 3924" d="M193.869,586.15v640.233c0,17.763,15.819,31.291,35.171,30.16l913.462-53.369c14.8-.865,26.791-14.123,26.791-29.557v-556.3c0-15.434-11.991-28.427-26.791-28.964L229.04,555.211c-.471-.017-.937-.025-1.4-.025-18.706,0-33.767,13.634-33.767,30.964" transform="translate(-193.869 -555.186)" fill="none"/>
    </clipPath>
    <linearGradient id="linear-gradient-3" x1="0.004" y1="0.931" x2="0.004" y2="0.931" xlink:href="#linear-gradient-2"/>
    <clipPath id="clip-path-7">
      <path id="Path_3925" data-name="Path 3925" d="M236.232,610.291v638.82c0,9.489,8.41,16.706,18.757,16.123l913.462-51.528c7.931-.448,14.347-7.521,14.347-15.8V640.541c0-8.279-6.416-15.21-14.347-15.482L254.989,593.753c-.238-.008-.476-.012-.712-.012-10.019,0-18.045,7.28-18.045,16.55" transform="translate(-236.232 -593.741)" fill="none"/>
    </clipPath>
    <clipPath id="clip-path-9">
      <path id="Path_3927" data-name="Path 3927" d="M388.054,1327.794l842.285-36.989V867.46L388.054,849.781Z" transform="translate(-388.054 -849.781)" fill="none"/>
    </clipPath>
    <linearGradient id="linear-gradient-4" x1="-0.216" y1="1.035" x2="-0.216" y2="1.035" gradientUnits="objectBoundingBox">
      <stop offset="0" stop-color="#e38ddd"/>
      <stop offset="0.004" stop-color="#e38ddd"/>
      <stop offset="1" stop-color="#9571f6"/>
    </linearGradient>
    <clipPath id="clip-path-10">
      <path id="Path_3928" data-name="Path 3928" d="M388.054,743.1l842.285,19.547V726.49L388.054,702.275Z" transform="translate(-388.054 -702.275)" fill="none"/>
    </clipPath>
    <linearGradient id="linear-gradient-5" x1="-3.051" y1="1.428" x2="-3.048" y2="1.428" gradientUnits="objectBoundingBox">
      <stop offset="0" stop-color="#ff9085"/>
      <stop offset="1" stop-color="#fb6fbb"/>
    </linearGradient>
    <clipPath id="clip-path-12">
      <rect id="Rectangle_11211" data-name="Rectangle 11211" width="653.439" height="372.832" fill="none"/>
    </clipPath>
    <clipPath id="clip-path-13">
      <rect id="Rectangle_11212" data-name="Rectangle 11212" width="150.046" height="98.525" fill="none"/>
    </clipPath>
    <clipPath id="clip-path-14">
      <rect id="Rectangle_11213" data-name="Rectangle 11213" width="150.046" height="98.134" fill="none"/>
    </clipPath>
    <clipPath id="clip-path-15">
      <rect id="Rectangle_11214" data-name="Rectangle 11214" width="150.046" height="101.36" fill="none"/>
    </clipPath>
    <clipPath id="clip-path-16">
      <path id="Path_3946" data-name="Path 3946" d="M2151.487,1436.706c-15.226,18.061-43.673,59.276-33.4,70.248,14.608,15.6,109.411-27.867,107.1-67.945-.859-14.9-15.2-30.442-29.942-32.245a23.749,23.749,0,0,0-2.886-.177c-15.484,0-28.344,15.255-40.875,30.118" transform="translate(-2115.904 -1406.588)" fill="none"/>
    </clipPath>
    <linearGradient id="linear-gradient-6" x1="-5.688" y1="3.993" x2="-5.686" y2="3.993" gradientUnits="objectBoundingBox">
      <stop offset="0" stop-color="#ffc444"/>
      <stop offset="0.996" stop-color="#f36f56"/>
      <stop offset="1" stop-color="#f36f56"/>
    </linearGradient>
    <clipPath id="clip-path-17">
      <path id="Path_3947" data-name="Path 3947" d="M2376.733,2759.524c-1.371.365-5.9,1.572-12.593,3.777-3.62,1.191-5.492,1.89-7.017,3.812-.284.358-2.8,3.6-1.763,5.579.441.839,1.374,1.168,3.226,1.17h.033c2.818,0,7.747-.754,16.272-1.625,8.983-.918,14.711-1.229,15.646-4.182a6.33,6.33,0,0,0-.028-2.125c-.232-2.566-.588-6.493-2.522-8.065a2.338,2.338,0,0,0-1.63-.536c-1.442,0-3.985.691-9.626,2.2" transform="translate(-2355.11 -2757.328)" fill="none"/>
    </clipPath>
    <linearGradient id="linear-gradient-7" x1="-52.403" y1="0.725" x2="-52.381" y2="0.725" xlink:href="#linear-gradient-2"/>
    <clipPath id="clip-path-19">
      <path id="Path_3949" data-name="Path 3949" d="M2076.617,2748.082c-2.25.373-2.2.567-12.8,4.115-7.463,2.5-9.7,3.145-9.756,4.393-.083,1.774,4.306,3.441,6.791,4.128,6.151,1.7,8.514-.441,17.566-.711a62.119,62.119,0,0,1,6.733.178c3.573.265,5.35.53,6.678-1,2.016-2.323,1.488-7.037-.83-9.6-1.635-1.8-4.013-2.378-6.736-2.378a49.033,49.033,0,0,0-7.65.873" transform="translate(-2054.063 -2747.209)" fill="none"/>
    </clipPath>
    <linearGradient id="linear-gradient-8" x1="-31.83" y1="0.802" x2="-31.815" y2="0.802" xlink:href="#linear-gradient-2"/>
    <clipPath id="clip-path-21">
      <path id="Path_3951" data-name="Path 3951" d="M2155.447,2031.422a1414.624,1414.624,0,0,1-32.279,165.333l17.377,4.675c14.7-13.7,33.235-35.274,42.18-65.757,5.552-18.92,3.7-28.642,7.224-51.913,5.607-37.053,16.965-56.465,28.7-86.344,10.549-26.849,23.018-66.253,29.7-118.924l-80.487-16.892a1414.743,1414.743,0,0,1-12.424,169.822" transform="translate(-2123.168 -1861.6)" fill="#9f6ae5"/>
    </clipPath>
    <clipPath id="clip-path-22">
      <path id="Path_3952" data-name="Path 3952" d="M2373.488,1848.734q5.318,96.827,8.671,197.22,2.488,75.322,3.686,148.717l17.751,2.191a206.715,206.715,0,0,0,18.513-47.778c6.318-25.334,4.855-40.379,7.626-66.635,3.109-29.449,7.624-35.865,15.624-73.014,16.236-75.393,24.354-113.091,6.243-136.54-5.516-7.143-22.083-24.394-68.545-24.394q-4.589,0-9.57.232" transform="translate(-2373.488 -1848.502)" fill="#9f6ae5"/>
    </clipPath>
    <clipPath id="clip-path-23">
      <path id="Path_3953" data-name="Path 3953" d="M2236.679,1408.194c-29.029,19.51-6.555,64.542-18.437,176.168-1.7,15.941-2.078,32-3.306,47.98-2.035,26.465-2.5,27.9-.657,30.584,6.279,9.145,21.882,5.816,44.966,2.488,19.367-2.792,44-5.585,72.81-1.01,35.332,5.61,51.355,18.535,61.035,9.213,11.288-10.872,1.605-40.113-6.729-65.285-9.568-28.895-15.478-29.266-20.909-51.027-5.676-22.744-2.243-34.455-1.359-70.322a635.175,635.175,0,0,0-2.6-74.37,275.638,275.638,0,0,0-59.037-9.859c-13.575-.767-24.557-1.388-33.641-1.388-14.655,0-24.379,1.614-32.137,6.828" transform="translate(-2213.123 -1401.366)" fill="none"/>
    </clipPath>
    <linearGradient id="linear-gradient-9" x1="-3.3" y1="1.77" x2="-3.299" y2="1.77" xlink:href="#linear-gradient-6"/>
    <clipPath id="clip-path-25">
      <rect id="Rectangle_11225" data-name="Rectangle 11225" width="177.34" height="223.596" fill="none"/>
    </clipPath>
    <clipPath id="clip-path-26">
      <path id="Path_3954" data-name="Path 3954" d="M2287.877,1704.287c16.5-1.292,27.211,8.039,41.458.768,19.536-9.971,25.813-41,24.568-62.954-1.892-33.362-20.942-42.157-17.658-63.722,1.776-11.663,10.1-27.146,40-42.965.4,13.314.323,24.662.1,33.678-.884,35.867-4.317,47.577,1.359,70.322,5.431,21.761,11.341,22.132,20.909,51.027,8.335,25.172,18.018,54.414,6.729,65.285-9.679,9.323-25.7-3.6-61.035-9.213-54.41-8.64-93.9,8.975-111.181,3.262,20.88-34.5,39.818-44.319,54.752-45.488" transform="translate(-2233.125 -1535.413)" fill="none"/>
    </clipPath>
    <linearGradient id="linear-gradient-10" x1="-3.718" y1="1.929" x2="-3.717" y2="1.929" xlink:href="#linear-gradient-6"/>
    <clipPath id="clip-path-27">
      <path id="Path_3955" data-name="Path 3955" d="M2473.4,1430.114c-14.113,11.6-10.368,52.157,9.962,71.769,8.653,8.348,19.021,11.656,21.88,23.416,1.419,5.835,1.406,15.463-4.34,20.915-4.417,4.191-10.169,3.234-17.275,2.276-6.287-.847-13.635-1.694-22.058,1.023a87.375,87.375,0,0,0-29,15.98l10.885,11.766q5.532,4.908,11.064,9.817c26.986,20.215,60.668,23.886,85.612,9.613,27.644-15.819,33.111-48.466,34.289-55.446,7.86-46.54-23.862-90.579-59.193-106.921-4.467-2.066-17.566-8.126-29.036-8.125-4.8,0-9.312,1.061-12.787,3.917" transform="translate(-2432.561 -1426.197)" fill="none"/>
    </clipPath>
    <linearGradient id="linear-gradient-11" x1="-5.021" y1="2.581" x2="-5.019" y2="2.581" xlink:href="#linear-gradient-6"/>
    <clipPath id="clip-path-28">
      <path id="Path_3956" data-name="Path 3956" d="M2100.126,1824.695l-.4,10.3,116.385,7.617,42.013-20.276Z" transform="translate(-2099.722 -1822.336)" fill="none"/>
    </clipPath>
    <linearGradient id="linear-gradient-12" x1="-11.927" y1="2.862" x2="-11.922" y2="2.862" gradientUnits="objectBoundingBox">
      <stop offset="0" stop-color="#311944"/>
      <stop offset="1" stop-color="#893976"/>
    </linearGradient>
    <clipPath id="clip-path-29">
      <path id="Path_3957" data-name="Path 3957" d="M2429.85,1822.063l-49.768,16.878.23,13.721,50.484-19.792a7.032,7.032,0,0,0,4.629-6.608h0a4.362,4.362,0,0,0-5.576-4.2" transform="translate(-2380.082 -1821.891)" fill="none"/>
    </clipPath>
    <linearGradient id="linear-gradient-13" x1="-24.248" y1="6.644" x2="-24.238" y2="6.644" xlink:href="#linear-gradient-12"/>
    <clipPath id="clip-path-31">
      <path id="Path_3959" data-name="Path 3959" d="M1888.78,1598.984l20.506,97.934a5.727,5.727,0,0,0,5.375,4.752l163.374,10.03c3.516.167,8.414-5.046,8.03-8.545l-11.137-101.4a5.727,5.727,0,0,0-5.532-5.1l-171.205-4.813-.148,0c-3.638,0-9.865,3.63-9.262,7.146" transform="translate(-1888.739 -1591.838)" fill="none"/>
    </clipPath>
    <linearGradient id="linear-gradient-14" x1="-3.412" y1="2.265" x2="-3.41" y2="2.265" xlink:href="#linear-gradient-2"/>
    <clipPath id="clip-path-32">
      <path id="Path_3960" data-name="Path 3960" d="M1888.374,1606.167l16.9,98.382a5.728,5.728,0,0,0,5.374,4.752l165.44,7.832a5.729,5.729,0,0,0,5.964-6.347l-11.137-101.4a5.726,5.726,0,0,0-5.532-5.1l-171.206-4.814-.166,0a5.728,5.728,0,0,0-5.64,6.7" transform="translate(-1888.29 -1599.469)" fill="none"/>
    </clipPath>
    <linearGradient id="linear-gradient-15" x1="-3.155" y1="2.619" x2="-3.153" y2="2.619" xlink:href="#linear-gradient-12"/>
    <clipPath id="clip-path-34">
      <rect id="Rectangle_11234" data-name="Rectangle 11234" width="179.145" height="113.203" fill="none"/>
    </clipPath>
    <clipPath id="clip-path-35">
      <path id="Path_3961" data-name="Path 3961" d="M1996.938,1692.6c14.446-6.122,9.347-17.8,26.405-32.346,22.5-19.193,45.442-10.869,53.472-25.746,2.5-4.634,3.695-11.843-.661-23.511l12.4.349a5.726,5.726,0,0,1,5.532,5.1l11.137,101.4a5.729,5.729,0,0,1-5.964,6.347l-165.44-7.832a5.727,5.727,0,0,1-5.374-4.752l-2.333-13.576a62.5,62.5,0,0,1,18.017-6.753c24.272-4.923,36.18,8.369,52.811,1.32" transform="translate(-1926.11 -1610.999)" fill="none"/>
    </clipPath>
    <linearGradient id="linear-gradient-16" x1="-4.158" y1="4.064" x2="-4.156" y2="4.064" xlink:href="#linear-gradient-12"/>
    <clipPath id="clip-path-36">
      <path id="Path_3964" data-name="Path 3964" d="M2377.036,1258.008c-3.117.36-8.324.96-11.633,5.17-3.845,4.891-3.639,12.63-.3,17.063,3.163,4.2,6.98,2.563,11.688,8.3a32.893,32.893,0,0,1,4.29,7.2,37.241,37.241,0,0,1,2.052,6.129c5.352-5.8,8.631-9.272,10.725-11.454,1.512-1.573,3.145-2.287,4.046-4.368.8-1.84,5.877-12.077,3.528-17-3.534-7.411-12.972-11.212-21.379-11.211a26.326,26.326,0,0,0-3.015.17" transform="translate(-2362.559 -1257.838)" fill="none"/>
    </clipPath>
    <linearGradient id="linear-gradient-17" x1="-16.41" y1="10.712" x2="-16.403" y2="10.712" gradientUnits="objectBoundingBox">
      <stop offset="0" stop-color="#311944"/>
      <stop offset="1" stop-color="#6b3976"/>
    </linearGradient>
    <clipPath id="clip-path-38">
      <path id="Path_3966" data-name="Path 3966" d="M2391.262,1308.473c-.51.381,1.05,2.286,1.167,4.981.227,5.232-5.07,11.514-10.473,12.046-3.194.315-4.072-1.611-9.353-2.169a24.185,24.185,0,0,0-7.7.445c-1.66,5.739-.1,11.461,3.738,14.115,4.13,2.858,9.405,1.124,11.611.4,1.475-.485,6.2-2.03,8.674-6.365,2.575-4.518.048-7.242,3-10.3,1.49-1.542,3.447-2.209,5.352-5.193a14.784,14.784,0,0,0,1.074-2.01c-2.543-2.694-5.853-6.008-6.894-6.008a.316.316,0,0,0-.193.056" transform="translate(-2364.241 -1308.417)" fill="none"/>
    </clipPath>
    <linearGradient id="linear-gradient-18" x1="-20.481" y1="13.604" x2="-20.472" y2="13.604" xlink:href="#linear-gradient-17"/>
    <clipPath id="clip-path-40">
      <path id="Path_3968" data-name="Path 3968" d="M1338.052,469.073c-27.016,1.184-48.8,22.365-49.281,48.926l-2.906,158.012-.068,3.453-.317,17.33c-.509,28.035,22.6,50.384,51.485,50.384h363.229a48.78,48.78,0,0,0,48.992-48.223l1.639-171.185a49.147,49.147,0,0,0-47.809-49.45l-360.71-9.256-.482-.02q-.771-.017-1.539-.017c-.75,0-1.5.014-2.234.047" transform="translate(-1285.471 -469.026)" fill="none"/>
    </clipPath>
    <linearGradient id="linear-gradient-19" x1="-0.952" y1="1.916" x2="-0.952" y2="1.916" xlink:href="#linear-gradient-12"/>
    <clipPath id="clip-path-41">
      <path id="Path_3969" data-name="Path 3969" d="M1158.711,962.746,1131.3,980.211l-5.563,3.467L1035,1041.435c-3.194,2.052-1.776,6.39,2.038,6.39h180.369l-54.748-87.973Z" transform="translate(-1033.239 -959.852)" fill="none"/>
    </clipPath>
    <linearGradient id="linear-gradient-20" x1="-2.2" y1="3.827" x2="-2.198" y2="3.827" xlink:href="#linear-gradient-12"/>
    <clipPath id="clip-path-42">
      <path id="Path_3970" data-name="Path 3970" d="M1274.555,517.979l-2.974,161.565-.055,3.467-.262,13.763c-.523,28.035,22.6,50.384,51.485,50.384h363.229c.235,0,.482.4.716.384a48.75,48.75,0,0,0,48.263-48.208L1736.6,527.75A49.134,49.134,0,0,0,1688.8,478.3l-354.073-9.091-5.384-.144-1.748-.053q-.7-.018-1.395-.018c-28.1,0-51.146,21.635-51.646,48.985" transform="translate(-1271.255 -468.994)" fill="none"/>
    </clipPath>
    <linearGradient id="linear-gradient-21" x1="-0.941" y1="1.915" x2="-0.94" y2="1.915" xlink:href="#linear-gradient-4"/>
    <clipPath id="clip-path-43">
      <path id="Path_3971" data-name="Path 3971" d="M1122.641,977.25l-5.576,3.453-96.292,61.324c-3.208,2.052-1.79,6.39,2.038,6.39h180.355l-53.177-85.453-1.557-2.146Z" transform="translate(-1018.999 -960.817)" fill="none"/>
    </clipPath>
    <linearGradient id="linear-gradient-22" x1="-2.174" y1="3.83" x2="-2.172" y2="3.83" xlink:href="#linear-gradient-4"/>
    <clipPath id="clip-path-45">
      <rect id="Rectangle_11245" data-name="Rectangle 11245" width="511.917" height="278.972" fill="none"/>
    </clipPath>
    <clipPath id="clip-path-46">
      <path id="Path_3975" data-name="Path 3975" d="M1530.915,747.9v-.783h-508.1c-3.828,0-5.246-4.338-2.038-6.39l96.292-61.324,2.974-161.515c.509-27.8,24.317-49.672,53.041-48.942l1.748.066c1.24-.055,2.507-.057,3.773-.029l.482.02c.385.055.757.113,1.129.168,26.974,4.31,58.287,18.288,67.953,58.578,6.445,26.837,12.063,49.048,22.046,66.508a83.5,83.5,0,0,0,7.918,11.636c11.208,13.825,27.043,23.711,51.388,29.55q7.848,1.9,16.937,3.222a322.725,322.725,0,0,0,39.492,3q5.225.1,10.754.11c3.649,0,6.5.124,9.86.358,76.023,5.274,80.653,68.49,124.356,105.765" transform="translate(-1018.999 -468.929)" fill="none"/>
    </clipPath>
    <linearGradient id="linear-gradient-23" x1="-0.72" y1="1.822" x2="-0.719" y2="1.822" xlink:href="#linear-gradient-4"/>
    <clipPath id="clip-path-47">
      <path id="Path_3976" data-name="Path 3976" d="M434.556,1561.013c-20.22,12.4-33.166,40.567-37.815,60.944-3.79,16.607-2.27,28.918-12.464,37.18-10.417,8.443-20.781,2.7-30.417,8.836-19.543,12.45-11.363,58.022-10.041,65.387,14.707,81.93,85.894,140.826,117.256,166.143a504.272,504.272,0,0,0,122.266,72.644c-18.775-19.839-43.21-51.7-52.536-95.253-12.231-57.118,12.272-84.159,15.351-179.448,1.947-60.251,2.7-102.318-26.294-126.565-13.917-11.639-33.668-18.318-52.473-18.319-11.894,0-23.41,2.672-32.832,8.451" transform="translate(-340.999 -1552.562)" fill="none"/>
    </clipPath>
    <linearGradient id="linear-gradient-24" x1="-0.504" y1="1.152" x2="-0.502" y2="1.152" xlink:href="#linear-gradient-6"/>
    <clipPath id="clip-path-49">
      <rect id="Rectangle_11248" data-name="Rectangle 11248" width="357.729" height="457.93" fill="none"/>
    </clipPath>
    <clipPath id="clip-path-50">
      <path id="Path_3982" data-name="Path 3982" d="M118.191,1971.693c-23.976,28.56-2.379,71.894,5,86.7,12.368,24.816,26.771,33.561,23.626,55.134-2.655,18.206-14.347,21.812-16.094,35.459-4.96,38.744,82.126,65.526,96.223,69.862,55.24,16.989,110.509,15.792,153.254,10.065-42.177-36.01-64.77-70.753-77.688-96.431-17.405-34.6-14.643-47.571-37.968-96.026-26.313-54.661-42.418-86.687-77.889-90.352a68.393,68.393,0,0,0-7.022-.352c-22.7,0-48.474,10.493-61.442,25.94" transform="translate(-107.19 -1945.753)" fill="none"/>
    </clipPath>
    <linearGradient id="linear-gradient-25" x1="0.038" y1="1.004" x2="0.039" y2="1.004" gradientUnits="objectBoundingBox">
      <stop offset="0" stop-color="#9f6ae5"/>
      <stop offset="1" stop-color="#3c46c9"/>
    </linearGradient>
    <clipPath id="clip-path-52">
      <rect id="Rectangle_11250" data-name="Rectangle 11250" width="461.293" height="339.094" fill="none"/>
    </clipPath>
    <clipPath id="clip-path-53">
      <path id="Path_3987" data-name="Path 3987" d="M658.26,1826.855,499.5,1829.189c-9.471.349-14.232,5.15-13.813,10.244l28.424,345.035c.43,5.227,5.5,10.426,15.09,9.916l160.232-16.5c4.727-.436,8.222-4.91,7.773-9.942l-29.616-332.323a9.563,9.563,0,0,0-9.171-8.761h-.158" transform="translate(-485.66 -1826.854)" fill="none"/>
    </clipPath>
    <linearGradient id="linear-gradient-26" x1="-0.283" y1="1.354" x2="-0.281" y2="1.354" xlink:href="#linear-gradient-2"/>
    <clipPath id="clip-path-54">
      <path id="Path_3988" data-name="Path 3988" d="M675.35,1824.592l-165.112,3.154a8.622,8.622,0,0,0-8.438,9.491l28.676,347.118a9.38,9.38,0,0,0,10.066,8.707l166.26-15.344c4.755-.439,8.268-4.941,7.815-10L684.735,1833.4a9.623,9.623,0,0,0-9.226-8.813h-.159" transform="translate(-501.768 -1824.591)" fill="none"/>
    </clipPath>
    <linearGradient id="linear-gradient-27" x1="-0.213" y1="1.076" x2="-0.212" y2="1.076" xlink:href="#linear-gradient-2"/>
    <clipPath id="clip-path-56">
      <path id="Path_3990" data-name="Path 3990" d="M683.809,1873.761l-155.315,3.573a8.072,8.072,0,0,0-7.853,8.888l3.8,45.944L696.688,1928l-4.106-46.036a8.956,8.956,0,0,0-8.594-8.21l-.179,0" transform="translate(-520.611 -1873.759)" fill="none"/>
    </clipPath>
    <linearGradient id="linear-gradient-28" x1="-1.454" y1="2.348" x2="-1.451" y2="2.348" xlink:href="#linear-gradient-5"/>
    <clipPath id="clip-path-57">
      <path id="Path_3991" data-name="Path 3991" d="M737.36,1846.65a2.886,2.886,0,0,0-2.8,3.222,3.374,3.374,0,0,0,3.342,3.093,2.886,2.886,0,0,0,2.795-3.223,3.378,3.378,0,0,0-3.276-3.093h-.062" transform="translate(-734.55 -1846.649)" fill="none"/>
    </clipPath>
    <linearGradient id="linear-gradient-29" x1="-34.054" y1="44.245" x2="-34.008" y2="44.245" xlink:href="#linear-gradient-6"/>
    <clipPath id="clip-path-58">
      <path id="Path_3993" data-name="Path 3993" d="M577.6,2065.427l10.729,109.837,77.716-3.838-10.3-107.993Z" transform="translate(-577.599 -2063.433)" fill="none"/>
    </clipPath>
    <linearGradient id="linear-gradient-30" x1="-0.931" y1="1.784" x2="-0.929" y2="1.784" xlink:href="#linear-gradient-4"/>
    <clipPath id="clip-path-59">
      <path id="Path_3995" data-name="Path 3995" d="M810.385,2060.788,820.616,2168.5l45.654-2.255-9.982-106.626Z" transform="translate(-810.385 -2059.617)" fill="none"/>
    </clipPath>
    <linearGradient id="linear-gradient-31" x1="-1.747" y1="2.037" x2="-1.745" y2="2.037" xlink:href="#linear-gradient-4"/>
    <clipPath id="clip-path-60">
      <path id="Path_3997" data-name="Path 3997" d="M608.892,2377.711l7.25,74.219,134.752-9.257-6.746-72.061Z" transform="translate(-608.892 -2370.611)" fill="none"/>
    </clipPath>
    <linearGradient id="linear-gradient-32" x1="-0.935" y1="1.166" x2="-0.933" y2="1.166" xlink:href="#linear-gradient-4"/>
    <clipPath id="clip-path-61">
      <path id="Path_3999" data-name="Path 3999" d="M630.868,2598.676l3.248,33.247,134.439-10.594-3.023-32.285Z" transform="translate(-630.868 -2589.044)" fill="none"/>
    </clipPath>
    <linearGradient id="linear-gradient-33" x1="-1.284" y1="0.91" x2="-1.282" y2="0.91" xlink:href="#linear-gradient-4"/>
    <clipPath id="clip-path-63">
      <rect id="Rectangle_11256" data-name="Rectangle 11256" width="175.094" height="365.767" fill="none"/>
    </clipPath>
  </defs>
  <g id="Group_3872" data-name="Group 3872" clip-path="url(#clip-path)">
    <g id="Group_3739" data-name="Group 3739">
      <g id="Group_3738" data-name="Group 3738" clip-path="url(#clip-path)">
        <path id="Path_3894" data-name="Path 3894" d="M574.191.244C289.082-8.058,42.118,195.957,4.806,463.649c-40.8,292.685,183.737,556.032,460.015,598.211,343.643,52.464,676.957-251.044,647.029-580.3C1089.3,233.487,864.01,8.684,574.191.244" transform="translate(0 0)" fill="#f4f7fa"/>
        <path id="Path_3895" data-name="Path 3895" d="M860.544,375.52l-31.575.054a225,225,0,0,0-14.651-59.688l26.7-15.482a15.79,15.79,0,0,0,5.585-21.337l-11.219-20.175a15.393,15.393,0,0,0-21-6.22l-26.365,14.964a232.076,232.076,0,0,0-43.5-46.033l15.164-26.049A16.4,16.4,0,0,0,753.9,173.56l-20.182-12.522a15.611,15.611,0,0,0-21.851,5.022l-15.2,25.782a236.172,236.172,0,0,0-62.89-19.178V142.09A17.4,17.4,0,0,0,617.175,125L592.6,123.879a15.811,15.811,0,0,0-16.861,15.742v30.911a239.017,239.017,0,0,0-65.856,15.05l-16.4-27.945a18.383,18.383,0,0,0-23.928-7.087l-22.471,11.525a16.12,16.12,0,0,0-6.5,22.882l17,28.59a237.347,237.347,0,0,0-49.316,46.745L377.52,242.9c-8.716-4.931-19.9-2.374-24.965,5.737L339.04,270.282c-5.1,8.167-2.072,18.764,6.744,23.642l31.81,17.6a227.135,227.135,0,0,0-17.37,64.854l-38.156.065c-10.269.018-18.621,7.8-18.621,17.385v25.487c0,9.584,8.352,17.248,18.621,17.121l39.17-.487A224.939,224.939,0,0,0,380.357,499l-34.573,19.622c-8.816,5-11.843,15.644-6.744,23.738l13.514,21.454c5.065,8.04,16.25,10.438,24.965,5.383l34.968-20.279a233.212,233.212,0,0,0,48.253,43.13l-20.16,34.2a15.979,15.979,0,0,0,6.5,22.79l22.471,11.207c8.4,4.19,19.108.854,23.928-7.426l19.994-34.346a237.212,237.212,0,0,0,62.265,12.908v38.288c0,9.119,7.562,16.059,16.861,15.5l24.573-1.469a17.706,17.706,0,0,0,16.6-17.324V628.509A238.824,238.824,0,0,0,693.315,610.1l18.55,31.205c4.432,7.456,14.222,9.555,21.851,4.713L753.9,633.21c7.548-4.79,10.13-14.663,5.778-22.076l-18.008-30.679a236.857,236.857,0,0,0,42.677-43.835l30.034,16.621c7.373,4.08,16.77,1.152,21-6.517L846.6,526.39c4.206-7.623,1.711-17.13-5.585-21.258L811.971,488.7a227.132,227.132,0,0,0,16.148-58.557l32.425-.4a15.579,15.579,0,0,0,15.113-15.771V391.078a15.315,15.315,0,0,0-15.113-15.558M604.917,563.941C511.486,567.408,433.3,494.9,433.3,401.868S511.486,235.329,604.917,237.6c90.256,2.2,161.2,74.758,161.2,162.139s-70.946,160.85-161.2,164.2" transform="translate(-185.871 -75.869)" fill="#97a6b7"/>
        <path id="Path_3896" data-name="Path 3896" d="M763.875,188.424l-22.489-.775-7.755,20.162Z" transform="translate(-449.374 -114.941)" fill="#97a6b7"/>
        <path id="Path_3897" data-name="Path 3897" d="M1387.209,213.666l25.932.259v19.128Z" transform="translate(-849.712 -130.878)" fill="#97a6b7"/>
        <path id="Path_3898" data-name="Path 3898" d="M1642.268,451.807l25.849,1.044-6.463,14.476Z" transform="translate(-1005.945 -276.747)" fill="#97a6b7"/>
        <path id="Path_3899" data-name="Path 3899" d="M1747.009,774.059l26.107,2.068-8.53,12.666Z" transform="translate(-1070.102 -474.137)" fill="#97a6b7"/>
        <path id="Path_3900" data-name="Path 3900" d="M1634.93,1209.413l25.332,3.619,3.1-20.679Z" transform="translate(-1001.45 -730.356)" fill="#97a6b7"/>
        <path id="Path_3901" data-name="Path 3901" d="M1384.755,1457.2l22.747,4.136,1.809-16.8Z" transform="translate(-848.209 -884.823)" fill="#97a6b7"/>
        <path id="Path_3902" data-name="Path 3902" d="M1058.932,1534.3l-20.421-3.619,17.577-26.108Z" transform="translate(-636.123 -921.6)" fill="#97a6b7"/>
        <path id="Path_3903" data-name="Path 3903" d="M768.087,1481.678l-23.781-4.911,18.353-22.23Z" transform="translate(-455.912 -890.953)" fill="#97a6b7"/>
        <path id="Path_3904" data-name="Path 3904" d="M460.773,425.148l24.815.775-9.823,18.095Z" transform="translate(-282.239 -260.417)" fill="#97a6b7"/>
        <path id="Path_3905" data-name="Path 3905" d="M333.351,903.39l22.747,3.36-1.809-18.612Z" transform="translate(-204.188 -544.015)" fill="#97a6b7"/>
        <path id="Path_3906" data-name="Path 3906" d="M459.439,1261.508l22.23,3.619,1.809-14.734Z" transform="translate(-281.422 -765.908)" fill="#97a6b7"/>
        <path id="Path_3907" data-name="Path 3907" d="M919.083,377.57l-31.837.055a226.8,226.8,0,0,0-14.772-60.174l26.918-15.609a15.917,15.917,0,0,0,5.631-21.511l-11.312-20.339a15.521,15.521,0,0,0-21.175-6.27l-26.583,15.085A233.975,233.975,0,0,0,802.091,222.4l15.29-26.261a16.53,16.53,0,0,0-5.826-22.173L791.2,161.34a15.742,15.742,0,0,0-22.032,5.063L753.848,192.4a238.172,238.172,0,0,0-63.411-19.335V142.238A17.543,17.543,0,0,0,673.7,125.01l-24.777-1.131a15.942,15.942,0,0,0-17,15.87v31.162a241.026,241.026,0,0,0-66.4,15.173l-16.539-28.172a18.537,18.537,0,0,0-24.127-7.145l-22.658,11.619a16.251,16.251,0,0,0-6.554,23.069l17.136,28.822A239.3,239.3,0,0,0,463.051,261.4l-31-17.534c-8.788-4.972-20.065-2.394-25.172,5.784l-13.626,21.821c-5.141,8.233-2.089,18.917,6.8,23.835l32.073,17.746a228.99,228.99,0,0,0-17.514,65.382l-38.472.066c-10.354.018-18.776,7.865-18.776,17.526v25.694c0,9.662,8.422,17.389,18.776,17.26l39.494-.491a226.745,226.745,0,0,0,19.279,63.566l-34.86,19.782c-8.889,5.044-11.941,15.771-6.8,23.931L406.883,567.4c5.107,8.106,16.384,10.523,25.172,5.428l35.258-20.445a235.117,235.117,0,0,0,48.654,43.481L495.64,630.343a16.108,16.108,0,0,0,6.554,22.975l22.658,11.3c8.472,4.225,19.266.862,24.127-7.486L569.138,622.5a239.216,239.216,0,0,0,62.781,13.014v38.6c0,9.193,7.625,16.189,17,15.629l24.777-1.481A17.852,17.852,0,0,0,690.436,670.8V632.62a240.818,240.818,0,0,0,60.032-18.559l18.7,31.459c4.469,7.516,14.339,9.632,22.032,4.751l20.35-12.912c7.611-4.829,10.214-14.783,5.826-22.256l-18.157-30.929a238.788,238.788,0,0,0,43.031-44.193l30.284,16.756c7.434,4.113,16.909,1.162,21.175-6.57l11.312-20.5c4.241-7.685,1.725-17.27-5.631-21.432l-29.285-16.566a228.959,228.959,0,0,0,16.282-59.034l32.694-.406a15.708,15.708,0,0,0,15.239-15.9V393.255a15.441,15.441,0,0,0-15.239-15.685M661.338,567.526c-94.205,3.5-173.041-69.608-173.041-163.393s78.836-167.9,173.041-165.6c91,2.213,162.539,75.367,162.539,163.46S752.342,564.149,661.338,567.526" transform="translate(-218.9 -75.869)" fill="#d8dee8"/>
        <path id="Path_3908" data-name="Path 3908" d="M2091.45,522.082l-16.987-3.159a123.13,123.13,0,0,0-1.853-33.579l15.92-5.631a8.64,8.64,0,0,0,5.158-10.911l-4-11.983a8.423,8.423,0,0,0-10.666-5.465l-15.69,5.385a127,127,0,0,0-18.748-29.149l10.785-12.478a8.973,8.973,0,0,0-.887-12.412l-9.589-8.772a8.543,8.543,0,0,0-12.259.495l-10.777,12.331a129.223,129.223,0,0,0-31.886-16.664l3.087-16.443a9.52,9.52,0,0,0-7.2-10.866l-13.1-3.084a8.652,8.652,0,0,0-10.657,6.764l-3.121,16.623a130.778,130.778,0,0,0-36.936,1.445l-6-16.685a10.059,10.059,0,0,0-12.153-6.227l-13.249,3.929a8.82,8.82,0,0,0-5.806,11.649l6.253,17.092a129.876,129.876,0,0,0-31.241,20.16l-14.776-12.457a10.231,10.231,0,0,0-14.005.565l-9.453,10.276a9.182,9.182,0,0,0,1.24,13.4l15.33,12.678a124.293,124.293,0,0,0-15.889,33.124l-20.527-3.818c-5.524-1.027-10.8,2.316-11.77,7.47l-2.573,13.707c-.968,5.154,2.75,10.119,8.286,11.088l21.114,3.693a123.1,123.1,0,0,0,3.917,35.839l-20.574,7.062c-5.246,1.8-7.948,7.217-6.023,12.085l5.1,12.9c1.912,4.835,7.685,7.254,12.883,5.416l20.853-7.375a127.6,127.6,0,0,0,21.6,28.067l-14.3,16.356a8.744,8.744,0,0,0,1.2,12.913l10.953,8.3a10.157,10.157,0,0,0,13.618-1.577l14.22-16.452a129.8,129.8,0,0,0,32.182,13.228l-3.866,20.591a8.509,8.509,0,0,0,7.5,10.04l13.363,1.69a9.689,9.689,0,0,0,10.677-7.64l3.823-20.368a130.652,130.652,0,0,0,33.878-3.889l6.826,18.655a8.481,8.481,0,0,0,11.276,4.741l12.147-4.85a9.049,9.049,0,0,0,5.337-11.289l-6.587-18.317a129.617,129.617,0,0,0,27.378-19.266L2048.68,613a8.5,8.5,0,0,0,11.952-1.384l8.086-9.8a8.566,8.566,0,0,0-.857-12l-13.961-11.77a124.27,124.27,0,0,0,14.6-29.861l17.479,3.057a8.525,8.525,0,0,0,9.72-6.956l2.311-12.309a8.38,8.38,0,0,0-6.557-9.893m-156.5,75.522c-50.6-7.569-85.324-54.46-75.932-104.489s58.863-81.67,108.88-71.014c48.317,10.293,79.146,56.48,70.323,103.473s-54.395,79.342-103.272,72.03" transform="translate(-1094.763 -220.174)" fill="#97a6b7"/>
        <path id="Path_3909" data-name="Path 3909" d="M2102.534,367.168l-12.016-2.687-6.206,10.06Z" transform="translate(-1276.711 -223.256)" fill="#97a6b7"/>
        <path id="Path_3910" data-name="Path 3910" d="M2438.429,442.439l13.92,2.757-1.931,10.287Z" transform="translate(-1493.62 -271.009)" fill="#97a6b7"/>
        <path id="Path_3911" data-name="Path 3911" d="M2551.555,596.262l13.8,3.171-4.937,7.132Z" transform="translate(-1562.913 -365.231)" fill="#97a6b7"/>
        <path id="Path_3912" data-name="Path 3912" d="M2575.348,780.143l13.832,3.748-5.866,5.951Z" transform="translate(-1577.487 -477.864)" fill="#97a6b7"/>
        <path id="Path_3913" data-name="Path 3913" d="M2468.394,1007.5l13.258,4.5,3.756-10.808Z" transform="translate(-1511.974 -613.264)" fill="#97a6b7"/>
        <path id="Path_3914" data-name="Path 3914" d="M2309.535,1114.875l11.816,4.521,2.67-8.853Z" transform="translate(-1414.668 -680.245)" fill="#97a6b7"/>
        <path id="Path_3915" data-name="Path 3915" d="M2124.379,1122.33l-10.617-4.008,12.089-12.266Z" transform="translate(-1294.751 -677.497)" fill="#97a6b7"/>
        <path id="Path_3916" data-name="Path 3916" d="M1973.9,1064.79l-12.294-5.042,12.115-10.1Z" transform="translate(-1201.547 -642.943)" fill="#97a6b7"/>
        <path id="Path_3917" data-name="Path 3917" d="M1918.844,462.636l13.267,2.923L1925,474.3Z" transform="translate(-1175.357 -283.38)" fill="#97a6b7"/>
        <path id="Path_3918" data-name="Path 3918" d="M1799.6,710.31l11.894,4.1.906-10.192Z" transform="translate(-1102.314 -431.359)" fill="#97a6b7"/>
        <path id="Path_3919" data-name="Path 3919" d="M1831.91,916.129l11.59,4.191,2.461-7.741Z" transform="translate(-1122.107 -558.985)" fill="#97a6b7"/>
        <path id="Path_3920" data-name="Path 3920" d="M2122.338,529.474l-17.127-3.185a124.092,124.092,0,0,0-1.869-33.853l16.052-5.676a8.71,8.71,0,0,0,5.2-11l-4.03-12.08a8.493,8.493,0,0,0-10.755-5.51l-15.819,5.429a128.033,128.033,0,0,0-18.9-29.387l10.874-12.579a9.044,9.044,0,0,0-.895-12.512l-9.67-8.844a8.613,8.613,0,0,0-12.36.5l-10.866,12.431a130.327,130.327,0,0,0-32.151-16.8l3.112-16.577a9.6,9.6,0,0,0-7.263-10.955l-13.211-3.109a8.723,8.723,0,0,0-10.745,6.818l-3.147,16.759a131.882,131.882,0,0,0-37.242,1.456l-6.05-16.821a10.142,10.142,0,0,0-12.254-6.278l-13.358,3.961a8.892,8.892,0,0,0-5.854,11.745l6.306,17.231a130.95,130.95,0,0,0-31.5,20.324l-14.9-12.559a10.318,10.318,0,0,0-14.121.569l-9.531,10.36a9.256,9.256,0,0,0,1.25,13.5l15.457,12.782a125.286,125.286,0,0,0-16.02,33.394l-20.7-3.849c-5.57-1.036-10.891,2.334-11.867,7.53l-2.594,13.818c-.976,5.2,2.773,10.2,8.355,11.178l21.29,3.723a124.084,124.084,0,0,0,3.95,36.132l-20.745,7.119c-5.29,1.815-8.014,7.276-6.073,12.183l5.144,13.008c1.928,4.875,7.749,7.313,12.99,5.461l21.026-7.435a128.648,128.648,0,0,0,21.776,28.3l-14.413,16.489a8.814,8.814,0,0,0,1.205,13.018l11.044,8.364a10.241,10.241,0,0,0,13.731-1.59l14.338-16.586A130.894,130.894,0,0,0,1941.86,639.2l-3.9,20.759a8.579,8.579,0,0,0,7.565,10.122l13.474,1.7a9.768,9.768,0,0,0,10.765-7.7l3.855-20.534a131.772,131.772,0,0,0,34.159-3.92l6.883,18.807a8.551,8.551,0,0,0,11.369,4.779l12.248-4.89a9.122,9.122,0,0,0,5.38-11.381l-6.642-18.467a130.663,130.663,0,0,0,27.6-19.422l14.594,12.069a8.573,8.573,0,0,0,12.051-1.4l8.153-9.882a8.636,8.636,0,0,0-.864-12.094l-14.077-11.866a125.3,125.3,0,0,0,14.717-30.1l17.624,3.082a8.6,8.6,0,0,0,9.8-7.012l2.33-12.41a8.45,8.45,0,0,0-6.612-9.974m-157.793,76.134c-51.016-7.631-86.033-54.906-76.564-105.343s59.349-82.334,109.781-71.59c48.718,10.378,79.8,56.942,70.909,104.318s-54.844,79.987-104.126,72.615" transform="translate(-1112.14 -223.888)" fill="#d8dee8"/>
      </g>
    </g>
    <g id="Group_3741" data-name="Group 3741" transform="translate(67.886 215.116)">
      <g id="Group_3740" data-name="Group 3740" clip-path="url(#clip-path-3)">
        <rect id="Rectangle_11203" data-name="Rectangle 11203" width="1043.14" height="800.044" transform="matrix(0.995, -0.104, 0.104, 0.995, -72.602, 7.585)" fill="url(#linear-gradient)"/>
      </g>
    </g>
    <g id="Group_3743" data-name="Group 3743" transform="translate(444.12 842.931)">
      <g id="Group_3742" data-name="Group 3742" clip-path="url(#clip-path-4)">
        <rect id="Rectangle_11204" data-name="Rectangle 11204" width="347.172" height="377.33" transform="translate(-96.169 133.961) rotate(-55.081)" fill="url(#linear-gradient-2)"/>
      </g>
    </g>
    <g id="Group_3745" data-name="Group 3745" transform="translate(450.248 838.035)">
      <g id="Group_3744" data-name="Group 3744" clip-path="url(#clip-path-5)">
        <rect id="Rectangle_11205" data-name="Rectangle 11205" width="343.683" height="250.233" transform="translate(-37.525 6.457) rotate(-10.438)" fill="#0e65bb"/>
      </g>
    </g>
    <g id="Group_3747" data-name="Group 3747" transform="translate(75.118 215.116)">
      <g id="Group_3746" data-name="Group 3746" clip-path="url(#clip-path-6)">
        <rect id="Rectangle_11206" data-name="Rectangle 11206" width="1135.045" height="1201.956" transform="translate(-330.134 471.177) rotate(-54.983)" fill="url(#linear-gradient-3)"/>
      </g>
    </g>
    <g id="Group_3749" data-name="Group 3749" transform="translate(91.532 230.055)">
      <g id="Group_3748" data-name="Group 3748" clip-path="url(#clip-path-7)">
        <path id="Path_4001" data-name="Path 4001" d="M0,0H925.322V1104.707H0Z" transform="translate(-192.518 611.463) rotate(-72.524)" fill="#0e65bb"/>
      </g>
    </g>
    <g id="Group_3751" data-name="Group 3751">
      <g id="Group_3750" data-name="Group 3750" clip-path="url(#clip-path)">
        <path id="Path_3926" data-name="Path 3926" d="M273.085,1227.333c-4.029.2-7.31-2.646-7.31-6.337V627.187c0-3.691,3.281-6.588,7.31-6.455l913.462,30.017a5.978,5.978,0,0,1,5.608,6.043v519.594a6.1,6.1,0,0,1-5.608,6.134Z" transform="translate(-162.796 -380.217)" fill="#fff"/>
      </g>
    </g>
    <g id="Group_3753" data-name="Group 3753" transform="translate(150.358 329.262)">
      <g id="Group_3752" data-name="Group 3752" clip-path="url(#clip-path-9)">
        <rect id="Rectangle_11209" data-name="Rectangle 11209" width="797.644" height="966.451" transform="translate(-187.681 386.994) rotate(-64.128)" fill="url(#linear-gradient-4)"/>
      </g>
    </g>
    <g id="Group_3755" data-name="Group 3755" transform="translate(150.358 272.108)">
      <g id="Group_3754" data-name="Group 3754" clip-path="url(#clip-path-10)">
        <rect id="Rectangle_11210" data-name="Rectangle 11210" width="160.954" height="843.446" transform="matrix(0.12, -0.993, 0.993, 0.12, -7.188, 59.502)" fill="url(#linear-gradient-5)"/>
      </g>
    </g>
    <g id="Group_3769" data-name="Group 3769">
      <g id="Group_3768" data-name="Group 3768" clip-path="url(#clip-path)">
        <path id="Path_3929" data-name="Path 3929" d="M2382.405,799.555a4.472,4.472,0,0,1-4.543,4.559,4.76,4.76,0,0,1-4.549-4.8,4.471,4.471,0,0,1,4.549-4.56,4.761,4.761,0,0,1,4.543,4.8" transform="translate(-1453.735 -486.816)" fill="#fff"/>
        <path id="Path_3930" data-name="Path 3930" d="M2430.6,800.827a4.453,4.453,0,0,1-4.517,4.547,4.74,4.74,0,0,1-4.523-4.782,4.452,4.452,0,0,1,4.523-4.547,4.741,4.741,0,0,1,4.517,4.782" transform="translate(-1483.285 -487.604)" fill="#fff"/>
        <path id="Path_3931" data-name="Path 3931" d="M2478.517,802.092a4.435,4.435,0,0,1-4.491,4.535,4.721,4.721,0,0,1-4.5-4.768,4.434,4.434,0,0,1,4.5-4.534,4.722,4.722,0,0,1,4.491,4.768" transform="translate(-1512.669 -488.387)" fill="#fff"/>
        <g id="Group_3758" data-name="Group 3758" transform="translate(168.729 341.679)" opacity="0.68">
          <g id="Group_3757" data-name="Group 3757">
            <g id="Group_3756" data-name="Group 3756" clip-path="url(#clip-path-12)">
              <path id="Path_3932" data-name="Path 3932" d="M1088.909,1234.145l-653.441,20.517V881.829l653.441,12.645Z" transform="translate(-435.468 -881.829)" fill="#fff"/>
            </g>
          </g>
        </g>
        <g id="Group_3761" data-name="Group 3761" transform="translate(833.599 354.543)" opacity="0.68">
          <g id="Group_3760" data-name="Group 3760">
            <g id="Group_3759" data-name="Group 3759" clip-path="url(#clip-path-13)">
              <path id="Path_3933" data-name="Path 3933" d="M2301.455,1013.56l-150.048-.707V915.035l150.048,2.9Z" transform="translate(-2151.408 -915.033)" fill="#fff"/>
            </g>
          </g>
        </g>
        <path id="Path_3934" data-name="Path 3934" d="M2301.455,1202.463l-150.048-.3v-7.325l150.048.469Z" transform="translate(-1317.809 -731.876)" fill="#fff"/>
        <path id="Path_3935" data-name="Path 3935" d="M2245.625,1234.823l-94.218-.013v-7.325l94.218.116Z" transform="translate(-1317.809 -751.876)" fill="#fff"/>
        <g id="Group_3764" data-name="Group 3764" transform="translate(833.599 497.724)" opacity="0.68">
          <g id="Group_3763" data-name="Group 3763">
            <g id="Group_3762" data-name="Group 3762" clip-path="url(#clip-path-14)">
              <path id="Path_3936" data-name="Path 3936" d="M2301.455,1380.177l-150.048,2.516v-97.818l150.048-.319Z" transform="translate(-2151.408 -1284.557)" fill="#fff"/>
            </g>
          </g>
        </g>
        <path id="Path_3937" data-name="Path 3937" d="M2301.455,1565.231l-150.048,2.918v-7.325l150.048-2.753Z" transform="translate(-1317.809 -954.371)" fill="#fff"/>
        <path id="Path_3938" data-name="Path 3938" d="M2245.625,1600.128l-94.218,2.011v-7.325l94.218-1.907Z" transform="translate(-1317.809 -975.709)" fill="#fff"/>
        <g id="Group_3767" data-name="Group 3767" transform="translate(833.599 637.994)" opacity="0.68">
          <g id="Group_3766" data-name="Group 3766">
            <g id="Group_3765" data-name="Group 3765" clip-path="url(#clip-path-15)">
              <path id="Path_3939" data-name="Path 3939" d="M2301.455,1742.2l-150.048,5.738v-97.818l150.048-3.541Z" transform="translate(-2151.408 -1646.582)" fill="#fff"/>
            </g>
          </g>
        </g>
        <path id="Path_3940" data-name="Path 3940" d="M2301.455,1927.257l-150.048,6.14v-7.324l150.048-5.976Z" transform="translate(-1317.809 -1176.124)" fill="#fff"/>
        <path id="Path_3941" data-name="Path 3941" d="M2245.625,1965.249l-94.218,4.034v-7.324l94.218-3.931Z" transform="translate(-1317.809 -1199.358)" fill="#fff"/>
        <path id="Path_3942" data-name="Path 3942" d="M887.669,1872.792l-452.2,16.784v-24.51l452.2-15.276Z" transform="translate(-266.739 -1133.059)" fill="#fff"/>
        <path id="Path_3943" data-name="Path 3943" d="M2019.919,1854.577l-64.518,2.395v-22.545l64.518-2.179Z" transform="translate(-1197.749 -1122.313)" fill="#fff"/>
        <path id="Path_3944" data-name="Path 3944" d="M1825.392,1861.318l-65.969,2.448v-22.8l65.969-2.228Z" transform="translate(-1077.706 -1126.29)" fill="#fff"/>
        <path id="Path_3945" data-name="Path 3945" d="M642.351,1988.12l-206.882,8.513v-12.255l206.882-8.168Z" transform="translate(-266.739 -1210.495)" fill="#fff"/>
      </g>
    </g>
    <g id="Group_3771" data-name="Group 3771" transform="translate(819.842 545.005)">
      <g id="Group_3770" data-name="Group 3770" clip-path="url(#clip-path-16)">
        <rect id="Rectangle_11216" data-name="Rectangle 11216" width="140.843" height="137.957" transform="translate(-31.268 4.834) rotate(-11.781)" fill="url(#linear-gradient-6)"/>
      </g>
    </g>
    <g id="Group_3773" data-name="Group 3773" transform="translate(912.526 1068.372)">
      <g id="Group_3772" data-name="Group 3772" clip-path="url(#clip-path-17)">
        <rect id="Rectangle_11217" data-name="Rectangle 11217" width="17.577" height="36.81" transform="matrix(0.029, -1, 1, 0.029, -1.268, 16.52)" fill="url(#linear-gradient-7)"/>
      </g>
    </g>
    <g id="Group_3775" data-name="Group 3775">
      <g id="Group_3774" data-name="Group 3774" clip-path="url(#clip-path)">
        <path id="Path_3948" data-name="Path 3948" d="M2415.931,2725.24l-1.421,16.177c.4.781,5.212,3.125,9.031,1.115l3.65-15.9Z" transform="translate(-1478.969 -1669.301)" fill="#d8dee8"/>
      </g>
    </g>
    <g id="Group_3777" data-name="Group 3777" transform="translate(795.88 1064.451)">
      <g id="Group_3776" data-name="Group 3776" clip-path="url(#clip-path-19)">
        <rect id="Rectangle_11219" data-name="Rectangle 11219" width="25.231" height="42.473" transform="matrix(0.265, -0.964, 0.964, 0.265, -3.969, 14.137)" fill="url(#linear-gradient-8)"/>
      </g>
    </g>
    <g id="Group_3779" data-name="Group 3779">
      <g id="Group_3778" data-name="Group 3778" clip-path="url(#clip-path)">
        <path id="Path_3950" data-name="Path 3950" d="M2127.253,2715.243l-4.54,15.1c.343.811,4.959,3.513,8.92,1.8l6.743-14.658Z" transform="translate(-1300.233 -1663.178)" fill="#d8dee8"/>
      </g>
    </g>
    <g id="Group_3781" data-name="Group 3781" transform="translate(822.656 721.307)">
      <g id="Group_3780" data-name="Group 3780" clip-path="url(#clip-path-21)">
        <rect id="Rectangle_11221" data-name="Rectangle 11221" width="361.401" height="252.236" transform="translate(-125.963 283.951) rotate(-66.077)" fill="#9f6ae5"/>
      </g>
    </g>
    <g id="Group_3783" data-name="Group 3783" transform="translate(919.647 716.232)">
      <g id="Group_3782" data-name="Group 3782" clip-path="url(#clip-path-22)">
        <rect id="Rectangle_11222" data-name="Rectangle 11222" width="348.234" height="261.722" transform="translate(-153.674 256.175) rotate(-59.041)" fill="#9f6ae5"/>
      </g>
    </g>
    <g id="Group_3785" data-name="Group 3785" transform="translate(857.511 542.982)">
      <g id="Group_3784" data-name="Group 3784" clip-path="url(#clip-path-23)">
        <rect id="Rectangle_11223" data-name="Rectangle 11223" width="250.074" height="315.809" transform="matrix(0.979, -0.204, 0.204, 0.979, -61.753, 11.738)" fill="url(#linear-gradient-9)"/>
      </g>
    </g>
    <g id="Group_3792" data-name="Group 3792">
      <g id="Group_3791" data-name="Group 3791" clip-path="url(#clip-path)">
        <g id="Group_3790" data-name="Group 3790" transform="translate(865.263 594.92)" opacity="0.3" style="mix-blend-mode: multiply;isolation: isolate">
          <g id="Group_3789" data-name="Group 3789">
            <g id="Group_3788" data-name="Group 3788" clip-path="url(#clip-path-25)">
              <g id="Group_3787" data-name="Group 3787" transform="translate(-0.002 0.001)">
                <g id="Group_3786" data-name="Group 3786" clip-path="url(#clip-path-26)">
                  <rect id="Rectangle_11224" data-name="Rectangle 11224" width="226.876" height="262.513" transform="translate(-46.293 9.746) rotate(-11.889)" fill="url(#linear-gradient-10)"/>
                </g>
              </g>
            </g>
          </g>
        </g>
      </g>
    </g>
    <g id="Group_3794" data-name="Group 3794" transform="translate(942.536 552.603)">
      <g id="Group_3793" data-name="Group 3793" clip-path="url(#clip-path-27)">
        <rect id="Rectangle_11227" data-name="Rectangle 11227" width="184.282" height="211.442" transform="translate(-36.931 7.702) rotate(-11.781)" fill="url(#linear-gradient-11)"/>
      </g>
    </g>
    <g id="Group_3796" data-name="Group 3796" transform="translate(813.572 706.094)">
      <g id="Group_3795" data-name="Group 3795" clip-path="url(#clip-path-28)">
        <rect id="Rectangle_11228" data-name="Rectangle 11228" width="71.838" height="156.116" transform="matrix(0.333, -0.943, 0.943, 0.333, -6.364, 18.031)" fill="url(#linear-gradient-12)"/>
      </g>
    </g>
    <g id="Group_3798" data-name="Group 3798" transform="translate(922.202 705.921)">
      <g id="Group_3797" data-name="Group 3797" clip-path="url(#clip-path-29)">
        <rect id="Rectangle_11229" data-name="Rectangle 11229" width="38.382" height="59.181" transform="matrix(0.143, -0.99, 0.99, 0.143, -4.362, 30.141)" fill="url(#linear-gradient-13)"/>
      </g>
    </g>
    <g id="Group_3800" data-name="Group 3800">
      <g id="Group_3799" data-name="Group 3799" clip-path="url(#clip-path)">
        <path id="Path_3958" data-name="Path 3958" d="M2397.688,1792.673c.969-.217-4.724-11.561-9.194-10.252s-26.33,13.979-28.316,19.2l-1.987,5.216s9.536.745,15.449-1.241,16.163-11.16,24.048-12.918" transform="translate(-1444.471 -1091.728)" fill="#fff"/>
      </g>
    </g>
    <g id="Group_3802" data-name="Group 3802" transform="translate(731.823 616.784)">
      <g id="Group_3801" data-name="Group 3801" clip-path="url(#clip-path-31)">
        <rect id="Rectangle_11231" data-name="Rectangle 11231" width="212.296" height="231.217" transform="matrix(0.576, -0.818, 0.818, 0.576, -57.067, 80.236)" fill="url(#linear-gradient-14)"/>
      </g>
    </g>
    <g id="Group_3804" data-name="Group 3804" transform="translate(731.649 619.74)">
      <g id="Group_3803" data-name="Group 3803" clip-path="url(#clip-path-32)">
        <rect id="Rectangle_11232" data-name="Rectangle 11232" width="226.693" height="191.695" transform="translate(-47.21 22.987) rotate(-26.211)" fill="url(#linear-gradient-15)"/>
      </g>
    </g>
    <g id="Group_3811" data-name="Group 3811">
      <g id="Group_3810" data-name="Group 3810" clip-path="url(#clip-path)">
        <g id="Group_3809" data-name="Group 3809" transform="translate(746.303 624.208)" opacity="0.3" style="mix-blend-mode: multiply;isolation: isolate">
          <g id="Group_3808" data-name="Group 3808">
            <g id="Group_3807" data-name="Group 3807" clip-path="url(#clip-path-34)">
              <g id="Group_3806" data-name="Group 3806" transform="translate(0 0)">
                <g id="Group_3805" data-name="Group 3805" clip-path="url(#clip-path-35)">
                  <rect id="Rectangle_11233" data-name="Rectangle 11233" width="179.495" height="113.362" transform="translate(0)" fill="url(#linear-gradient-16)"/>
                </g>
              </g>
            </g>
          </g>
        </g>
        <path id="Path_3962" data-name="Path 3962" d="M1918.995,1843.52a1.291,1.291,0,0,1,1.16-1.7c3.5-.178,11.606-.251,16.083,2.491,5.816,3.562,13.336,10.063,7,13.343l-5.913,3.063a1.263,1.263,0,0,1-.865.119c-2.1-.462-10.945-2.424-11.912-2.911-.88-.443-4.252-10.45-5.555-14.4" transform="translate(-1175.408 -1128.13)" fill="#d8dee8"/>
        <path id="Path_3963" data-name="Path 3963" d="M2379.4,1304.924a122.916,122.916,0,0,0,2.195,24.568c1.271,6.544,2.188,8.235,3.357,9.607,1.76,2.065,4.427,3.8,19.5,7.534,8.2,2.033,9.256,1.978,9.437,2.791.883,3.97-21.479,17.5-44.581,14.24-14.139-2-27-10.062-26.213-14.3.794-4.263,14.918-1.976,19.127-9.688,2.928-5.365-.354-12.982-4.235-19.29,3.759-7.041,17.658-8.423,21.416-15.464" transform="translate(-1435.198 -799.31)" fill="#fff"/>
      </g>
    </g>
    <g id="Group_3813" data-name="Group 3813" transform="translate(915.412 487.37)">
      <g id="Group_3812" data-name="Group 3812" clip-path="url(#clip-path-36)">
        <rect id="Rectangle_11236" data-name="Rectangle 11236" width="55.325" height="56.359" transform="translate(-15.893 5.799) rotate(-21.279)" fill="url(#linear-gradient-17)"/>
      </g>
    </g>
    <g id="Group_3815" data-name="Group 3815">
      <g id="Group_3814" data-name="Group 3814" clip-path="url(#clip-path)">
        <path id="Path_3965" data-name="Path 3965" d="M2392.336,1323.609s-5.938,9.742-17.761,8.973c-10.586-.689-12.136-24.428-5.375-29.466,2.256-1.68,6.773-2.378,10.447-1.349,2.169.608,2.9,1.509,6.469,2.434,3.288.853,4.216.489,5.209,1.323,1.241,1.045,2.15,3.607.078,10.546,2.019-2.045,4.443-2.83,6.161-2.018a3.621,3.621,0,0,1,1.41,1.373c1.48,2.711-1,6.174-6.637,8.184" transform="translate(-1448.717 -797.081)" fill="#fff"/>
      </g>
    </g>
    <g id="Group_3817" data-name="Group 3817" transform="translate(916.064 506.968)">
      <g id="Group_3816" data-name="Group 3816" clip-path="url(#clip-path-38)">
        <rect id="Rectangle_11238" data-name="Rectangle 11238" width="44.45" height="42.871" transform="translate(-11.935 4.258) rotate(-21.279)" fill="url(#linear-gradient-18)"/>
      </g>
    </g>
    <g id="Group_3819" data-name="Group 3819">
      <g id="Group_3818" data-name="Group 3818" clip-path="url(#clip-path)">
        <path id="Path_3967" data-name="Path 3967" d="M2374.491,1353.471a12.885,12.885,0,0,0,6.237.972c.191-.011.4.046.429.145.09.375-2.444,2.055-4.78,1.4-1.658-.467-2.948-2.036-2.725-2.436.095-.168.47-.146.839-.08" transform="translate(-1453.926 -829.017)" fill="#fff"/>
      </g>
    </g>
    <g id="Group_3821" data-name="Group 3821" transform="translate(498.077 181.732)">
      <g id="Group_3820" data-name="Group 3820" clip-path="url(#clip-path-40)">
        <rect id="Rectangle_11240" data-name="Rectangle 11240" width="503.021" height="539.535" transform="matrix(0.603, -0.798, 0.798, 0.603, -134.328, 176.924)" fill="url(#linear-gradient-19)"/>
      </g>
    </g>
    <g id="Group_3823" data-name="Group 3823" transform="translate(400.345 371.91)">
      <g id="Group_3822" data-name="Group 3822" clip-path="url(#clip-path-41)">
        <rect id="Rectangle_11241" data-name="Rectangle 11241" width="182.129" height="201.096" transform="translate(-43.756 55.957) rotate(-52.896)" fill="url(#linear-gradient-20)"/>
      </g>
    </g>
    <g id="Group_3825" data-name="Group 3825" transform="translate(492.569 181.719)">
      <g id="Group_3824" data-name="Group 3824" clip-path="url(#clip-path-42)">
        <rect id="Rectangle_11242" data-name="Rectangle 11242" width="503.357" height="539.794" transform="matrix(0.603, -0.798, 0.798, 0.603, -134.539, 177.185)" fill="url(#linear-gradient-21)"/>
      </g>
    </g>
    <g id="Group_3827" data-name="Group 3827" transform="translate(394.828 372.284)">
      <g id="Group_3826" data-name="Group 3826" clip-path="url(#clip-path-43)">
        <rect id="Rectangle_11243" data-name="Rectangle 11243" width="181.831" height="200.87" transform="matrix(0.603, -0.798, 0.798, 0.603, -43.58, 55.719)" fill="url(#linear-gradient-22)"/>
      </g>
    </g>
    <g id="Group_3834" data-name="Group 3834">
      <g id="Group_3833" data-name="Group 3833" clip-path="url(#clip-path)">
        <path id="Path_3972" data-name="Path 3972" d="M1661.455,756.272V738.8l-35.245,20.765L1600,775.082V785.34l61.457,31.891V799.826l-43.107-20.393,15.3-8.234Z" transform="translate(-980.053 -452.539)" fill="#fff"/>
        <path id="Path_3973" data-name="Path 3973" d="M1829.063,702.514l-25.005,75.857-10.342,31.395,17.9.179,9.377-28.352,26.245-79.327Z" transform="translate(-1098.712 -430.162)" fill="#fff"/>
        <path id="Path_3974" data-name="Path 3974" d="M1966.569,736.631v17.79l45.784,23.422-45.784,20.9v17.708l21.322-10.341,45.6-22.142V773.217Z" transform="translate(-1204.589 -451.211)" fill="#fff"/>
        <g id="Group_3832" data-name="Group 3832" transform="translate(394.828 181.695)" opacity="0.3" style="mix-blend-mode: multiply;isolation: isolate">
          <g id="Group_3831" data-name="Group 3831">
            <g id="Group_3830" data-name="Group 3830" clip-path="url(#clip-path-45)">
              <g id="Group_3829" data-name="Group 3829" transform="translate(-0.001 0)">
                <g id="Group_3828" data-name="Group 3828" clip-path="url(#clip-path-46)">
                  <rect id="Rectangle_11244" data-name="Rectangle 11244" width="532.746" height="578.141" transform="translate(-135.998 177.187) rotate(-52.896)" fill="url(#linear-gradient-23)"/>
                </g>
              </g>
            </g>
          </g>
        </g>
      </g>
    </g>
    <g id="Group_3836" data-name="Group 3836" transform="translate(132.126 601.566)">
      <g id="Group_3835" data-name="Group 3835" clip-path="url(#clip-path-47)">
        <rect id="Rectangle_11247" data-name="Rectangle 11247" width="249.024" height="419.585" transform="translate(-6.682 0)" fill="url(#linear-gradient-24)"/>
      </g>
    </g>
    <g id="Group_3841" data-name="Group 3841" transform="translate(132.126 601.566)">
      <g id="Group_3840" data-name="Group 3840" clip-path="url(#clip-path-47)">
        <g id="Group_3839" data-name="Group 3839" transform="translate(-92.821 -21.955)" opacity="0.5" style="mix-blend-mode: soft-light;isolation: isolate">
          <g id="Group_3838" data-name="Group 3838" transform="translate(0)">
            <g id="Group_3837" data-name="Group 3837" clip-path="url(#clip-path-49)">
              <path id="Path_3977" data-name="Path 3977" d="M786.991,1953.832l.784-1.744c-59.328-26.671-132.784-73.424-145.81-144.693-4.79-26.209-.956-52.85,4.352-89.723,4.237-29.437,9.9-49.92,14.887-67.991,6.528-23.632,11.685-42.3,10.505-69.9-1.2-28.01-8.731-56.23-22.393-83.876l-1.714.847c13.544,27.407,21.012,55.369,22.2,83.111,1.166,27.3-3.955,45.841-10.438,69.311-5.008,18.126-10.683,38.671-14.937,68.228-5.132,35.659-9.186,63.824-4.34,90.34,6.2,33.909,26.709,65.568,60.964,94.1,23.132,19.265,52.048,36.759,85.944,52" transform="translate(-430.045 -1495.902)" fill="#fff"/>
              <path id="Path_3978" data-name="Path 3978" d="M505.3,1788.468l1.014-.372c.2-.074,20.44-7.639,41.343-26.741,19.292-17.63,43.149-48.986,47.247-98.243l-1.906-.158c-4.046,48.639-27.591,79.59-46.632,96.99a142.818,142.818,0,0,1-39.707,25.959c-13-54.462-39.739-89.722-59.945-109.752-22.06-21.867-41.36-30.831-41.553-30.919l-.795,1.739c.19.086,19.24,8.945,41.067,30.6,20.137,19.98,46.826,55.255,59.62,109.844Z" transform="translate(-286.99 -1587.371)" fill="#fff"/>
              <path id="Path_3979" data-name="Path 3979" d="M451.792,1946.8l.425-.549c.211-.272,21.359-27.469,47.9-50.582,26.378-22.976,85.273-28.005,85.865-28.053l-.155-1.906c-.6.048-60.119,5.134-86.966,28.517-24.584,21.412-44.562,46.3-47.719,50.3-60.1-22.5-116.954-169.694-117.523-171.183l-1.787.683a720.024,720.024,0,0,0,36.378,77.828c29.316,53.608,57.218,85.472,82.933,94.708Z" transform="translate(-242.56 -1665.847)" fill="#fff"/>
              <path id="Path_3980" data-name="Path 3980" d="M363.6,2219.295l-.851-1.705c-14.027-28.1-10.057-56.506,11.8-84.421a158.288,158.288,0,0,1,37.414-33.792l-.992-1.635a160.35,160.35,0,0,0-37.9,34.208c-21.617,27.584-26.052,56.849-12.881,84.758a372.65,372.65,0,0,1-64.856-20.6c-34.5-14.383-83.406-40.7-120.458-84.377L102.9,2026.859l-1.458,1.236,71.987,84.869c37.309,43.986,86.517,70.461,121.227,84.925,37.6,15.668,66.784,21.016,67.074,21.068Z" transform="translate(-101.438 -1821.13)" fill="#fff"/>
            </g>
          </g>
        </g>
      </g>
    </g>
    <g id="Group_3843" data-name="Group 3843" transform="translate(41.533 753.914)">
      <g id="Group_3842" data-name="Group 3842" clip-path="url(#clip-path-50)">
        <path id="Path_4002" data-name="Path 4002" d="M0,0H371.673V369.263H0Z" transform="matrix(0.349, -0.937, 0.937, 0.349, -107.874, 254.73)" fill="url(#linear-gradient-25)"/>
      </g>
    </g>
    <g id="Group_3848" data-name="Group 3848" transform="translate(41.533 753.914)">
      <g id="Group_3847" data-name="Group 3847" clip-path="url(#clip-path-50)">
        <g id="Group_3846" data-name="Group 3846" transform="translate(-3.316 -44.177)" opacity="0.5" style="mix-blend-mode: soft-light;isolation: isolate">
          <g id="Group_3845" data-name="Group 3845">
            <g id="Group_3844" data-name="Group 3844" clip-path="url(#clip-path-52)">
              <path id="Path_3983" data-name="Path 3983" d="M539.69,2170.832c35.633,0,71.767-7.377,107.773-22.036l-.721-1.771c-45.243,18.419-90.678,25.268-135.03,20.352-158.713-17.581-236.839-185.347-257-236.347-11.441-28.935-14.174-62.238-8.126-98.982l-1.886-.311c-6.106,37.091-3.336,70.735,8.234,100,16.595,41.972,46.83,102.706,96.631,153.685,47.915,49.049,102.4,77.264,161.939,83.859a255.881,255.881,0,0,0,28.189,1.553" transform="translate(-186.17 -1831.738)" fill="#fff"/>
              <path id="Path_3984" data-name="Path 3984" d="M207.1,2082.791l.452-.731a177.355,177.355,0,0,0,17.011-40.739c6.282-22.251,10.957-55.739-2.455-88.906l-1.772.717c13.2,32.646,8.592,65.665,2.4,87.615a179.256,179.256,0,0,1-16.372,39.569c-98.128-47.463-105.8-115-105.81-134.606a8.9,8.9,0,0,0-.024-.987l-1.9.245c.01.112.008.362.008.743.007,19.944,7.8,88.744,107.682,136.708Z" transform="translate(-98.632 -1900.945)" fill="#fff"/>
              <path id="Path_3985" data-name="Path 3985" d="M220.949,2179.375c16.978,0,36.676-2.4,59.155-8.674l.493-.137.159-.486c.181-.553,17.96-56.165,3.523-126.865l-14.552-71.271-1.873.383,14.552,71.27c13.621,66.708-1.61,119.8-3.316,125.4-54.2,15.027-91.955,7.266-114.11-1.91-24.066-9.968-35.42-23.708-35.532-23.846l-1.485,1.205c.466.575,11.7,14.2,36.167,24.359,13.324,5.535,32.213,10.568,56.82,10.568" transform="translate(-116.598 -1917.618)" fill="#fff"/>
            </g>
          </g>
        </g>
      </g>
    </g>
    <g id="Group_3850" data-name="Group 3850" transform="translate(188.177 707.844)">
      <g id="Group_3849" data-name="Group 3849" clip-path="url(#clip-path-53)">
        <rect id="Rectangle_11251" data-name="Rectangle 11251" width="375.685" height="225.932" transform="translate(-14.076 367.53) rotate(-87.868)" fill="url(#linear-gradient-26)"/>
      </g>
    </g>
    <g id="Group_3852" data-name="Group 3852" transform="translate(194.418 706.968)">
      <g id="Group_3851" data-name="Group 3851" clip-path="url(#clip-path-54)">
        <rect id="Rectangle_11252" data-name="Rectangle 11252" width="422.069" height="336.083" transform="translate(-128.273 317.421) rotate(-68.057)" fill="url(#linear-gradient-27)"/>
      </g>
    </g>
    <g id="Group_3854" data-name="Group 3854">
      <g id="Group_3853" data-name="Group 3853" clip-path="url(#clip-path)">
        <path id="Path_3989" data-name="Path 3989" d="M692.582,1881.969l27.638,309.867a8.417,8.417,0,0,1-7.306,9.325L556.6,2215.354a8.749,8.749,0,0,1-9.369-8.12l-26.588-321.013a8.072,8.072,0,0,1,7.853-8.888l155.315-3.573a8.939,8.939,0,0,1,8.773,8.208" transform="translate(-318.892 -1147.74)" fill="#fff"/>
      </g>
    </g>
    <g id="Group_3856" data-name="Group 3856" transform="translate(201.719 726.019)">
      <g id="Group_3855" data-name="Group 3855" clip-path="url(#clip-path-56)">
        <rect id="Rectangle_11254" data-name="Rectangle 11254" width="148.223" height="178.424" transform="matrix(0.568, -0.823, 0.823, 0.568, -27.658, 39.596)" fill="url(#linear-gradient-28)"/>
      </g>
    </g>
    <g id="Group_3858" data-name="Group 3858" transform="translate(284.613 715.514)">
      <g id="Group_3857" data-name="Group 3857" clip-path="url(#clip-path-57)">
        <rect id="Rectangle_11255" data-name="Rectangle 11255" width="8.326" height="8.372" transform="translate(-2.376 5.43) rotate(-67.602)" fill="url(#linear-gradient-29)"/>
      </g>
    </g>
    <g id="Group_3860" data-name="Group 3860" transform="translate(223.8 799.511)">
      <g id="Group_3859" data-name="Group 3859" clip-path="url(#clip-path-58)">
        <path id="Path_3992" data-name="Path 3992" d="M569.1,1977.038l68.23,121.546L518.233,2155.82,450,2034.273Z" transform="translate(-499.442 -2010.513)" fill="url(#linear-gradient-30)"/>
      </g>
    </g>
    <g id="Group_3862" data-name="Group 3862" transform="translate(313.997 798.032)">
      <g id="Group_3861" data-name="Group 3861" clip-path="url(#clip-path-59)">
        <path id="Path_3994" data-name="Path 3994" d="M778.3,2005.027l60.008,106.9-92.146,44.285-60.008-106.9Z" transform="translate(-734.291 -2026.179)" fill="url(#linear-gradient-31)"/>
      </g>
    </g>
    <g id="Group_3864" data-name="Group 3864" transform="translate(235.925 918.532)">
      <g id="Group_3863" data-name="Group 3863" clip-path="url(#clip-path-60)">
        <path id="Path_3996" data-name="Path 3996" d="M663.892,2231.9l66.12,117.787L582.23,2420.71l-66.12-117.787Z" transform="translate(-552.06 -2285.646)" fill="url(#linear-gradient-32)"/>
      </g>
    </g>
    <g id="Group_3866" data-name="Group 3866" transform="translate(244.44 1003.167)">
      <g id="Group_3865" data-name="Group 3865" clip-path="url(#clip-path-61)">
        <path id="Path_3998" data-name="Path 3998" d="M709.334,2454.549l48.209,85.881-127.39,61.222-48.209-85.881Z" transform="translate(-600.901 -2506.661)" fill="url(#linear-gradient-33)"/>
      </g>
    </g>
    <g id="Group_3871" data-name="Group 3871">
      <g id="Group_3870" data-name="Group 3870" clip-path="url(#clip-path)">
        <g id="Group_3869" data-name="Group 3869" transform="translate(194.418 709.71)" opacity="0.48" style="mix-blend-mode: soft-light;isolation: isolate">
          <g id="Group_3868" data-name="Group 3868">
            <g id="Group_3867" data-name="Group 3867" clip-path="url(#clip-path-63)">
              <path id="Path_4000" data-name="Path 4000" d="M644.786,2067.239c-16.118-56.314-63.112-50.683-77.166-101.569-11.542-41.792,15.072-63.824-1.072-98.813-7.593-16.456-20.895-27.583-34.689-35.187l-21.621.413a8.622,8.622,0,0,0-8.438,9.491l28.676,347.118a9.381,9.381,0,0,0,10.066,8.707l136.318-12.581a142.646,142.646,0,0,1-22.727-40.845c-12.15-34.407-.435-45.592-9.348-76.733" transform="translate(-501.768 -1831.669)" fill="#fff"/>
            </g>
          </g>
        </g>
      </g>
    </g>
  </g>
</svg>
