<svg id="Group_1940" data-name="Group 1940" xmlns="http://www.w3.org/2000/svg" xmlns:xlink="http://www.w3.org/1999/xlink" width="365.148" height="364.836" viewBox="0 0 365.148 364.836">
  <defs>
    <clipPath id="clip-path">
      <path id="Path_2087" data-name="Path 2087" d="M12.353,173.954c3.6,26.017-32.46,103.783,4.341,168.374,14.989,26.308,41.833,35.861,41.833,35.861C39.894,361.473,26.086,335.637,41.736,269.84c12.474-52.442-14.77-85.67-26.342-97a1.884,1.884,0,0,0-1.331-.533,1.559,1.559,0,0,0-1.709,1.644" transform="translate(-0.001 -172.31)" fill="none"/>
    </clipPath>
    <clipPath id="clip-path-2">
      <rect id="Rectangle_10228" data-name="Rectangle 10228" width="365.148" height="364.836" fill="none"/>
    </clipPath>
    <clipPath id="clip-path-3">
      <rect id="Rectangle_10227" data-name="Rectangle 10227" width="34.011" height="176.87" fill="none"/>
    </clipPath>
    <clipPath id="clip-path-4">
      <path id="Path_2089" data-name="Path 2089" d="M132.517,317.153c-2.8,8.618-10.235,27.087-29.337,57.8-22.62,36.37-14.186,70.568-10.143,82.3a3.166,3.166,0,0,0,5.077,1.362c61.167-53.826,44.867-121.423,38.174-141.473a1.985,1.985,0,0,0-3.772.014" transform="translate(-88.1 -315.781)" fill="none"/>
    </clipPath>
    <linearGradient id="linear-gradient" x1="0.226" y1="2.099" x2="0.227" y2="2.099" gradientUnits="objectBoundingBox">
      <stop offset="0" stop-color="#ce1567"/>
      <stop offset="1" stop-color="#7a1dbc"/>
    </linearGradient>
    <clipPath id="clip-path-6">
      <rect id="Rectangle_10230" data-name="Rectangle 10230" width="32.524" height="100.468" fill="none"/>
    </clipPath>
    <clipPath id="clip-path-7">
      <path id="Path_2091" data-name="Path 2091" d="M461.269,629.172l-311.223,8.053c-6.987-.475-10.8,5.842-10.8,9.078l2.65,183a5.9,5.9,0,0,0,5.889,5.883H466.234a5.9,5.9,0,0,0,5.889-5.883L476.5,644.35a14.84,14.84,0,0,0-14.843-15.183c-.128,0-.256,0-.385.005" transform="translate(-139.247 -629.167)" fill="none"/>
    </clipPath>
    <linearGradient id="linear-gradient-2" x1="-0.118" y1="0.967" x2="-0.118" y2="0.967" gradientUnits="objectBoundingBox">
      <stop offset="0" stop-color="#2b3582"/>
      <stop offset="1" stop-color="#150e42"/>
    </linearGradient>
    <clipPath id="clip-path-8">
      <path id="Path_2092" data-name="Path 2092" d="M514.429,682.727l-298.288,8c-5.313-.212-14.078,3.381-14.373,13.378l2.5,166.132a5.588,5.588,0,0,0,5.571,5.571H515.113a5.588,5.588,0,0,0,5.571-5.571L525.12,693.4a10.415,10.415,0,0,0-10.412-10.677q-.14,0-.28,0" transform="translate(-201.768 -682.723)" fill="none"/>
    </clipPath>
    <linearGradient id="linear-gradient-3" y1="1.056" x2="0.001" y2="1.056" gradientUnits="objectBoundingBox">
      <stop offset="0" stop-color="#179bd6"/>
      <stop offset="1" stop-color="#0e65bb"/>
    </linearGradient>
    <clipPath id="clip-path-10">
      <path id="Path_2095" data-name="Path 2095" d="M18.653,2203.514a8.044,8.044,0,0,0,0,16.079H366.807a8.044,8.044,0,0,0,0-16.079Z" transform="translate(-10.864 -2203.514)" fill="none"/>
    </clipPath>
    <linearGradient id="linear-gradient-4" x1="-1.756" y1="0.693" x2="-1.754" y2="0.693" xlink:href="#linear-gradient-2"/>
    <clipPath id="clip-path-12">
      <rect id="Rectangle_10236" data-name="Rectangle 10236" width="305.277" height="41.856" fill="none"/>
    </clipPath>
    <clipPath id="clip-path-13">
      <rect id="Rectangle_10237" data-name="Rectangle 10237" width="107.728" height="102.291" fill="none"/>
    </clipPath>
    <clipPath id="clip-path-14">
      <rect id="Rectangle_10238" data-name="Rectangle 10238" width="209.555" height="17.844" fill="none"/>
    </clipPath>
    <clipPath id="clip-path-15">
      <rect id="Rectangle_10239" data-name="Rectangle 10239" width="93.725" height="102.854" fill="#eef4fa"/>
    </clipPath>
    <clipPath id="clip-path-16">
      <rect id="Rectangle_10240" data-name="Rectangle 10240" width="91.092" height="130.624" fill="none"/>
    </clipPath>
    <clipPath id="clip-path-17">
      <path id="Path_2101" data-name="Path 2101" d="M622.206,1075.621l.421,73.785a3.377,3.377,0,0,0,3.476,3.359c17.385-.518,94.571-2.805,97.979-2.663,3.367.141,1.538-59.131,1.035-73.756a3.377,3.377,0,0,0-3.347-3.261l-96.155-.862h-.031a3.379,3.379,0,0,0-3.379,3.4" transform="translate(-622.206 -1072.223)" fill="none"/>
    </clipPath>
    <clipPath id="clip-path-19">
      <path id="Path_2105" data-name="Path 2105" d="M160.663,1512.046c-5.116,1.187-8.508,5.4-7.281,10.695l.008.032a2.854,2.854,0,0,1-2.092,3.485c-8.471,1.889-16.073,9.365-18.533,18.465-3.288,12.161,3.851,22.615,15.306,25.712s22.89-2.335,26.178-14.5a26.528,26.528,0,0,0-5.03-23.533,2.847,2.847,0,0,1,.108-3.771,11.723,11.723,0,0,0,2.581-10.191,8.454,8.454,0,0,0-8.633-6.7,11.573,11.573,0,0,0-2.612.306" transform="translate(-131.961 -1511.74)" fill="none"/>
    </clipPath>
    <linearGradient id="linear-gradient-5" x1="-0.077" y1="2.335" x2="-0.075" y2="2.335" xlink:href="#linear-gradient-2"/>
    <clipPath id="clip-path-21">
      <path id="Path_2108" data-name="Path 2108" d="M601.345,1330.825a4.248,4.248,0,0,0,.013,3.8l3.285,6.523-.094,3.143,1.7.479s2.1-2.435,1.533-3.791-2.714-17.664-2.714-17.664Z" transform="translate(-600.903 -1323.312)" fill="none"/>
    </clipPath>
    <linearGradient id="linear-gradient-6" x1="-3.111" y1="12.123" x2="-3.105" y2="12.123" gradientUnits="objectBoundingBox">
      <stop offset="0" stop-color="#f9b776"/>
      <stop offset="1" stop-color="#f47960"/>
    </linearGradient>
    <clipPath id="clip-path-22">
      <path id="Path_2109" data-name="Path 2109" d="M422.257,1495.924s5.666,9.245,8.624,9.806c0,0,18.187-23.277,20.041-42.348l-1.648-3.209s-9.992,27.238-27.016,35.751" transform="translate(-422.257 -1460.173)" fill="none"/>
    </clipPath>
    <linearGradient id="linear-gradient-7" x1="-0.802" y1="3.899" x2="-0.8" y2="3.899" xlink:href="#linear-gradient-6"/>
    <clipPath id="clip-path-23">
      <path id="Path_2110" data-name="Path 2110" d="M39.07,2705.481a15.049,15.049,0,0,0-2.771,5.4c-.278.874-.038,6.705,1.958,6.9,3.244.322,5.771-4.625,6.294-6.588l.5-4.131a1.412,1.412,0,0,0-1.4-1.582Z" transform="translate(-36.204 -2705.481)" fill="none"/>
    </clipPath>
    <linearGradient id="linear-gradient-8" x1="-0.496" y1="0.976" x2="-0.482" y2="0.976" xlink:href="#linear-gradient-2"/>
    <clipPath id="clip-path-24">
      <path id="Path_2111" data-name="Path 2111" d="M315.131,2349.965l-2.368,4.448a9.018,9.018,0,0,0-1.026,4.987l2.454,29.39-1.874,2.576.228,1.4,11.446,6.754-4.5-7.313a8.222,8.222,0,0,1-1.217-4.673c.461-10.494,3.051-36.729,3.051-36.729l-.773-4.55Z" transform="translate(-311.706 -2346.251)" fill="none"/>
    </clipPath>
    <linearGradient id="linear-gradient-9" x1="-2.264" y1="1.1" x2="-2.257" y2="1.1" xlink:href="#linear-gradient-6"/>
    <clipPath id="clip-path-25">
      <path id="Path_2112" data-name="Path 2112" d="M309.538,2683.985l1.078,6.708h.851s-.194-5.4,1.324-5.3c1.128.075,3.487,2.962,4.626,4.442a2.2,2.2,0,0,0,1.745.856h3.653a.966.966,0,0,0,.18-1.915,5.223,5.223,0,0,0-1.485-.04s-5.777-4.066-7.66-5.2a5.614,5.614,0,0,1-2.23-3.7,3.971,3.971,0,0,0-2.084,4.151" transform="translate(-309.488 -2679.834)" fill="none"/>
    </clipPath>
    <linearGradient id="linear-gradient-10" x1="-2.695" y1="1.442" x2="-2.686" y2="1.442" xlink:href="#linear-gradient-2"/>
    <clipPath id="clip-path-26">
      <path id="Path_2113" data-name="Path 2113" d="M68.344,2350.215c-6.327,4.84-7.97,10.094-9.423,14.937s-4.1,18.774-5.334,21.848c-1.032,2.575-3.817,8.251-4.695,10.028a1.62,1.62,0,0,0,.062,1.57,2.667,2.667,0,0,0,2.482,1.132c2.781,0,3.79-.778,3.841-1.589a63.121,63.121,0,0,1,3.289-12.573c2.412-6.571,17.585-35.354,17.585-35.354a4.5,4.5,0,0,0-3.564-1.891,6.977,6.977,0,0,0-4.244,1.891" transform="translate(-48.719 -2348.324)" fill="none"/>
    </clipPath>
    <linearGradient id="linear-gradient-11" x1="-0.13" y1="1.119" x2="-0.126" y2="1.119" xlink:href="#linear-gradient-6"/>
    <clipPath id="clip-path-27">
      <path id="Path_2114" data-name="Path 2114" d="M311.961,1738.739a7.058,7.058,0,0,0-2.957,9.63c2.348,4.373,4.584,11.467,2.362,20.884a15.136,15.136,0,0,0,13.6,1.324s6.889-18.2,7.646-21.852c1.29-6.224-9.587-14.177-9.587-14.177a54.746,54.746,0,0,0-11.059,4.19" transform="translate(-308.153 -1734.549)" fill="none"/>
    </clipPath>
    <linearGradient id="linear-gradient-12" x1="-0.626" y1="3.07" x2="-0.623" y2="3.07" gradientUnits="objectBoundingBox">
      <stop offset="0" stop-color="#fdf53f"/>
      <stop offset="1" stop-color="#d93c65"/>
    </linearGradient>
    <clipPath id="clip-path-28">
      <path id="Path_2115" data-name="Path 2115" d="M204.831,2009.1c-1.593,4.8-2.988,28.328-9.2,39.352,0,0,14.992,3.962,24.74,1.987,0,0,6.187-32.615,7.173-37.69a27.267,27.267,0,0,0-.443-10.536,15.137,15.137,0,0,1-13.6-1.324s-7.085,3.412-8.678,8.211" transform="translate(-195.634 -2000.889)" fill="none"/>
    </clipPath>
    <linearGradient id="linear-gradient-13" x1="-0.234" y1="1.785" x2="-0.232" y2="1.785" gradientUnits="objectBoundingBox">
      <stop offset="0" stop-color="#9f6ae5"/>
      <stop offset="1" stop-color="#3c46c9"/>
    </linearGradient>
    <clipPath id="clip-path-29">
      <path id="Path_2116" data-name="Path 2116" d="M346.111,1641.337l-3.182,14.294c-.3,1.259.843,1.053,2.116.813,2.085-.393,4.771-1.2,5.669-2.824a1.54,1.54,0,0,0,.163-.539l1.367-9.911a1.781,1.781,0,0,0-1.042-1.871l-2.638-1.17a1.778,1.778,0,0,0-2.453,1.209" transform="translate(-342.88 -1639.974)" fill="none"/>
    </clipPath>
    <linearGradient id="linear-gradient-14" x1="-3.631" y1="8.393" x2="-3.62" y2="8.393" xlink:href="#linear-gradient-6"/>
    <clipPath id="clip-path-30">
      <path id="Path_2117" data-name="Path 2117" d="M320.53,1604.341a3.912,3.912,0,0,0-4.227,3.587l-.091,1.168a5.207,5.207,0,0,0,5.448,5.611c11.233-.568,35.357-4.98,43.625-31.67l-2.606-5.057s-8.375,29.095-42.149,26.36" transform="translate(-316.197 -1577.981)" fill="none"/>
    </clipPath>
    <linearGradient id="linear-gradient-15" x1="-0.793" y1="4.123" x2="-0.79" y2="4.123" xlink:href="#linear-gradient-6"/>
    <clipPath id="clip-path-31">
      <path id="Path_2118" data-name="Path 2118" d="M673.124,1471.614a11.436,11.436,0,0,0,.4,5.223l-.588,4.025,2.607,5.057a54.377,54.377,0,0,0,2.014-7.7c.4-2.96-1.084-9.6-2.363-11.473-.209-.3-.389-.438-.547-.438-.811,0-1.04,3.5-1.521,5.3" transform="translate(-672.935 -1466.312)" fill="none"/>
    </clipPath>
    <linearGradient id="linear-gradient-16" x1="-14.009" y1="8.777" x2="-13.988" y2="8.777" xlink:href="#linear-gradient-6"/>
    <clipPath id="clip-path-32">
      <path id="Path_2119" data-name="Path 2119" d="M354.119,1560.724c-2.046,2.109-.248,8.476-.248,8.476s5.728,8.33,10.732,5.064-3.042-14.988-3.042-14.988a17.327,17.327,0,0,0-1.906-.1c-1.758,0-4.279.25-5.536,1.546" transform="translate(-353.14 -1559.178)" fill="none"/>
    </clipPath>
    <linearGradient id="linear-gradient-17" x1="-1.723" y1="6.911" x2="-1.717" y2="6.911" xlink:href="#linear-gradient-6"/>
    <clipPath id="clip-path-33">
      <path id="Path_2120" data-name="Path 2120" d="M343.256,1539.3c-1.515,3.461,2.028,9.569,2.028,9.569l1.358-6.4c1.537-.043,7.044-1.415,6.581-3.016s-3.963-2.5-3.963-2.5a7.429,7.429,0,0,0-1.624-.172,4.447,4.447,0,0,0-4.381,2.515" transform="translate(-342.88 -1536.787)" fill="none"/>
    </clipPath>
    <linearGradient id="linear-gradient-18" x1="-2.691" y1="10.666" x2="-2.682" y2="10.666" xlink:href="#linear-gradient-2"/>
    <clipPath id="clip-path-34">
      <path id="Path_2121" data-name="Path 2121" d="M335.125,1613.857c-1.325,2.4,2.815,4.307,4.283,3.142l.189-1.76s-1.813-2.181-3.266-2.181a1.336,1.336,0,0,0-1.206.8" transform="translate(-334.867 -1613.058)" fill="none"/>
    </clipPath>
    <linearGradient id="linear-gradient-19" x1="-5.882" y1="20.932" x2="-5.863" y2="20.932" xlink:href="#linear-gradient-6"/>
    <clipPath id="clip-path-35">
      <path id="Path_2122" data-name="Path 2122" d="M2161.071,1542.249c-5.834.6-12.443.552-12.443.552-.076.145-4.88,3.679-4.88,3.679s1.061,7.589,5.368,10.586c4.736,3.295,11.424-2.714,11.424-2.714s5.323,1.265,8.154-9.815c.48-1.879-1.443-2.486-4.306-2.486a32.916,32.916,0,0,0-3.318.2" transform="translate(-2143.748 -1542.051)" fill="none"/>
    </clipPath>
    <linearGradient id="linear-gradient-20" x1="-9.364" y1="5.44" x2="-9.36" y2="5.44" xlink:href="#linear-gradient-2"/>
    <clipPath id="clip-path-36">
      <path id="Path_2123" data-name="Path 2123" d="M2072.576,1724.03a24.4,24.4,0,0,1-4.488-.517,16.065,16.065,0,0,0-3.568-.493,20.261,20.261,0,0,0-6.159,2.866c-5.3,3.645-8.48,13.847-8.039,14.865s6.449,3.816,6.449,3.816l-.678,27.4,18.92,9.5,16.577-8.481.691-28.034a20.094,20.094,0,0,0,6.718-4.41c-1.571-5.767-4.148-11.59-8.539-14.712a22.541,22.541,0,0,0-7.111-2.827,7.358,7.358,0,0,0-1.787-.2c-2.75,0-5.891,1.164-8.987,1.235" transform="translate(-2050.281 -1722.795)" fill="none"/>
    </clipPath>
    <linearGradient id="linear-gradient-21" x1="-5.431" y1="2.392" x2="-5.428" y2="2.392" gradientUnits="objectBoundingBox">
      <stop offset="0" stop-color="#cb236d"/>
      <stop offset="1" stop-color="#4c246d"/>
    </linearGradient>
    <clipPath id="clip-path-37">
      <path id="Path_2124" data-name="Path 2124" d="M2051.317,1891.154c3.812-.506,2.346-6.838,2.346-6.838s-7.978-1.765-5.582-20.386a51.575,51.575,0,0,0-7.073-4.272s-8.051,22.322,10.309,31.5" transform="translate(-2039.25 -1859.658)" fill="none"/>
    </clipPath>
    <linearGradient id="linear-gradient-22" x1="-7.815" y1="3.341" x2="-7.811" y2="3.341" xlink:href="#linear-gradient-6"/>
    <clipPath id="clip-path-38">
      <path id="Path_2125" data-name="Path 2125" d="M2327.821,1863.93c.848,17.22-5.582,20.386-5.582,20.386s-1.467,6.331,2.346,6.838c15.849-8.195,10.309-31.5,10.309-31.5a51.572,51.572,0,0,0-7.073,4.272" transform="translate(-2321.962 -1859.658)" fill="none"/>
    </clipPath>
    <linearGradient id="linear-gradient-23" x1="-7.998" y1="4.034" x2="-7.994" y2="4.034" xlink:href="#linear-gradient-6"/>
    <clipPath id="clip-path-39">
      <rect id="Rectangle_10265" data-name="Rectangle 10265" width="36.351" height="24.549" rx="8.334" fill="none"/>
    </clipPath>
    <linearGradient id="linear-gradient-24" x1="-10.936" y1="3.254" x2="-10.931" y2="3.254" xlink:href="#linear-gradient-2"/>
    <clipPath id="clip-path-40">
      <path id="Path_2126" data-name="Path 2126" d="M2381.908,2164.956l-.391,1.059-.648,5.264s9.157,1.65,13.67,1.646a4.255,4.255,0,0,0,1.266-.189c.138-.124.272-.252.4-.391a4.961,4.961,0,0,0-.522-6.948,42.521,42.521,0,0,0-8.127-.579c-3.067,0-5.648.138-5.648.138" transform="translate(-2380.869 -2164.818)" fill="none"/>
    </clipPath>
    <linearGradient id="linear-gradient-25" x1="-16.48" y1="5.254" x2="-16.473" y2="5.254" xlink:href="#linear-gradient-21"/>
    <clipPath id="clip-path-41">
      <path id="Path_2127" data-name="Path 2127" d="M2363.627,2170.048l2.491.177a2.467,2.467,0,0,0,1.905-.724,3.04,3.04,0,0,0,.881-2.008,3.86,3.86,0,0,0-.839-2.64,3.134,3.134,0,0,0-2.287-1.182l-1.628-.07Z" transform="translate(-2363.627 -2163.602)" fill="none"/>
    </clipPath>
    <linearGradient id="linear-gradient-26" x1="-37.825" y1="11.387" x2="-37.808" y2="11.387" xlink:href="#linear-gradient-6"/>
    <clipPath id="clip-path-42">
      <path id="Path_2128" data-name="Path 2128" d="M1935.389,2162.893a4.955,4.955,0,0,0-.7,6.93c.124.143.255.275.389.4a4.255,4.255,0,0,0,1.261.228c4.511.143,13.706-1.226,13.706-1.226l-.516-5.282-.365-1.071s-4.2-.354-8.256-.354a31.429,31.429,0,0,0-5.525.373" transform="translate(-1933.578 -2162.52)" fill="none"/>
    </clipPath>
    <linearGradient id="linear-gradient-27" x1="-17.631" y1="4.657" x2="-17.622" y2="4.657" xlink:href="#linear-gradient-21"/>
    <clipPath id="clip-path-43">
      <path id="Path_2129" data-name="Path 2129" d="M2040.483,2163.632a3.115,3.115,0,0,0-2.316,1.112,3.84,3.84,0,0,0-.9,2.613,3.058,3.058,0,0,0,.831,2.034,2.48,2.48,0,0,0,1.886.781l2.495-.1-.362-6.46Z" transform="translate(-2037.261 -2163.612)" fill="none"/>
    </clipPath>
    <linearGradient id="linear-gradient-28" x1="-33.026" y1="11.564" x2="-33.01" y2="11.564" xlink:href="#linear-gradient-6"/>
    <clipPath id="clip-path-44">
      <path id="Path_2130" data-name="Path 2130" d="M2110.581,2012.2c-.069.09-24.941,12.837-46.875,18.424a23.848,23.848,0,0,1,1.021,6.26q.019.7-.023,1.388c16.82-.864,35.076-6.474,50.762-11.4a8.671,8.671,0,0,0,5.542-11.653,6.5,6.5,0,0,0-6.188-4.1,9.3,9.3,0,0,0-4.24,1.088" transform="translate(-2063.706 -2011.111)" fill="none"/>
    </clipPath>
    <linearGradient id="linear-gradient-29" x1="-4.27" y1="1.999" x2="-4.268" y2="1.999" gradientUnits="objectBoundingBox">
      <stop offset="0" stop-color="#53d8ff"/>
      <stop offset="1" stop-color="#3840f7"/>
    </linearGradient>
    <clipPath id="clip-path-45">
      <path id="Path_2131" data-name="Path 2131" d="M1958.908,2012.07c-1.259,4.654,1.506,8.627,5.7,10.023,12.553,4.177,6.017,3.017,10.117,4.336,11.01,3.4,24.712,6.506,37.318,7.353-.009-.176-.02-.353-.026-.528a14.467,14.467,0,0,1,1.415-6.778c.029-.1.063-.188.094-.282-1.252-.388-2.871-.913-5-1.635a239.766,239.766,0,0,1-38.8-16.908,8.512,8.512,0,0,0-4.07-1.092,6.907,6.907,0,0,0-6.755,5.511" transform="translate(-1958.602 -2006.559)" fill="none"/>
    </clipPath>
    <linearGradient id="linear-gradient-30" x1="-5.356" y1="1.945" x2="-5.353" y2="1.945" xlink:href="#linear-gradient-29"/>
    <clipPath id="clip-path-46">
      <path id="Path_2132" data-name="Path 2132" d="M2164.39,1669.785l-.151,5.728-4.677.88a9.607,9.607,0,0,0,9.808,7.108c8.283-.151,9.022-7.132,9.022-7.132l-5.411-1.158-.452-6.029Z" transform="translate(-2159.563 -1669.182)" fill="none"/>
    </clipPath>
    <linearGradient id="linear-gradient-31" x1="-14.81" y1="10.041" x2="-14.803" y2="10.041" xlink:href="#linear-gradient-6"/>
    <clipPath id="clip-path-47">
      <path id="Path_2133" data-name="Path 2133" d="M2182.587,1560.531c7.8,3.092,12.7-12,11.238-16.086-2.257-6.32-3.743-5.57-3.743-5.57l-9.232-.8s-9.327,18.068,1.737,22.452" transform="translate(-2177.175 -1538.08)" fill="none"/>
    </clipPath>
    <linearGradient id="linear-gradient-32" x1="-9.228" y1="5.837" x2="-9.223" y2="5.837" xlink:href="#linear-gradient-6"/>
    <clipPath id="clip-path-48">
      <path id="Path_2134" data-name="Path 2134" d="M2156.52,1481.3a21.471,21.471,0,0,1-4.7.459c-3.38-.114-4.037,3.173-6.855,5.293-3.153,2.372-1.719,9.73.853,13.4,2.345,3.344,2.578-3.421,3.659-5.326s3.807-1.939,10.745.424,10.875-7.63,6.268-8.9c-3.391-.932-2.362-3.646-4.688-5.293a3.224,3.224,0,0,0-1.929-.522,20.068,20.068,0,0,0-3.35.467" transform="translate(-2143.16 -1480.832)" fill="none"/>
    </clipPath>
    <linearGradient id="linear-gradient-33" x1="-7.711" y1="4.817" x2="-7.707" y2="4.817" xlink:href="#linear-gradient-2"/>
    <clipPath id="clip-path-49">
      <path id="Path_2135" data-name="Path 2135" d="M2170.243,1597.293c-.318,2.58.7,5.9,1.9,4.081s.406-4.52.406-4.52-.775-.833-1.435-.833c-.4,0-.754.3-.873,1.273" transform="translate(-2170.185 -1596.02)" fill="none"/>
    </clipPath>
    <linearGradient id="linear-gradient-34" x1="-69.445" y1="21.051" x2="-69.413" y2="21.051" xlink:href="#linear-gradient-6"/>
    <clipPath id="clip-path-50">
      <path id="Path_2136" data-name="Path 2136" d="M2215.978,1959.592a2.266,2.266,0,0,0-1.706,2.789,2.384,2.384,0,0,0,2.707,2.009,2.219,2.219,0,0,0,1.808-2.677,2.587,2.587,0,0,0-2.486-2.144,2.193,2.193,0,0,0-.323.024" transform="translate(-2214.237 -1959.568)" fill="none"/>
    </clipPath>
    <linearGradient id="linear-gradient-35" x1="-56.346" y1="21.884" x2="-56.32" y2="21.884" xlink:href="#linear-gradient-29"/>
    <clipPath id="clip-path-52">
      <path id="Path_2138" data-name="Path 2138" d="M1494.71,1594.741v1.047l8.29,4.333v-1.842a.725.725,0,0,0-.1-.382.847.847,0,0,0-.345-.3l-3.8-1.957a3.468,3.468,0,0,0-.508-.215q-.267-.089-.57-.162.3-.073.57-.162a3.454,3.454,0,0,0,.508-.215l3.8-1.947a.849.849,0,0,0,.345-.3.725.725,0,0,0,.1-.382v-1.842Z" transform="translate(-1494.71 -1590.419)" fill="#3c46c9"/>
    </clipPath>
    <clipPath id="clip-path-53">
      <path id="Path_2139" data-name="Path 2139" d="M1587.325,1562.383v15.553h2.585v-7.766a4.49,4.49,0,0,1,1.109-.827,2.689,2.689,0,0,1,1.256-.3,1.688,1.688,0,0,1,1.366.539,2.294,2.294,0,0,1,.455,1.523v6.835h2.585V1571.1a5.467,5.467,0,0,0-.235-1.648,3.68,3.68,0,0,0-.691-1.287,3.079,3.079,0,0,0-1.135-.837,3.846,3.846,0,0,0-1.56-.3,4.007,4.007,0,0,0-1.769.366,5.467,5.467,0,0,0-1.381.963v-5.976Z" transform="translate(-1587.325 -1562.383)" fill="#3c46c9"/>
    </clipPath>
    <clipPath id="clip-path-54">
      <path id="Path_2140" data-name="Path 2140" d="M1674.033,1574.11a.615.615,0,0,0-.382.115.518.518,0,0,0-.193.325l-.544,2.93-1.727.283v1.026a.5.5,0,0,0,.513.544h1.088v6a3.032,3.032,0,0,0,.754,2.182,2.823,2.823,0,0,0,2.146.791,4.832,4.832,0,0,0,1.518-.241,3.914,3.914,0,0,0,1.3-.712l-.775-1.256a.889.889,0,0,0-.157-.173.3.3,0,0,0-.188-.058.359.359,0,0,0-.188.058c-.063.039-.135.078-.215.12a2.207,2.207,0,0,1-.283.12,1.218,1.218,0,0,1-.4.057.852.852,0,0,1-.67-.283,1.141,1.141,0,0,1-.251-.785v-5.819h2.826v-1.842h-2.826v-3.381Z" transform="translate(-1671.186 -1574.11)" fill="#3c46c9"/>
    </clipPath>
    <clipPath id="clip-path-55">
      <path id="Path_2141" data-name="Path 2141" d="M1751.184,1598.164a3.811,3.811,0,0,0-.958.356,3.441,3.441,0,0,0-.827.623.913.913,0,1,1-1.607-.544,2.507,2.507,0,0,0-1.669-.549,3.356,3.356,0,0,0-.885.11,3.564,3.564,0,0,0-.753.3,3.808,3.808,0,0,0-.659.45,6.1,6.1,0,0,0-.592.576l-.167-.8a.635.635,0,0,0-.659-.471h-1.581v10.738h2.585v-7.86a3.517,3.517,0,0,1,.905-.759,2.073,2.073,0,0,1,1.042-.277,1.621,1.621,0,0,1,1.282.492,2.34,2.34,0,0,1,.434,1.57v6.835h2.6v-6.835a2.5,2.5,0,0,1,.146-.89,1.792,1.792,0,0,1,.4-.644,1.76,1.76,0,0,1,.6-.393,1.973,1.973,0,0,1,.738-.136,1.652,1.652,0,0,1,1.319.518,2.3,2.3,0,0,1,.45,1.544v6.835h2.585v-6.835a5.564,5.564,0,0,0-.246-1.727,3.512,3.512,0,0,0-.717-1.277,3.036,3.036,0,0,0-1.162-.8,4.284,4.284,0,0,0-1.581-.272,4.6,4.6,0,0,0-1.02.115" transform="translate(-1740.827 -1598.049)" fill="#3c46c9"/>
    </clipPath>
    <clipPath id="clip-path-56">
      <rect id="Rectangle_10283" data-name="Rectangle 10283" width="2.585" height="15.553" fill="#3c46c9"/>
    </clipPath>
    <clipPath id="clip-path-57">
      <path id="Path_2142" data-name="Path 2142" d="M1927.426,1592.261a.723.723,0,0,0,.1.382.846.846,0,0,0,.346.3l3.8,1.947a3.45,3.45,0,0,0,.508.215q.267.089.571.162a4.984,4.984,0,0,0-1.078.377l-3.8,1.957a.844.844,0,0,0-.346.3.723.723,0,0,0-.1.382v1.842l8.289-4.333v-1.047l-8.289-4.323Z" transform="translate(-1927.426 -1590.419)" fill="#3c46c9"/>
    </clipPath>
    <clipPath id="clip-path-59">
      <path id="Path_2144" data-name="Path 2144" d="M2323.184,1116.026v1.341l6.06,3.748v-1.934l-4.186-2.484,4.186-2.467V1112.3Z" transform="translate(-2323.184 -1112.295)" fill="#3c46c9"/>
    </clipPath>
    <clipPath id="clip-path-60">
      <path id="Path_2145" data-name="Path 2145" d="M2416.844,1097.647a10.376,10.376,0,0,0-.034,9.519,3.7,3.7,0,0,0,3.262,1.689,4.183,4.183,0,0,0,2.355-.61v-2.08a4.16,4.16,0,0,1-2.089.636q-2.278,0-2.278-4.366a7.542,7.542,0,0,1,.58-3.275,1.766,1.766,0,0,1,1.586-1.178,2.1,2.1,0,0,1,.954.219,6.875,6.875,0,0,1,.825.486l.774-1.9a5.288,5.288,0,0,0-1.354-.662,4.579,4.579,0,0,0-1.32-.189,3.739,3.739,0,0,0-3.262,1.711" transform="translate(-2415.671 -1095.936)" fill="#3c46c9"/>
    </clipPath>
    <clipPath id="clip-path-61">
      <path id="Path_2146" data-name="Path 2146" d="M2478.152,1096.882a3.566,3.566,0,0,0-.9,2.561,4.372,4.372,0,0,0,.228,1.479,3.847,3.847,0,0,0,.645,1.147,5.926,5.926,0,0,0,1.225,1.07,6.022,6.022,0,0,1,1.332,1.156,1.828,1.828,0,0,1,.4,1.147,1.428,1.428,0,0,1-.339,1.005,1.3,1.3,0,0,1-1.01.37,4.835,4.835,0,0,1-2.587-.92v2.312a5.641,5.641,0,0,0,2.794.644,3.372,3.372,0,0,0,2.566-.937,3.772,3.772,0,0,0,.889-2.7,3.916,3.916,0,0,0-.486-1.96,5.307,5.307,0,0,0-1.715-1.684,5.408,5.408,0,0,1-1.276-1.075,1.76,1.76,0,0,1-.365-1.109,1.564,1.564,0,0,1,.305-1.019,1.062,1.062,0,0,1,.872-.374,2.482,2.482,0,0,1,.967.189,7.392,7.392,0,0,1,.864.43l.774-1.874a5.278,5.278,0,0,0-2.776-.808,3.168,3.168,0,0,0-2.411.946" transform="translate(-2477.151 -1095.936)" fill="#3c46c9"/>
    </clipPath>
    <clipPath id="clip-path-62">
      <path id="Path_2147" data-name="Path 2147" d="M2533.961,1096.882a3.567,3.567,0,0,0-.9,2.561,4.378,4.378,0,0,0,.228,1.479,3.852,3.852,0,0,0,.645,1.147,5.926,5.926,0,0,0,1.225,1.07,6.018,6.018,0,0,1,1.333,1.156,1.829,1.829,0,0,1,.4,1.147,1.428,1.428,0,0,1-.34,1.005,1.3,1.3,0,0,1-1.01.37,4.834,4.834,0,0,1-2.587-.92v2.312a5.64,5.64,0,0,0,2.793.644,3.372,3.372,0,0,0,2.566-.937,3.772,3.772,0,0,0,.889-2.7,3.913,3.913,0,0,0-.486-1.96,5.3,5.3,0,0,0-1.715-1.684,5.413,5.413,0,0,1-1.276-1.075,1.761,1.761,0,0,1-.365-1.109,1.565,1.565,0,0,1,.305-1.019,1.063,1.063,0,0,1,.873-.374,2.484,2.484,0,0,1,.967.189,7.392,7.392,0,0,1,.864.43l.774-1.874a5.278,5.278,0,0,0-2.776-.808,3.169,3.169,0,0,0-2.411.946" transform="translate(-2532.96 -1095.936)" fill="#3c46c9"/>
    </clipPath>
    <clipPath id="clip-path-63">
      <path id="Path_2148" data-name="Path 2148" d="M2624.655,1114.229l4.211,2.467-4.211,2.484v1.934l6.059-3.748v-1.341l-6.059-3.731Z" transform="translate(-2624.655 -1112.295)" fill="#3c46c9"/>
    </clipPath>
    <clipPath id="clip-path-65">
      <path id="Path_2150" data-name="Path 2150" d="M1948.7,1175.3v.747l5.918,3.094v-1.316a.516.516,0,0,0-.075-.272.605.605,0,0,0-.246-.213l-2.713-1.4a2.483,2.483,0,0,0-.362-.153q-.191-.063-.407-.116.217-.052.407-.116a2.456,2.456,0,0,0,.362-.153l2.713-1.39a.606.606,0,0,0,.246-.213.519.519,0,0,0,.075-.273v-1.315Z" transform="translate(-1948.704 -1172.209)" fill="#3c46c9"/>
    </clipPath>
    <clipPath id="clip-path-66">
      <path id="Path_2151" data-name="Path 2151" d="M2011.529,1152.193a.976.976,0,0,0-.576.168,1.052,1.052,0,0,0-.366.482l-4.364,11.164H2007a1,1,0,0,0,.291-.045,1.127,1.127,0,0,0,.284-.131,1.016,1.016,0,0,0,.239-.213,1.1,1.1,0,0,0,.172-.3l4.327-11.127Z" transform="translate(-2006.223 -1152.193)" fill="#3c46c9"/>
    </clipPath>
    <clipPath id="clip-path-67">
      <path id="Path_2152" data-name="Path 2152" d="M2064.779,1173.524a.517.517,0,0,0,.074.273.606.606,0,0,0,.247.213l2.713,1.39a2.459,2.459,0,0,0,.363.153q.19.064.407.116a3.568,3.568,0,0,0-.77.269l-2.713,1.4a.606.606,0,0,0-.247.213.515.515,0,0,0-.074.272v1.316l5.918-3.094v-.747l-5.918-3.086Z" transform="translate(-2064.779 -1172.209)" fill="#3c46c9"/>
    </clipPath>
    <clipPath id="clip-path-69">
      <rect id="Rectangle_10297" data-name="Rectangle 10297" width="101.232" height="48.716" fill="none"/>
    </clipPath>
    <clipPath id="clip-path-70">
      <path id="Path_2153" data-name="Path 2153" d="M1857.571,199.994a1.433,1.433,0,0,1-1.005-1.632c.291-1.593.656-3.2,1.084-4.766a1.433,1.433,0,0,1,1.76-1.006l.027.008a1.433,1.433,0,0,1,.979,1.752c-.407,1.492-.753,3.015-1.03,4.527a1.433,1.433,0,0,1-1.668,1.152,1.365,1.365,0,0,1-.147-.035m3.6-11.955a1.457,1.457,0,0,1-.16-.057,1.433,1.433,0,0,1-.756-1.88c.638-1.5,1.346-2.979,2.1-4.408a1.433,1.433,0,1,1,2.532,1.343c-.721,1.359-1.393,2.767-2,4.189a1.433,1.433,0,0,1-1.72.813m6.145-10.865a1.434,1.434,0,0,1-.757-2.217c.952-1.314,1.974-2.6,3.036-3.829a1.433,1.433,0,1,1,2.167,1.876c-1.009,1.166-1.979,2.389-2.883,3.636a1.434,1.434,0,0,1-1.564.534m8.421-9.22a1.433,1.433,0,0,1-.538-2.455c1.223-1.068,2.507-2.1,3.816-3.055a1.433,1.433,0,0,1,1.694,2.312c-1.243.911-2.463,1.887-3.625,2.9a1.433,1.433,0,0,1-1.347.3m10.266-7.11a1.433,1.433,0,0,1-.276-2.637c1.426-.768,2.905-1.486,4.4-2.133a1.433,1.433,0,1,1,1.141,2.629c-1.417.615-2.823,1.3-4.178,2.027a1.428,1.428,0,0,1-1.083.114m11.582-4.662a1.433,1.433,0,0,1,.018-2.756c1.563-.434,3.164-.807,4.759-1.107a1.433,1.433,0,0,1,.53,2.817c-1.515.285-3.037.639-4.522,1.052a1.425,1.425,0,0,1-.786-.005m51.355,11.5a1.426,1.426,0,0,1-.532-.29c-1.166-1.006-2.392-1.974-3.643-2.878a1.433,1.433,0,0,1,1.678-2.323c1.318.952,2.609,1.971,3.837,3.03a1.434,1.434,0,0,1-1.34,2.461M1909.906,154.2a1.434,1.434,0,0,1,.336-2.807c1.621-.076,3.264-.082,4.885-.019a1.433,1.433,0,1,1-.112,2.864c-1.54-.06-3.1-.054-4.639.018a1.434,1.434,0,0,1-.47-.056m28.723,6.444a1.432,1.432,0,0,1-.267-.108c-1.362-.72-2.774-1.39-4.2-1.993a1.433,1.433,0,1,1,1.119-2.639c1.5.634,2.981,1.34,4.414,2.1a1.433,1.433,0,0,1-1.071,2.643m-16.271-5.621a1.433,1.433,0,0,1,.66-2.785c1.595.288,3.2.65,4.766,1.074l.029.008a1.433,1.433,0,0,1-.778,2.758c-1.489-.4-3.013-.746-4.528-1.02-.051-.01-.1-.021-.15-.036" transform="translate(-1856.542 -151.335)" fill="none"/>
    </clipPath>
    <linearGradient id="linear-gradient-36" x1="-3.434" y1="3.571" x2="-3.432" y2="3.571" gradientUnits="objectBoundingBox">
      <stop offset="0" stop-color="#b37cff"/>
      <stop offset="1" stop-color="#f895e7"/>
    </linearGradient>
    <clipPath id="clip-path-71">
      <path id="Path_2154" data-name="Path 2154" d="M2602.661,301.89a1.427,1.427,0,0,1-.712-.476c-.463-.576-.946-1.151-1.436-1.711a1.433,1.433,0,1,1,2.157-1.886c.515.589,1.023,1.194,1.511,1.8a1.433,1.433,0,0,1-1.521,2.274" transform="translate(-2600.159 -297.326)" fill="none"/>
    </clipPath>
    <linearGradient id="linear-gradient-37" x1="-56.519" y1="55.73" x2="-56.497" y2="55.73" xlink:href="#linear-gradient-36"/>
    <clipPath id="clip-path-72">
      <rect id="Rectangle_10301" data-name="Rectangle 10301" width="103.512" height="53.979" fill="none"/>
    </clipPath>
    <clipPath id="clip-path-73">
      <path id="Path_2155" data-name="Path 2155" d="M2704.117,620.974a1.434,1.434,0,0,1-1.017-1.555c.093-.733.173-1.48.236-2.221a1.433,1.433,0,1,1,2.856.244c-.067.78-.15,1.567-.248,2.339a1.434,1.434,0,0,1-1.6,1.241,1.451,1.451,0,0,1-.224-.047" transform="translate(-2703.088 -615.887)" fill="none"/>
    </clipPath>
    <linearGradient id="linear-gradient-38" x1="-58.493" y1="61.698" x2="-58.471" y2="61.698" xlink:href="#linear-gradient-36"/>
    <clipPath id="clip-path-74">
      <path id="Path_2156" data-name="Path 2156" d="M2006.7,732.65q-.949-.278-1.9-.591a1.433,1.433,0,0,1,.9-2.722c1.457.481,2.929.9,4.394,1.254a1.433,1.433,0,1,1-.671,2.787c-.906-.218-1.823-.463-2.726-.728m-8.9-3.449a1.441,1.441,0,0,1-.228-.088c-1.437-.7-2.86-1.473-4.229-2.291a1.433,1.433,0,1,1,1.47-2.46c1.3.777,2.652,1.509,4.018,2.176a1.433,1.433,0,0,1-1.031,2.663m19.066,5.429a1.433,1.433,0,0,1,.547-2.8c1.507.15,3.04.237,4.559.259a1.433,1.433,0,1,1-.042,2.866c-1.6-.023-3.214-.115-4.8-.273a1.438,1.438,0,0,1-.263-.051m-29.446-12.007a1.435,1.435,0,0,1-.493-.258c-1.246-1-2.465-2.065-3.622-3.165a1.433,1.433,0,0,1,1.976-2.076c1.1,1.045,2.255,2.056,3.439,3.005a1.434,1.434,0,0,1-1.3,2.494m41.725,11.862a1.434,1.434,0,0,1,.228-2.8c1.5-.185,3.017-.437,4.5-.749a1.433,1.433,0,1,1,.589,2.8c-1.565.329-3.16.594-4.742.789a1.429,1.429,0,0,1-.578-.046m11.949-2.836a1.433,1.433,0,0,1-.08-2.725c1.429-.511,2.854-1.088,4.234-1.714a1.433,1.433,0,1,1,1.186,2.609c-1.452.66-2.952,1.267-4.456,1.8a1.426,1.426,0,0,1-.884.026m11.047-5.374a1.433,1.433,0,0,1-.361-2.587c1.285-.81,2.55-1.683,3.76-2.6a1.433,1.433,0,1,1,1.726,2.289c-1.273.96-2.6,1.879-3.957,2.732a1.43,1.43,0,0,1-1.168.163m9.611-7.654a1.433,1.433,0,0,1-.606-2.391c1.076-1.071,2.119-2.2,3.1-3.356a1.433,1.433,0,1,1,2.186,1.853c-1.032,1.218-2.13,2.407-3.263,3.534a1.433,1.433,0,0,1-1.416.359m7.7-9.581a1.435,1.435,0,0,1-.807-2.144c.812-1.279,1.579-2.609,2.282-3.955a1.433,1.433,0,1,1,2.541,1.327c-.74,1.417-1.548,2.817-2.4,4.163a1.434,1.434,0,0,1-1.613.608m5.4-11.031-.084-.028a1.433,1.433,0,0,1-.862-1.834c.379-1.051.73-2.126,1.044-3.2q.171-.581.327-1.163a1.433,1.433,0,0,1,1.757-1.01,1.417,1.417,0,0,1,1.01,1.757q-.165.612-.344,1.223c-.33,1.126-.7,2.257-1.1,3.362a1.433,1.433,0,0,1-1.75.889" transform="translate(-1982.859 -690.727)" fill="none"/>
    </clipPath>
    <linearGradient id="linear-gradient-39" x1="-3.903" y1="2.927" x2="-3.902" y2="2.927" xlink:href="#linear-gradient-36"/>
    <clipPath id="clip-path-75">
      <path id="Path_2157" data-name="Path 2157" d="M1934.95,837.617a1.428,1.428,0,0,1-.717-.481c-.484-.607-.964-1.235-1.426-1.868a1.433,1.433,0,0,1,2.313-1.693c.44.6.9,1.2,1.355,1.774a1.433,1.433,0,0,1-1.525,2.268" transform="translate(-1932.53 -832.987)" fill="none"/>
    </clipPath>
    <linearGradient id="linear-gradient-40" x1="-41.479" y1="44.044" x2="-41.458" y2="44.044" xlink:href="#linear-gradient-36"/>
    <clipPath id="clip-path-76">
      <path id="Path_2158" data-name="Path 2158" d="M2023.05,268.066l-5.362,6.135a35.507,35.507,0,0,0-11.506.079l-5.444-6.068a.67.67,0,0,0-.759-.17l-9.01,3.8a.67.67,0,0,0-.408.662l.547,8.134a35.508,35.508,0,0,0-8.085,8.186l-8.136-.441a.67.67,0,0,0-.657.417l-3.683,9.059a.67.67,0,0,0,.18.757l6.135,5.361a35.517,35.517,0,0,0,.079,11.506l-6.068,5.445a.67.67,0,0,0-.17.759l3.8,9.01a.67.67,0,0,0,.662.408l8.134-.547a35.516,35.516,0,0,0,8.186,8.086l-.441,8.135a.67.67,0,0,0,.417.657l9.059,3.683a.67.67,0,0,0,.757-.18l5.361-6.135a35.51,35.51,0,0,0,11.506-.079l5.445,6.068a.67.67,0,0,0,.759.17l9.01-3.8a.67.67,0,0,0,.408-.662l-.547-8.134a35.509,35.509,0,0,0,8.085-8.186l8.136.441a.67.67,0,0,0,.657-.417l3.683-9.059a.67.67,0,0,0-.18-.757l-6.135-5.362a35.516,35.516,0,0,0-.079-11.505l6.068-5.445a.669.669,0,0,0,.17-.759l-3.8-9.01a.669.669,0,0,0-.662-.408l-8.134.547a35.511,35.511,0,0,0-8.186-8.086l.441-8.136a.67.67,0,0,0-.416-.657l-9.059-3.683a.67.67,0,0,0-.757.18" transform="translate(-1970.499 -267.837)" fill="none"/>
    </clipPath>
    <clipPath id="clip-path-78">
      <rect id="Rectangle_10304" data-name="Rectangle 10304" width="19.662" height="19.661" fill="none"/>
    </clipPath>
    <clipPath id="clip-path-79">
      <rect id="Rectangle_10305" data-name="Rectangle 10305" width="48.358" height="48.352" fill="none"/>
    </clipPath>
    <clipPath id="clip-path-80">
      <rect id="Rectangle_10308" data-name="Rectangle 10308" width="55.757" height="39.114" fill="none"/>
    </clipPath>
    <clipPath id="clip-path-81">
      <path id="Path_2161" data-name="Path 2161" d="M1418.448,670.973a.885.885,0,0,1-.636-.849c0-.752.022-1.513.067-2.264a.885.885,0,0,1,1.767.106c-.043.715-.064,1.441-.064,2.159a.886.886,0,0,1-.885.885.9.9,0,0,1-.25-.036" transform="translate(-1417.812 -667.027)" fill="none"/>
    </clipPath>
    <linearGradient id="linear-gradient-41" x1="-41.973" y1="95.116" x2="-41.943" y2="95.116" xlink:href="#linear-gradient-36"/>
    <clipPath id="clip-path-82">
      <path id="Path_2162" data-name="Path 2162" d="M1423.231,429.7a.885.885,0,0,1-.62-1.011,38.446,38.446,0,0,1,.9-3.788q.115-.392.239-.784a.916.916,0,0,1,1.111-.578.886.886,0,0,1,.577,1.111q-.118.375-.229.749a36.709,36.709,0,0,0-.863,3.612.885.885,0,0,1-1.032.709c-.03-.006-.06-.013-.089-.021m2.772-8.763a.928.928,0,0,1-.12-.044.886.886,0,0,1-.438-1.173,38.379,38.379,0,0,1,2.215-4.158.885.885,0,1,1,1.508.927,36.7,36.7,0,0,0-2.113,3.967.885.885,0,0,1-1.053.482m4.814-7.829a.885.885,0,0,1-.441-1.4,38.181,38.181,0,0,1,3.171-3.489.885.885,0,0,1,1.234,1.27,36.367,36.367,0,0,0-3.024,3.327.886.886,0,0,1-.94.3m6.592-6.406a.885.885,0,0,1-.284-1.555,38.375,38.375,0,0,1,3.927-2.606.885.885,0,0,1,.885,1.533,36.5,36.5,0,0,0-3.745,2.485.884.884,0,0,1-.784.143m7.957-4.6a.885.885,0,0,1-.1-1.664,38.726,38.726,0,0,1,4.44-1.573.885.885,0,1,1,.488,1.7,36.892,36.892,0,0,0-4.236,1.5.883.883,0,0,1-.595.035m8.831-2.531a.885.885,0,0,1,.111-1.724A38.085,38.085,0,0,1,1459,397.4a.885.885,0,0,1,.057,1.77,36.29,36.29,0,0,0-4.47.422.879.879,0,0,1-.386-.025m9.18-.295a.885.885,0,0,1,.331-1.731,38.371,38.371,0,0,1,4.656.722.886.886,0,0,1-.379,1.73,36.341,36.341,0,0,0-4.441-.69.9.9,0,0,1-.168-.032m13.22,3.759a.865.865,0,0,1-.145-.057,36.711,36.711,0,0,0-3.59-1.548c-.185-.07-.368-.136-.551-.2a.886.886,0,0,1,.586-1.671c.2.069.389.139.584.212a38.5,38.5,0,0,1,3.759,1.622.885.885,0,0,1-.642,1.642" transform="translate(-1422.595 -397.399)" fill="none"/>
    </clipPath>
    <linearGradient id="linear-gradient-42" x1="-4.062" y1="5.272" x2="-4.059" y2="5.272" xlink:href="#linear-gradient-36"/>
    <clipPath id="clip-path-83">
      <rect id="Rectangle_10311" data-name="Rectangle 10311" width="59.218" height="17.046" fill="none"/>
    </clipPath>
    <clipPath id="clip-path-84">
      <path id="Path_2163" data-name="Path 2163" d="M1523.962,891.678a.885.885,0,0,1,.487-1.7,36.6,36.6,0,0,0,4.321.929.885.885,0,1,1-.266,1.751,38.577,38.577,0,0,1-4.53-.974l-.012,0m-4.281-1.478a.919.919,0,0,1-.091-.032,38.686,38.686,0,0,1-4.169-2.025.885.885,0,0,1,.868-1.544,37.038,37.038,0,0,0,3.978,1.933.885.885,0,0,1-.586,1.668m13.216,2.837a.885.885,0,0,1,.274-1.734,36.706,36.706,0,0,0,4.419-.144.885.885,0,0,1,.164,1.763,38.422,38.422,0,0,1-4.633.15.882.882,0,0,1-.225-.035m-21.1-7.275a.89.89,0,0,1-.276-.137,37.962,37.962,0,0,1-3.559-2.974.885.885,0,1,1,1.216-1.287,36.346,36.346,0,0,0,3.393,2.835.885.885,0,0,1-.774,1.562M1541.9,892.2a.885.885,0,0,1,.06-1.715,36.421,36.421,0,0,0,4.254-1.2.885.885,0,0,1,.584,1.672,38.5,38.5,0,0,1-4.46,1.26.884.884,0,0,1-.437-.016m8.534-2.975a.885.885,0,0,1-.142-1.644,37,37,0,0,0,3.845-2.184.885.885,0,1,1,.966,1.483,38.7,38.7,0,0,1-4.03,2.29.883.883,0,0,1-.639.055m7.576-4.935a.876.876,0,0,1-.428-.28.885.885,0,0,1,.109-1.247,36.209,36.209,0,0,0,3.208-3.043.885.885,0,0,1,1.294,1.208,38.272,38.272,0,0,1-3.365,3.192.885.885,0,0,1-.819.171" transform="translate(-1507.69 -879.435)" fill="none"/>
    </clipPath>
    <linearGradient id="linear-gradient-43" x1="-7.305" y1="4.802" x2="-7.3" y2="4.802" xlink:href="#linear-gradient-36"/>
    <clipPath id="clip-path-85">
      <path id="Path_2164" data-name="Path 2164" d="M1475.292,856.875a.882.882,0,0,1-.433-.285c-.483-.584-.95-1.185-1.39-1.786a.885.885,0,1,1,1.429-1.046c.419.573.865,1.146,1.326,1.7a.885.885,0,0,1-.932,1.413" transform="translate(-1473.299 -853.396)" fill="none"/>
    </clipPath>
    <linearGradient id="linear-gradient-44" x1="-42.784" y1="59.724" x2="-42.755" y2="59.724" xlink:href="#linear-gradient-36"/>
    <clipPath id="clip-path-86">
      <path id="Path_2165" data-name="Path 2165" d="M1533.305,474.8l-3.588,4.105a23.761,23.761,0,0,0-7.7.053l-3.643-4.06a.448.448,0,0,0-.508-.114l-6.029,2.543a.449.449,0,0,0-.273.443l.366,5.443a23.768,23.768,0,0,0-5.41,5.478l-5.444-.295a.448.448,0,0,0-.439.279l-2.465,6.062a.449.449,0,0,0,.12.506l4.105,3.588a23.757,23.757,0,0,0,.053,7.7l-4.061,3.643a.449.449,0,0,0-.114.508l2.544,6.029a.449.449,0,0,0,.443.273l5.443-.366a23.759,23.759,0,0,0,5.478,5.41l-.3,5.444a.448.448,0,0,0,.279.439l6.062,2.465a.448.448,0,0,0,.506-.12l3.588-4.1a23.767,23.767,0,0,0,7.7-.053l3.643,4.061a.448.448,0,0,0,.508.114l6.029-2.543a.448.448,0,0,0,.273-.443l-.366-5.443a23.765,23.765,0,0,0,5.41-5.478l5.444.295a.448.448,0,0,0,.439-.279l2.465-6.062a.448.448,0,0,0-.12-.506l-4.105-3.588a23.754,23.754,0,0,0-.053-7.7l4.061-3.643a.448.448,0,0,0,.114-.508l-2.544-6.029a.448.448,0,0,0-.443-.273l-5.443.366a23.753,23.753,0,0,0-5.478-5.41l.295-5.444a.448.448,0,0,0-.279-.44l-6.062-2.465a.448.448,0,0,0-.506.12" transform="translate(-1498.14 -474.646)" fill="none"/>
    </clipPath>
    <clipPath id="clip-path-88">
      <rect id="Rectangle_10314" data-name="Rectangle 10314" width="13.393" height="13.393" fill="none"/>
    </clipPath>
    <clipPath id="clip-path-89">
      <rect id="Rectangle_10315" data-name="Rectangle 10315" width="33.362" height="33.36" fill="none"/>
    </clipPath>
  </defs>
  <g id="Group_1943" data-name="Group 1943">
    <g id="Group_1747" data-name="Group 1747" transform="translate(0 22.452)">
      <g id="Group_1746" data-name="Group 1746" clip-path="url(#clip-path)">
        <path id="Path_2733" data-name="Path 2733" d="M0,0H218.778V165.642H0Z" transform="translate(-105.096 161.02) rotate(-62.174)" fill="#9f6ae5"/>
      </g>
    </g>
    <g id="Group_1752" data-name="Group 1752">
      <g id="Group_1751" data-name="Group 1751" clip-path="url(#clip-path-2)">
        <g id="Group_1750" data-name="Group 1750" transform="translate(16.259 45.392)" style="mix-blend-mode: soft-light;isolation: isolate">
          <g id="Group_1749" data-name="Group 1749">
            <g id="Group_1748" data-name="Group 1748" clip-path="url(#clip-path-3)">
              <path id="Path_2088" data-name="Path 2088" d="M128.46,348.789c.872,7.57,1.571,15.146,1.95,22.726q.637,11.367.471,22.724c-.147,7.565-.458,15.122-1.14,22.648-.643,7.529-1.659,15.017-2.71,22.531a205.182,205.182,0,0,0-2.225,22.785,67.865,67.865,0,0,0,3.228,23.06c.629,1.874,1.3,3.747,2.09,5.57.752,1.835,1.6,3.644,2.479,5.441a81.84,81.84,0,0,0,6.189,10.437,90.007,90.007,0,0,0,17.173,18.121,1.881,1.881,0,0,0,2.393-.048,1.333,1.333,0,0,0-.083-2.043l0,0c-1.563-1.332-3.107-2.677-4.578-4.075-.748-.689-1.461-1.405-2.188-2.11-.7-.727-1.425-1.431-2.095-2.175a81.648,81.648,0,0,1-17.789-29.911,66.22,66.22,0,0,1-2.546-10.964,72.9,72.9,0,0,1-.677-11.172,202.956,202.956,0,0,1,2.008-22.5c.928-7.526,1.8-15.1,2.311-22.694q.4-5.7.564-11.407c.067-1.9.092-3.807.12-5.71q.011-2.857-.02-5.713-.16-11.428-1.135-22.841c-.695-7.6-1.622-15.192-2.884-22.745a.461.461,0,0,0-.515-.345.4.4,0,0,0-.387.419" transform="translate(-124.786 -348.367)" fill="#fff"/>
            </g>
          </g>
        </g>
      </g>
    </g>
    <g id="Group_1754" data-name="Group 1754" transform="translate(11.479 41.146)">
      <g id="Group_1753" data-name="Group 1753" clip-path="url(#clip-path-4)">
        <rect id="Rectangle_10229" data-name="Rectangle 10229" width="158.129" height="157.283" transform="matrix(0.701, -0.714, 0.714, 0.701, -79.686, 73.475)" fill="url(#linear-gradient)"/>
      </g>
    </g>
    <g id="Group_1759" data-name="Group 1759">
      <g id="Group_1758" data-name="Group 1758" clip-path="url(#clip-path-2)">
        <g id="Group_1757" data-name="Group 1757" transform="translate(17.864 82.065)" style="mix-blend-mode: soft-light;isolation: isolate">
          <g id="Group_1756" data-name="Group 1756">
            <g id="Group_1755" data-name="Group 1755" clip-path="url(#clip-path-6)">
              <path id="Path_2090" data-name="Path 2090" d="M138.054,730.287a.868.868,0,0,1-.17,0,.878.878,0,0,1-.778-.968c.06-.546,6.244-55.141,30.875-99.045a.878.878,0,1,1,1.531.859c-24.451,43.585-30.6,97.834-30.661,98.377a.878.878,0,0,1-.8.78" transform="translate(-137.102 -629.823)" fill="#fff"/>
            </g>
          </g>
        </g>
      </g>
    </g>
    <g id="Group_1761" data-name="Group 1761" transform="translate(18.144 81.98)">
      <g id="Group_1760" data-name="Group 1760" clip-path="url(#clip-path-7)">
        <rect id="Rectangle_10232" data-name="Rectangle 10232" width="302.128" height="385.184" transform="matrix(0.316, -0.949, 0.949, 0.316, -61.807, 185.421)" fill="url(#linear-gradient-2)"/>
      </g>
    </g>
    <g id="Group_1763" data-name="Group 1763" transform="translate(26.29 88.958)">
      <g id="Group_1762" data-name="Group 1762" clip-path="url(#clip-path-8)">
        <rect id="Rectangle_10233" data-name="Rectangle 10233" width="376.224" height="322.414" transform="matrix(0.883, -0.47, 0.47, 0.883, -80.088, 42.63)" fill="url(#linear-gradient-3)"/>
      </g>
    </g>
    <g id="Group_1765" data-name="Group 1765">
      <g id="Group_1764" data-name="Group 1764" clip-path="url(#clip-path-2)">
        <path id="Path_2093" data-name="Path 2093" d="M241.449,1416.951a.526.526,0,0,1-.526-.518l-.2-13.473a.526.526,0,0,1,1.051-.015l.2,13.473a.526.526,0,0,1-.518.533Z" transform="translate(-209.359 -1219.692)" fill="#fff"/>
        <path id="Path_2094" data-name="Path 2094" d="M233.991,817.472a.526.526,0,0,1-.526-.518l-.758-51.6a11,11,0,0,1,3.179-8.247c3.8-3.645,9.752-3.462,10-3.452l95.249-2.556a.516.516,0,0,1,.54.511.526.526,0,0,1-.511.54l-95.28,2.556c-.271-.011-5.788-.18-9.273,3.161a9.982,9.982,0,0,0-2.855,7.482l.758,51.592a.526.526,0,0,1-.518.533Z" transform="translate(-202.386 -653.229)" fill="#fff"/>
      </g>
    </g>
    <g id="Group_1767" data-name="Group 1767" transform="translate(1.416 287.115)">
      <g id="Group_1766" data-name="Group 1766" clip-path="url(#clip-path-10)">
        <rect id="Rectangle_10235" data-name="Rectangle 10235" width="81.255" height="360.69" transform="matrix(0.18, -0.984, 0.984, 0.18, -2.846, 15.559)" fill="url(#linear-gradient-4)"/>
      </g>
    </g>
    <g id="Group_1784" data-name="Group 1784">
      <g id="Group_1783" data-name="Group 1783" clip-path="url(#clip-path-2)">
        <g id="Group_1770" data-name="Group 1770" transform="translate(35.191 97.75)" opacity="0.75">
          <g id="Group_1769" data-name="Group 1769">
            <g id="Group_1768" data-name="Group 1768" clip-path="url(#clip-path-12)">
              <path id="Path_2096" data-name="Path 2096" d="M570.123,790.056l-294.712,2c-2.936.02-5.329-1.794-5.329-4.039V762.737c0-2.172,2.245-3.954,5.083-4.036l294.712-8.5c2.993-.086,5.482,1.746,5.482,4.036v31.781c0,2.217-2.337,4.019-5.236,4.039" transform="translate(-270.081 -750.198)" fill="#fff"/>
            </g>
          </g>
        </g>
        <g id="Group_1773" data-name="Group 1773" transform="translate(133.084 148.553)" opacity="0.76">
          <g id="Group_1772" data-name="Group 1772">
            <g id="Group_1771" data-name="Group 1771" clip-path="url(#clip-path-13)">
              <path id="Path_2097" data-name="Path 2097" d="M1127.461,1242.389H1025.045a3.67,3.67,0,0,1-3.67-3.67v-94.951a3.67,3.67,0,0,1,3.67-3.67h101.379a2.679,2.679,0,0,1,2.679,2.679v97.969a1.643,1.643,0,0,1-1.643,1.643" transform="translate(-1021.376 -1140.098)" fill="#fff"/>
            </g>
          </g>
        </g>
        <g id="Group_1776" data-name="Group 1776" transform="translate(33.097 257.255)" opacity="0.28">
          <g id="Group_1775" data-name="Group 1775">
            <g id="Group_1774" data-name="Group 1774" clip-path="url(#clip-path-14)">
              <path id="Path_2098" data-name="Path 2098" d="M463.115,1985.227a6.027,6.027,0,0,1-5.98,5.709l-198.681,1.256a4.483,4.483,0,0,1-4.445-4.483v-7.162a6.2,6.2,0,0,1,6.2-6.2H461.17a2.393,2.393,0,0,1,2.393,2.393Z" transform="translate(-254.008 -1974.349)" fill="#fff"/>
            </g>
          </g>
        </g>
        <g id="Group_1779" data-name="Group 1779" transform="translate(33.097 145.631)" opacity="0.79">
          <g id="Group_1778" data-name="Group 1778">
            <g id="Group_1777" data-name="Group 1777" clip-path="url(#clip-path-15)">
              <path id="Path_2099" data-name="Path 2099" d="M344.42,1220.525h-87.1a3.313,3.313,0,0,1-3.313-3.313v-96.227a3.313,3.313,0,0,1,3.313-3.313h87.1a3.313,3.313,0,0,1,3.314,3.313v96.227a3.313,3.313,0,0,1-3.314,3.313" transform="translate(-254.009 -1117.671)" fill="#eef4fa"/>
            </g>
          </g>
        </g>
        <g id="Group_1782" data-name="Group 1782" transform="translate(247.962 144.64)" opacity="0.74">
          <g id="Group_1781" data-name="Group 1781">
            <g id="Group_1780" data-name="Group 1780" clip-path="url(#clip-path-16)">
              <path id="Path_2100" data-name="Path 2100" d="M1992.345,1240.693h-87.561a1.749,1.749,0,0,1-1.749-1.749V1115.329a5.26,5.26,0,0,1,5.26-5.26h84.532a1.3,1.3,0,0,1,1.3,1.3v127.545a1.78,1.78,0,0,1-1.78,1.78" transform="translate(-1903.034 -1110.069)" fill="#fff"/>
            </g>
          </g>
        </g>
      </g>
    </g>
    <g id="Group_1786" data-name="Group 1786" transform="translate(81.072 139.709)">
      <g id="Group_1785" data-name="Group 1785" clip-path="url(#clip-path-17)">
        <path id="Path_2168" data-name="Path 2168" d="M0,0H132.335V129.81H0Z" transform="matrix(0.756, -0.654, 0.654, 0.756, -39.887, 34.479)" fill="#9f6ae5"/>
      </g>
    </g>
    <g id="Group_1788" data-name="Group 1788">
      <g id="Group_1787" data-name="Group 1787" clip-path="url(#clip-path-2)">
        <path id="Path_2102" data-name="Path 2102" d="M644.5,1168.492a.607.607,0,0,1-.609-.6l-.421-73.785a.608.608,0,0,1,.612-.612l96.157.862a.606.606,0,0,1,.6.585c1.243,36.157,1.267,63.914.062,70.714l-.031.178-.182,0c-12.8.18-82.36,2.246-96.175,2.658Zm-.42-74.562a.164.164,0,0,0-.121.05.158.158,0,0,0-.049.12l.421,73.785a.167.167,0,0,0,.163.168l.014.219-.007-.219c13.751-.41,82.737-2.459,96-2.656,1.169-7.069,1.133-34.624-.1-70.444a.168.168,0,0,0-.168-.161Z" transform="translate(-559.629 -951.011)" fill="#fff"/>
        <path id="Path_2103" data-name="Path 2103" d="M859.593,1279.192H796.561a2.537,2.537,0,0,1-2.187-3.823l24.954-42.421a2.537,2.537,0,0,1,4.495.233l12.049,26.4a2.537,2.537,0,0,0,4.022.817l4.874-4.468a2.537,2.537,0,0,1,3.8.422l13.111,18.854a2.537,2.537,0,0,1-2.083,3.985" transform="translate(-690.56 -1071.208)" fill="#fff"/>
        <path id="Path_2104" data-name="Path 2104" d="M750.551,1170.982a9.061,9.061,0,1,0,9.061-9.061,9.061,9.061,0,0,0-9.061,9.061" transform="translate(-652.755 -1010.524)" fill="#fff"/>
      </g>
    </g>
    <g id="Group_1790" data-name="Group 1790" transform="translate(17.194 196.977)">
      <g id="Group_1789" data-name="Group 1789" clip-path="url(#clip-path-19)">
        <rect id="Rectangle_10244" data-name="Rectangle 10244" width="66.228" height="74.639" transform="translate(-23.384 8.141) rotate(-21.283)" fill="url(#linear-gradient-5)"/>
      </g>
    </g>
    <g id="Group_1792" data-name="Group 1792">
      <g id="Group_1791" data-name="Group 1791" clip-path="url(#clip-path-2)">
        <path id="Path_2106" data-name="Path 2106" d="M153.489,1592.508l.223-.156c-2.051-2.911-2.314-7.112-.687-10.964,1.292-3.06,3.6-5.858,7.277-8.805,1.368-1.1,2.819-2.141,4.223-3.149,1.689-1.214,3.436-2.469,5.055-3.833,1.456-1.228,2.989-2.751,3.31-4.743a10.44,10.44,0,0,0-.134-3.074c-.227-1.6-.441-3.114.5-4.272l-.211-.171c-1.013,1.25-.78,2.893-.555,4.481a10.259,10.259,0,0,1,.136,2.993c-.308,1.9-1.8,3.383-3.217,4.578-1.611,1.357-3.354,2.609-5.039,3.82-1.406,1.01-2.86,2.055-4.234,3.157-3.709,2.977-6.047,5.809-7.358,8.911-1.663,3.938-1.389,8.24.715,11.227" transform="translate(-131.929 -1350.943)" fill="#fff"/>
        <path id="Path_2107" data-name="Path 2107" d="M201.716,1708.208l.256-.093a17.123,17.123,0,0,1,1.121-13.012c2.09-4.371,5.505-7.935,8.248-10.552l-.188-.2c-2.759,2.632-6.2,6.22-8.305,10.631a17.392,17.392,0,0,0-1.131,13.221" transform="translate(-174.709 -1464.887)" fill="#fff"/>
      </g>
    </g>
    <g id="Group_1794" data-name="Group 1794" transform="translate(78.297 172.426)">
      <g id="Group_1793" data-name="Group 1793" clip-path="url(#clip-path-21)">
        <rect id="Rectangle_10246" data-name="Rectangle 10246" width="22.692" height="15.631" transform="translate(-8.095 17.936) rotate(-66.112)" fill="url(#linear-gradient-6)"/>
      </g>
    </g>
    <g id="Group_1796" data-name="Group 1796" transform="translate(55.019 190.258)">
      <g id="Group_1795" data-name="Group 1795" clip-path="url(#clip-path-22)">
        <rect id="Rectangle_10247" data-name="Rectangle 10247" width="53.262" height="44.657" transform="matrix(0.405, -0.914, 0.914, 0.405, -16.868, 38.087)" fill="url(#linear-gradient-7)"/>
      </g>
    </g>
    <g id="Group_1798" data-name="Group 1798" transform="translate(4.717 352.52)">
      <g id="Group_1797" data-name="Group 1797" clip-path="url(#clip-path-23)">
        <rect id="Rectangle_10248" data-name="Rectangle 10248" width="9.135" height="12.623" transform="translate(-0.183)" fill="url(#linear-gradient-8)"/>
      </g>
    </g>
    <g id="Group_1800" data-name="Group 1800" transform="translate(40.615 305.713)">
      <g id="Group_1799" data-name="Group 1799" clip-path="url(#clip-path-24)">
        <rect id="Rectangle_10249" data-name="Rectangle 10249" width="16.894" height="54.128" transform="translate(-4.637 0.387) rotate(-4.89)" fill="url(#linear-gradient-9)"/>
      </g>
    </g>
    <g id="Group_1802" data-name="Group 1802" transform="translate(40.326 349.178)">
      <g id="Group_1801" data-name="Group 1801" clip-path="url(#clip-path-25)">
        <rect id="Rectangle_10250" data-name="Rectangle 10250" width="14.881" height="10.859" transform="translate(-0.221)" fill="url(#linear-gradient-10)"/>
      </g>
    </g>
    <g id="Group_1804" data-name="Group 1804" transform="translate(6.348 305.983)">
      <g id="Group_1803" data-name="Group 1803" clip-path="url(#clip-path-26)">
        <rect id="Rectangle_10251" data-name="Rectangle 10251" width="31.788" height="53.564" transform="translate(-4.441 0.373) rotate(-4.89)" fill="url(#linear-gradient-11)"/>
      </g>
    </g>
    <g id="Group_1806" data-name="Group 1806" transform="translate(40.152 226.009)">
      <g id="Group_1805" data-name="Group 1805" clip-path="url(#clip-path-27)">
        <rect id="Rectangle_10252" data-name="Rectangle 10252" width="46.641" height="46.419" transform="translate(-20.536 20.022) rotate(-45.734)" fill="url(#linear-gradient-12)"/>
      </g>
    </g>
    <g id="Group_1808" data-name="Group 1808" transform="translate(25.491 260.713)">
      <g id="Group_1807" data-name="Group 1807" clip-path="url(#clip-path-28)">
        <rect id="Rectangle_10253" data-name="Rectangle 10253" width="57.117" height="60.983" transform="translate(-24.652 18.282) rotate(-36.56)" fill="url(#linear-gradient-13)"/>
      </g>
    </g>
    <g id="Group_1810" data-name="Group 1810" transform="translate(44.677 213.686)">
      <g id="Group_1809" data-name="Group 1809" clip-path="url(#clip-path-29)">
        <rect id="Rectangle_10254" data-name="Rectangle 10254" width="11.93" height="18.077" transform="matrix(0.991, -0.135, 0.135, 0.991, -2.525, 0.31)" fill="url(#linear-gradient-14)"/>
      </g>
    </g>
    <g id="Group_1812" data-name="Group 1812" transform="translate(41.2 205.609)">
      <g id="Group_1811" data-name="Group 1811" clip-path="url(#clip-path-30)">
        <rect id="Rectangle_10255" data-name="Rectangle 10255" width="50.773" height="38.857" transform="translate(-1.723 0.061) rotate(-2.326)" fill="url(#linear-gradient-15)"/>
      </g>
    </g>
    <g id="Group_1814" data-name="Group 1814" transform="translate(87.682 191.058)">
      <g id="Group_1813" data-name="Group 1813" clip-path="url(#clip-path-31)">
        <rect id="Rectangle_10256" data-name="Rectangle 10256" width="6.203" height="19.811" transform="translate(-1.182 0.032) rotate(-2.326)" fill="url(#linear-gradient-16)"/>
      </g>
    </g>
    <g id="Group_1816" data-name="Group 1816" transform="translate(46.014 203.159)">
      <g id="Group_1815" data-name="Group 1815" clip-path="url(#clip-path-32)">
        <rect id="Rectangle_10257" data-name="Rectangle 10257" width="24.165" height="23.785" transform="translate(-8.274 14.857) rotate(-64.125)" fill="url(#linear-gradient-17)"/>
      </g>
    </g>
    <g id="Group_1818" data-name="Group 1818" transform="translate(44.677 200.241)">
      <g id="Group_1817" data-name="Group 1817" clip-path="url(#clip-path-33)">
        <rect id="Rectangle_10258" data-name="Rectangle 10258" width="15.517" height="15.596" transform="translate(-5.225 1.592) rotate(-21.283)" fill="url(#linear-gradient-18)"/>
      </g>
    </g>
    <g id="Group_1820" data-name="Group 1820" transform="translate(43.633 210.179)">
      <g id="Group_1819" data-name="Group 1819" clip-path="url(#clip-path-34)">
        <rect id="Rectangle_10259" data-name="Rectangle 10259" width="7.124" height="7.444" transform="matrix(0.436, -0.9, 0.9, 0.436, -3.072, 4.134)" fill="url(#linear-gradient-19)"/>
      </g>
    </g>
    <g id="Group_1822" data-name="Group 1822" transform="translate(279.327 200.927)">
      <g id="Group_1821" data-name="Group 1821" clip-path="url(#clip-path-35)">
        <rect id="Rectangle_10260" data-name="Rectangle 10260" width="29.606" height="31.331" transform="matrix(0.575, -0.818, 0.818, 0.575, -8.617, 12.246)" fill="url(#linear-gradient-20)"/>
      </g>
    </g>
    <g id="Group_1824" data-name="Group 1824" transform="translate(267.149 224.478)">
      <g id="Group_1823" data-name="Group 1823" clip-path="url(#clip-path-36)">
        <rect id="Rectangle_10261" data-name="Rectangle 10261" width="49.119" height="58.666" transform="translate(-0.4 0)" fill="url(#linear-gradient-21)"/>
      </g>
    </g>
    <g id="Group_1826" data-name="Group 1826" transform="translate(265.711 242.311)">
      <g id="Group_1825" data-name="Group 1825" clip-path="url(#clip-path-37)">
        <rect id="Rectangle_10262" data-name="Rectangle 10262" width="32.533" height="37.581" transform="translate(-17.424 4.608) rotate(-22.489)" fill="url(#linear-gradient-22)"/>
      </g>
    </g>
    <g id="Group_1828" data-name="Group 1828" transform="translate(302.548 242.311)">
      <g id="Group_1827" data-name="Group 1827" clip-path="url(#clip-path-38)">
        <rect id="Rectangle_10263" data-name="Rectangle 10263" width="36.621" height="30.213" transform="matrix(0.382, -0.924, 0.924, 0.382, -12.32, 26.888)" fill="url(#linear-gradient-23)"/>
      </g>
    </g>
    <g id="Group_1830" data-name="Group 1830" transform="translate(272.742 250.825)">
      <g id="Group_1829" data-name="Group 1829" clip-path="url(#clip-path-39)">
        <rect id="Rectangle_10264" data-name="Rectangle 10264" width="25.439" height="36.946" transform="translate(-0.606 24.534) rotate(-88.586)" fill="url(#linear-gradient-24)"/>
      </g>
    </g>
    <g id="Group_1832" data-name="Group 1832" transform="translate(310.224 282.073)">
      <g id="Group_1831" data-name="Group 1831" clip-path="url(#clip-path-40)">
        <rect id="Rectangle_10266" data-name="Rectangle 10266" width="18.778" height="16.555" transform="matrix(0.818, -0.575, 0.575, 0.818, -3.816, 2.681)" fill="url(#linear-gradient-25)"/>
      </g>
    </g>
    <g id="Group_1834" data-name="Group 1834" transform="translate(307.977 281.914)">
      <g id="Group_1833" data-name="Group 1833" clip-path="url(#clip-path-41)">
        <rect id="Rectangle_10267" data-name="Rectangle 10267" width="8.106" height="7.31" transform="translate(-2.168 5.873) rotate(-69.736)" fill="url(#linear-gradient-26)"/>
      </g>
    </g>
    <g id="Group_1836" data-name="Group 1836" transform="translate(251.942 281.773)">
      <g id="Group_1835" data-name="Group 1835" clip-path="url(#clip-path-42)">
        <rect id="Rectangle_10268" data-name="Rectangle 10268" width="14.329" height="19.013" transform="matrix(0.403, -0.915, 0.915, 0.403, -3.724, 6.764)" fill="url(#linear-gradient-27)"/>
      </g>
    </g>
    <g id="Group_1838" data-name="Group 1838" transform="translate(265.452 281.915)">
      <g id="Group_1837" data-name="Group 1837" clip-path="url(#clip-path-43)">
        <rect id="Rectangle_10269" data-name="Rectangle 10269" width="7.995" height="7.196" transform="translate(-2.166 5.798) rotate(-69.736)" fill="url(#linear-gradient-28)"/>
      </g>
    </g>
    <g id="Group_1840" data-name="Group 1840" transform="translate(268.898 262.045)">
      <g id="Group_1839" data-name="Group 1839" clip-path="url(#clip-path-44)">
        <rect id="Rectangle_10270" data-name="Rectangle 10270" width="62.603" height="59.525" transform="translate(-13.457 11.751) rotate(-41.129)" fill="url(#linear-gradient-29)"/>
      </g>
    </g>
    <g id="Group_1842" data-name="Group 1842" transform="translate(255.203 261.452)">
      <g id="Group_1841" data-name="Group 1841" clip-path="url(#clip-path-45)">
        <rect id="Rectangle_10271" data-name="Rectangle 10271" width="48.188" height="62.145" transform="translate(-11.335 22.414) rotate(-65.146)" fill="url(#linear-gradient-30)"/>
      </g>
    </g>
    <g id="Group_1844" data-name="Group 1844" transform="translate(281.388 217.492)">
      <g id="Group_1843" data-name="Group 1843" clip-path="url(#clip-path-46)">
        <rect id="Rectangle_10272" data-name="Rectangle 10272" width="18.995" height="14.685" transform="translate(-0.166 0.002) rotate(-0.659)" fill="url(#linear-gradient-31)"/>
      </g>
    </g>
    <g id="Group_1846" data-name="Group 1846" transform="translate(283.683 200.41)">
      <g id="Group_1845" data-name="Group 1845" clip-path="url(#clip-path-47)">
        <rect id="Rectangle_10273" data-name="Rectangle 10273" width="29.803" height="28.417" transform="translate(-10.688 24.509) rotate(-78.391)" fill="url(#linear-gradient-32)"/>
      </g>
    </g>
    <g id="Group_1848" data-name="Group 1848" transform="translate(279.251 192.95)">
      <g id="Group_1847" data-name="Group 1847" clip-path="url(#clip-path-48)">
        <rect id="Rectangle_10274" data-name="Rectangle 10274" width="35.629" height="37.162" transform="translate(-12.155 15.355) rotate(-54.866)" fill="url(#linear-gradient-33)"/>
      </g>
    </g>
    <g id="Group_1850" data-name="Group 1850" transform="translate(282.772 207.959)">
      <g id="Group_1849" data-name="Group 1849" clip-path="url(#clip-path-49)">
        <rect id="Rectangle_10275" data-name="Rectangle 10275" width="4.064" height="7.459" transform="translate(-0.917 0.061) rotate(-5.281)" fill="url(#linear-gradient-34)"/>
      </g>
    </g>
    <g id="Group_1852" data-name="Group 1852" transform="translate(288.512 255.329)">
      <g id="Group_1851" data-name="Group 1851" clip-path="url(#clip-path-50)">
        <rect id="Rectangle_10276" data-name="Rectangle 10276" width="5.116" height="5.004" transform="translate(-0.262 5.012) rotate(-88.803)" fill="url(#linear-gradient-35)"/>
      </g>
    </g>
    <g id="Group_1854" data-name="Group 1854">
      <g id="Group_1853" data-name="Group 1853" clip-path="url(#clip-path-2)">
        <path id="Path_2137" data-name="Path 2137" d="M1538.39,1395.844a36.338,36.338,0,1,1-36.338-36.337,36.337,36.337,0,0,1,36.338,36.337" transform="translate(-1274.734 -1182.365)" fill="#fff"/>
      </g>
    </g>
    <g id="Group_1856" data-name="Group 1856" transform="translate(194.758 207.229)">
      <g id="Group_1855" data-name="Group 1855" clip-path="url(#clip-path-52)">
        <rect id="Rectangle_10278" data-name="Rectangle 10278" width="12.217" height="11.491" transform="translate(-3.572 8.133) rotate(-66.289)" fill="#3c46c9"/>
      </g>
    </g>
    <g id="Group_1858" data-name="Group 1858" transform="translate(206.826 203.576)">
      <g id="Group_1857" data-name="Group 1857" clip-path="url(#clip-path-53)">
        <rect id="Rectangle_10279" data-name="Rectangle 10279" width="18.003" height="14.821" transform="translate(-5.726 13.038) rotate(-66.289)" fill="#3c46c9"/>
      </g>
    </g>
    <g id="Group_1860" data-name="Group 1860" transform="translate(217.753 205.104)">
      <g id="Group_1859" data-name="Group 1859" clip-path="url(#clip-path-54)">
        <rect id="Rectangle_10280" data-name="Rectangle 10280" width="15.937" height="12.406" transform="matrix(0.402, -0.916, 0.916, 0.402, -5.225, 11.898)" fill="#3c46c9"/>
      </g>
    </g>
    <g id="Group_1862" data-name="Group 1862" transform="translate(226.827 208.223)">
      <g id="Group_1861" data-name="Group 1861" clip-path="url(#clip-path-55)">
        <rect id="Rectangle_10281" data-name="Rectangle 10281" width="16.05" height="18.194" transform="matrix(0.402, -0.916, 0.916, 0.402, -4.015, 9.142)" fill="#3c46c9"/>
      </g>
    </g>
    <g id="Group_1864" data-name="Group 1864" transform="translate(244.62 203.576)">
      <g id="Group_1863" data-name="Group 1863" clip-path="url(#clip-path-56)">
        <rect id="Rectangle_10282" data-name="Rectangle 10282" width="15.28" height="8.621" transform="translate(-5.726 13.038) rotate(-66.289)" fill="#3c46c9"/>
      </g>
    </g>
    <g id="Group_1866" data-name="Group 1866" transform="translate(251.141 207.229)">
      <g id="Group_1865" data-name="Group 1865" clip-path="url(#clip-path-57)">
        <rect id="Rectangle_10284" data-name="Rectangle 10284" width="12.216" height="11.491" transform="translate(-3.572 8.133) rotate(-66.289)" fill="#3c46c9"/>
      </g>
    </g>
    <g id="Group_1868" data-name="Group 1868">
      <g id="Group_1867" data-name="Group 1867" clip-path="url(#clip-path-2)">
        <path id="Path_2143" data-name="Path 2143" d="M2341.186,952.573a28.095,28.095,0,1,1-28.095-28.095,28.1,28.1,0,0,1,28.095,28.095" transform="translate(-1987.265 -804.02)" fill="#fff"/>
      </g>
    </g>
    <g id="Group_1945" data-name="Group 1945">
      <g id="Group_1870" data-name="Group 1870" transform="translate(302.708 144.93)">
        <g id="Group_1869" data-name="Group 1869" clip-path="url(#clip-path-59)">
          <rect id="Rectangle_10286" data-name="Rectangle 10286" width="9.665" height="7.375" transform="matrix(0.158, -0.987, 0.987, 0.158, -1.374, 8.599)" fill="#3c46c9"/>
        </g>
      </g>
      <g id="Group_1872" data-name="Group 1872" transform="translate(314.758 142.799)">
        <g id="Group_1871" data-name="Group 1871" clip-path="url(#clip-path-60)">
          <rect id="Rectangle_10287" data-name="Rectangle 10287" width="13.879" height="9.058" transform="matrix(0.158, -0.987, 0.987, 0.158, -2.013, 12.597)" fill="#3c46c9"/>
        </g>
      </g>
      <g id="Group_1874" data-name="Group 1874" transform="translate(322.769 142.799)">
        <g id="Group_1873" data-name="Group 1873" clip-path="url(#clip-path-61)">
          <rect id="Rectangle_10288" data-name="Rectangle 10288" width="13.743" height="8.209" transform="translate(-2.013 12.597) rotate(-80.921)" fill="#3c46c9"/>
        </g>
      </g>
      <g id="Group_1876" data-name="Group 1876" transform="translate(330.041 142.799)">
        <g id="Group_1875" data-name="Group 1875" clip-path="url(#clip-path-62)">
          <rect id="Rectangle_10289" data-name="Rectangle 10289" width="13.743" height="8.209" transform="translate(-2.013 12.597) rotate(-80.921)" fill="#3c46c9"/>
        </g>
      </g>
      <g id="Group_1878" data-name="Group 1878" transform="translate(341.989 144.93)">
        <g id="Group_1877" data-name="Group 1877" clip-path="url(#clip-path-63)">
          <rect id="Rectangle_10290" data-name="Rectangle 10290" width="9.665" height="7.375" transform="translate(-1.374 8.599) rotate(-80.921)" fill="#3c46c9"/>
        </g>
      </g>
    </g>
    <g id="Group_1880" data-name="Group 1880">
      <g id="Group_1879" data-name="Group 1879" clip-path="url(#clip-path-2)">
        <path id="Path_2149" data-name="Path 2149" d="M1915.585,1058.953a20.478,20.478,0,1,1-20.478-20.478,20.478,20.478,0,0,1,20.478,20.478" transform="translate(-1630.368 -903.163)" fill="#fff"/>
      </g>
    </g>
    <g id="Group_1944" data-name="Group 1944">
      <g id="Group_1882" data-name="Group 1882" transform="translate(253.913 152.737)">
        <g id="Group_1881" data-name="Group 1881" clip-path="url(#clip-path-65)">
          <rect id="Rectangle_10292" data-name="Rectangle 10292" width="8.387" height="7.728" transform="translate(-1.987 6.3) rotate(-72.496)" fill="#3c46c9"/>
        </g>
      </g>
      <g id="Group_1884" data-name="Group 1884" transform="translate(261.408 150.129)">
        <g id="Group_1883" data-name="Group 1883" clip-path="url(#clip-path-66)">
          <rect id="Rectangle_10293" data-name="Rectangle 10293" width="13.099" height="9.362" transform="translate(-3.389 10.745) rotate(-72.495)" fill="#3c46c9"/>
        </g>
      </g>
      <g id="Group_1886" data-name="Group 1886" transform="translate(269.038 152.737)">
        <g id="Group_1885" data-name="Group 1885" clip-path="url(#clip-path-67)">
          <rect id="Rectangle_10294" data-name="Rectangle 10294" width="8.386" height="7.728" transform="translate(-1.987 6.301) rotate(-72.495)" fill="#3c46c9"/>
        </g>
      </g>
    </g>
    <g id="Group_1904" data-name="Group 1904">
      <g id="Group_1903" data-name="Group 1903" clip-path="url(#clip-path-2)">
        <g id="Group_1893" data-name="Group 1893" transform="translate(241.904 19.719)" opacity="0.3">
          <g id="Group_1892" data-name="Group 1892">
            <g id="Group_1891" data-name="Group 1891" clip-path="url(#clip-path-69)">
              <g id="Group_1888" data-name="Group 1888" transform="translate(0 -0.001)">
                <g id="Group_1887" data-name="Group 1887" clip-path="url(#clip-path-70)">
                  <rect id="Rectangle_10295" data-name="Rectangle 10295" width="73.479" height="104.444" transform="translate(-13.302 44.967) rotate(-73.656)" fill="url(#linear-gradient-36)"/>
                </g>
              </g>
              <g id="Group_1890" data-name="Group 1890" transform="translate(96.892 19.022)">
                <g id="Group_1889" data-name="Group 1889" clip-path="url(#clip-path-71)">
                  <rect id="Rectangle_10296" data-name="Rectangle 10296" width="5.98" height="5.863" transform="translate(-1.478 4.307) rotate(-73.656)" fill="url(#linear-gradient-37)"/>
                </g>
              </g>
            </g>
          </g>
        </g>
        <g id="Group_1902" data-name="Group 1902" transform="translate(251.806 80.25)" opacity="0.3">
          <g id="Group_1901" data-name="Group 1901">
            <g id="Group_1900" data-name="Group 1900" clip-path="url(#clip-path-72)">
              <g id="Group_1895" data-name="Group 1895" transform="translate(100.403 0)">
                <g id="Group_1894" data-name="Group 1894" clip-path="url(#clip-path-73)">
                  <rect id="Rectangle_10298" data-name="Rectangle 10298" width="5.997" height="4.608" transform="matrix(0.281, -0.96, 0.96, 0.281, -1.508, 4.815)" fill="url(#linear-gradient-38)"/>
                </g>
              </g>
              <g id="Group_1897" data-name="Group 1897" transform="translate(6.558 9.751)">
                <g id="Group_1896" data-name="Group 1896" clip-path="url(#clip-path-74)">
                  <rect id="Rectangle_10299" data-name="Rectangle 10299" width="69.487" height="104.175" transform="matrix(0.281, -0.96, 0.96, 0.281, -12.139, 40.723)" fill="url(#linear-gradient-39)"/>
                </g>
              </g>
              <g id="Group_1899" data-name="Group 1899" transform="translate(0 28.287)">
                <g id="Group_1898" data-name="Group 1898" clip-path="url(#clip-path-75)">
                  <rect id="Rectangle_10300" data-name="Rectangle 10300" width="6.049" height="5.834" transform="translate(-1.526 4.364) rotate(-73.656)" fill="url(#linear-gradient-40)"/>
                </g>
              </g>
            </g>
          </g>
        </g>
      </g>
    </g>
    <g id="Group_1906" data-name="Group 1906" transform="translate(256.753 34.899)">
      <g id="Group_1905" data-name="Group 1905" clip-path="url(#clip-path-76)">
        <path id="Path_2169" data-name="Path 2169" d="M0,0H114.988V115.006H0Z" transform="matrix(0.531, -0.847, 0.847, 0.531, -37.601, 59.834)" fill="#9f6ae5"/>
      </g>
    </g>
    <g id="Group_1928" data-name="Group 1928">
      <g id="Group_1927" data-name="Group 1927" clip-path="url(#clip-path-2)">
        <g id="Group_1909" data-name="Group 1909" transform="translate(288.588 66.734)" opacity="0.56">
          <g id="Group_1908" data-name="Group 1908">
            <g id="Group_1907" data-name="Group 1907" clip-path="url(#clip-path-78)">
              <path id="Path_2159" data-name="Path 2159" d="M2221.881,531.424a9.835,9.835,0,1,1,1.411.3,9.845,9.845,0,0,1-1.411-.3m4.909-16.66a7.653,7.653,0,0,0-1.093-.235,7.513,7.513,0,1,0,1.093.235" transform="translate(-2214.822 -512.162)" fill="#fff"/>
            </g>
          </g>
        </g>
        <g id="Group_1912" data-name="Group 1912" transform="translate(274.428 52.298)" opacity="0.56">
          <g id="Group_1911" data-name="Group 1911">
            <g id="Group_1910" data-name="Group 1910" clip-path="url(#clip-path-79)">
              <path id="Path_2160" data-name="Path 2160" d="M2123.569,448.75a24.63,24.63,0,0,1-2.345-.818q-.365-.148-.725-.308a24.343,24.343,0,0,1-3.4-1.848l-.044-.029-.125-.083-.241-.162a.573.573,0,0,1,.646-.947,23.049,23.049,0,0,0,26.343-.262,22.881,22.881,0,0,0,7.979-10.079,23.263,23.263,0,0,0,.781-2.237A23.024,23.024,0,0,0,2109,416.871a23.193,23.193,0,0,0-.771,2.209,22.957,22.957,0,0,0-.66,9.972.573.573,0,1,1-1.133.175,24.172,24.172,0,1,1,47.1,3.071,24.686,24.686,0,0,1-.819,2.348,24.175,24.175,0,0,1-29.148,14.1" transform="translate(-2106.152 -401.372)" fill="#fff"/>
            </g>
          </g>
        </g>
        <g id="Group_1919" data-name="Group 1919" transform="translate(184.739 51.781)" opacity="0.3">
          <g id="Group_1918" data-name="Group 1918">
            <g id="Group_1917" data-name="Group 1917" clip-path="url(#clip-path-80)">
              <g id="Group_1914" data-name="Group 1914" transform="translate(0 35.132)">
                <g id="Group_1913" data-name="Group 1913" clip-path="url(#clip-path-81)">
                  <rect id="Rectangle_10306" data-name="Rectangle 10306" width="4.371" height="2.916" transform="matrix(0.281, -0.96, 0.96, 0.281, -1.083, 3.664)" fill="url(#linear-gradient-41)"/>
                </g>
              </g>
              <g id="Group_1916" data-name="Group 1916" transform="translate(0.624 0)">
                <g id="Group_1915" data-name="Group 1915" clip-path="url(#clip-path-82)">
                  <rect id="Rectangle_10307" data-name="Rectangle 10307" width="46.68" height="62.215" transform="translate(-8.823 29.84) rotate(-73.656)" fill="url(#linear-gradient-42)"/>
                </g>
              </g>
            </g>
          </g>
        </g>
        <g id="Group_1926" data-name="Group 1926" transform="translate(191.969 111.197)" opacity="0.3">
          <g id="Group_1925" data-name="Group 1925">
            <g id="Group_1924" data-name="Group 1924" clip-path="url(#clip-path-83)">
              <g id="Group_1921" data-name="Group 1921" transform="translate(4.481 3.392)">
                <g id="Group_1920" data-name="Group 1920" clip-path="url(#clip-path-84)">
                  <rect id="Rectangle_10309" data-name="Rectangle 10309" width="28.677" height="56.585" transform="translate(-3.814 12.591) rotate(-73.656)" fill="url(#linear-gradient-43)"/>
                </g>
              </g>
              <g id="Group_1923" data-name="Group 1923" transform="translate(0 0)">
                <g id="Group_1922" data-name="Group 1922" clip-path="url(#clip-path-85)">
                  <rect id="Rectangle_10310" data-name="Rectangle 10310" width="4.471" height="4.254" transform="translate(-1.11 3.268) rotate(-73.656)" fill="url(#linear-gradient-44)"/>
                </g>
              </g>
            </g>
          </g>
        </g>
      </g>
    </g>
    <g id="Group_1930" data-name="Group 1930" transform="translate(195.205 61.846)">
      <g id="Group_1929" data-name="Group 1929" clip-path="url(#clip-path-86)">
        <path id="Path_2170" data-name="Path 2170" d="M0,0H74.349V74.368H0Z" transform="matrix(0.429, -0.903, 0.903, 0.429, -21.649, 45.548)" fill="#9f6ae5"/>
      </g>
    </g>
    <g id="Group_1938" data-name="Group 1938">
      <g id="Group_1937" data-name="Group 1937" clip-path="url(#clip-path-2)">
        <g id="Group_1933" data-name="Group 1933" transform="translate(216.389 83.03)" opacity="0.56">
          <g id="Group_1932" data-name="Group 1932">
            <g id="Group_1931" data-name="Group 1931" clip-path="url(#clip-path-88)">
              <path id="Path_2166" data-name="Path 2166" d="M1665.519,650.349a6.713,6.713,0,1,1,.97.209,6.819,6.819,0,0,1-.97-.209m3.286-11.148a5.017,5.017,0,0,0-.707-.152,4.925,4.925,0,1,0,.707.152" transform="translate(-1660.72 -637.23)" fill="#fff"/>
            </g>
          </g>
        </g>
        <g id="Group_1936" data-name="Group 1936" transform="translate(206.531 72.976)" opacity="0.56">
          <g id="Group_1935" data-name="Group 1935">
            <g id="Group_1934" data-name="Group 1934" clip-path="url(#clip-path-89)">
              <path id="Path_2167" data-name="Path 2167" d="M1597.062,592.765q-.806-.237-1.6-.559a16.78,16.78,0,0,1-3-1.591l-.126-.086a.885.885,0,1,1,1-1.462,14.96,14.96,0,0,0,2.8,1.5h0l.162.065a14.758,14.758,0,0,0,7.239.933,14.988,14.988,0,0,0,3.881-1.019l.031-.013.094-.039a14.808,14.808,0,0,0,8.014-8.119,15.072,15.072,0,0,0,.506-1.448,14.906,14.906,0,1,0-29.045-1.895.885.885,0,0,1-.739,1.01.886.886,0,0,1-1.011-.74,16.676,16.676,0,1,1,32.495,2.119,17.037,17.037,0,0,1-.565,1.62,16.7,16.7,0,0,1-20.127,9.725" transform="translate(-1585.064 -560.074)" fill="#fff"/>
            </g>
          </g>
        </g>
      </g>
    </g>
  </g>
</svg>
