<?xml version="1.0" encoding="UTF-8"?><svg id="Layer_1" xmlns="http://www.w3.org/2000/svg" xmlns:xlink="http://www.w3.org/1999/xlink" viewBox="0 0 346.69 210.93"><defs><style>.cls-1{fill:url(#linear-gradient-4);}.cls-1,.cls-2,.cls-3,.cls-4,.cls-5,.cls-6{fill-rule:evenodd;}.cls-7{fill:url(#linear-gradient-6);}.cls-8{font-family:MontserratRoman-SemiBold, Montserrat;font-variation-settings:'wght' 600;}.cls-2{fill:url(#linear-gradient-2);}.cls-3{fill:url(#linear-gradient);}.cls-9{opacity:.4;}.cls-4{fill:url(#linear-gradient-5);}.cls-10{fill:#1b2b7c;font-size:68.29px;}.cls-11{fill:#1c2a39;}.cls-5{fill:#f2f2f2;opacity:.18;}.cls-12{font-family:MontserratRoman-Regular, Montserrat;font-variation-settings:'wght' 400;}.cls-6{fill:url(#linear-gradient-3);}</style><linearGradient id="linear-gradient" x1="162.03" y1="150.65" x2="184.91" y2="-2.76" gradientTransform="matrix(1, 0, 0, 1, 0, 0)" gradientUnits="userSpaceOnUse"><stop offset="0" stop-color="#114fee"/><stop offset="1" stop-color="#f98afe"/></linearGradient><linearGradient id="linear-gradient-2" x1="135.75" y1="142.26" x2="235.52" y2="-30.47" gradientTransform="matrix(1, 0, 0, 1, 0, 0)" gradientUnits="userSpaceOnUse"><stop offset="0" stop-color="#0131b9"/><stop offset="1" stop-color="#f98afe"/></linearGradient><linearGradient id="linear-gradient-3" x1="132.2" y1="78.02" x2="142.4" y2="9.59" xlink:href="#linear-gradient"/><linearGradient id="linear-gradient-4" x1="192.14" y1="73.77" x2="192.93" y2="141.99" gradientTransform="matrix(1, 0, 0, 1, 0, 0)" gradientUnits="userSpaceOnUse"><stop offset="0" stop-color="#0463ef"/><stop offset="1" stop-color="#27cbc0"/></linearGradient><linearGradient id="linear-gradient-5" x1="184.37" y1="66.87" x2="153.21" y2="155.6" gradientTransform="matrix(1, 0, 0, 1, 0, 0)" gradientUnits="userSpaceOnUse"><stop offset="0" stop-color="#0131b9"/><stop offset="1" stop-color="#27cbc0"/></linearGradient><linearGradient id="linear-gradient-6" x1="116.78" y1="71.17" x2="181.27" y2="6.68" gradientTransform="matrix(1, 0, 0, 1, 0, 0)" gradientUnits="userSpaceOnUse"><stop offset="0" stop-color="#114f6a"/><stop offset="1" stop-color="#f98afe"/></linearGradient></defs><text class="cls-10" transform="translate(0 193.24)"><tspan class="cls-12" x="0" y="0">Soft</tspan><tspan class="cls-8" x="128.86" y="0">Kernel</tspan></text><g><path class="cls-3" d="M231.83,19.23l-112.15,112.15v-33.42c3.32-.26,6.64-.75,9.93-1.57,11.41-2.86,21.07-8.51,28.38-17.75,5.66-7.17,9.88-15.23,13.15-23.77,.25-.64,.5-1.3,.75-1.94,.75-1.9,1.49-3.79,2.29-5.66,2.05-4.87,4.38-9.61,7.47-13.99,4.44-6.3,10.08-10.85,17.78-12.43,3.71-.76,7.45-1.34,11.22-1.61h21.18Z"/><path class="cls-2" d="M207.71,19.51c-2.77,.31-5.53,.77-8.28,1.34-7.71,1.58-13.35,6.13-17.78,12.43-3.09,4.38-5.42,9.12-7.47,13.99-.8,1.87-1.55,3.77-2.29,5.66-.25,.64-.5,1.3-.75,1.94-3.27,8.54-7.49,16.61-13.15,23.77-5.23,6.62-11.68,11.39-19.11,14.61l-19.2,38.39L231.83,19.51h-24.12Z"/><path class="cls-6" d="M162.24,19.23c-3.36,5.54-6.05,11.48-8.5,17.51-2.85,7.04-5.7,13.98-9.94,20.35-3.96,5.98-9.12,10.07-16.03,11.78-2.67,.66-5.36,1.16-8.09,1.5V19.23h42.56Z"/><polygon class="cls-1" points="153.48 105.26 179.6 131.38 231.83 131.38 179.6 79.14 153.48 105.26"/><polygon class="cls-4" points="179.36 131.38 179.36 79.14 153.25 105.26 179.36 131.38"/><g><path class="cls-5" d="M205.86,17.67c-3.77,.28-7.51,.85-11.22,1.61-7.71,1.58-13.35,6.13-17.78,12.43-3.09,4.38-5.42,9.12-7.47,13.99-.8,1.87-1.55,3.77-2.29,5.66-.25,.64-.5,1.3-.75,1.94-3.27,8.54-7.49,16.61-13.15,23.77-7.3,9.24-16.96,14.89-28.38,17.75-1.46,.36-2.93,.65-4.4,.9v.67c3.32-.26,6.64-.75,9.93-1.57,11.41-2.86,21.07-8.51,28.38-17.75,5.66-7.17,9.88-15.23,13.15-23.77,.25-.64,.5-1.3,.75-1.94,.75-1.9,1.49-3.79,2.29-5.66,2.05-4.87,4.38-9.61,7.47-13.99,4.44-6.3,10.08-10.85,17.78-12.43,3.71-.76,7.45-1.34,11.22-1.61h-5.53Z"/><g class="cls-9"><path class="cls-11" d="M218.29,19.1c-.68,.03-1.36,.07-2.04,.13-3.79,.28-7.56,.85-11.29,1.61-7.71,1.58-13.35,6.13-17.78,12.43-4.68,6.64-7.63,14.1-10.51,21.6-3.27,8.54-7.49,16.61-13.15,23.77-7.3,9.24-16.96,14.89-28.38,17.75-5.11,1.27-10.27,1.75-15.45,1.84-1.6,.03-3.21,.02-4.83-.02,1.61-.04,3.22-.12,4.83-.26,3.32-.26,6.64-.75,9.93-1.57,11.41-2.86,21.07-8.51,28.38-17.75,5.66-7.17,9.88-15.23,13.15-23.77,.25-.64,.5-1.3,.75-1.94,.75-1.9,1.49-3.79,2.29-5.66,2.05-4.87,4.38-9.61,7.47-13.99,4.44-6.3,10.08-10.85,17.78-12.43,3.71-.76,7.45-1.34,11.22-1.61,1.35-.1,2.71-.17,4.07-.18,1.09-.02,2.2,.12,3.35,.03,.06,0,.14,.02,.21,.03Z"/></g></g><path class="cls-7" d="M145.65,55.25c4.23-6.38,7.08-13.32,9.94-20.36,4.11-10.12,8.9-19.99,16.39-28.14,2.3-2.5,4.8-4.77,7.51-6.76-6.87,2.56-12.71,6.92-17.64,12.28-7.49,8.14-12.28,18.02-16.39,28.14-2.86,7.04-5.7,13.98-9.94,20.36-1.53,2.31-3.24,4.33-5.16,6.04,6.54-1.81,11.47-5.81,15.29-11.57Z"/></g></svg>