<svg xmlns="http://www.w3.org/2000/svg" xmlns:xlink="http://www.w3.org/1999/xlink" width="550" height="550" viewBox="0 0 550 550">
  <defs>
    <linearGradient id="linear-gradient" x1="0.5" x2="0.5" y2="1" gradientUnits="objectBoundingBox">
      <stop offset="0" stop-color="#9f6ae5"/>
      <stop offset="0.51" stop-color="#cfaef9"/>
      <stop offset="1" stop-color="#fff" stop-opacity="0"/>
    </linearGradient>
    <linearGradient id="linear-gradient-5" x1="0.5" x2="0.5" y2="1" gradientUnits="objectBoundingBox">
      <stop offset="0" stop-color="#179bd6"/>
      <stop offset="1" stop-color="#0e65bb"/>
    </linearGradient>
  </defs>
  <g id="way" transform="translate(0 -0.123)">
    <circle id="Ellipse_71" data-name="Ellipse 71" cx="235" cy="235" r="235" transform="translate(40 40.123)" fill="none" stroke="#dbdff3" stroke-width="80" opacity="0.5"/>
    <rect id="Rectangle_11035" data-name="Rectangle 11035" width="82" height="414" rx="10" transform="translate(359 87.623)" fill="url(#linear-gradient)"/>
    <rect id="Rectangle_11036" data-name="Rectangle 11036" width="82" height="325.5" rx="10" transform="translate(252.676 176.123)" fill="url(#linear-gradient)"/>
    <rect id="Rectangle_11037" data-name="Rectangle 11037" width="82" height="238" rx="10" transform="translate(146.352 263.623)" fill="url(#linear-gradient)"/>
    <rect id="Rectangle_11038" data-name="Rectangle 11038" width="82" height="152.766" rx="10" transform="translate(40.027 348.857)" fill="url(#linear-gradient)"/>
    <path id="Path_3699" data-name="Path 3699" d="M487.159,321.849c-3.286.185-6.338,2.788-8.936,4.628-.288.2-.846.7-1.414,1.158.862-1.514,1.715-3.074,2.577-4.588.587-1.028,1.183-2.011,1.77-3.038.847-.04,2.5-.729,4.551-.933,2.375-.226,3.57.466,5.324-1.762,1.637-2.108,1.875-5.2-1.411-5.012-2.768.169-4.931,2.485-6.776,4.733a50.1,50.1,0,0,0,4.453-9.785c7.485-6.072,8.807-19.36,5.707-27.8a4.262,4.262,0,0,0-1.406-2.118c-1.591-.987-3.666.409-4.555,2.024a12.869,12.869,0,0,0-1.212,7.617c.274,2.6,1.012,5.145,1.423,7.714a27.585,27.585,0,0,1,.227,6.358c-.035.055-.035.055-.026.1a35.659,35.659,0,0,1-3.572,10.118,28.138,28.138,0,0,0,.035-6.462,15.341,15.341,0,0,0-3.731-9.164,1.936,1.936,0,0,0-1.606-.84c-.792.075-1.291.847-1.553,1.615a11.119,11.119,0,0,0,.124,8.089c1.368,3.265,3.859,6,5.308,9.2l.136-.03c-1.066,1.891-2.152,3.691-3.284,5.5a23.079,23.079,0,0,0-1.432-7.759,6.338,6.338,0,0,0-2.266-3.025,3.026,3.026,0,0,0-3.563.008,3.108,3.108,0,0,0-1.011,1.926c-.4,2.317.895,4.6,2.135,6.612s2.41,4.132,3.742,6.123a5.649,5.649,0,0,0-.383.652c-1.876,3.2-3.743,6.453-5.519,9.683a38.836,38.836,0,0,0,.557-6.242,24,24,0,0,0-2.8-12.117,9.109,9.109,0,0,0-3.341-3.6,1.83,1.83,0,0,0-1.879-.118,1.741,1.741,0,0,0-.616.892c-.927,2.1-.546,4.531.205,6.7,1.206,3.395,3.271,6.368,4.957,9.564a21.253,21.253,0,0,1,2.392,6.035c-1.838,3.385-3.62,6.806-5.3,10.253a43.424,43.424,0,0,0,.356-12.036c-.284-3.309-1.448-6.95-4.431-8.444a3.124,3.124,0,0,0-1.408-.361c-1.512.041-2.546,1.639-2.753,3.108a9.573,9.573,0,0,0,1.291,5.559c.936,1.7,2.124,3.245,3.06,4.942a24.47,24.47,0,0,1,2.76,9.515c-1.273,2.694-2.492,5.424-3.665,8.144a32.472,32.472,0,0,0-.288-4.873,24,24,0,0,0-3.315-9.443,3.606,3.606,0,0,0-2.571-2.01,3,3,0,0,0-2.365,1.6,8.211,8.211,0,0,0-.806,7.292,16.774,16.774,0,0,0,2.692,4.119c1.094,1.331,2.133,2.626,3.227,3.957a10.228,10.228,0,0,1,1.852,3.3c-1.241,3.067-2.381,6.16-3.476,9.243a24.888,24.888,0,0,0-.077-4.112,15.377,15.377,0,0,0-3.256-8.506,4.015,4.015,0,0,0-2.63-1.618,3.035,3.035,0,0,0-2.847,2.891,6.231,6.231,0,0,0,1.508,4.136,14.756,14.756,0,0,0,2.887,3.034,11.115,11.115,0,0,1,2.233,1.987,9.556,9.556,0,0,1,1.352,3.411c.049.227.107.5.166.771-.8,2.451-1.6,4.947-2.345,7.433a15.8,15.8,0,0,0-3.732-7.407c-1.111-1.185-2.821-2.288-4.278-1.547a2.6,2.6,0,0,0-1.05,1.08c-.833,1.651.089,3.73,1.5,4.992s3.181,1.973,4.664,3.125c.857.67,1.413,1.927,2.133,2.626a75.39,75.39,0,0,0-2.241,12.11.919.919,0,0,0,1.817.273c.822-3.024,1.6-6.039,2.376-9.054,1.509.387,7.567.27,8.479.311,1.486.06,3.218-.5,3.772-1.9a3.044,3.044,0,0,0-1.628-3.589,6.027,6.027,0,0,0-4.231-.228,21.667,21.667,0,0,0-5.812,3.244c.812-3.07,1.661-6.2,2.619-9.249a14.445,14.445,0,0,1,2.771-.6c1.512-.041,3.021.347,4.523.261s3.15-.821,3.6-2.247c.531-1.728-1.089-3.515-2.86-3.8a7.174,7.174,0,0,0-5.025,1.6c-.451.335-1.165.773-1.813,1.292l.262-.768c.473-1.336.991-2.681,1.464-4.017,2,0,4.539-1.214,6.6-1.563,1.917-.365,3.955-.614,5.505-1.8s2.308-3.629.993-5.1c-1.185-1.311-3.323-1.088-4.971-.354a21.479,21.479,0,0,0-6.626,4.986c1.154-2.811,2.307-5.622,3.571-8.362,3.228-1.122,8.1.535,11.368-1.5,1.346-.812,2.938-2.91,1.821-4.568-.9-1.325-3.375-.888-4.676-.75a14.232,14.232,0,0,0-6.86,3.232c.476-1.1,1.007-2.163,1.539-3.226.655-1.375,1.355-2.759,2.009-4.134a24.248,24.248,0,0,1,5.545-.956c2.722-.159,5.671.3,7.243-2.555,1.44-2.588,1.362-7.365-2.631-6.268-2.242.625-5.4,2.728-7.827,5.148,1.384-2.623,2.768-5.246,4.162-7.824,2.047-.2,3.659-.882,6.726-.546,2.482.273,5.721,1.854,7.436-.556A3.646,3.646,0,0,0,487.159,321.849Z" fill="#ffda32"/>
    <path id="Path_3700" data-name="Path 3700" d="M56.368,252.741c-1.679,2.832-1.2,6.824-1.116,9.98a17.021,17.021,0,0,0,.2,1.846c-.8-1.539-1.594-3.143-2.393-4.682-.521-1.036-1.008-2.1-1.529-3.141.454-.74.812-2.468,1.765-4.307,1.128-2.129,2.365-2.71,1.509-5.4-.828-2.525-3.255-4.449-4.935-1.617-1.434,2.414-.69,5.462.194,8.252a45.907,45.907,0,0,0-5.683-9.1c-.869-9.589-11.2-18.1-19.931-20.239a4.012,4.012,0,0,0-2.562-.023c-1.7.761-1.727,3.257-.868,4.93a12.886,12.886,0,0,0,5.657,5.255c2.322,1.2,4.821,2.04,7.213,3.109a30.035,30.035,0,0,1,5.4,3.342l.095.1a34.552,34.552,0,0,1,6.423,8.6,29.752,29.752,0,0,0-5.355-3.636,15.2,15.2,0,0,0-9.718-1.981,2.083,2.083,0,0,0-1.608.864,2.115,2.115,0,0,0,.447,2.184,11.17,11.17,0,0,0,6.772,4.407c3.49.68,7.123.15,10.618.7a.1.1,0,0,0,0-.131q1.424,2.859,2.746,5.812a24.382,24.382,0,0,0-7.245-3.143,6.329,6.329,0,0,0-3.752.2,2.844,2.844,0,0,0-.934,4.928c1.715,1.637,4.3,1.825,6.7,1.941,2.362.083,4.785.3,7.184.283.09.233.246.469.336.7,1.588,3.34,3.275,6.651,4.962,9.962a40.034,40.034,0,0,0-4.883-3.948,23.816,23.816,0,0,0-11.635-4.38,9.008,9.008,0,0,0-4.857.784,1.768,1.768,0,0,0-1.139,1.5,2.016,2.016,0,0,0,.358,1c1.212,1.915,3.473,2.979,5.653,3.547,3.515.911,7.131.84,10.7,1.194a20.711,20.711,0,0,1,6.356,1.371c1.782,3.413,3.632,6.762,5.547,10.114a42.786,42.786,0,0,0-9.832-7.011c-2.932-1.58-6.571-2.692-9.457-1.019a3.763,3.763,0,0,0-1.085.948c-.835,1.285-.078,3.052,1.07,4.012A9.085,9.085,0,0,0,49.1,282.84c1.932.166,3.874.07,5.84.2a23.735,23.735,0,0,1,9.417,3.021c1.516,2.582,3.1,5.1,4.719,7.588a29.706,29.706,0,0,0-4.214-2.479A23.283,23.283,0,0,0,55.2,288.7c-1.116-.039-2.435.112-3.093,1.042a3.141,3.141,0,0,0,0,2.858,8.126,8.126,0,0,0,5.611,4.728,16.353,16.353,0,0,0,4.892.072c1.682-.172,3.395-.309,5.076-.481a10.388,10.388,0,0,1,3.767.3c1.84,2.725,3.779,5.42,5.755,8.018a23.974,23.974,0,0,0-3.467-2.223,15.516,15.516,0,0,0-8.894-2.05,3.88,3.88,0,0,0-2.806,1.282,3.086,3.086,0,0,0,.808,4,6.375,6.375,0,0,0,4.3,1.07,14.812,14.812,0,0,0,4.133-.743,14.427,14.427,0,0,1,2.886-.787,8.6,8.6,0,0,1,3.585.782c.226.107.486.181.712.288,1.569,2.025,3.17,4.085,4.9,6.083a15.556,15.556,0,0,0-8.242-1.009c-1.618.239-3.489,1.094-3.646,2.7a2.669,2.669,0,0,0,.308,1.489c.893,1.64,3.18,1.983,4.971,1.52s3.406-1.524,5.17-2.153a30.047,30.047,0,0,1,3.395-.309,77.359,77.359,0,0,0,8.822,8.586.91.91,0,0,0,1.231-1.337c-2.051-2.338-4.133-4.71-6.218-7.016,1.156-1.077,4.425-6.088,4.978-6.857.9-1.217,1.387-2.941.512-4.154a3.122,3.122,0,0,0-3.918-.662,5.859,5.859,0,0,0-2.522,3.427,21.626,21.626,0,0,0-.568,6.616c-2.114-2.406-4.194-4.844-6.206-7.344a11.75,11.75,0,0,1,1.048-2.625c.8-1.253,1.957-2.33,2.726-3.617s1.064-3.083.12-4.233c-1.165-1.387-3.51-1.042-4.741.3a7.076,7.076,0,0,0-1.463,5.04c.013.559.016,1.381.05,2.236-.156-.235-.314-.4-.47-.641-.878-1.147-1.691-2.292-2.535-3.471,1.112-1.67,1.542-4.48,2.332-6.358.754-1.78,1.676-3.653,1.548-5.563-.094-1.941-1.729-3.969-3.678-3.676-1.75.235-2.739,2.172-3.1,3.9a20.974,20.974,0,0,0,.423,8.293c-1.715-2.524-3.365-5.045-4.981-7.6.874-3.288,4.93-6.431,5.07-10.3.057-1.575-.74-4.066-2.777-4.071-1.577.011-2.613,2.307-3.215,3.5a14.15,14.15,0,0,0-1.158,7.482c-.621-1.007-1.241-2.014-1.859-3.086-.774-1.308-1.58-2.65-2.32-3.99a24.169,24.169,0,0,1,2.287-5.111c1.4-2.316,3.384-4.546,1.945-7.454-1.349-2.675-5.363-5.213-6.655-1.283-.737,2.208-.743,6.018-.043,9.36-1.417-2.611-2.8-5.189-4.185-7.832.985-1.805,1.312-3.568,3.3-5.864,1.612-1.882,4.733-3.711,3.683-6.474C61.754,250.07,58.014,249.94,56.368,252.741Z" fill="#fff" opacity="0.65"/>
    <path id="Path_3701" data-name="Path 3701" d="M83.154,308.718c4.309,7.982,11.711,22.865,42.31,31.462,0,0,.034-28.633-29.3-53.9a150.281,150.281,0,0,0-19.3-13.655S76.01,293.7,83.154,308.718Z" fill="#9f6ae5"/>
    <path id="Path_3702" data-name="Path 3702" d="M94.256,307.915c6.148,10.011,19.785,19.442,19.785,19.442s-10.892-9.715-17.9-20.462A159.169,159.169,0,0,1,85.6,288.48,81.633,81.633,0,0,0,94.256,307.915Z" fill="#fff"/>
    <path id="Path_3703" data-name="Path 3703" d="M87.885,350.415c-10.9-2.5-31.014-6.421-51.265-39.968,0,0,34.018-9.429,73.662,17.15a185.242,185.242,0,0,1,22.558,18.464S108.075,353.981,87.885,350.415Z" fill="#1b2b7c"/>
    <path id="Path_3704" data-name="Path 3704" d="M85.2,336.958c-13.915-4.025-29.594-17.138-29.594-17.138s15.118,9.759,30.189,14.569a196.235,196.235,0,0,0,25.34,6.482A100.632,100.632,0,0,1,85.2,336.958Z" fill="#fff"/>
    <path id="Path_3705" data-name="Path 3705" d="M448.586,373.362c-.924,7.781-2.142,22.087-23.989,38.715,0,0-9.124-22.989,6.412-52.6a129.76,129.76,0,0,1,11.166-17.1S449.553,359.03,448.586,373.362Z" fill="#1b2b7c"/>
    <path id="Path_3706" data-name="Path 3706" d="M439.414,376.244c-1.758,10-9.715,21.9-9.715,21.9s5.663-11.264,7.881-22.124a137.707,137.707,0,0,0,2.611-18.139A70.524,70.524,0,0,1,439.414,376.244Z" fill="#fff"/>
    <path id="Path_3707" data-name="Path 3707" d="M458.034,408.359c7.96-5.474,22.873-15.011,28.48-48.393,0,0-30.321,3.235-53.72,37.181a159.918,159.918,0,0,0-12.253,22S442.949,417.639,458.034,408.359Z" fill="#9f6ae5"/>
    <path id="Path_3708" data-name="Path 3708" d="M455.915,396.7c9.9-7.654,18.327-23.168,18.327-23.168s-9.043,12.642-19.621,21.294a169.585,169.585,0,0,1-18.3,13.258A86.9,86.9,0,0,0,455.915,396.7Z" fill="#fff"/>
    <g id="Group_3387" data-name="Group 3387" opacity="0.65">
      <path id="Path_3709" data-name="Path 3709" d="M465.737,270.885c-1.221-2.523-3.311-7.277-12.3-7.892,0,0-.2,10.3,8.3,17.015a30.037,30.037,0,0,0,5.615,3.349S467.75,275.708,465.737,270.885Z" fill="#fff"/>
      <path id="Path_3710" data-name="Path 3710" d="M462.451,272.072c-1.752-3.1-5.719-5.391-5.719-5.391a27.133,27.133,0,0,1,5.157,5.91,43.791,43.791,0,0,1,2.992,5.772A25.045,25.045,0,0,0,462.451,272.072Z" fill="#fff"/>
    </g>
    <path id="Path_3711" data-name="Path 3711" d="M516.54,237.885c1.221-2.523,3.311-7.277,12.3-7.892,0,0,.2,10.3-8.306,17.015a30,30,0,0,1-5.615,3.349S514.528,242.708,516.54,237.885Z" fill="#1b2b7c"/>
    <path id="Path_3712" data-name="Path 3712" d="M519.826,239.072c1.752-3.1,5.72-5.391,5.72-5.391a27.133,27.133,0,0,0-5.157,5.91,43.741,43.741,0,0,0-2.993,5.772A25.045,25.045,0,0,1,519.826,239.072Z" fill="#fff"/>
    <path id="Path_3713" data-name="Path 3713" d="M463.848,443.286a13.142,13.142,0,0,0,0-26.283H308.821c5.142,8.761,5.142,17.522,0,26.473H463.848Z" fill="#fdfdfd"/>
    <path id="Path_3714" data-name="Path 3714" d="M463.848,443.286a13.229,13.229,0,0,0,13.141-13.9,13.532,13.532,0,0,0-13.522-12.57H306.916a2.1,2.1,0,0,1,0-4.19H463.848a17.331,17.331,0,0,1,0,34.662H306.916a2.1,2.1,0,0,1,0-4.19H463.848Z" fill="#179bd6"/>
    <path id="Path_3715" data-name="Path 3715" d="M471.466,419.289l-12.57.19-23.616.191-47.041.19-47.042-.19-23.616-.191h-7.618c0-.19-.19-.19-.19-.381h7.808l23.616-.19,47.042-.19,47.041.19,23.616.19,12.189.191A.264.264,0,0,1,471.466,419.289Zm3.047,3.047-15.617-.381-23.616-.19-47.041-.191-47.042.191-23.616.19h-6.475c0,.191,0,.191.19.381h6.285l23.616.191,47.042.19,47.041-.19,23.616-.191Zm1.714,3.047L459.086,425l-23.616-.19-47.041-.19-47.041.19-23.616.19h-5.523v.381h5.523l23.616.191,47.041.19,47.041-.19,23.616-.191ZM310.154,441h7.808l23.616.191,47.041.19,47.042-.19L459.277,441l12.189-.19c.19,0,.19-.191.381-.191l-12.57-.19-23.616-.19-47.042-.191-47.041.191-23.616.19h-7.618A1.477,1.477,0,0,0,310.154,441Zm164.359-3.047h0l-15.427-.381-23.616-.19-47.041-.191-47.041.191-23.616.19h-6.285c0,.191,0,.191-.191.381h6.476l23.616.191,47.041.19,47.041-.19,23.616-.191Zm1.714-3.238-17.141-.38-23.616-.191-47.041-.19-47.041.19-23.616.191h-5.523v.38h5.523l23.616.191,47.041.19,47.041-.19,23.616-.191Zm.762-3.047h0l-17.9-.381-23.616-.19-47.041-.191-47.041.191-23.616.19h-5.143v.381h5.143l23.616.191,47.041.19,47.041-.19,23.616-.191Zm0-3.047h0l-17.9-.381-23.616-.19-47.041-.191-47.041.191-23.616.19h-5.143v.381h5.143l23.616.19,47.041.191,47.041-.191,23.616-.19Z" fill="#e1e3ef"/>
    <path id="Path_3716" data-name="Path 3716" d="M325.771,442.143l6.666-3.809,6.665,3.809V425H325.771Z" fill="#ff6570"/>
    <path id="Path_3717" data-name="Path 3717" d="M322.152,477.757a13.141,13.141,0,1,1,0-26.282H476.989c-5.142,8.761-5.142,17.522,0,26.473H322.152Z" fill="#fdfdfd"/>
    <path id="Path_3718" data-name="Path 3718" d="M322.152,477.757a13.229,13.229,0,0,1-13.141-13.9,13.532,13.532,0,0,1,13.522-12.569H479.084a2.1,2.1,0,0,0,0-4.19H322.152a17.331,17.331,0,0,0,0,34.662H479.084a2.1,2.1,0,0,0,0-4.19H322.152Z" fill="#179bd6"/>
    <path id="Path_3719" data-name="Path 3719" d="M314.725,453.57l12.188-.19,23.616-.191,47.042-.19,47.041.19,23.616.191h7.809c0,.19-.191.19-.191.381h-7.618l-23.616.19-47.041.19-47.042-.19-23.616-.19-12.569-.191C314.534,453.76,314.725,453.76,314.725,453.57Zm12.188,3.619,23.616.19,47.042.191,47.041-.191,23.616-.19h6.285c0-.191,0-.191.191-.381h-6.476l-23.616-.191-47.041-.19-47.042.19-23.616.191-15.426.19a.187.187,0,0,1-.191.191Zm0,3.047,23.616.19,47.042.191,47.041-.191,23.616-.19h5.523v-.381h-5.523l-23.616-.191-47.041-.19-47.042.19-23.616.191-17.14.19v.191Zm148.743,15.046h-7.618l-23.616-.191-47.042-.19-47.041.19-23.616.191-12.57.19c.191,0,.191.19.381.19l12.189.191,23.616.19,47.041.191,47.042-.191,23.616-.19h7.808C475.846,475.472,475.846,475.472,475.656,475.282Zm-148.743-2.667,23.616.191,47.042.19,47.041-.19,23.616-.191H474.7c0-.19,0-.19-.191-.381h-6.285l-23.616-.19-47.041-.191-47.042.191-23.616.19-15.617.191a.186.186,0,0,0,.191.19Zm0-3.047,23.616.19,47.042.191,47.041-.191,23.616-.19h5.523v-.381h-5.523L444.612,469l-47.041-.191L350.529,469l-23.616.19-17.14.19v.191Zm0-3.238,23.616.191,47.042.19,47.041-.19,23.616-.191h5.142v-.381h-5.142l-23.616-.19-47.041-.191-47.042.191-23.616.19-17.9.191v.19Zm0-3.047,23.616.19,47.042.191,47.041-.191,23.616-.19h5.142V462.9h-5.142l-23.616-.19-47.041-.191-47.042.191-23.616.19-17.9.191v.19Z" fill="#e1e3ef"/>
    <path id="Path_3720" data-name="Path 3720" d="M464.61,470.52l-6.857-3.809-6.665,3.809V453.57H464.61Z" fill="#a97eff"/>
    <path id="Path_3721" data-name="Path 3721" d="M463.848,512.419a13.141,13.141,0,1,0,0-26.282H308.821c5.142,8.761,5.142,17.522,0,26.473H463.848Z" fill="#fdfdfd"/>
    <path id="Path_3722" data-name="Path 3722" d="M463.848,512.42a13.229,13.229,0,0,0,13.141-13.9,13.532,13.532,0,0,0-13.522-12.57H306.916a2.1,2.1,0,0,1,0-4.19H463.848a17.331,17.331,0,0,1,0,34.662H306.916a2.1,2.1,0,0,1,0-4.19H463.848Z" fill="#179bd6"/>
    <path id="Path_3723" data-name="Path 3723" d="M471.466,488.423l-12.57.19-23.616.191-47.041.19L341.2,488.8l-23.616-.191h-7.618c0-.19-.19-.19-.19-.381h7.808l23.616-.19,47.042-.191,47.041.191,23.616.19,12.189.191A.264.264,0,0,1,471.466,488.423Zm3.047,3.047-15.617-.381-23.616-.19-47.041-.191L341.2,490.9l-23.616.19h-6.475c0,.19,0,.19.19.381h6.285l23.616.19,47.042.191,47.041-.191,23.616-.19Zm1.714,3.047-17.141-.381-23.616-.19-47.041-.191-47.041.191-23.616.19h-5.523v.381h5.523l23.616.191,47.041.19,47.041-.19,23.616-.191ZM310.154,510.134h7.808l23.616.191,47.041.19,47.042-.19,23.616-.191,12.189-.19c.19,0,.19-.191.381-.191l-12.57-.19-23.616-.191-47.042-.19-47.041.19-23.616.191h-7.618A1.477,1.477,0,0,0,310.154,510.134Zm164.359-3.047h0l-15.427-.381-23.616-.19-47.041-.191-47.041.191-23.616.19h-6.285c0,.19,0,.19-.191.381h6.476l23.616.19,47.041.191,47.041-.191,23.616-.19Zm1.714-3.238-17.141-.381-23.616-.19-47.041-.191-47.041.191-23.616.19h-5.523v.381h5.523l23.616.191,47.041.19,47.041-.19,23.616-.191Zm.762-3.047h0l-17.9-.381-23.616-.19-47.041-.191-47.041.191-23.616.19h-5.143v.381h5.143l23.616.19,47.041.191,47.041-.191,23.616-.19Zm0-3.047h0l-17.9-.381-23.616-.191-47.041-.19-47.041.19-23.616.191h-5.143v.381h5.143l23.616.19,47.041.191,47.041-.191,23.616-.19Z" fill="#e1e3ef"/>
    <path id="Path_3724" data-name="Path 3724" d="M339.293,511.277l6.666-3.809,6.856,3.809V494.136H339.293Z" fill="#f8b024"/>
    <path id="Path_3725" data-name="Path 3725" d="M215.669,89.315c1.228,10.236,11.465,52.82,3.276,52.82-10.646.409-42.993-3.685-44.222-3.685-7.779-.41-7.37-47.906-7.37-51.592C167.353,59.015,211.984,58.606,215.669,89.315Z" fill="#1b2b7c"/>
    <path id="Path_3726" data-name="Path 3726" d="M160.8,161.789l-.819,41.764-31.118,36.442,15.968-2.048L173.9,207.238l1.229-51.591Z" fill="#ffdede"/>
    <path id="Path_3727" data-name="Path 3727" d="M182.094,122.072c-16.379,2.866-19.654,20.063-23.339,43.4l23.748,2.047-.409-23.748" fill="#ff87e0"/>
    <path id="Path_3728" data-name="Path 3728" d="M126.818,368.154c-6.961,9.417-21.7,19.653-20.883,24.157S138.692,378.8,138.692,378.8l-1.638-11.055Z" fill="#646a89"/>
    <path id="Path_3729" data-name="Path 3729" d="M182.5,258.01c-2.866,9.827-51.591,8.6-51.182,13.1,1.638,18.425,5.323,82.71,7.37,100.726l-15.968.409C112.9,336.626,98.156,281.349,104.3,257.6c6.142-23.339,47.088-31.938,79.025-25.386C190.692,233.443,186.188,244.908,182.5,258.01Z" fill="#315074"/>
    <path id="Path_3730" data-name="Path 3730" d="M162.44,368.154c-6.961,9.417-21.7,19.653-20.882,24.157S174.314,378.8,174.314,378.8l-1.638-11.055Z" fill="#646a89"/>
    <path id="Path_3731" data-name="Path 3731" d="M214.031,264.152c-8.189,7.78-46.268,6.961-48.725,13.1,5.732,22.52,10.236,77.8,9.827,94.174l-15.969.41c-9.827-35.623-23.748-84.757-20.882-108.915,2.457-20.882,63.875-37.67,75.749-31.119C220.582,235.49,223.858,254.735,214.031,264.152Z" fill="#3d5d82"/>
    <path id="Path_3732" data-name="Path 3732" d="M224.267,189.632c-3.275-56.1-12.693-73.293-40.126-67.97-22.93,4.1-13.1,29.071-21.7,74.521L152.2,235.49c24.568-.818,15.969-1.637,38.9,2.867,15.559,5.322,36.032,27.433,34.394,4.094C225.5,242.451,225.086,202.325,224.267,189.632Z" fill="url(#linear-gradient-5)"/>
    <path id="Path_3733" data-name="Path 3733" d="M202.157,96.276c-1.228-7.78-4.5-10.236-12.693-6.142-5.323,2.457-14.741,4.5-18.835,2.047.409,10.646,5.323,27.024,14.331,27.024a17.609,17.609,0,0,1,0,6.552c.409,1.637,7.779,1.637,10.236-.41,0-2.457-1.638-6.551-1.228-8.6,5.323-.819,7.779-5.733,9.827-13.1C211.165,99.142,205.433,90.544,202.157,96.276Z" fill="#ffdede"/>
    <path id="Path_3734" data-name="Path 3734" d="M205.023,161.789l-1.228,41.355-30.71,36.441,15.969-2.047s27.024-28.253,29.071-30.3c2.457-2.047,1.229-51.591,1.229-51.591Z" fill="#ffdede"/>
    <path id="Path_3735" data-name="Path 3735" d="M200.11,121.662c16.378,2.866,23.339,19.654,22.52,43.4l-23.749,2.457.41-23.748" fill="#ff87e0"/>
    <path id="Path_3736" data-name="Path 3736" d="M200.11,235.491H115.762a2.047,2.047,0,1,0,0,4.094H200.11a1.934,1.934,0,0,0,2.047-2.047A2.193,2.193,0,0,0,200.11,235.491Z" fill="#fff"/>
    <path id="Path_3737" data-name="Path 3737" d="M185.779,174.891H120.266a6.823,6.823,0,0,0-6.551,6.961v53.639H192.74V181.852C192.33,177.758,189.464,174.891,185.779,174.891Z" fill="#fff"/>
    <path id="Path_3738" data-name="Path 3738" d="M25.394,349.512c-1.914,2.736-5.274,7.931-15.986,7,0,0,1.706-12.126,13-18.442a36.094,36.094,0,0,1,7.251-2.9S28.676,344.221,25.394,349.512Z" fill="#ffda32"/>
    <path id="Path_3739" data-name="Path 3739" d="M21.217,346.8c-2.13,3.226-6.716,6.18-6.716,6.18a39.642,39.642,0,0,0,6.109-6.536,52.414,52.414,0,0,0,3.663-5.943A26.873,26.873,0,0,1,21.217,346.8Z" fill="#fff"/>
    <path id="Path_3740" data-name="Path 3740" d="M84.026,229.512c1.915,2.736,5.274,7.931,15.987,7,0,0-1.706-12.126-13-18.442a36.093,36.093,0,0,0-7.251-2.9S80.745,224.221,84.026,229.512Z" fill="#9f6ae5"/>
    <path id="Path_3741" data-name="Path 3741" d="M88.2,226.8c2.13,3.226,6.716,6.18,6.716,6.18a39.642,39.642,0,0,1-6.109-6.536,52.416,52.416,0,0,1-3.664-5.943A26.873,26.873,0,0,0,88.2,226.8Z" fill="#fff"/>
    <path id="Path_3742" data-name="Path 3742" d="M44.5,487.851c5.79-10.211,14.229-19.535,22.833-27.444,5.856-5.383,11.914-10.664,18.056-15.722,3.75-3.089,7.746-5.239,11.722-7.889,2.386-1.591,4.026-4.616,6.528-5.917,1.594-.829,5.845,9.176,6.444,10.167a65.753,65.753,0,0,0,12.389,14.972c2.322,2.052,5.729,1.258,8.25-.083,6.021-3.2,10.618-9.089,15-14.139,7.949-9.161,15.224-18.64,22.556-28.278A107.157,107.157,0,0,1,184,396.462c1.99-1.673,4.1-3.127,6.222-.833.232.251,1.5,3.621,2.445,2.611,3.412-3.643,5.021-9.9,7.527-14.166a201.487,201.487,0,0,1,22.445-31.028c2.053-2.333,4.783-6.254,7.583-7.917,1.781-1.057,2.979,3.858,3.139,4.25,1,2.455,2.414,9.1,5.389,10.2,2.173.8,8.483-14.8,9.194-16.112,7.528-13.912,17.277-26.621,26.556-39.388,4.11-5.656,8.677-10.177,13.194-15.389,3.291-3.8,11.8,18.78,17.973,14.166,2.784-2.082,4.6-5.978,6.25-8.861,2.546-4.435,4.923-9.106,8.027-13.194,3.51-4.621,4.968,4.469,6.056,6.889,2.218,4.933,6.2-4.358,7.222-6.306,7.829-14.976,15.435-30.069,23.306-45.028,9.664-18.365,18.837-37.6,31.528-54.139,3.151-4.108,4.684,3.3,5.888,5.862,3.073,6.528,5.965,13.136,8.973,19.694.154.337,3.057,7.993,4.639,7.917.577-.028.873-.806,1.111-1.334.943-2.091,3.509-11.642,3.694-12.277,3.031-10.414,6.205-20.822,10.7-30.723a96.777,96.777,0,0,1,17.944-27" fill="none" stroke="#fff" stroke-linecap="round" stroke-linejoin="round" stroke-width="2" stroke-dasharray="2 4"/>
    <path id="Path_3743" data-name="Path 3743" d="M44.5,499.851c12.363-21.8,42.439-73.879,64.5-85.351,5.378-2.8-.973,65.507,21.722,53.435,9.591-5.1,50.861-59.826,56.778-53.435,5.246,5.665,32.673-51.4,42.722-57.371,1.887-1.12,19.333,13.336,21.59,14.167,1.688.622,24.615-83.211,34.4-94.5,3.29-3.8,13.287,42.669,19.457,38.055C312.3,309.888,316.563,269.5,321.5,263c3.711-4.888,3.206,46.67,11.722,30.379,17.27-33.039,32.011-97.2,54.778-126.879,4.067-5.3,14.876,61.41,19.556,61.185,2.308-.112,24.537-61.958,33.444-71.334" fill="none" stroke="#fff" stroke-linecap="round" stroke-linejoin="round" stroke-width="3" opacity="0.2"/>
    <path id="Path_3744" data-name="Path 3744" d="M499.862,76.41a3.354,3.354,0,1,1-3.354-3.343A3.364,3.364,0,0,1,499.862,76.41Z" fill="#fff" opacity="0.31"/>
    <path id="Path_3745" data-name="Path 3745" d="M493.155,65.768a14.029,14.029,0,0,1,14.027,13.985h4.58A18.6,18.6,0,0,0,493.155,61.2Z" fill="#c5d5ff" opacity="0.31"/>
    <path id="Path_3746" data-name="Path 3746" d="M493.155,53.862a25.966,25.966,0,0,1,25.968,25.89h5.234a31.177,31.177,0,0,0-31.2-31.109Z" fill="#c5d5ff" opacity="0.31"/>
    <path id="Path_3747" data-name="Path 3747" d="M493.155,42.12A37.729,37.729,0,0,1,530.9,79.753h5.643a43.375,43.375,0,0,0-43.388-43.26Z" fill="#c5d5ff" opacity="0.31"/>
    <path id="Path_3748" data-name="Path 3748" d="M261.256,127.264a1.5,1.5,0,0,1-1.5-1.5V118.9a1.5,1.5,0,0,1,1.5-1.5h3a17.924,17.924,0,0,1,1.8-4.281L263.929,111a1.5,1.5,0,0,1,0-2.125l4.869-4.853a1.5,1.5,0,0,1,2.118,0l2.131,2.124a18.033,18.033,0,0,1,4.293-1.794v-2.985a1.5,1.5,0,0,1,1.5-1.5h6.9a1.5,1.5,0,0,1,1.5,1.5v2.985a18.057,18.057,0,0,1,4.294,1.794l2.13-2.124a1.5,1.5,0,0,1,2.118,0l4.869,4.853a1.5,1.5,0,0,1,0,2.125l-2.125,2.118a17.924,17.924,0,0,1,1.8,4.281h3a1.5,1.5,0,0,1,1.5,1.5v6.867a1.5,1.5,0,0,1-1.5,1.5h-3a17.924,17.924,0,0,1-1.8,4.281l2.125,2.118a1.5,1.5,0,0,1,0,2.125l-4.869,4.854a1.5,1.5,0,0,1-2.118,0l-2.13-2.125a18.015,18.015,0,0,1-4.294,1.794V143.3a1.5,1.5,0,0,1-1.5,1.5h-6.9a1.5,1.5,0,0,1-1.5-1.5v-2.985a17.991,17.991,0,0,1-4.293-1.794l-2.131,2.125a1.5,1.5,0,0,1-2.118,0l-4.869-4.854a1.5,1.5,0,0,1,0-2.125l2.125-2.118a17.924,17.924,0,0,1-1.8-4.281Zm21.073,3.833a8.807,8.807,0,1,0-8.833-8.807A8.836,8.836,0,0,0,282.329,131.1Z" fill="#c5d5ff" opacity="0.31"/>
    <circle id="Ellipse_72" data-name="Ellipse 72" cx="11.5" cy="11.5" r="11.5" transform="translate(489.5 177.5)" fill="none" stroke="#9f6ae5" stroke-width="7" opacity="0.3"/>
    <circle id="Ellipse_73" data-name="Ellipse 73" cx="14.64" cy="14.64" r="14.64" transform="translate(63.005 67.123)" fill="none" stroke="#1b2b7c" stroke-width="10" opacity="0.2"/>
    <circle id="Ellipse_74" data-name="Ellipse 74" cx="7.5" cy="7.5" r="7.5" transform="translate(159.5 517.666)" fill="none" stroke="#1b2b7c" stroke-width="5" opacity="0.3"/>
    <path id="Path_3749" data-name="Path 3749" d="M45.287,523.065l29.73,15.045,25.722-40.691Z" fill="#c5d5ff" opacity="0.31"/>
    <path id="Path_3750" data-name="Path 3750" d="M100.739,497.419l-44,31.436v16.594L64.3,532.687Z" fill="#04659b" opacity="0.1"/>
    <path id="Path_3751" data-name="Path 3751" d="M100.739,497.419l-44,31.436v16.594L64.3,532.687Z" fill="#c5d5ff" opacity="0.1"/>
  </g>
</svg>
